<svg version="1.2" xmlns="http://www.w3.org/2000/svg" viewBox="0 0 1254 57" width="1254" height="57">
	<title>trainfinal</title>
	<style>
		.s0 { fill: #d84215 } 
		.s1 { fill: #ffa726 } 
		.s2 { fill: #fcc87b } 
		.s3 { fill: #000000 } 
		.s4 { fill: #ffffff } 
	</style>
	<g id="dsdsd">
		<path id="&lt;Path&gt;" class="s0" d="m2653.3-200.7c0 1.1 0.9 2.1 2.1 2.1h137.7c10.9 0 10.9-3 10.9-3 0-2.1-3.1-5.8-8-9.6-9-7.1-24.3-14.8-38.6-14.8h-102c-1.2 0-2.1 1-2.1 2.1v12.7z"/>
		<path id="&lt;Path&gt;" class="s0" d="m2653.3-200.7c0 1.1 0.9 2.1 2.1 2.1h137.7c10.9 0 10.9-3 10.9-3 0-2.1-3.1-5.8-8-9.6h-142.7z"/>
		<path id="&lt;Path&gt;" class="s1" d="m2793.1-199.7c8.9 0 9.9-2 9.9-2-0.1-1.3-35.1-8.5-44.8-8.5-9.7 0-103.9 0-103.9 0v9.5c0 0.6 0.5 1 1.1 1z"/>
		<path id="&lt;Path&gt;" class="s2" d="m2659.8-207.5h94.5v5.8h-94.5z"/>
		<path id="&lt;Path&gt;" class="s0" d="m2776.3-204.6h6.3v1.8h-6.3z"/>
		<path id="&lt;Path&gt;" class="s3" d="m2763.7-219.1h4.6v4.4h-4.6z"/>
		<path id="&lt;Path&gt;" class="s3" d="m2686.8-221h69.8v4.4h-69.8z"/>
		<path id="&lt;Path&gt;" class="s4" d="m2653.3-211.2c0 0 102.2 0 106 0 3.8 0 22.1 2.3 43.4 8.4l0.3 1.1c-25.2-6.8-40.6-8.5-45.2-8.5-4.6 0-104.5 0-104.5 0z"/>
	</g>
	<g id="&lt;Group&gt;">
		<path id="&lt;Path&gt;" class="s0" d="m181.8 47.4c0 1.3-1.1 2.4-2.5 2.4h-157c-12.4 0-12.4-3.3-12.4-3.3 0-2.5 3.5-6.7 9.2-11.1 10.3-8 27.6-16.8 43.9-16.8h116.3c1.4 0 2.5 1.1 2.5 2.4v14.4z"/>
		<path id="&lt;Path&gt;" class="s0" d="m181.8 47.4c0 1.3-1.1 2.4-2.5 2.4h-157c-12.4 0-12.4-3.3-12.4-3.3 0-2.5 3.5-6.7 9.2-11.1h162.7z"/>
		<path id="&lt;Path&gt;" class="s1" d="m22.3 48.6c-10.1 0-11.2-2.3-11.2-2.3 0-1.5 40-9.7 51-9.7 11.1 0 118.5 0 118.5 0v10.8c0 0.7-0.6 1.2-1.3 1.2z"/>
		<path id="&lt;Path&gt;" class="s2" d="m174.3 46.3h-107.7v-6.7h107.7z"/>
		<path id="&lt;Path&gt;" class="s0" d="m41.5 45.1h-7.2v-2.1h7.2z"/>
		<path id="&lt;Path&gt;" class="s3" d="m55.8 31.5h-5.2v-5h5.2z"/>
		<path id="&lt;Path&gt;" class="s3" d="m143.5 29.3h-79.6v-5h79.6z"/>
		<path id="&lt;Path&gt;" class="s4" d="m181.8 35.4c0 0-116.6 0-120.9 0-4.4 0-25.3 2.6-49.5 9.7l-0.3 1.2c28.7-7.8 46.3-9.7 51.5-9.7 5.3 0 119.2 0 119.2 0z"/>
	</g>
	<g id="&lt;Group&gt; copy 7">
		<path id="&lt;Path&gt;" class="s0" d="m181.8 47.4c0 1.3-1.1 2.4-2.5 2.4h-157c-12.4 0-12.4-3.3-12.4-3.3 0-2.5 3.5-6.7 9.2-11.1 10.3-8 27.6-16.8 43.9-16.8h116.3c1.4 0 2.5 1.1 2.5 2.4v14.4z"/>
		<path id="&lt;Path&gt;" class="s0" d="m181.8 47.4c0 1.3-1.1 2.4-2.5 2.4h-157c-12.4 0-12.4-3.3-12.4-3.3 0-2.5 3.5-6.7 9.2-11.1h162.7z"/>
		<path id="&lt;Path&gt;" class="s1" d="m22.3 48.6c-10.1 0-11.2-2.3-11.2-2.3 0-1.5 40-9.7 51-9.7 11.1 0 118.5 0 118.5 0v10.8c0 0.7-0.6 1.2-1.3 1.2z"/>
		<path id="&lt;Path&gt;" class="s2" d="m174.3 46.3h-107.7v-6.7h107.7z"/>
		<path id="&lt;Path&gt;" class="s0" d="m41.5 45.1h-7.2v-2.1h7.2z"/>
		<path id="&lt;Path&gt;" class="s3" d="m55.8 31.5h-5.2v-5h5.2z"/>
		<path id="&lt;Path&gt;" class="s3" d="m143.5 29.3h-79.6v-5h79.6z"/>
		<path id="&lt;Path&gt;" class="s4" d="m181.8 35.4c0 0-116.6 0-120.9 0-4.4 0-25.3 2.6-49.5 9.7l-0.3 1.2c28.7-7.8 46.3-9.7 51.5-9.7 5.3 0 119.2 0 119.2 0z"/>
	</g>
	<g id="&lt;Group&gt; copy">
		<path id="&lt;Path&gt;" class="s0" d="m477.8 18.6h-142.7c-1.1 0-1.9 0.8-1.9 1.9v27.5c0 1 0.8 1.8 1.9 1.8h142.7c1 0 1.8-0.8 1.8-1.8v-27.5c0-1.1-0.8-1.9-1.8-1.9z"/>
		<path id="&lt;Path&gt;" class="s1" d="m336 48.6c-0.9 0-1.6-0.7-1.6-1.6v-11.6h144v11.6c0 0.9-0.7 1.6-1.6 1.6z"/>
		<path id="&lt;Path&gt;" class="s3" d="m459.9 37.5c-1.4 0-2.6 1.2-2.6 2.7v8.4h5.3v-8.4c0-1.5-1.2-2.7-2.7-2.7z"/>
		<path id="&lt;Path&gt;" class="s3" d="m446.7 25.4h-15.4v6.4h15.4z"/>
		<path id="&lt;Path&gt;" class="s3" d="m426.4 25.4h-15.5v6.4h15.5z"/>
		<path id="&lt;Path&gt;" class="s3" d="m406 25.4h-15.4v6.4h15.4z"/>
		<path id="&lt;Path&gt;" class="s3" d="m385.7 25.4h-15.4v6.4h15.4z"/>
		<path id="&lt;Path&gt;" class="s3" d="m365.4 25.4h-15.4v6.4h15.4z"/>
		<path id="&lt;Path&gt;" class="s4" d="m446.7 38.8h-15.4v6.4h15.4z"/>
		<path id="&lt;Path&gt;" class="s4" d="m426.4 38.8h-15.5v6.4h15.5z"/>
		<path id="&lt;Path&gt;" class="s4" d="m406 38.8h-15.4v6.4h15.4z"/>
		<path id="&lt;Path&gt;" class="s4" d="m385.7 38.8h-15.4v6.4h15.4z"/>
		<path id="&lt;Path&gt;" class="s4" d="m365.4 38.8h-15.4v6.4h15.4z"/>
		<path id="&lt;Path&gt;" class="s4" d="m479.6 34.2h-146.4v1.2h146.4z"/>
		<g id="&lt;Group&gt;">
			<path id="&lt;Path&gt;" class="s0" d="m328.8 18.6h-142.7c-1.1 0-1.9 0.8-1.9 1.9v27.5c0 1 0.8 1.8 1.9 1.8h142.7c1 0 1.8-0.8 1.8-1.8v-27.5c0-1.1-0.8-1.9-1.8-1.9z"/>
			<path id="&lt;Path&gt;" class="s1" d="m187 48.6c-0.9 0-1.6-0.7-1.6-1.6v-11.6h144v11.6c0 0.9-0.7 1.6-1.6 1.6z"/>
			<path id="&lt;Path&gt;" class="s3" d="m310.9 37.5c-1.4 0-2.6 1.2-2.6 2.7v8.4h5.3v-8.4c0-1.5-1.2-2.7-2.7-2.7z"/>
			<path id="&lt;Path&gt;" class="s3" d="m297.7 25.4h-15.4v6.4h15.4z"/>
			<path id="&lt;Path&gt;" class="s3" d="m277.4 25.4h-15.5v6.4h15.5z"/>
			<path id="&lt;Path&gt;" class="s3" d="m257 25.4h-15.4v6.4h15.4z"/>
			<path id="&lt;Path&gt;" class="s3" d="m236.7 25.4h-15.4v6.4h15.4z"/>
			<path id="&lt;Path&gt;" class="s3" d="m216.4 25.4h-15.4v6.4h15.4z"/>
			<path id="&lt;Path&gt;" class="s4" d="m297.7 38.8h-15.4v6.4h15.4z"/>
			<path id="&lt;Path&gt;" class="s4" d="m277.4 38.8h-15.5v6.4h15.5z"/>
			<path id="&lt;Path&gt;" class="s4" d="m257 38.8h-15.4v6.4h15.4z"/>
			<path id="&lt;Path&gt;" class="s4" d="m236.7 38.8h-15.4v6.4h15.4z"/>
			<path id="&lt;Path&gt;" class="s4" d="m216.4 38.8h-15.4v6.4h15.4z"/>
			<path id="&lt;Path&gt;" class="s4" d="m330.6 34.2h-146.4v1.2h146.4z"/>
		</g>
	</g>
	<g id="&lt;Group&gt; copy 2">
		<path id="&lt;Path&gt;" class="s0" d="m626.8 18.6h-142.7c-1.1 0-1.9 0.8-1.9 1.9v27.5c0 1 0.8 1.8 1.9 1.8h142.7c1 0 1.8-0.8 1.8-1.8v-27.5c0-1.1-0.8-1.9-1.8-1.9z"/>
		<path id="&lt;Path&gt;" class="s1" d="m485 48.6c-0.9 0-1.6-0.7-1.6-1.6v-11.6h144v11.6c0 0.9-0.7 1.6-1.6 1.6z"/>
		<path id="&lt;Path&gt;" class="s3" d="m608.9 37.5c-1.4 0-2.6 1.2-2.6 2.7v8.4h5.3v-8.4c0-1.5-1.2-2.7-2.7-2.7z"/>
		<path id="&lt;Path&gt;" class="s3" d="m595.7 25.4h-15.4v6.4h15.4z"/>
		<path id="&lt;Path&gt;" class="s3" d="m575.4 25.4h-15.5v6.4h15.5z"/>
		<path id="&lt;Path&gt;" class="s3" d="m555 25.4h-15.4v6.4h15.4z"/>
		<path id="&lt;Path&gt;" class="s3" d="m534.7 25.4h-15.4v6.4h15.4z"/>
		<path id="&lt;Path&gt;" class="s3" d="m514.4 25.4h-15.4v6.4h15.4z"/>
		<path id="&lt;Path&gt;" class="s4" d="m595.7 38.8h-15.4v6.4h15.4z"/>
		<path id="&lt;Path&gt;" class="s4" d="m575.4 38.8h-15.5v6.4h15.5z"/>
		<path id="&lt;Path&gt;" class="s4" d="m555 38.8h-15.4v6.4h15.4z"/>
		<path id="&lt;Path&gt;" class="s4" d="m534.7 38.8h-15.4v6.4h15.4z"/>
		<path id="&lt;Path&gt;" class="s4" d="m514.4 38.8h-15.4v6.4h15.4z"/>
		<path id="&lt;Path&gt;" class="s4" d="m628.6 34.2h-146.4v1.2h146.4z"/>
	</g>
	<g id="&lt;Group&gt; copy 3">
		<path id="&lt;Path&gt;" class="s0" d="m775.8 18.6h-142.7c-1.1 0-1.9 0.8-1.9 1.9v27.5c0 1 0.8 1.8 1.9 1.8h142.7c1 0 1.8-0.8 1.8-1.8v-27.5c0-1.1-0.8-1.9-1.8-1.9z"/>
		<path id="&lt;Path&gt;" class="s1" d="m634 48.6c-0.9 0-1.6-0.7-1.6-1.6v-11.6h144v11.6c0 0.9-0.7 1.6-1.6 1.6z"/>
		<path id="&lt;Path&gt;" class="s3" d="m757.9 37.5c-1.4 0-2.6 1.2-2.6 2.7v8.4h5.3v-8.4c0-1.5-1.2-2.7-2.7-2.7z"/>
		<path id="&lt;Path&gt;" class="s3" d="m744.7 25.4h-15.4v6.4h15.4z"/>
		<path id="&lt;Path&gt;" class="s3" d="m724.4 25.4h-15.5v6.4h15.5z"/>
		<path id="&lt;Path&gt;" class="s3" d="m704 25.4h-15.4v6.4h15.4z"/>
		<path id="&lt;Path&gt;" class="s3" d="m683.7 25.4h-15.4v6.4h15.4z"/>
		<path id="&lt;Path&gt;" class="s3" d="m663.4 25.4h-15.4v6.4h15.4z"/>
		<path id="&lt;Path&gt;" class="s4" d="m744.7 38.8h-15.4v6.4h15.4z"/>
		<path id="&lt;Path&gt;" class="s4" d="m724.4 38.8h-15.5v6.4h15.5z"/>
		<path id="&lt;Path&gt;" class="s4" d="m704 38.8h-15.4v6.4h15.4z"/>
		<path id="&lt;Path&gt;" class="s4" d="m683.7 38.8h-15.4v6.4h15.4z"/>
		<path id="&lt;Path&gt;" class="s4" d="m663.4 38.8h-15.4v6.4h15.4z"/>
		<path id="&lt;Path&gt;" class="s4" d="m777.6 34.2h-146.4v1.2h146.4z"/>
	</g>
	<g id="&lt;Group&gt; copy 4">
		<path id="&lt;Path&gt;" class="s0" d="m924.8 18.6h-142.7c-1.1 0-1.9 0.8-1.9 1.9v27.5c0 1 0.8 1.8 1.9 1.8h142.7c1 0 1.8-0.8 1.8-1.8v-27.5c0-1.1-0.8-1.9-1.8-1.9z"/>
		<path id="&lt;Path&gt;" class="s1" d="m783 48.6c-0.9 0-1.6-0.7-1.6-1.6v-11.6h144v11.6c0 0.9-0.7 1.6-1.6 1.6z"/>
		<path id="&lt;Path&gt;" class="s3" d="m906.9 37.5c-1.4 0-2.6 1.2-2.6 2.7v8.4h5.3v-8.4c0-1.5-1.2-2.7-2.7-2.7z"/>
		<path id="&lt;Path&gt;" class="s3" d="m893.7 25.4h-15.4v6.4h15.4z"/>
		<path id="&lt;Path&gt;" class="s3" d="m873.4 25.4h-15.5v6.4h15.5z"/>
		<path id="&lt;Path&gt;" class="s3" d="m853 25.4h-15.4v6.4h15.4z"/>
		<path id="&lt;Path&gt;" class="s3" d="m832.7 25.4h-15.4v6.4h15.4z"/>
		<path id="&lt;Path&gt;" class="s3" d="m812.4 25.4h-15.4v6.4h15.4z"/>
		<path id="&lt;Path&gt;" class="s4" d="m893.7 38.8h-15.4v6.4h15.4z"/>
		<path id="&lt;Path&gt;" class="s4" d="m873.4 38.8h-15.5v6.4h15.5z"/>
		<path id="&lt;Path&gt;" class="s4" d="m853 38.8h-15.4v6.4h15.4z"/>
		<path id="&lt;Path&gt;" class="s4" d="m832.7 38.8h-15.4v6.4h15.4z"/>
		<path id="&lt;Path&gt;" class="s4" d="m812.4 38.8h-15.4v6.4h15.4z"/>
		<path id="&lt;Path&gt;" class="s4" d="m926.6 34.2h-146.4v1.2h146.4z"/>
	</g>
	<g id="&lt;Group&gt; copy 5">
		<path id="&lt;Path&gt;" class="s0" d="m1073.8 18.6h-142.7c-1.1 0-1.9 0.8-1.9 1.9v27.5c0 1 0.8 1.8 1.9 1.8h142.7c1 0 1.8-0.8 1.8-1.8v-27.5c0-1.1-0.8-1.9-1.8-1.9z"/>
		<path id="&lt;Path&gt;" class="s1" d="m932 48.6c-0.9 0-1.6-0.7-1.6-1.6v-11.6h144v11.6c0 0.9-0.7 1.6-1.6 1.6z"/>
		<path id="&lt;Path&gt;" class="s3" d="m1055.9 37.5c-1.4 0-2.6 1.2-2.6 2.7v8.4h5.3v-8.4c0-1.5-1.2-2.7-2.7-2.7z"/>
		<path id="&lt;Path&gt;" class="s3" d="m1042.7 25.4h-15.4v6.4h15.4z"/>
		<path id="&lt;Path&gt;" class="s3" d="m1022.4 25.4h-15.5v6.4h15.5z"/>
		<path id="&lt;Path&gt;" class="s3" d="m1002 25.4h-15.4v6.4h15.4z"/>
		<path id="&lt;Path&gt;" class="s3" d="m981.7 25.4h-15.4v6.4h15.4z"/>
		<path id="&lt;Path&gt;" class="s3" d="m961.4 25.4h-15.4v6.4h15.4z"/>
		<path id="&lt;Path&gt;" class="s4" d="m1042.7 38.8h-15.4v6.4h15.4z"/>
		<path id="&lt;Path&gt;" class="s4" d="m1022.4 38.8h-15.5v6.4h15.5z"/>
		<path id="&lt;Path&gt;" class="s4" d="m1002 38.8h-15.4v6.4h15.4z"/>
		<path id="&lt;Path&gt;" class="s4" d="m981.7 38.8h-15.4v6.4h15.4z"/>
		<path id="&lt;Path&gt;" class="s4" d="m961.4 38.8h-15.4v6.4h15.4z"/>
		<path id="&lt;Path&gt;" class="s4" d="m1075.6 34.2h-146.4v1.2h146.4z"/>
	</g>
	<g id="&lt;Group&gt; copy 7">
		<path id="&lt;Path&gt;" class="s0" d="m1078.2 47.4c0 1.3 1.1 2.4 2.5 2.4h157c12.4 0 12.4-3.3 12.4-3.3 0-2.5-3.5-6.7-9.2-11.1-10.3-8-27.6-16.8-43.9-16.8h-116.3c-1.4 0-2.5 1.1-2.5 2.4v14.4z"/>
		<path id="&lt;Path&gt;" class="s0" d="m1078.2 47.4c0 1.3 1.1 2.4 2.5 2.4h157c12.4 0 12.4-3.3 12.4-3.3 0-2.5-3.5-6.7-9.2-11.1h-162.7z"/>
		<path id="&lt;Path&gt;" class="s1" d="m1237.7 48.6c10.1 0 11.2-2.3 11.2-2.3 0-1.5-40-9.7-51-9.7-11.1 0-118.5 0-118.5 0v10.8c0 0.7 0.6 1.2 1.3 1.2z"/>
		<path id="&lt;Path&gt;" class="s2" d="m1085.7 39.6h107.7v6.7h-107.7z"/>
		<path id="&lt;Path&gt;" class="s0" d="m1218.5 43h7.2v2.1h-7.2z"/>
		<path id="&lt;Path&gt;" class="s3" d="m1204.2 26.5h5.2v5h-5.2z"/>
		<path id="&lt;Path&gt;" class="s3" d="m1116.5 24.3h79.6v5h-79.6z"/>
		<path id="&lt;Path&gt;" class="s4" d="m1078.2 35.4c0 0 116.6 0 120.9 0 4.4 0 25.3 2.6 49.5 9.7l0.3 1.2c-28.7-7.8-46.3-9.7-51.5-9.7-5.3 0-119.2 0-119.2 0z"/>
	</g>
</svg>