<svg width="30" height="30" viewBox="0 0 30 30" fill="none" xmlns="http://www.w3.org/2000/svg">
<path d="M15.0001 0C6.71682 0 0 6.71564 0 15.0001C0 21.6276 4.29797 27.2502 10.258 29.2337C11.0076 29.3725 11.2829 28.9083 11.2829 28.512C11.2829 28.1544 11.2689 26.9727 11.2625 25.7193C7.0894 26.6267 6.20884 23.9495 6.20884 23.9495C5.52651 22.2157 4.54337 21.7548 4.54337 21.7548C3.18248 20.8237 4.64595 20.8428 4.64595 20.8428C6.15225 20.9487 6.9454 22.3886 6.9454 22.3886C8.28324 24.6818 10.4545 24.0188 11.3104 23.6356C11.445 22.666 11.8338 22.0044 12.2627 21.6298C8.9311 21.2504 5.42863 19.9642 5.42863 14.2167C5.42863 12.5791 6.01461 11.2409 6.97422 10.1905C6.81847 9.81259 6.30507 8.287 7.11951 6.22084C7.11951 6.22084 8.37912 5.81768 11.2456 7.75843C12.442 7.42597 13.7253 7.25939 15.0001 7.25374C16.2748 7.25939 17.559 7.42597 18.7578 7.75843C21.6209 5.81768 22.8787 6.22084 22.8787 6.22084C23.6952 8.287 23.1815 9.81259 23.0258 10.1905C23.9875 11.2409 24.5695 12.579 24.5695 14.2167C24.5695 19.9779 21.0604 21.2465 17.7203 21.6178C18.2583 22.0833 18.7377 22.9962 18.7377 24.3956C18.7377 26.4026 18.7203 28.0179 18.7203 28.512C18.7203 28.9112 18.9903 29.379 19.7507 29.2317C25.7074 27.246 30 21.6254 30 15.0001C30 6.71564 23.2841 0 15.0001 0Z" fill="#161614"/>
<path d="M5.61807 21.368C5.58513 21.4425 5.46772 21.4648 5.36102 21.4138C5.2522 21.3648 5.19102 21.2632 5.22631 21.1884C5.25867 21.1117 5.37607 21.0903 5.48466 21.1418C5.59371 21.1906 5.65583 21.2932 5.61807 21.368ZM6.35592 22.0263C6.2844 22.0927 6.14452 22.0619 6.04958 21.957C5.95147 21.8525 5.93311 21.7127 6.0057 21.6453C6.07946 21.5791 6.2151 21.61 6.31345 21.7147C6.41157 21.8205 6.43063 21.9594 6.35581 22.0265L6.35592 22.0263ZM6.86214 22.8687C6.77015 22.9325 6.6198 22.8727 6.52698 22.7393C6.4351 22.606 6.4351 22.446 6.52898 22.3819C6.62215 22.3177 6.77015 22.3754 6.86426 22.5077C6.95602 22.6434 6.95602 22.8034 6.86202 22.8688L6.86214 22.8687ZM7.71811 23.8443C7.63588 23.9349 7.46083 23.9106 7.3326 23.7869C7.20154 23.6659 7.16496 23.4943 7.24742 23.4036C7.3306 23.3128 7.50671 23.3383 7.63588 23.461C7.76611 23.5817 7.80588 23.7546 7.71823 23.8443H7.71811ZM8.82443 24.1737C8.78831 24.2911 8.61961 24.3445 8.44974 24.2946C8.28009 24.2432 8.16904 24.1056 8.20327 23.9869C8.23857 23.8686 8.40797 23.813 8.57914 23.8664C8.74855 23.9176 8.85984 24.0542 8.82455 24.1737H8.82443ZM10.0837 24.3133C10.0879 24.4371 9.9438 24.5397 9.76546 24.5419C9.58605 24.5458 9.441 24.4457 9.43911 24.324C9.43911 24.1991 9.57993 24.0974 9.75922 24.0945C9.93757 24.091 10.0837 24.1904 10.0837 24.3133ZM11.3206 24.2659C11.342 24.3866 11.218 24.5106 11.0409 24.5435C10.8668 24.5753 10.7057 24.5008 10.6834 24.3812C10.6618 24.2574 10.7881 24.1336 10.9619 24.1014C11.1393 24.0706 11.298 24.1432 11.3206 24.2659Z" fill="#161614"/>
</svg>
