<svg width="12" height="12" viewBox="0 0 12 12" fill="none" xmlns="http://www.w3.org/2000/svg">
<g clip-path="url(#clip0_257_12136)">
<path d="M11.1142 0.460876H0.885833C0.650896 0.460876 0.425581 0.548524 0.259455 0.704538C0.0933287 0.860552 0 1.07215 0 1.29279V10.8985C0 11.1192 0.0933287 11.3308 0.259455 11.4868C0.425581 11.6428 0.650896 11.7304 0.885833 11.7304H11.1142C11.3491 11.7304 11.5744 11.6428 11.7405 11.4868C11.9067 11.3308 12 11.1192 12 10.8985V1.29279C12 1.07215 11.9067 0.860552 11.7405 0.704538C11.5744 0.548524 11.3491 0.460876 11.1142 0.460876ZM3.57667 10.0611H1.7725V4.67914H3.57667V10.0611ZM2.67333 3.93331C2.46868 3.93223 2.26896 3.87424 2.09937 3.76666C1.92978 3.65908 1.79792 3.50673 1.72044 3.32883C1.64296 3.15094 1.62332 2.95549 1.66402 2.76712C1.70471 2.57876 1.8039 2.40595 1.94908 2.27048C2.09425 2.13501 2.27891 2.04297 2.47973 2.00596C2.68056 1.96896 2.88856 1.98865 3.07748 2.06256C3.2664 2.13646 3.42777 2.26127 3.54123 2.42122C3.6547 2.58118 3.71516 2.76911 3.715 2.96131C3.71693 3.08999 3.69126 3.21771 3.63951 3.33687C3.58776 3.45603 3.51099 3.56419 3.41379 3.65489C3.31658 3.74559 3.20092 3.81699 3.07371 3.86483C2.9465 3.91266 2.81033 3.93595 2.67333 3.93331ZM10.2267 10.0658H8.42333V7.12557C8.42333 6.25844 8.03083 5.99079 7.52417 5.99079C6.98917 5.99079 6.46417 6.36957 6.46417 7.14749V10.0658H4.66V4.68305H6.395V5.42888H6.41833C6.5925 5.09783 7.2025 4.53201 8.13333 4.53201C9.14 4.53201 10.2275 5.09314 10.2275 6.73662L10.2267 10.0658Z" fill="#0A66C2"/>
</g>
<defs>
<clipPath id="clip0_257_12136">
<rect width="12" height="11.2696" fill="white" transform="translate(0 0.460876)"/>
</clipPath>
</defs>
</svg>
