<svg width="15" height="16" viewBox="0 0 15 16" fill="none" xmlns="http://www.w3.org/2000/svg">
<path fill-rule="evenodd" clip-rule="evenodd" d="M3.42629 5.05562C3.52071 4.99825 3.6315 4.96521 3.75 4.96521H3.75045H11.2493H11.25C11.3687 4.96521 11.4796 4.99835 11.5741 5.05588C11.6311 5.09041 11.6831 5.13451 11.7278 5.18766C11.7868 5.25772 11.8308 5.34094 11.8547 5.4323C11.8691 5.48749 11.8758 5.54388 11.875 5.59989V10.6C11.875 10.9458 11.5952 11.2261 11.25 11.2261H3.75C3.40482 11.2261 3.125 10.9458 3.125 10.6V5.59995C3.12418 5.54385 3.13087 5.48737 3.14538 5.43211C3.16927 5.34082 3.21321 5.25767 3.27221 5.18766C3.31696 5.13438 3.36919 5.0902 3.42629 5.05562ZM4.375 6.76122V9.97391H10.625V6.76122L7.84669 8.61665C7.63675 8.75685 7.36325 8.75685 7.15331 8.61665L4.375 6.76122ZM9.18586 6.21739H5.81414L7.5 7.34325L9.18586 6.21739Z" fill="black" fill-opacity="0.85"/>
<path fill-rule="evenodd" clip-rule="evenodd" d="M1.25 3.4C1.25 2.53555 1.94956 1.83478 2.8125 1.83478H12.1875C13.0505 1.83478 13.75 2.53556 13.75 3.4V12.7913C13.75 13.6558 13.0505 14.3565 12.1875 14.3565H2.8125C1.94956 14.3565 1.25 13.6558 1.25 12.7913V3.4ZM2.8125 3.08695C2.63991 3.08695 2.5 3.22711 2.5 3.4V12.7913C2.5 12.9642 2.63991 13.1043 2.8125 13.1043H12.1875C12.3601 13.1043 12.5 12.9642 12.5 12.7913V3.4C12.5 3.2271 12.3601 3.08695 12.1875 3.08695H2.8125Z" fill="black" fill-opacity="0.85"/>
<path fill-rule="evenodd" clip-rule="evenodd" d="M2.5 3.4C2.5 3.22712 2.63991 3.08696 2.8125 3.08696H12.1875C12.3601 3.08696 12.5 3.22711 12.5 3.4V12.7913C12.5 12.9642 12.3601 13.1044 12.1875 13.1044H2.8125C2.63991 13.1044 2.5 12.9642 2.5 12.7913V3.4ZM3.42629 5.05563C3.52071 4.99826 3.6315 4.96522 3.75 4.96522H3.75045H11.2493H11.25C11.3687 4.96522 11.4796 4.99835 11.5741 5.05589C11.6311 5.09042 11.6831 5.13452 11.7278 5.18767C11.7868 5.25772 11.8308 5.34095 11.8547 5.43231C11.8691 5.4875 11.8758 5.54389 11.875 5.5999V10.6C11.875 10.9458 11.5952 11.2261 11.25 11.2261H3.75C3.40482 11.2261 3.125 10.9458 3.125 10.6V5.59996C3.12418 5.54386 3.13087 5.48738 3.14538 5.43211C3.16927 5.34083 3.21321 5.25768 3.27221 5.18767C3.31696 5.13439 3.36919 5.0902 3.42629 5.05563Z" fill="#91D5FF"/>
<path d="M5.81414 6.21739H9.18586L7.5 7.34326L5.81414 6.21739Z" fill="#91D5FF"/>
<path d="M4.375 9.97392V6.76123L7.15331 8.61666C7.36325 8.75686 7.63675 8.75686 7.84669 8.61666L10.625 6.76123V9.97392H4.375Z" fill="#91D5FF"/>
</svg>
