<svg width="100" height="22" viewBox="0 0 100 22" fill="none" xmlns="http://www.w3.org/2000/svg">
<path d="M0 1.92139H4.34298L8.27273 12.942C8.69421 14.1404 9.08264 15.4255 9.51653 16.909H9.54959L9.56198 1.92552H12.3636V20.533H8.0124L4.07851 9.50816C3.65702 8.30982 3.26859 7.02469 2.84711 5.54122H2.81405L2.79339 20.5288H0V1.92139Z" fill="#FC4832"/>
<path d="M30.938 11.219C30.938 4.94214 33.4215 1.55371 37.9132 1.55371C42.3925 1.55371 44.876 4.938 44.876 11.219C44.876 17.5083 42.3925 20.8926 37.9132 20.8926C33.4215 20.8926 30.938 17.5083 30.938 11.219ZM41.3884 11.219C41.3884 6.43387 40.157 4.3347 37.9132 4.3347C35.6694 4.3347 34.438 6.42974 34.438 11.219C34.438 16.0041 35.6694 18.1033 37.9132 18.1033C40.157 18.1033 41.3884 16.0041 41.3884 11.219Z" fill="#FC4832"/>
<path d="M57.1281 20.5288L53.905 13.1693H50.9298V20.5288H47.6942V1.92139H54.3926C58.7355 1.92139 60.2479 4.00816 60.2479 7.39246C60.2479 9.95444 59.2893 11.8842 57.0579 12.7148L60.7479 20.533H57.1281V20.5288ZM50.9256 10.5908H54.1488C56.2231 10.5908 56.9876 9.49577 56.9876 7.44618C56.9876 5.71477 56.3141 4.63213 54.2314 4.63213H50.9256V10.5908Z" fill="#FC4832"/>
<path d="M63.4752 1.92139H69.0951C74.2562 1.92139 76.4794 4.79329 76.4794 11.2313C76.4794 17.6569 74.2562 20.5288 69.0951 20.5288H63.4752V1.92139ZM69 17.7726C71.2686 17.7726 73.0331 16.9049 73.0331 11.2313C73.0331 5.54535 71.2686 4.67758 69 4.67758H66.7769V17.7726H69Z" fill="#FC4832"/>
<path d="M88.4546 16.2313H82.5289L81.4008 20.5288H78.0042L83.0868 1.92139H87.8967L92.9752 20.5288H89.5785L88.4546 16.2313ZM87.7356 13.4627L87.1446 11.2189C86.5537 8.95031 86.1199 7.17345 85.5248 4.63213H85.4546C84.8637 7.17345 84.4422 8.95031 83.8347 11.2189L83.2438 13.4627H87.7356Z" fill="#FC4832"/>
<path d="M17.2975 1.92139V4.57841H24.657V15.1321C24.657 17.2726 23.781 18.3677 21.7397 18.3677C19.7231 18.3677 18.8099 17.3635 18.8016 14.8883H15.6694C15.6694 14.9338 15.6653 14.9834 15.6653 15.0288C15.6653 18.6652 17.5207 20.8966 21.7521 20.8966C26.0041 20.8966 27.8388 18.6982 27.8388 14.8801V1.92139H17.2975Z" fill="#FC4832"/>
<path d="M96.0248 0L97.9049 3.25207L99.781 6.50413H96.0248H92.2727L94.1487 3.25207L96.0248 0Z" fill="#03A48D"/>
</svg>
