<svg width="101" height="209" viewBox="0 0 101 209" fill="none" xmlns="http://www.w3.org/2000/svg">
<path d="M96.64 144.948C96.9189 153.731 81.024 167.117 81.024 169.209C81.024 171.299 85.6251 171.718 85.6251 171.718C65.548 192.771 57.1826 186.218 57.1826 186.218C54.3939 180.919 54.2546 112.88 54.2546 112.88L50.6299 110.679C50.6291 110.568 50.6291 110.51 50.6291 110.51L50.4899 110.594L50.3506 110.51C50.3506 110.51 50.3506 110.568 50.3498 110.679L46.7251 112.88C46.7251 112.88 46.5859 180.919 43.7979 186.218C43.7979 186.218 35.4321 192.771 15.3547 171.718C15.3547 171.718 19.9559 171.299 19.9559 169.209C19.9559 166.517 4.08018 153.137 4.34007 144.948C4.34007 144.948 -4.30422 164.467 2.8064 174.367C2.8064 174.367 4.75824 175.761 8.52287 173.949C8.52287 173.949 20.1603 196.664 50.3343 208.686C50.3393 208.762 50.6404 208.762 50.645 208.686C80.8195 196.664 92.4575 173.949 92.4575 173.949C96.2219 175.761 98.1739 174.367 98.1739 174.367C105.284 164.467 96.64 144.948 96.64 144.948Z" fill="#040404"/>
<path d="M50.4899 107.024C44.715 107.024 40.0332 102.342 40.0332 96.5667C40.0332 90.7914 44.715 86.1104 50.4899 86.1104C56.2652 86.1104 60.947 90.7914 60.947 96.5667C60.947 102.342 56.2652 107.024 50.4899 107.024ZM50.4899 78.9995C40.788 78.9995 32.9225 86.8648 32.9225 96.5667C32.9225 106.269 40.788 114.134 50.4899 114.134C60.1926 114.134 68.0579 106.269 68.0579 96.5667C68.0579 86.8648 60.1926 78.9995 50.4899 78.9995Z" fill="#FFFF"/>
<path d="M81.2339 127.937C81.2339 129.931 79.6027 131.562 77.6088 131.562H23.3721C21.3781 131.562 19.7469 129.931 19.7469 127.937V126.962C19.7469 124.968 21.3781 123.337 23.3721 123.337H77.6088C79.6027 123.337 81.2339 124.968 81.2339 126.962V127.937Z" fill="#FFFF"/>
<path d="M47.067 19.5231C47.0663 19.4979 47.0662 19.4727 47.0661 19.4469L47.0882 14.9436C46.8444 15.0243 46.603 15.1143 46.3648 15.2141C45.1414 15.7244 44.0416 16.4578 43.0964 17.3938C42.1512 18.3298 41.4071 19.4224 40.8848 20.6407C40.3435 21.9031 40.0656 23.2442 40.059 24.6271L40.0137 33.8073C40.0071 35.1901 40.2717 36.5339 40.8007 37.8017C41.3111 39.0251 42.0447 40.1247 42.9806 41.0699C43.9166 42.0151 45.009 42.7594 46.2273 43.2818C46.4648 43.3836 46.7052 43.476 46.948 43.559L46.9701 39.0556C46.9703 39.0301 46.9708 39.005 46.9716 38.9795C45.2805 37.8892 44.1626 35.985 44.1732 33.8277L44.2181 24.6472C44.2287 22.49 45.3651 20.5967 47.067 19.5231ZM59.772 20.7332C59.2616 19.5098 58.5281 18.4101 57.5921 17.4649C56.6561 16.5197 55.5637 15.7755 54.3454 15.2531C54.1079 15.1513 53.8675 15.0589 53.6244 14.9756L53.6023 19.4789C53.6024 19.5048 53.6019 19.5299 53.6008 19.555C55.2919 20.6453 56.4101 22.5499 56.3992 24.7068L56.3543 33.8873C56.3437 36.0446 55.2072 37.9378 53.5057 39.0117C53.5064 39.0369 53.5065 39.0621 53.5063 39.0876L53.4842 43.591C53.728 43.5103 53.9694 43.4202 54.2079 43.3208C55.4313 42.8105 56.5308 42.0768 57.476 41.1408C58.4212 40.2048 59.1656 39.1125 59.6879 37.8942C60.2292 36.6318 60.5071 35.2906 60.5138 33.9077L60.5587 24.7273C60.5656 23.3447 60.3007 22.0006 59.772 20.7332Z" fill="black"/>
<path d="M46.8666 51.3415C46.8659 51.3163 46.8658 51.2911 46.8657 51.2653L46.8878 46.7619C46.644 46.8426 46.4026 46.9327 46.1644 47.0324C44.941 47.5428 43.8412 48.2761 42.8959 49.2121C41.9507 50.1481 41.2066 51.2407 40.6843 52.459C40.1431 53.7214 39.8651 55.0626 39.8585 56.4455L39.8133 65.6256C39.8067 67.0085 40.0712 68.3523 40.6002 69.6201C41.1107 70.8435 41.8442 71.9431 42.7802 72.8883C43.7162 73.8335 44.8086 74.5778 46.0269 75.1002C46.2643 75.202 46.5048 75.2943 46.7475 75.3773L46.7696 70.874C46.7698 70.8485 46.7704 70.8233 46.7712 70.7979C45.0801 69.7076 43.9622 67.8033 43.9728 65.6461L44.0177 56.4656C44.0282 54.3083 45.1647 52.4151 46.8666 51.3415ZM59.5716 52.5515C59.0612 51.3281 58.3276 50.2285 57.3916 49.2833C56.4557 48.3381 55.3633 47.5938 54.1449 47.0714C53.9075 46.9696 53.667 46.8772 53.424 46.7939L53.4019 51.2973C53.402 51.3231 53.4015 51.3483 53.4003 51.3734C55.0914 52.4637 56.2096 54.3683 56.1987 56.5252L56.1539 65.7057C56.1433 67.8629 55.0068 69.7562 53.3052 70.8301C53.306 70.8553 53.3061 70.8805 53.3058 70.906L53.2837 75.4094C53.5276 75.3286 53.769 75.2386 54.0075 75.1391C55.2308 74.6288 56.3303 73.8951 57.2756 72.9591C58.2208 72.0231 58.9652 70.9309 59.4875 69.7125C60.0288 68.4501 60.3067 67.109 60.3133 65.7261L60.3582 56.5456C60.3652 55.1631 60.1003 53.819 59.5716 52.5515Z" fill="#FFFF"/>
<path d="M50.1519 56.6898C49.0033 56.6842 48.0767 55.7485 48.0823 54.5998L48.1585 39.0615C48.1641 37.9129 49.0997 36.9863 50.2483 36.992C51.397 36.9976 52.3235 37.9333 52.3179 39.0819L52.2418 54.6203C52.2362 55.7689 51.3005 56.6954 50.1519 56.6898Z" fill="#FFFF"/>
<path d="M50.1519 85.6898C49.0033 85.6842 48.0767 84.7485 48.0823 83.5998L48.1585 68.0615C48.1641 66.9129 49.0997 65.9863 50.2483 65.992C51.397 65.9976 52.3235 66.9333 52.3179 68.0819L52.2418 83.6203C52.2362 84.7689 51.3005 85.6954 50.1519 85.6898Z" fill="#FFFF"/>
<path d="M50.4205 1.84486C51.5691 1.85049 52.4957 2.78619 52.4901 3.93481L52.4139 19.4732C52.4082 20.6219 51.4725 21.5485 50.3239 21.5428C49.1753 21.5372 48.249 20.6018 48.2547 19.4532L48.3305 3.91444C48.3361 2.76585 49.2719 1.83924 50.4205 1.84486Z" fill="#FFFF"/>
</svg>
