<svg width="57" height="57" viewBox="0 0 57 57" fill="none" xmlns="http://www.w3.org/2000/svg">
<path d="M25.0648 18.54C25.0641 18.5148 25.064 18.4896 25.0639 18.4638L25.086 13.9604C24.8422 14.0411 24.6008 14.1311 24.3626 14.2309C23.1392 14.7413 22.0394 15.4746 21.0942 16.4106C20.149 17.3466 19.4049 18.4392 18.8826 19.6575C18.3413 20.9199 18.0634 22.2611 18.0568 23.644L18.0115 32.8241C18.0049 34.207 18.2695 35.5508 18.7985 36.8186C19.3089 38.042 20.0425 39.1416 20.9785 40.0868C21.9144 41.032 23.0068 41.7763 24.2251 42.2987C24.4626 42.4005 24.703 42.4928 24.9458 42.5758L24.9679 38.0724C24.9681 38.0469 24.9686 38.0218 24.9694 37.9964C23.2783 36.906 22.1604 35.0018 22.171 32.8446L22.2159 23.6641C22.2265 21.5068 23.3629 19.6136 25.0648 18.54ZM37.7698 19.75C37.2594 18.5266 36.5259 17.427 35.5899 16.4818C34.6539 15.5366 33.5615 14.7923 32.3432 14.2699C32.1057 14.1681 31.8653 14.0757 31.6222 13.9924L31.6001 18.4958C31.6002 18.5216 31.5997 18.5467 31.5986 18.5719C33.2897 19.6622 34.4079 21.5668 34.397 23.7237L34.3521 32.9041C34.3415 35.0614 33.205 36.9547 31.5035 38.0286C31.5042 38.0538 31.5043 38.079 31.5041 38.1045L31.482 42.6079C31.7258 42.5271 31.9672 42.4371 32.2057 42.3376C33.4291 41.8273 34.5286 41.0936 35.4738 40.1576C36.419 39.2216 37.1634 38.1294 37.6857 36.911C38.227 35.6486 38.5049 34.3075 38.5116 32.9246L38.5565 23.7441C38.5634 22.3616 38.2985 21.0175 37.7698 19.75Z" fill="black"/>
<path d="M28.1496 55.7064C27.001 55.7008 26.0744 54.7651 26.08 53.6165L26.1561 38.0781C26.1618 36.9295 27.0974 36.0029 28.246 36.0086C29.3946 36.0142 30.3212 36.9499 30.3156 38.0986L30.2395 53.6369C30.2339 54.7855 29.2982 55.712 28.1496 55.7064Z" fill="#91D5FF"/>
<path d="M28.4183 0.861464C29.5669 0.867089 30.4935 1.80279 30.4879 2.95141L30.4117 18.4898C30.4061 19.6385 29.4703 20.5651 28.3217 20.5594C27.1731 20.5538 26.2468 19.6184 26.2525 18.4698L26.3284 2.93104C26.3339 1.78245 27.2697 0.855838 28.4183 0.861464Z" fill="#91D5FF"/>
</svg>
