<svg width="98" height="131" viewBox="0 0 98 131" fill="none" xmlns="http://www.w3.org/2000/svg">
<g filter="url(#filter0_b_271_19186)">
<path d="M95.2439 93.16H98.0004V93.2689H95.2439V93.16Z" fill="#DADBD8"/>
<path d="M34.7137 128.775H38.8967V41.8682H34.7137V128.775Z" fill="#33B1FF"/>
<path d="M40.1855 130.133H19.725L22.1074 25.4245H36.4031L40.1855 130.133Z" fill="#91D5FF"/>
<path d="M36.8314 37.2586L36.8192 36.9203L36.939 37.04C36.9041 37.1136 36.8684 37.1863 36.8314 37.2586Z" fill="#A7A9A8"/>
<path d="M30.9768 41.5893V39.0693C33.0208 38.7166 34.8628 37.7738 36.322 36.4234L36.8189 36.9203L36.8311 37.2587C35.6871 39.4995 33.5373 41.1417 30.9768 41.5893ZM27.6533 41.4861C24.9635 40.8408 22.7927 38.862 21.8778 36.288C23.4254 37.7747 25.4268 38.7932 27.6533 39.1146V41.4861Z" fill="#33B1FF"/>
<path d="M21.5218 51.1989C21.4482 51.1658 21.4099 51.1471 21.4099 51.1471L21.5371 48.9201C21.5493 48.9249 21.5615 48.9293 21.5736 48.9341L21.5218 51.1989Z" fill="#A7A9A8"/>
<path d="M37.3321 51.1802L37.2441 48.7494C37.2947 48.7294 37.3434 48.7094 37.3935 48.6885V51.1475C37.373 51.1584 37.3526 51.1693 37.3321 51.1802Z" fill="#747C7E"/>
<path d="M29.4019 57.7689C27.9788 57.7689 26.8253 56.6153 26.8253 55.1922V52.711C24.0514 52.286 22.0095 51.4207 21.5205 51.2008L21.5723 48.936C23.4849 49.654 25.5267 50.1091 27.6527 50.2567V55.6447C27.6527 56.3501 28.2249 56.9223 28.9303 56.9223H29.698C30.4039 56.9223 30.9761 56.3501 30.9761 55.6447V50.235C33.1756 50.0534 35.2824 49.5417 37.2454 48.7509L37.3334 51.1816C35.5497 52.1209 33.726 52.6134 31.9781 52.8229V55.1922C31.9781 56.6153 30.8246 57.7689 29.4019 57.7689Z" fill="#33B1FF"/>
<path d="M30.9777 21.8876H27.6543V1.27767C27.6543 0.572224 28.2265 3.43323e-05 28.9319 3.43323e-05H29.6997C30.4055 3.43323e-05 30.9777 0.572224 30.9777 1.27767V21.8876Z" fill="#91D5FF"/>
<path d="M26.4311 23.7663L24.0814 26.1161L8.01417 10.0489C7.51513 9.55029 7.51513 8.7412 8.01417 8.24216L8.55719 7.69914C9.05579 7.20011 9.86488 7.20011 10.3639 7.69914L26.4311 23.7663Z" fill="#91D5FF"/>
<path d="M34.9106 26.1161L32.5604 23.7663L48.6276 7.69914C49.1267 7.20011 49.9357 7.20011 50.4348 7.69914L50.9774 8.24216C51.4764 8.7412 51.4764 9.55029 50.9774 10.0489L34.9106 26.1161Z" fill="#91D5FF"/>
<path d="M27.6543 32.9208H30.9777V55.6436C30.9777 56.349 30.4055 56.9212 29.6997 56.9212H28.9319C28.2265 56.9212 27.6543 56.349 27.6543 55.6436V32.9208Z" fill="#91D5FF"/>
<path d="M32.1552 32.2559L34.5053 29.9061L50.5725 45.9733C51.0711 46.4724 51.0711 47.2815 50.5725 47.7805L50.0295 48.3231C49.5305 48.8221 48.7214 48.8221 48.2224 48.3231L32.1552 32.2559Z" fill="#91D5FF"/>
<path d="M33.6641 29.7794V26.4564H56.3864C57.0919 26.4564 57.6641 27.0281 57.6641 27.734V28.5017C57.6641 29.2072 57.0919 29.7794 56.3864 29.7794H33.6641Z" fill="#91D5FF"/>
<path d="M24.0004 26.4564V29.7794H1.27807C0.572189 29.7794 0 29.2072 0 28.5017V27.734C0 27.0281 0.572189 26.4564 1.27807 26.4564H24.0004Z" fill="#91D5FF"/>
<path d="M23.7368 28.9738L26.0865 31.3235L10.0193 47.3907C9.52027 47.8898 8.71119 47.8898 8.21215 47.3907L7.66957 46.8477C7.17053 46.3487 7.17053 45.5396 7.66957 45.041L23.7368 28.9738Z" fill="#91D5FF"/>
<path d="M29.1727 45.3282C19.9849 45.3282 12.5364 37.8796 12.5364 28.6918C12.5364 19.5036 19.9849 12.055 29.1727 12.055C38.361 12.055 45.8095 19.5036 45.8095 28.6918C45.8095 37.8796 38.361 45.3282 29.1727 45.3282ZM29.1727 7.07555C17.2346 7.07555 7.55688 16.7532 7.55688 28.6918C7.55688 40.63 17.2346 50.3077 29.1727 50.3077C41.1109 50.3077 50.789 40.63 50.789 28.6918C50.789 16.7532 41.1109 7.07555 29.1727 7.07555Z" fill="#91D5FF"/>
<path d="M39.7005 28.6925C39.7005 34.5076 34.9857 39.2224 29.1701 39.2224C23.3546 39.2224 18.6403 34.5076 18.6403 28.6925C18.6403 22.8769 23.3546 18.1621 29.1701 18.1621C34.9857 18.1621 39.7005 22.8769 39.7005 28.6925Z" fill="#91D5FF"/>
<path d="M29.1716 33.5336C26.1809 33.5336 23.7562 31.1094 23.7562 28.1182C23.7562 25.1275 26.1809 22.7028 29.1716 22.7028C32.1624 22.7028 34.587 25.1275 34.587 28.1182C34.587 31.1094 32.1624 33.5336 29.1716 33.5336Z" fill="#33B1FF"/>
</g>
<defs>
<filter id="filter0_b_271_19186" x="-4" y="-3.99997" width="106" height="138.133" filterUnits="userSpaceOnUse" color-interpolation-filters="sRGB">
<feFlood flood-opacity="0" result="BackgroundImageFix"/>
<feGaussianBlur in="BackgroundImageFix" stdDeviation="2"/>
<feComposite in2="SourceAlpha" operator="in" result="effect1_backgroundBlur_271_19186"/>
<feBlend mode="normal" in="SourceGraphic" in2="effect1_backgroundBlur_271_19186" result="shape"/>
</filter>
</defs>
</svg>
