<svg width="21" height="22" viewBox="0 0 21 22" fill="none" xmlns="http://www.w3.org/2000/svg">
<path fill-rule="evenodd" clip-rule="evenodd" d="M4.375 1.76794C4.375 1.2847 4.76675 0.892944 5.25 0.892944H15.75C16.2332 0.892944 16.625 1.2847 16.625 1.76794V3.95544H19.25C19.7332 3.95544 20.125 4.3472 20.125 4.83044C20.125 7.92849 18.3237 9.82543 16.1933 10.0565C15.3991 12.1042 13.5834 13.6327 11.3728 13.9549C11.3742 13.9757 11.375 13.9968 11.375 14.0179V14.8929H12.7061C13.0002 14.8929 13.2746 15.0407 13.4365 15.2862L15.1679 17.9112C15.3452 18.1799 15.3605 18.5243 15.2079 18.8077C15.0553 19.0912 14.7594 19.2679 14.4375 19.2679H6.5625C6.24555 19.2679 5.95337 19.0965 5.79872 18.8199C5.64407 18.5432 5.65113 18.2045 5.81717 17.9346L7.43156 15.3096C7.59079 15.0507 7.87295 14.8929 8.17689 14.8929H9.625V14.0179C9.625 13.9968 9.62576 13.9757 9.62724 13.9549C7.41661 13.6327 5.60088 12.1042 4.80666 10.0565C2.67627 9.82543 0.875 7.92849 0.875 4.83044C0.875 4.3472 1.26675 3.95544 1.75 3.95544H4.375V1.76794ZM6.125 7.73853C6.125 10.2641 8.10749 12.2679 10.5 12.2679C12.8925 12.2679 14.875 10.2641 14.875 7.73853V2.64294H6.125V7.73853ZM4.375 5.70544H2.68936C2.90136 7.06596 3.60812 7.83347 4.375 8.15273V5.70544ZM8.66599 16.6429L8.12786 17.5179H12.8122L12.235 16.6429H8.66599ZM16.625 8.15273C17.3919 7.83347 18.0986 7.06596 18.3106 5.70544H16.625V8.15273Z" fill="black" fill-opacity="0.85"/>
<path d="M10.5 12.2679C8.10749 12.2679 6.125 10.2641 6.125 7.73853V2.64294H14.875V7.73853C14.875 10.2641 12.8925 12.2679 10.5 12.2679Z" fill="#A3BDAE"/>
<path d="M8.12786 17.5179L8.66599 16.6429H12.235L12.8122 17.5179H8.12786Z" fill="#A3BDAE"/>
</svg>
