<svg width="10" height="11" viewBox="0 0 10 11" fill="none" xmlns="http://www.w3.org/2000/svg">
<path d="M5.51344 3.56409C5.51344 3.2984 5.29959 3.083 5.0358 3.083C4.77201 3.083 4.55815 3.2984 4.55815 3.56409C4.55815 3.82979 4.77201 4.04518 5.0358 4.04518C5.29959 4.04518 5.51344 3.82979 5.51344 3.56409Z" fill="#333333"/>
<path d="M4.3671 4.81493C4.3671 4.60237 4.53817 4.43006 4.74921 4.43006H5.13133C5.34236 4.43006 5.51344 4.60237 5.51344 4.81493V7.12417H5.80003C6.01107 7.12417 6.18215 7.29648 6.18215 7.50904C6.18215 7.7216 6.01107 7.89391 5.80003 7.89391H4.46262C4.25159 7.89391 4.08051 7.7216 4.08051 7.50904C4.08051 7.29648 4.25159 7.12417 4.46262 7.12417H4.74921V5.1998C4.53817 5.1998 4.3671 5.02749 4.3671 4.81493Z" fill="#333333"/>
<path fill-rule="evenodd" clip-rule="evenodd" d="M5.0358 1.35107C3.87521 1.35107 2.82387 1.82536 2.06363 2.59106C1.30341 3.35678 0.83252 4.41571 0.83252 5.58468C0.83252 6.75364 1.30341 7.81257 2.06363 8.57828C2.82386 9.34399 3.87521 9.81828 5.0358 9.81828C6.19639 9.81828 7.24773 9.34399 8.00796 8.57828C8.76819 7.81257 9.23908 6.75364 9.23908 5.58468C9.23908 4.41571 8.76819 3.35679 8.00796 2.59107C7.24773 1.82536 6.19639 1.35107 5.0358 1.35107ZM2.60402 3.13536C3.2268 2.5081 4.08604 2.12082 5.0358 2.12082C5.98556 2.12082 6.8448 2.5081 7.46757 3.13536C8.09033 3.76263 8.47485 4.62806 8.47485 5.58468C8.47485 6.54129 8.09033 7.40672 7.46757 8.03398C6.8448 8.66124 5.98556 9.04853 5.0358 9.04853C4.08604 9.04853 3.2268 8.66124 2.60403 8.03398C1.98126 7.40673 1.59675 6.54129 1.59675 5.58468C1.59675 4.62806 1.98126 3.76263 2.60402 3.13536Z" fill="#333333"/>
<path fill-rule="evenodd" clip-rule="evenodd" d="M5.03585 2.12085C4.08609 2.12085 3.22685 2.50813 2.60407 3.13539C1.98131 3.76266 1.5968 4.62809 1.5968 5.5847C1.5968 6.54132 1.98131 7.40676 2.60408 8.03401C3.22685 8.66127 4.08609 9.04856 5.03585 9.04856C5.98561 9.04856 6.84485 8.66127 7.46762 8.03401C8.09038 7.40675 8.4749 6.54132 8.4749 5.5847C8.4749 4.62809 8.09038 3.76266 7.46762 3.13539C6.84485 2.50813 5.98561 2.12085 5.03585 2.12085ZM5.51349 3.56412C5.51349 3.29843 5.29964 3.08303 5.03585 3.08303C4.77205 3.08303 4.5582 3.29843 4.5582 3.56412C4.5582 3.82982 4.77205 4.04521 5.03585 4.04521C5.29964 4.04521 5.51349 3.82982 5.51349 3.56412ZM4.36715 4.81496C4.36715 4.6024 4.53822 4.43009 4.74926 4.43009H5.13138C5.34241 4.43009 5.51349 4.6024 5.51349 4.81496V7.1242H5.80008C6.01112 7.1242 6.1822 7.29651 6.1822 7.50907C6.1822 7.72163 6.01112 7.89394 5.80008 7.89394H4.46267C4.25164 7.89394 4.08056 7.72163 4.08056 7.50907C4.08056 7.29651 4.25164 7.1242 4.46267 7.1242H4.74926V5.19983C4.53822 5.19983 4.36715 5.02752 4.36715 4.81496Z" fill="#A3BDAE"/>
</svg>
