<svg width="135" height="118" viewBox="0 0 135 118" fill="none" xmlns="http://www.w3.org/2000/svg">
<mask id="mask0_257_12339" style="mask-type:luminance" maskUnits="userSpaceOnUse" x="0" y="0" width="135" height="118">
<path d="M135 0.200684H0V117.62H135V0.200684Z" fill="white"/>
</mask>
<g mask="url(#mask0_257_12339)">
<path d="M121.721 61.3076C121.739 75.8371 116.115 89.8075 106.032 100.282C105.424 100.918 104.799 101.538 104.158 102.143C103.182 103.07 102.174 103.961 101.132 104.817C91.3866 112.834 79.2207 117.34 66.5965 117.606C66.176 117.615 65.7538 117.62 65.3299 117.62C55.2624 117.62 42.5992 112.25 31.1078 104.817C30.1571 104.202 29.2148 103.572 28.2809 102.929C27.8445 102.631 27.4101 102.329 26.9779 102.022C22.5457 98.8973 18.3387 95.4654 14.3879 91.7518C11.8012 89.3274 9.37554 86.7375 7.12636 83.998C-1.70342 73.1219 -3.65095 63.3222 8.93738 61.3076C10.4278 61.0699 11.8743 60.8158 13.2769 60.545C15.3085 60.1552 17.2529 59.7344 19.1099 59.2818C21.6114 58.6751 23.9616 58.0166 26.1604 57.307C26.9001 57.0693 27.6228 56.8269 28.3286 56.5795C38.763 52.9199 45.747 48.1475 50.5005 42.9693C51.3071 42.0931 52.0505 41.206 52.7305 40.3083C53.7715 38.9421 54.7173 37.5058 55.5609 36.0099C56.7247 33.9313 57.7029 31.7541 58.4827 29.5036L58.5254 29.3799C62.3079 18.4848 61.1571 8.37905 65.3299 4.99675C83.1675 -9.46297 105.374 11.129 115.798 35.4123C116.323 36.636 116.817 37.8669 117.28 39.1053C117.488 39.6585 117.689 40.2127 117.882 40.7679C118.39 42.2151 118.85 43.6659 119.264 45.1205C119.423 45.675 119.574 46.2291 119.718 46.7827C119.872 47.3803 120.02 47.9766 120.156 48.5724C121.17 52.9358 121.721 57.2389 121.721 61.3076Z" fill="#F2F2F2"/>
<path d="M66.5969 117.606C66.176 117.615 65.7538 117.62 65.33 117.62C55.2624 117.62 42.5992 112.25 31.1079 104.817C30.1571 104.202 29.2148 103.572 28.281 102.929L29.1 97.9521L53.8939 94.6648L66.3378 104.167L66.5969 117.606Z" fill="#2F2E41"/>
<path d="M67.7901 28.7381H64.257C64.1476 28.7381 64.0428 28.7815 63.9652 28.8588C63.8881 28.9361 63.8445 29.0409 63.8445 29.1501V32.6798C63.8445 32.7339 63.8554 32.7874 63.8759 32.8373C63.8969 32.8871 63.9271 32.9324 63.9656 32.9706C64.0038 33.0087 64.0495 33.0389 64.0994 33.0595C64.1493 33.08 64.2029 33.0905 64.257 33.0904H67.7901C67.8995 33.0904 68.0043 33.0472 68.0815 32.9703C68.159 32.8933 68.2026 32.7889 68.2031 32.6798V29.1501C68.2026 29.0409 68.159 28.9363 68.0819 28.8591C68.0043 28.7819 67.8995 28.7384 67.7901 28.7381Z" fill="white"/>
<path d="M67.7901 34.753H64.257C64.1476 34.7531 64.0428 34.7965 63.9652 34.8738C63.8881 34.951 63.8445 35.0558 63.8445 35.1651V38.6948C63.8445 38.7488 63.8554 38.8023 63.8759 38.8522C63.8969 38.9021 63.9271 38.9474 63.9656 38.9855C64.0038 39.0237 64.0495 39.0539 64.0994 39.0744C64.1493 39.095 64.2029 39.1055 64.257 39.1053H67.7901C67.8995 39.1054 68.0043 39.0622 68.0815 38.9852C68.159 38.9083 68.2026 38.8038 68.2031 38.6948V35.1651C68.2026 35.0559 68.159 34.9513 68.0819 34.874C68.0043 34.7968 67.8995 34.7533 67.7901 34.753Z" fill="#E6E6E6"/>
<path d="M67.7901 40.7679H64.257C64.1476 40.768 64.0428 40.8114 63.9652 40.8887C63.8881 40.966 63.8445 41.0708 63.8445 41.18V44.7081C63.8445 44.7624 63.855 44.8159 63.8755 44.866C63.8965 44.9161 63.9267 44.9617 63.9652 44.9997C64.0034 45.0382 64.0491 45.0683 64.099 45.0891C64.1493 45.1096 64.2029 45.1205 64.257 45.1201H67.7901C67.8995 45.1201 68.0047 45.0766 68.0819 44.9997C68.1594 44.9224 68.2031 44.8175 68.2031 44.7081V41.18C68.2026 41.0709 68.159 40.9662 68.0819 40.889C68.0043 40.8118 67.8995 40.7682 67.7901 40.7679Z" fill="#E6E6E6"/>
<path d="M68.1968 47.1221C68.1792 47.0272 68.1288 46.9415 68.0546 46.8793C67.9804 46.8174 67.8869 46.7832 67.7901 46.7827H64.257C64.1476 46.7827 64.0428 46.8262 63.9652 46.9035C63.8881 46.9808 63.8445 47.0857 63.8445 47.1952V50.7232C63.8445 50.7771 63.855 50.831 63.8755 50.8811C63.8965 50.9309 63.9267 50.9764 63.9652 51.0149C64.0034 51.0529 64.0491 51.0834 64.099 51.1039C64.1493 51.1248 64.2029 51.1352 64.257 51.1352H67.7901C67.8995 51.1352 68.0047 51.0917 68.0819 51.0144C68.1594 50.9371 68.2031 50.8323 68.2031 50.7232V47.1952C68.2035 47.1705 68.201 47.1463 68.1968 47.1221Z" fill="#E6E6E6"/>
<path d="M67.9507 52.8296C67.8999 52.8087 67.8454 52.7979 67.7901 52.7979H64.257C64.203 52.7979 64.1493 52.8083 64.099 52.8292C64.0491 52.8497 64.0034 52.8802 63.9652 52.9182C63.9267 52.9567 63.8965 53.0022 63.8755 53.0524C63.855 53.1021 63.8445 53.156 63.8445 53.2099V56.7383C63.8441 56.7922 63.8546 56.8461 63.8755 56.8963C63.8961 56.9464 63.9262 56.992 63.9648 57.03C64.003 57.0684 64.0487 57.0989 64.099 57.1194C64.1489 57.1399 64.203 57.1503 64.257 57.1503H67.7901C67.8995 57.1503 68.0048 57.1069 68.0819 57.0296C68.1595 56.9523 68.2031 56.8474 68.2031 56.7383V53.2099C68.2026 53.1288 68.1787 53.0494 68.1339 52.9822C68.089 52.9145 68.0253 52.8614 67.9507 52.8296Z" fill="#E6E6E6"/>
<path d="M75.2121 28.7381H71.6791C71.5697 28.7381 71.4644 28.7815 71.3873 28.8588C71.3097 28.9361 71.2665 29.0409 71.2661 29.1501V32.6798C71.2665 32.7339 71.277 32.7874 71.298 32.8373C71.3185 32.8871 71.3491 32.9324 71.3873 32.9706C71.4258 33.0087 71.4711 33.0389 71.521 33.0595C71.5713 33.08 71.625 33.0905 71.6791 33.0904H75.2121C75.3211 33.0904 75.426 33.0472 75.5035 32.9703C75.5807 32.8933 75.6243 32.7889 75.6247 32.6798V29.1501C75.6247 29.0409 75.5811 28.9363 75.5035 28.8591C75.4264 28.7819 75.3216 28.7384 75.2121 28.7381Z" fill="#E6E6E6"/>
<path d="M75.2121 34.753H71.6791C71.5697 34.7531 71.4644 34.7965 71.3873 34.8738C71.3097 34.951 71.2665 35.0558 71.2661 35.1651V38.6948C71.2665 38.7488 71.277 38.8023 71.298 38.8522C71.3185 38.9021 71.3491 38.9474 71.3873 38.9855C71.4258 39.0237 71.4711 39.0539 71.521 39.0744C71.5713 39.095 71.625 39.1055 71.6791 39.1053H75.2121C75.3211 39.1054 75.426 39.0622 75.5035 38.9852C75.5807 38.9083 75.6243 38.8038 75.6247 38.6948V35.1651C75.6247 35.0559 75.5811 34.9513 75.5035 34.874C75.4264 34.7968 75.3216 34.7533 75.2121 34.753Z" fill="#121516"/>
<path d="M75.2121 40.7679H71.6791C71.5697 40.768 71.4644 40.8114 71.3873 40.8887C71.3097 40.966 71.2665 41.0708 71.2661 41.18V44.7081C71.2661 44.7624 71.2766 44.8159 71.2976 44.866C71.3181 44.9161 71.3487 44.9617 71.3869 44.9997C71.4254 45.0382 71.4707 45.0683 71.521 45.0891C71.5709 45.1096 71.6246 45.1205 71.6791 45.1201H75.2121C75.3216 45.1201 75.4264 45.0766 75.5039 44.9997C75.5811 44.9224 75.6247 44.8175 75.6247 44.7081V41.18C75.6247 41.0709 75.5811 40.9662 75.5035 40.889C75.4264 40.8118 75.3216 40.7682 75.2121 40.7679Z" fill="#121516"/>
<path d="M75.2121 46.7827H71.6791C71.5923 46.7827 71.508 46.8103 71.438 46.8609C71.368 46.9114 71.3156 46.9829 71.2883 47.0648C71.2737 47.1066 71.2661 47.1509 71.2661 47.1952V50.7232C71.2661 50.7771 71.2766 50.831 71.2976 50.8811C71.3181 50.9309 71.3487 50.9764 71.3869 51.0149C71.4254 51.0529 71.4707 51.0834 71.521 51.1039C71.5709 51.1248 71.6246 51.1352 71.6791 51.1352H75.2121C75.3216 51.1352 75.4264 51.0917 75.5039 51.0144C75.5811 50.9371 75.6247 50.8323 75.6247 50.7232V47.1952C75.6247 47.0857 75.5811 46.9812 75.5035 46.9039C75.4264 46.8266 75.3216 46.7832 75.2121 46.7827Z" fill="#121516"/>
<path d="M75.2121 52.7979H71.6791C71.6246 52.7979 71.5709 52.8083 71.521 52.8292C71.4707 52.8497 71.4254 52.8802 71.3869 52.9182C71.3487 52.9567 71.3181 53.0022 71.2976 53.0524C71.2766 53.1021 71.2661 53.156 71.2661 53.2099V56.7383C71.2661 56.7922 71.2766 56.8461 71.2976 56.8959C71.3181 56.946 71.3487 56.9915 71.3869 57.03C71.4254 57.068 71.4707 57.0985 71.521 57.119C71.5709 57.1399 71.6246 57.1503 71.6791 57.1503H75.2121C75.3216 57.1503 75.4264 57.1069 75.5039 57.0296C75.5811 56.9523 75.6247 56.8474 75.6247 56.7383V53.2099C75.6247 53.1008 75.5811 52.9959 75.5039 52.9186C75.4264 52.8413 75.3216 52.7979 75.2121 52.7979Z" fill="#E6E6E6"/>
<path d="M82.6343 28.7381H79.1008C78.9914 28.7381 78.8865 28.7815 78.8094 28.8588C78.7318 28.9361 78.6882 29.0409 78.6882 29.1501V32.6798C78.6882 32.7339 78.6991 32.7874 78.7197 32.8373C78.7406 32.8871 78.7708 32.9324 78.8094 32.9706C78.8475 33.0087 78.8932 33.0389 78.9431 33.0595C78.993 33.08 79.0467 33.0905 79.1008 33.0904H82.6343C82.7433 33.0904 82.8481 33.0472 82.9252 32.9703C83.0028 32.8933 83.0464 32.7889 83.0468 32.6798V29.1501C83.0464 29.0409 83.0028 28.9363 82.9256 28.8591C82.8481 28.7819 82.7433 28.7384 82.6343 28.7381Z" fill="#121516"/>
<path d="M82.6343 34.753H79.1008C78.9914 34.7531 78.8865 34.7965 78.809 34.8738C78.7318 34.951 78.6882 35.0558 78.6882 35.1651V38.6948C78.6882 38.7488 78.6991 38.8023 78.7197 38.8522C78.7406 38.9021 78.7708 38.9474 78.8094 38.9855C78.8475 39.0237 78.8932 39.0539 78.9431 39.0744C78.993 39.095 79.0467 39.1055 79.1008 39.1053H82.6343C82.7433 39.1054 82.8481 39.0622 82.9252 38.9852C83.0028 38.9083 83.0464 38.8038 83.0468 38.6948V35.1651C83.0464 35.0559 83.0028 34.9513 82.9256 34.874C82.8481 34.7968 82.7433 34.7533 82.6343 34.753Z" fill="#121516"/>
<path d="M82.6343 40.7679H79.1008C78.9914 40.768 78.8865 40.8114 78.809 40.8887C78.7318 40.966 78.6882 41.0708 78.6882 41.18V44.7081C78.6882 44.7624 78.6987 44.8159 78.7197 44.866C78.7402 44.9161 78.7704 44.9617 78.809 44.9997C78.8471 45.0382 78.8928 45.0683 78.9427 45.0891C78.993 45.1096 79.0467 45.1205 79.1008 45.1201H82.6343C82.7437 45.1201 82.8485 45.0766 82.9256 44.9997C83.0032 44.9224 83.0468 44.8175 83.0468 44.7081V41.18C83.0464 41.0709 83.0028 40.9662 82.9256 40.889C82.8481 40.8118 82.7433 40.7682 82.6343 40.7679Z" fill="#E6E6E6"/>
<path d="M82.6343 46.7827H79.1008C78.9914 46.7827 78.8865 46.8262 78.8094 46.9035C78.7318 46.9808 78.6882 47.0857 78.6882 47.1952V50.7232C78.6882 50.7771 78.6987 50.831 78.7193 50.8811C78.7402 50.9309 78.7704 50.9764 78.809 51.0149C78.8471 51.0529 78.8928 51.0834 78.9427 51.1039C78.993 51.1248 79.0467 51.1352 79.1008 51.1352H82.6343C82.7437 51.1352 82.8485 51.0917 82.9256 51.0144C83.0032 50.9371 83.0468 50.8323 83.0468 50.7232V47.1952C83.0464 47.0857 83.0028 46.9812 82.9256 46.9039C82.8481 46.8266 82.7433 46.7832 82.6343 46.7827Z" fill="#121516"/>
<path d="M82.6343 52.7979H79.1008C79.0467 52.7979 78.993 52.8083 78.9427 52.8292C78.8928 52.8497 78.8471 52.8802 78.809 52.9182C78.7704 52.9567 78.7402 53.0022 78.7197 53.0524C78.6987 53.1021 78.6882 53.156 78.6882 53.2099V56.7383C78.6882 56.7922 78.6987 56.8461 78.7193 56.8959C78.7402 56.946 78.7704 56.9915 78.809 57.03C78.8471 57.068 78.8928 57.0985 78.9427 57.119C78.993 57.1399 79.0467 57.1503 79.1008 57.1503H82.6343C82.7437 57.1503 82.8485 57.1069 82.9256 57.0296C83.0032 56.9523 83.0468 56.8474 83.0468 56.7383V53.2099C83.0468 53.1008 83.0032 52.9959 82.9256 52.9186C82.8485 52.8413 82.7437 52.7979 82.6343 52.7979Z" fill="#121516"/>
<path d="M90.056 28.7381H86.5229C86.4135 28.7381 86.3087 28.7815 86.2311 28.8588C86.1535 28.9361 86.1104 29.0409 86.1104 29.1501V32.6798C86.1104 32.7339 86.1208 32.7874 86.1418 32.8373C86.1623 32.8871 86.1929 32.9324 86.2311 32.9706C86.2697 33.0087 86.3149 33.0389 86.3653 33.0595C86.4151 33.08 86.4688 33.0905 86.5229 33.0904H90.056C90.1654 33.0904 90.2698 33.0472 90.3473 32.9703C90.4245 32.8933 90.4685 32.7889 90.4689 32.6798V29.1501C90.4685 29.0409 90.4249 28.9363 90.3473 28.8591C90.2702 28.7819 90.1654 28.7384 90.056 28.7381Z" fill="#121516"/>
<path d="M90.056 34.753H86.5229C86.4135 34.753 86.3087 34.7965 86.2311 34.8738C86.1535 34.951 86.1104 35.0558 86.1104 35.1651V38.6948C86.1104 38.7488 86.1208 38.8023 86.1418 38.8522C86.1623 38.9021 86.1929 38.9474 86.2311 38.9855C86.2697 39.0237 86.3149 39.0539 86.3653 39.0744C86.4151 39.095 86.4688 39.1055 86.5229 39.1053H90.056C90.1654 39.1054 90.2698 39.0622 90.3473 38.9852C90.4245 38.9083 90.4685 38.8038 90.4689 38.6948V35.1651C90.4685 35.0559 90.4249 34.9513 90.3473 34.874C90.2702 34.7968 90.1654 34.7533 90.056 34.753Z" fill="white"/>
<path d="M90.056 40.7679H86.5229C86.4135 40.768 86.3087 40.8114 86.2311 40.8887C86.1535 40.966 86.1104 41.0708 86.1104 41.18V44.7081C86.1099 44.7624 86.1208 44.8159 86.1414 44.866C86.1619 44.9161 86.1925 44.9617 86.2307 44.9997C86.2693 45.0382 86.3145 45.0683 86.3648 45.0891C86.4147 45.1096 86.4688 45.1205 86.5229 45.1201H90.056C90.1654 45.1201 90.2702 45.0766 90.3478 44.9997C90.4253 44.9224 90.4685 44.8175 90.4689 44.7081V41.18C90.4685 41.0709 90.4249 40.9662 90.3473 40.889C90.2702 40.8118 90.1654 40.7682 90.056 40.7679Z" fill="white"/>
<path d="M90.056 46.7827H86.5229C86.4135 46.7827 86.3087 46.8262 86.2311 46.9035C86.1535 46.9808 86.1104 47.0857 86.1104 47.1952V50.7232C86.1099 50.7771 86.1208 50.831 86.1414 50.8811C86.1619 50.9309 86.1925 50.9764 86.2307 51.0149C86.2693 51.0529 86.3145 51.0834 86.3648 51.1039C86.4147 51.1248 86.4688 51.1352 86.5229 51.1352H90.056C90.1654 51.1352 90.2702 51.0917 90.3478 51.0144C90.4253 50.9371 90.4685 50.8323 90.4689 50.7232V47.1952C90.4685 47.0857 90.4249 46.9812 90.3473 46.9039C90.2702 46.8266 90.1654 46.7832 90.056 46.7827Z" fill="#E6E6E6"/>
<path d="M90.056 52.7979H86.5229C86.4688 52.7979 86.4147 52.8083 86.3648 52.8292C86.3145 52.8497 86.2693 52.8802 86.2307 52.9182C86.1925 52.9567 86.1619 53.0022 86.1414 53.0524C86.1208 53.1021 86.1099 53.156 86.1104 53.2099V56.7383C86.1099 56.7922 86.1208 56.8461 86.1414 56.8959C86.1619 56.946 86.1925 56.9915 86.2307 57.03C86.2693 57.068 86.3145 57.0985 86.3648 57.119C86.4147 57.1399 86.4688 57.1503 86.5229 57.1503H90.056C90.1654 57.1503 90.2706 57.1069 90.3478 57.0296C90.4253 56.9523 90.4685 56.8474 90.4689 56.7383V53.2099C90.4685 53.1008 90.4253 52.9959 90.3478 52.9186C90.2702 52.8413 90.1654 52.7979 90.056 52.7979Z" fill="#121516"/>
<path d="M97.478 28.7381H93.9433C93.8338 28.7384 93.7295 28.782 93.6523 28.8593C93.5752 28.9365 93.532 29.0411 93.532 29.1501V32.6799C93.532 32.7887 93.5756 32.8932 93.6523 32.9701C93.7295 33.0471 93.8343 33.0904 93.9433 33.0904H97.478C97.587 33.0904 97.6918 33.0472 97.7694 32.9703C97.8465 32.8933 97.8901 32.7889 97.8906 32.6799V29.1501C97.8901 29.0409 97.8465 28.9363 97.7694 28.8591C97.6918 28.7819 97.5874 28.7384 97.478 28.7381Z" fill="white"/>
<path d="M97.478 34.753H93.9433C93.8338 34.7534 93.7295 34.797 93.6523 34.8742C93.5752 34.9515 93.532 35.0561 93.532 35.1651V38.6948C93.532 38.8037 93.5756 38.9081 93.6523 38.9851C93.7295 39.062 93.8343 39.1053 93.9433 39.1053H97.478C97.587 39.1054 97.6918 39.0622 97.7694 38.9852C97.8465 38.9083 97.8901 38.8038 97.8906 38.6948V35.1651C97.8901 35.0559 97.8465 34.9513 97.7694 34.874C97.6922 34.7968 97.5874 34.7533 97.478 34.753Z" fill="white"/>
<path d="M97.478 40.7679H93.9433C93.8338 40.7683 93.7295 40.8119 93.6523 40.8892C93.5752 40.9664 93.532 41.071 93.532 41.18V44.7081C93.532 44.7624 93.5425 44.8159 93.563 44.8656C93.5835 44.9157 93.6137 44.9613 93.6519 44.9993C93.69 45.0377 93.7357 45.0678 93.7856 45.0887C93.8355 45.1096 93.8892 45.1201 93.9433 45.1201H97.478C97.5874 45.1201 97.6922 45.0766 97.7698 44.9997C97.847 44.9224 97.8906 44.8175 97.8906 44.7081V41.18C97.8901 41.0709 97.8465 40.9662 97.7694 40.889C97.6922 40.8118 97.5874 40.7682 97.478 40.7679Z" fill="white"/>
<path d="M97.478 46.7827H93.9433C93.8338 46.7832 93.7295 46.827 93.6523 46.9039C93.5752 46.9812 93.532 47.0861 93.532 47.1952V50.7232C93.532 50.7771 93.5425 50.8306 93.563 50.8807C93.5835 50.9304 93.6137 50.976 93.6519 51.0144C93.69 51.0525 93.7357 51.083 93.7856 51.1039C93.8355 51.1243 93.8892 51.1352 93.9433 51.1352H97.478C97.5874 51.1352 97.6922 51.0917 97.7698 51.0144C97.847 50.9371 97.8906 50.8323 97.8906 50.7232V47.1952C97.8901 47.0857 97.8465 46.9812 97.7694 46.9039C97.6922 46.8266 97.5874 46.7832 97.478 46.7827Z" fill="#121516"/>
<path d="M97.478 52.7979H93.9433C93.8892 52.7979 93.8355 52.8087 93.7856 52.8292C93.7357 52.8501 93.69 52.8806 93.6519 52.9186C93.6137 52.9571 93.5835 53.0026 93.563 53.0524C93.5425 53.1025 93.532 53.156 93.532 53.2099V56.7383C93.532 56.7922 93.5425 56.8457 93.563 56.8959C93.5835 56.9456 93.6137 56.9911 93.6519 57.0292C93.69 57.0676 93.7357 57.0981 93.7856 57.1186C93.8355 57.1395 93.8892 57.1503 93.9433 57.1503H97.478C97.5874 57.1503 97.6922 57.1069 97.7698 57.0296C97.847 56.9523 97.8906 56.8474 97.8906 56.7383V53.2099C97.8906 53.1008 97.847 52.9959 97.7698 52.9186C97.6922 52.8413 97.5874 52.7979 97.478 52.7979Z" fill="#E6E6E6"/>
<path d="M104.9 28.7381H101.365C101.256 28.7384 101.151 28.782 101.074 28.8593C100.997 28.9365 100.954 29.0411 100.954 29.1501V32.6799C100.954 32.7887 100.997 32.8932 101.074 32.9701C101.151 33.0471 101.256 33.0904 101.365 33.0904H104.9C105.009 33.0904 105.114 33.0472 105.191 32.9703C105.269 32.8933 105.312 32.7889 105.313 32.6799V29.1501C105.312 29.0409 105.269 28.9363 105.191 28.8591C105.114 28.7819 105.009 28.7384 104.9 28.7381Z" fill="white"/>
<path d="M104.9 34.753H101.365C101.256 34.7534 101.151 34.797 101.074 34.8742C100.997 34.9515 100.954 35.0561 100.954 35.1651V38.6948C100.954 38.8037 100.997 38.9081 101.074 38.9851C101.151 39.062 101.256 39.1053 101.365 39.1053H104.9C105.009 39.1054 105.114 39.0622 105.191 38.9852C105.269 38.9083 105.312 38.8038 105.313 38.6948V35.1651C105.312 35.0559 105.269 34.9513 105.191 34.874C105.114 34.7968 105.009 34.7533 104.9 34.753Z" fill="white"/>
<path d="M104.9 40.7679H101.365C101.256 40.7683 101.151 40.8119 101.074 40.8892C100.997 40.9664 100.954 41.071 100.954 41.18V44.7081C100.954 44.7624 100.964 44.8159 100.985 44.8656C101.006 44.9157 101.036 44.9613 101.074 44.9993C101.112 45.0377 101.157 45.0678 101.207 45.0887C101.257 45.1096 101.311 45.1201 101.365 45.1201H104.9C105.009 45.1201 105.114 45.0766 105.191 44.9993C105.269 44.9224 105.313 44.8175 105.313 44.7081V41.18C105.312 41.0709 105.269 40.9662 105.191 40.889C105.114 40.8118 105.009 40.7682 104.9 40.7679Z" fill="#121516"/>
<path d="M104.9 46.7827H101.365C101.256 46.7832 101.151 46.827 101.074 46.9039C100.997 46.9812 100.954 47.0861 100.954 47.1952V50.7232C100.954 50.7771 100.964 50.8306 100.985 50.8807C101.006 50.9304 101.036 50.976 101.074 51.0144C101.112 51.0525 101.157 51.083 101.207 51.1039C101.257 51.1243 101.311 51.1352 101.365 51.1352H104.9C105.009 51.1352 105.114 51.0917 105.191 51.0144C105.269 50.9371 105.313 50.8323 105.313 50.7232V47.1952C105.312 47.0857 105.269 46.9812 105.191 46.9039C105.114 46.8266 105.009 46.7832 104.9 46.7827Z" fill="#E6E6E6"/>
<path d="M104.9 52.7979H101.365C101.311 52.7979 101.257 52.8087 101.207 52.8292C101.157 52.8501 101.112 52.8806 101.074 52.9186C101.036 52.9571 101.006 53.0026 100.985 53.0524C100.964 53.1025 100.954 53.156 100.954 53.2099V56.7383C100.954 56.7922 100.964 56.8457 100.985 56.8959C101.006 56.9456 101.036 56.9911 101.074 57.0292C101.112 57.0676 101.157 57.0981 101.207 57.1186C101.257 57.1395 101.311 57.1503 101.365 57.1503H104.9C105.009 57.1503 105.114 57.1069 105.191 57.0296C105.269 56.9523 105.313 56.8474 105.313 56.7383V53.2099C105.313 53.1008 105.269 52.9959 105.191 52.9186C105.114 52.8413 105.009 52.7979 104.9 52.7979Z" fill="white"/>
<path d="M112.322 28.7381H108.787C108.677 28.7384 108.573 28.782 108.496 28.8593C108.419 28.9365 108.376 29.0411 108.376 29.1501V32.6799C108.376 32.7887 108.419 32.8932 108.496 32.9701C108.573 33.0471 108.678 33.0904 108.787 33.0904H112.322C112.431 33.0904 112.535 33.0472 112.613 32.9703C112.69 32.8933 112.734 32.7889 112.734 32.6799V29.1501C112.734 29.0409 112.691 28.9363 112.613 28.8591C112.536 28.7819 112.431 28.7384 112.322 28.7381Z" fill="#121516"/>
<path d="M112.322 34.753H108.787C108.677 34.7534 108.573 34.797 108.496 34.8742C108.419 34.9515 108.376 35.0561 108.376 35.1651V38.6948C108.376 38.8037 108.419 38.9081 108.496 38.9851C108.573 39.062 108.678 39.1053 108.787 39.1053H112.322C112.431 39.1054 112.535 39.0622 112.613 38.9852C112.69 38.9083 112.734 38.8038 112.734 38.6948V35.1651C112.734 35.0559 112.691 34.9513 112.613 34.874C112.536 34.7968 112.431 34.7533 112.322 34.753Z" fill="#121516"/>
<path d="M112.322 40.7679H108.787C108.677 40.7683 108.573 40.8119 108.496 40.8892C108.419 40.9664 108.376 41.071 108.376 41.18V44.7081C108.376 44.7624 108.386 44.8159 108.407 44.8656C108.427 44.9157 108.457 44.9613 108.496 44.9993C108.534 45.0377 108.579 45.0678 108.629 45.0887C108.679 45.1096 108.733 45.1201 108.787 45.1201H112.322C112.431 45.1201 112.536 45.0766 112.613 44.9993C112.691 44.9224 112.734 44.8175 112.734 44.7081V41.18C112.734 41.0709 112.69 40.9662 112.613 40.889C112.536 40.8118 112.431 40.7682 112.322 40.7679Z" fill="#E6E6E6"/>
<path d="M112.322 46.7827H108.787C108.677 46.7832 108.573 46.827 108.496 46.9039C108.419 46.9812 108.376 47.0861 108.376 47.1952V50.7232C108.376 50.7771 108.386 50.8306 108.407 50.8807C108.427 50.9304 108.457 50.976 108.496 51.0144C108.534 51.0525 108.579 51.083 108.629 51.1039C108.679 51.1243 108.733 51.1352 108.787 51.1352H112.322C112.431 51.1352 112.536 51.0917 112.613 51.0144C112.691 50.9371 112.734 50.8323 112.734 50.7232V47.1952C112.734 47.0857 112.69 46.9812 112.613 46.9039C112.536 46.8266 112.431 46.7832 112.322 46.7827Z" fill="white"/>
<path d="M112.322 52.7979H108.787C108.733 52.7979 108.679 52.8087 108.629 52.8292C108.579 52.8501 108.534 52.8806 108.496 52.9186C108.457 52.9571 108.427 53.0026 108.407 53.0524C108.386 53.1025 108.376 53.156 108.376 53.2099V56.7383C108.376 56.7922 108.386 56.8457 108.407 56.8959C108.427 56.9456 108.457 56.9911 108.496 57.0292C108.534 57.0676 108.579 57.0981 108.629 57.1186C108.679 57.1395 108.733 57.1503 108.787 57.1503H112.322C112.431 57.1503 112.536 57.1069 112.613 57.0296C112.691 56.9523 112.734 56.8474 112.734 56.7383V53.2099C112.734 53.1008 112.691 52.9959 112.613 52.9186C112.536 52.8413 112.431 52.7979 112.322 52.7979Z" fill="#121516"/>
<path d="M119.744 28.7381H116.209C116.1 28.7384 115.995 28.782 115.918 28.8593C115.841 28.9365 115.798 29.0411 115.798 29.1501V32.6799C115.798 32.7887 115.841 32.8932 115.918 32.9701C115.995 33.0471 116.1 33.0904 116.209 33.0904H119.744C119.853 33.0904 119.958 33.0472 120.035 32.9703C120.112 32.8933 120.156 32.7889 120.156 32.6799V29.1501C120.156 29.0409 120.112 28.9363 120.035 28.8591C119.958 28.7819 119.853 28.7384 119.744 28.7381Z" fill="#121516"/>
<path d="M119.744 34.753H116.209C116.1 34.7534 115.995 34.797 115.918 34.8742C115.841 34.9515 115.798 35.0561 115.798 35.1651V38.6948C115.798 38.8037 115.841 38.9081 115.918 38.9851C115.995 39.062 116.1 39.1053 116.209 39.1053H119.744C119.853 39.1054 119.958 39.0622 120.035 38.9852C120.112 38.9083 120.156 38.8038 120.156 38.6948V35.1651C120.156 35.0559 120.112 34.9513 120.035 34.874C119.958 34.7968 119.853 34.7533 119.744 34.753Z" fill="#121516"/>
<path d="M119.744 40.7679H116.209C116.1 40.7683 115.995 40.8119 115.918 40.8892C115.841 40.9664 115.798 41.071 115.798 41.18V44.7081C115.798 44.7624 115.808 44.8159 115.829 44.8656C115.849 44.9157 115.879 44.9613 115.918 44.9993C115.956 45.0377 116.001 45.0678 116.051 45.0887C116.101 45.1096 116.155 45.1201 116.209 45.1201H119.744C119.853 45.1201 119.958 45.0766 120.035 44.9993C120.113 44.9224 120.156 44.8175 120.156 44.7081V41.18C120.156 41.0709 120.112 40.9662 120.035 40.889C119.958 40.8118 119.853 40.7682 119.744 40.7679Z" fill="#E6E6E6"/>
<path d="M119.744 46.7827H116.209C116.1 46.7832 115.995 46.827 115.918 46.9039C115.841 46.9812 115.798 47.0861 115.798 47.1952V50.7232C115.798 50.7771 115.808 50.8306 115.829 50.8807C115.849 50.9304 115.879 50.976 115.918 51.0144C115.956 51.0525 116.001 51.083 116.051 51.1039C116.101 51.1243 116.155 51.1352 116.209 51.1352H119.744C119.853 51.1352 119.958 51.0917 120.035 51.0144C120.113 50.9371 120.156 50.8323 120.156 50.7232V47.1952C120.156 47.0857 120.112 46.9812 120.035 46.9039C119.958 46.8266 119.853 46.7832 119.744 46.7827Z" fill="#121516"/>
<path d="M119.744 52.7979H116.209C116.155 52.7979 116.101 52.8087 116.051 52.8292C116.001 52.8501 115.956 52.8806 115.918 52.9186C115.879 52.9571 115.849 53.0026 115.829 53.0524C115.808 53.1025 115.798 53.156 115.798 53.2099V56.7383C115.798 56.7922 115.808 56.8457 115.829 56.8959C115.849 56.9456 115.879 56.9911 115.918 57.0292C115.956 57.0676 116.001 57.0981 116.051 57.1186C116.101 57.1395 116.155 57.1503 116.209 57.1503H119.744C119.853 57.1503 119.958 57.1069 120.035 57.0296C120.113 56.9523 120.156 56.8474 120.156 56.7383V53.2099C120.156 53.1008 120.113 52.9959 120.035 52.9186C119.958 52.8413 119.853 52.7979 119.744 52.7979Z" fill="#121516"/>
<path d="M127.165 28.7381H123.631C123.522 28.7384 123.417 28.782 123.34 28.8593C123.263 28.9365 123.219 29.0411 123.219 29.1501V32.6799C123.22 32.7887 123.263 32.8932 123.34 32.9701C123.417 33.0471 123.522 33.0904 123.631 33.0904H127.165C127.275 33.0904 127.379 33.0472 127.457 32.9703C127.534 32.8933 127.578 32.7889 127.578 32.6799V29.1501C127.578 29.0409 127.534 28.9363 127.457 28.8591C127.38 28.7819 127.275 28.7384 127.165 28.7381Z" fill="#E6E6E6"/>
<path d="M127.165 34.753H123.631C123.522 34.7534 123.417 34.797 123.34 34.8742C123.263 34.9515 123.219 35.0561 123.219 35.1651V38.6948C123.22 38.8037 123.263 38.9081 123.34 38.9851C123.417 39.062 123.522 39.1053 123.631 39.1053H127.165C127.275 39.1054 127.379 39.0622 127.457 38.9852C127.534 38.9083 127.578 38.8038 127.578 38.6948V35.1651C127.578 35.0559 127.534 34.9513 127.457 34.874C127.38 34.7968 127.275 34.7533 127.165 34.753Z" fill="#121516"/>
<path d="M127.165 40.7679H123.631C123.522 40.7683 123.417 40.8119 123.34 40.8892C123.263 40.9664 123.219 41.071 123.219 41.18V44.7081C123.219 44.7624 123.23 44.8159 123.25 44.8656C123.271 44.9157 123.302 44.9613 123.34 44.9993C123.378 45.0377 123.423 45.0678 123.473 45.0887C123.523 45.1096 123.577 45.1201 123.631 45.1201H127.165C127.275 45.1201 127.38 45.0766 127.457 44.9993C127.535 44.9224 127.578 44.8175 127.578 44.7081V41.18C127.578 41.0709 127.534 40.9662 127.457 40.889C127.38 40.8118 127.275 40.7682 127.165 40.7679Z" fill="#121516"/>
<path d="M127.165 46.7827H123.631C123.522 46.7832 123.417 46.827 123.34 46.9039C123.263 46.9812 123.219 47.0861 123.219 47.1952V50.7232C123.219 50.7771 123.23 50.8306 123.25 50.8807C123.271 50.9304 123.302 50.976 123.34 51.0144C123.378 51.0525 123.423 51.083 123.473 51.1039C123.523 51.1243 123.577 51.1352 123.631 51.1352H127.165C127.275 51.1352 127.38 51.0917 127.457 51.0144C127.535 50.9371 127.578 50.8323 127.578 50.7232V47.1952C127.578 47.0857 127.534 46.9812 127.457 46.9039C127.38 46.8266 127.275 46.7832 127.165 46.7827Z" fill="#121516"/>
<path d="M127.165 52.7979H123.631C123.577 52.7979 123.523 52.8087 123.473 52.8292C123.423 52.8501 123.378 52.8806 123.34 52.9186C123.302 52.9571 123.271 53.0026 123.25 53.0524C123.23 53.1025 123.219 53.156 123.219 53.2099V56.7383C123.219 56.7922 123.23 56.8457 123.25 56.8959C123.271 56.9456 123.302 56.9911 123.34 57.0292C123.378 57.0676 123.423 57.0981 123.473 57.1186C123.523 57.1395 123.577 57.1503 123.631 57.1503H127.165C127.275 57.1503 127.38 57.1069 127.457 57.0296C127.535 56.9523 127.578 56.8474 127.578 56.7383V53.2099C127.578 53.1008 127.535 52.9959 127.457 52.9186C127.38 52.8413 127.275 52.7979 127.165 52.7979Z" fill="#E6E6E6"/>
<path d="M134.587 28.7381H131.053C130.943 28.7384 130.839 28.782 130.762 28.8593C130.685 28.9365 130.641 29.0411 130.641 29.1501V32.6799C130.641 32.7887 130.685 32.8932 130.762 32.9701C130.839 33.0471 130.944 33.0904 131.053 33.0904H134.587C134.697 33.0904 134.801 33.0472 134.878 32.9703C134.956 32.8933 135 32.7889 135 32.6799V29.1501C135 29.0409 134.956 28.9363 134.879 28.8591C134.801 28.7819 134.697 28.7384 134.587 28.7381Z" fill="#E6E6E6"/>
<path d="M134.587 34.753H131.053C130.943 34.7534 130.839 34.797 130.762 34.8742C130.685 34.9515 130.641 35.0561 130.641 35.1651V38.6948C130.641 38.8037 130.685 38.9081 130.762 38.9851C130.839 39.062 130.944 39.1053 131.053 39.1053H134.587C134.697 39.1054 134.801 39.0622 134.878 38.9852C134.956 38.9083 135 38.8038 135 38.6948V35.1651C135 35.0559 134.956 34.9513 134.879 34.874C134.801 34.7968 134.697 34.7533 134.587 34.753Z" fill="#E6E6E6"/>
<path d="M134.587 40.7679H131.053C130.943 40.7683 130.839 40.8119 130.762 40.8892C130.685 40.9664 130.641 41.071 130.641 41.18V44.7081C130.641 44.7624 130.652 44.8159 130.673 44.8656C130.693 44.9157 130.723 44.9613 130.761 44.9993C130.8 45.0377 130.845 45.0678 130.895 45.0887C130.945 45.1096 130.999 45.1201 131.053 45.1201H134.587C134.697 45.1201 134.802 45.0766 134.879 44.9993C134.956 44.9224 135 44.8175 135 44.7081V41.18C135 41.0709 134.956 40.9662 134.879 40.889C134.801 40.8118 134.697 40.7682 134.587 40.7679Z" fill="#121516"/>
<path d="M134.587 46.7827H131.053C130.943 46.7832 130.839 46.827 130.762 46.9039C130.685 46.9812 130.641 47.0861 130.641 47.1952V50.7232C130.641 50.7771 130.652 50.8306 130.673 50.8807C130.693 50.9304 130.723 50.976 130.761 51.0144C130.8 51.0525 130.845 51.083 130.895 51.1039C130.945 51.1243 130.999 51.1352 131.053 51.1352H134.587C134.697 51.1352 134.802 51.0917 134.879 51.0144C134.956 50.9371 135 50.8323 135 50.7232V47.1952C135 47.0857 134.956 46.9812 134.879 46.9039C134.801 46.8266 134.697 46.7832 134.587 46.7827Z" fill="#E6E6E6"/>
<path d="M134.587 52.7979H131.053C130.999 52.7979 130.945 52.8087 130.895 52.8292C130.845 52.8501 130.8 52.8806 130.761 52.9186C130.723 52.9571 130.693 53.0026 130.673 53.0524C130.652 53.1025 130.641 53.156 130.641 53.2099V56.7383C130.641 56.7922 130.652 56.8457 130.673 56.8959C130.693 56.9456 130.723 56.9911 130.761 57.0292C130.8 57.0676 130.845 57.0981 130.895 57.1186C130.945 57.1395 130.999 57.1503 131.053 57.1503H134.587C134.697 57.1503 134.802 57.1069 134.879 57.0296C134.956 56.9523 135 56.8474 135 56.7383V53.2099C135 53.1008 134.956 52.9959 134.879 52.9186C134.802 52.8413 134.697 52.7979 134.587 52.7979Z" fill="#E6E6E6"/>
<path d="M53.346 104.817H53.2474L53.3317 104.806L53.346 104.817Z" fill="#2F2E41"/>
<path d="M44.8892 39.0412C50.8783 39.0412 55.7332 34.193 55.7332 28.2124C55.7332 22.2318 50.8783 17.3835 44.8892 17.3835C38.9001 17.3835 34.0449 22.2318 34.0449 28.2124C34.0449 34.193 38.9001 39.0412 44.8892 39.0412Z" fill="#FFB6B6"/>
<path d="M54.3857 20.2728C54.3857 20.2728 57.2219 14.8584 50.9822 14.3662C50.9822 14.3662 45.6626 9.54748 40.2404 13.4852C40.2404 13.4852 37.2829 13.4852 35.6656 16.8273C35.6656 16.8273 33.3395 15.9463 32.8284 18.3039C32.8284 18.3039 31.1263 23.2261 32.8284 27.6561C34.5304 32.0861 35.0958 32.5783 35.0958 32.5783C35.0958 32.5783 32.2989 23.2906 39.1067 22.7984C45.9146 22.3062 53.5325 18.0578 54.0997 23.4722C54.6674 28.8866 55.521 30.2207 55.521 30.2207C55.521 30.2207 60.9097 22.4878 54.3857 20.2728Z" fill="#2F2E41"/>
<path d="M72.9411 54.8997L72.9059 55.0836L72.5139 57.1503L69.8046 71.4467L69.6441 72.2882L69.3078 74.0683L68.8475 76.4965L67.827 81.8773L67.5348 83.4197L67.4254 83.998L67.3872 84.2011L67.0841 85.7969L66.9918 86.2787L66.2523 91.7519L65.6062 96.5209L67.7679 98.6796L66.4791 99.9666L65.6335 104.805L65.6347 104.817H31.1078C29.7111 103.913 28.3344 102.982 26.9778 102.022L27.262 99.8985C27.262 99.8985 28.2397 96.1056 27.8286 95.6522C27.4191 95.1992 26.5207 94.389 26.5207 94.389L27.6524 91.7519L27.8096 91.3858L27.5461 85.9285L27.5397 85.7969L27.4524 83.998L27.4413 83.7665L27.4239 83.4197L27.089 76.4965L27.0826 76.3825L26.981 74.2839L26.8858 72.2882L26.8445 71.4467L26.4366 63.0259L26.1604 57.307L25.9192 52.3286L26.889 52.0006L37.2615 48.4805L41.5581 42.9029L50.5005 42.9693L54.8783 43.0028L62.1826 49.7675L63.8445 50.5598L63.8571 50.5665L65.049 51.1352L68.0714 52.576L71.2666 54.1008L72.9059 54.8822L72.9411 54.8997Z" fill="#121516"/>
<path d="M42.7137 88.5711C42.0584 88.8243 41.3555 88.9313 40.6543 88.8841C39.9532 88.8373 39.2709 88.6371 38.6555 88.2982C38.0402 87.9589 37.5067 87.4897 37.0927 86.9226C36.6788 86.3556 36.3943 85.7046 36.2595 85.0159L19.3462 82.6199L25.2257 75.9784L40.3855 79.272C41.5592 79.1224 42.7472 79.4082 43.7241 80.0747C44.701 80.7412 45.399 81.7424 45.6858 82.8886C45.973 84.0352 45.8287 85.2466 45.2812 86.2937C44.7332 87.3409 43.8197 88.1511 42.7137 88.5711Z" fill="#FFB6B6"/>
<path d="M35.1727 76.4966C34.8594 76.0996 34.4159 75.8263 33.9204 75.7244L26.981 74.284L26.2684 74.1365C25.8542 74.05 25.4629 73.8774 25.1202 73.6296C24.7775 73.3818 24.491 73.0647 24.2796 72.6986C24.0602 72.3146 23.9275 71.8876 23.8907 71.4467C23.8576 71.046 23.9056 70.6427 24.0319 70.2612L26.4366 63.0259L27.9968 58.3313C28.1859 57.7651 28.2975 57.1759 28.3286 56.5796C28.4155 54.9303 27.9044 53.3048 26.889 52.0006C25.9962 50.8544 24.7579 50.0258 23.3571 49.6364C21.9563 49.2469 20.4673 49.318 19.1099 49.8386C19.0702 49.8532 19.029 49.8687 18.9893 49.8846C18.0159 50.2728 17.1462 50.8816 16.449 51.6634C15.7518 52.4448 15.2462 53.3775 14.972 54.3875L13.2769 60.5451L9.78018 73.2393C9.43015 74.5113 9.35946 75.8435 9.5729 77.1451C9.78635 78.4467 10.2789 79.687 11.0169 80.7809C11.7548 81.8749 12.7208 82.7967 13.8486 83.4832C14.9764 84.1698 16.2394 84.6048 17.5513 84.759L27.5461 85.9286L32.1712 86.4705C32.7061 86.5349 33.2455 86.3953 33.682 86.0802C34.1185 85.7652 34.4202 85.2972 34.5267 84.7698C34.5342 84.7414 34.54 84.7122 34.5442 84.6829L34.6553 83.998L35.5965 78.232L35.606 78.1735C35.6551 77.8793 35.6419 77.578 35.5672 77.2888C35.4926 77.0001 35.3582 76.7302 35.1727 76.4966Z" fill="#A3BDAE"/>
<path d="M53.4868 88.7558C54.1714 88.9146 54.8825 88.9213 55.57 88.7759C56.2576 88.6304 56.9045 88.3363 57.4659 87.9142C58.0273 87.4918 58.4893 86.9519 58.8189 86.3322C59.1488 85.7125 59.3383 85.0281 59.3748 84.3273L75.7806 79.5733L69.0218 73.8264L54.4787 79.2219C53.2956 79.239 52.1598 79.689 51.2869 80.4867C50.4141 81.284 49.8644 82.3738 49.742 83.5488C49.6196 84.7243 49.9336 85.9035 50.6237 86.8629C51.3138 87.8227 52.3326 88.4959 53.4868 88.7558Z" fill="#FFB6B6"/>
<path d="M83.926 68.9391L76.1232 51.007C75.4851 49.5348 74.3452 48.336 72.9059 47.6231C72.461 47.4042 71.994 47.2341 71.5123 47.1158C71.4376 47.0966 71.363 47.0795 71.2884 47.0653C70.2675 46.8425 69.2084 46.8622 68.1968 47.1221C67.2715 47.3594 66.407 47.789 65.659 48.3824C64.9115 48.9757 64.2973 49.7199 63.8571 50.5661C63.8525 50.5732 63.8479 50.5807 63.8445 50.5887C63.3527 51.5385 63.0911 52.5907 63.0806 53.6604C63.0706 54.7297 63.3121 55.7869 63.7858 56.7463L63.8827 56.9394L69.3967 67.9977C69.5849 68.3758 69.691 68.7895 69.7078 69.2116C69.725 69.6336 69.652 70.0544 69.4948 70.4463C69.3376 70.8383 69.099 71.1926 68.7946 71.486C68.4907 71.7793 68.1276 72.0054 67.7302 72.1487L67.3428 72.2883L60.3781 74.8005C59.8553 74.9868 59.4256 75.3683 59.1786 75.8644C58.9321 76.3608 58.8881 76.9337 59.0558 77.4618L59.0734 77.517L61.0254 83.7557C61.0351 83.7841 61.0447 83.8125 61.0556 83.8413C61.0728 83.8948 61.0942 83.9475 61.1189 83.998C61.3265 84.4627 61.6933 84.8384 62.1532 85.0569C62.6131 85.2759 63.1364 85.3235 63.6286 85.1915L67.3872 84.2011L68.1536 83.998L77.8598 81.4382C79.1368 81.1014 80.3258 80.4926 81.3454 79.6544C82.3651 78.8157 83.1914 77.7669 83.7675 76.5801C84.3435 75.393 84.6559 74.096 84.6835 72.7772C84.7108 71.458 84.4525 70.1492 83.926 68.9391Z" fill="#A3BDAE"/>
<path d="M7.12634 83.998C9.37552 86.7375 11.8012 89.3274 14.3879 91.7519H86.1258C86.8171 91.7527 87.4796 92.0277 87.9684 92.5157C88.4568 93.0038 88.7315 93.6657 88.7323 94.356L88.8354 112.508C93.2485 110.484 97.3815 107.898 101.132 104.817C102.173 103.962 103.182 103.071 104.158 102.143C104.798 101.537 105.422 100.917 106.032 100.282C110.597 95.5327 114.294 90.0215 116.955 83.998H7.12634Z" fill="black"/>
<path d="M106.032 100.282C105.424 100.918 104.799 101.538 104.158 102.143H88.8878V100.282H106.032Z" fill="white"/>
<path d="M72.7981 40.768C72.7226 40.6289 72.6111 40.5129 72.4748 40.4319C72.3386 40.351 72.1834 40.3083 72.025 40.3083H19.9892C19.7559 40.309 19.5323 40.4019 19.3675 40.5668C19.2027 40.7316 19.1101 40.955 19.1099 41.188V72.2882H72.9058V41.188C72.9066 41.0411 72.8693 40.8964 72.7981 40.768Z" fill="black"/>
<path d="M19.0629 71.4463V75.2839C19.0629 75.4431 19.0942 75.6007 19.1552 75.7478C19.2162 75.8948 19.3055 76.0281 19.4182 76.141C19.5309 76.2534 19.6646 76.3424 19.8118 76.4034C19.959 76.4644 20.1168 76.4957 20.2761 76.4957H40.1318V84.0695H39.8681C39.8474 84.0695 39.8269 84.0737 39.8078 84.0816C39.7886 84.0895 39.7712 84.1012 39.7566 84.1159C39.742 84.1305 39.7304 84.1476 39.7224 84.1668C39.7146 84.1861 39.7104 84.2065 39.7104 84.227V84.7539C39.7104 84.7744 39.7145 84.7949 39.7224 84.8141C39.7304 84.8333 39.742 84.8505 39.7566 84.8651C39.7712 84.8797 39.7886 84.8914 39.8078 84.8994C39.8269 84.9073 39.8474 84.9111 39.8681 84.9111H52.1943C52.2148 84.9111 52.2354 84.9073 52.2547 84.8994C52.2735 84.8914 52.2911 84.8797 52.3058 84.8651C52.3205 84.8505 52.3318 84.8333 52.3398 84.8141C52.3477 84.7949 52.3519 84.7744 52.3519 84.7539V84.227C52.3519 84.2065 52.3477 84.1861 52.3398 84.1668C52.3318 84.1476 52.3205 84.1305 52.3058 84.1159C52.2911 84.1012 52.2735 84.0895 52.2547 84.0816C52.2354 84.0737 52.2148 84.0695 52.1943 84.0695H51.9306V76.4957H71.7861C71.9454 76.4957 72.1034 76.4644 72.2506 76.4034C72.3978 76.3424 72.5315 76.2534 72.6443 76.141C72.7566 76.0281 72.8459 75.8948 72.9072 75.7478C72.9679 75.6007 72.9994 75.4431 72.9994 75.2839V71.4463H19.0629Z" fill="black"/>
<path d="M45.3793 60.431C48.1238 60.431 50.3483 58.2096 50.3483 55.4693C50.3483 52.7289 48.1238 50.5072 45.3793 50.5072C42.6353 50.5072 40.4104 52.7289 40.4104 55.4693C40.4104 58.2096 42.6353 60.431 45.3793 60.431Z" fill="#0A0B0B"/>
<path d="M58.04 27.6207H57.2463C57.2463 21.6295 51.3084 17.7035 45.3185 17.7003C44.4469 17.6978 43.5778 17.7822 42.7233 17.9523C41.7613 18.1441 40.763 18.3739 39.782 18.6735C35.914 19.8575 32.3268 22.1462 32.3268 27.6207C32.326 28.6838 32.4615 29.7428 32.73 30.7716L31.9618 30.9713C31.6768 29.8772 31.5328 28.7512 31.5332 27.6207C31.5332 22.8372 33.4998 19.5516 36.8965 17.5925C38.6821 16.5623 40.8614 15.8982 43.3581 15.5749C44.397 15.4369 45.4472 15.405 46.4928 15.4798C53.3816 15.9743 58.04 21.2491 58.04 27.6207Z" fill="#A3BDAE"/>
<path d="M59.3622 28.0596L59.0495 25.7519C58.9723 25.1691 58.691 24.6324 58.2558 24.2367C57.9762 23.9787 57.6416 23.7876 57.2773 23.6778C56.9129 23.5679 56.5285 23.5422 56.1528 23.6027L55.656 23.6709C55.5198 23.6887 55.389 23.7334 55.2703 23.8022C55.1517 23.871 55.0481 23.9627 54.9655 24.0718C54.8821 24.1806 54.8209 24.3048 54.7856 24.4374C54.7504 24.5698 54.742 24.708 54.7605 24.8437L55.4829 30.1597C55.5126 30.3764 55.6099 30.5782 55.7608 30.7367C55.9118 30.8951 56.1088 31.0021 56.3239 31.0425C56.388 31.0553 56.4526 31.0617 56.5176 31.0616C56.5645 31.0616 56.6111 31.0584 56.6576 31.0521L57.2131 30.9776C57.5515 30.9327 57.8776 30.8191 58.1707 30.6439C58.4638 30.4686 58.7178 30.2354 58.9178 29.9584C58.9606 29.8982 59.0017 29.8364 59.0398 29.773C59.3375 29.2544 59.4507 28.6507 59.3622 28.0596Z" fill="#121516"/>
<path d="M55.3353 23.7676C55.1894 23.8383 55.0628 23.9426 54.9655 24.0719C54.8821 24.1807 54.8209 24.305 54.7856 24.4374C54.7504 24.5699 54.742 24.708 54.7605 24.8438L55.4829 30.1598C55.5126 30.3765 55.6099 30.5783 55.7608 30.7367C55.9118 30.8952 56.1088 31.0022 56.3239 31.0427L55.3353 23.7676Z" fill="white"/>
<path d="M59.3623 28.0596L59.0495 25.7519C58.9724 25.1691 58.691 24.6324 58.2559 24.2367L58.9749 29.5257C58.9858 29.6106 59.0076 29.6938 59.0399 29.773C59.3375 29.2544 59.4512 28.6507 59.3623 28.0596Z" fill="black"/>
<path d="M56.8907 29.7224C57.1079 29.6929 57.2173 29.1769 57.1347 28.5697C57.0522 27.9625 56.8094 27.4941 56.5922 27.5236C56.3751 27.553 56.2656 28.069 56.3482 28.6762C56.4308 29.2834 56.6736 29.7518 56.8907 29.7224Z" fill="black"/>
<path d="M56.4145 26.8695C56.6317 26.84 56.7411 26.3239 56.6585 25.7167C56.5759 25.1096 56.3332 24.6412 56.116 24.6706C55.8988 24.7 55.7898 25.2161 55.872 25.8233C55.9546 26.4305 56.1973 26.8989 56.4145 26.8695Z" fill="black"/>
<path d="M59.4305 27.9789C59.6477 27.9495 59.7567 27.4334 59.6741 26.8262C59.5915 26.219 59.3488 25.7506 59.1316 25.7801C58.9144 25.8095 58.8054 26.3255 58.8876 26.9327C58.9702 27.5399 59.2134 28.0083 59.4305 27.9789Z" fill="black"/>
<path d="M45.3186 17.7003C44.4469 17.6978 43.5778 17.7822 42.7234 17.9523C41.7613 18.1441 40.763 18.3739 39.7821 18.6735C38.2504 18.599 37.1235 18.2027 36.8965 17.5925C38.6821 16.5623 40.8614 15.8982 43.3581 15.5749C44.397 15.4369 45.4473 15.405 46.4929 15.4798C46.6036 15.5446 46.6992 15.632 46.7738 15.7364C46.848 15.8407 46.8996 15.9596 46.9247 16.0852C46.9993 16.6368 46.3692 17.2232 45.3186 17.7003Z" fill="black"/>
<path d="M35.1854 33.1206L33.9633 28.0471C33.9197 27.864 33.8229 27.6979 33.6851 27.5696C33.5473 27.4413 33.3746 27.3565 33.1887 27.3259C33.1362 27.3177 33.0831 27.3135 33.03 27.3132C32.9551 27.3135 32.8805 27.3226 32.8078 27.3402L32.3348 27.4543C31.7258 27.6013 31.2001 27.9837 30.873 28.5173C30.546 29.051 30.4444 29.6925 30.5904 30.3009L31.138 32.5769C31.263 33.1127 31.5608 33.5927 31.9856 33.9432C32.0544 33.9987 32.1265 34.05 32.2015 34.0969C32.4675 34.2634 32.7643 34.375 33.0742 34.4251C33.3842 34.4752 33.701 34.4628 34.0061 34.3886L34.4775 34.2744C34.6022 34.2454 34.7195 34.1909 34.822 34.1144C34.9744 34.0034 35.0904 33.8496 35.1551 33.6726C35.2198 33.4957 35.2304 33.3035 35.1854 33.1206Z" fill="#121516"/>
<path d="M32.6232 32.1765C32.8363 32.1253 32.8927 31.6008 32.7491 31.0051C32.6055 30.4094 32.3164 29.9679 32.1034 30.0191C31.8903 30.0703 31.834 30.5948 31.9775 31.1905C32.1211 31.7863 32.4102 32.2277 32.6232 32.1765Z" fill="black"/>
<path d="M31.036 32.652C31.2491 32.6008 31.3054 32.0764 31.1619 31.4807C31.0183 30.8849 30.7292 30.4435 30.5161 30.4947C30.303 30.5459 30.2467 31.0703 30.3903 31.6661C30.5338 32.2618 30.8229 32.7032 31.036 32.652Z" fill="black"/>
<path d="M35.2632 33.1014L34.0411 28.0279C33.9934 27.8299 33.8884 27.6503 33.739 27.5116C33.5896 27.3728 33.4027 27.2812 33.2014 27.2481L34.8696 34.1776C35.0343 34.0571 35.1596 33.8906 35.2297 33.6991C35.2997 33.5076 35.3114 33.2996 35.2632 33.1014Z" fill="white"/>
<path d="M30.8665 29.296C30.8328 29.1549 30.7695 29.0225 30.6808 28.9077C30.509 29.3519 30.4775 29.8381 30.5903 30.3008L31.138 32.5769C31.263 33.1127 31.5607 33.5927 31.9855 33.9431L30.8665 29.296Z" fill="black"/>
</g>
</svg>
