<svg width="18" height="19" viewBox="0 0 18 19" fill="none" xmlns="http://www.w3.org/2000/svg">
<path fill-rule="evenodd" clip-rule="evenodd" d="M4.125 8.07529C4.125 6.82821 5.13237 5.81723 6.375 5.81723C7.61763 5.81723 8.625 6.82821 8.625 8.07529C8.625 8.5836 8.45764 9.05268 8.1752 9.43007C8.90376 9.97936 9.375 10.8538 9.375 11.8387C9.375 12.2544 9.03921 12.5914 8.625 12.5914C8.21079 12.5914 7.875 12.2544 7.875 11.8387C7.875 11.0073 7.20342 10.3334 6.375 10.3334C5.54658 10.3334 4.875 11.0073 4.875 11.8387C4.875 12.2544 4.53921 12.5914 4.125 12.5914C3.71079 12.5914 3.375 12.2544 3.375 11.8387C3.375 10.8538 3.84625 9.97936 4.5748 9.43007C4.29236 9.05268 4.125 8.5836 4.125 8.07529ZM6.375 8.82798C6.7892 8.82798 7.125 8.49098 7.125 8.07529C7.125 7.65961 6.7892 7.3226 6.375 7.3226C5.9608 7.3226 5.625 7.65961 5.625 8.07529C5.625 8.49098 5.9608 8.82798 6.375 8.82798Z" fill="black" fill-opacity="0.85"/>
<path d="M9.75 7.69895C9.75 7.28325 10.0858 6.94626 10.5 6.94626H13.5C13.9142 6.94626 14.25 7.28325 14.25 7.69895C14.25 8.11465 13.9142 8.45164 13.5 8.45164H10.5C10.0858 8.45164 9.75 8.11465 9.75 7.69895Z" fill="black" fill-opacity="0.85"/>
<path d="M11.25 9.95701C10.8358 9.95701 10.5 10.294 10.5 10.7097C10.5 11.1254 10.8358 11.4624 11.25 11.4624H13.5C13.9142 11.4624 14.25 11.1254 14.25 10.7097C14.25 10.294 13.9142 9.95701 13.5 9.95701H11.25Z" fill="black" fill-opacity="0.85"/>
<path fill-rule="evenodd" clip-rule="evenodd" d="M0.75 3.18282C0.75 2.76712 1.08579 2.43013 1.5 2.43013H16.5C16.9142 2.43013 17.25 2.76712 17.25 3.18282V15.2258C17.25 15.6415 16.9142 15.9785 16.5 15.9785H1.5C1.08579 15.9785 0.75 15.6415 0.75 15.2258V3.18282ZM2.25 3.93551V14.4731H15.75V3.93551H2.25Z" fill="black" fill-opacity="0.85"/>
<path fill-rule="evenodd" clip-rule="evenodd" d="M2.25 14.4731V3.93551H15.75V14.4731H2.25ZM4.125 8.07529C4.125 6.82821 5.13237 5.81723 6.375 5.81723C7.61763 5.81723 8.625 6.82821 8.625 8.07529C8.625 8.5836 8.45764 9.05268 8.1752 9.43007C8.90376 9.97936 9.375 10.8538 9.375 11.8387C9.375 12.2544 9.03921 12.5914 8.625 12.5914C8.21079 12.5914 7.875 12.2544 7.875 11.8387C7.875 11.0073 7.20342 10.3334 6.375 10.3334C5.54658 10.3334 4.875 11.0073 4.875 11.8387C4.875 12.2544 4.53921 12.5914 4.125 12.5914C3.71079 12.5914 3.375 12.2544 3.375 11.8387C3.375 10.8538 3.84625 9.97936 4.5748 9.43007C4.29236 9.05268 4.125 8.5836 4.125 8.07529ZM9.75 7.69895C9.75 7.28325 10.0858 6.94626 10.5 6.94626H13.5C13.9142 6.94626 14.25 7.28325 14.25 7.69895C14.25 8.11465 13.9142 8.45164 13.5 8.45164H10.5C10.0858 8.45164 9.75 8.11465 9.75 7.69895ZM11.25 9.95701C10.8358 9.95701 10.5 10.294 10.5 10.7097C10.5 11.1254 10.8358 11.4624 11.25 11.4624H13.5C13.9142 11.4624 14.25 11.1254 14.25 10.7097C14.25 10.294 13.9142 9.95701 13.5 9.95701H11.25Z" fill="#A3BDAE"/>
<path d="M7.125 8.07529C7.125 8.49098 6.7892 8.82798 6.375 8.82798C5.9608 8.82798 5.625 8.49098 5.625 8.07529C5.625 7.65961 5.9608 7.3226 6.375 7.3226C6.7892 7.3226 7.125 7.65961 7.125 8.07529Z" fill="#A3BDAE"/>
</svg>
