<svg width="22" height="22" viewBox="0 0 22 22" fill="none" xmlns="http://www.w3.org/2000/svg">
<path fill-rule="evenodd" clip-rule="evenodd" d="M0.916626 11C0.916626 5.43113 5.43109 0.916668 11 0.916668C16.5688 0.916668 21.0833 5.43113 21.0833 11C21.0833 16.5689 16.5688 21.0833 11 21.0833C5.43109 21.0833 0.916626 16.5689 0.916626 11ZM11 2.75C6.44361 2.75 2.74996 6.44365 2.74996 11C2.74996 15.5564 6.44361 19.25 11 19.25C15.5563 19.25 19.25 15.5564 19.25 11C19.25 6.44365 15.5563 2.75 11 2.75ZM11.0039 4.58333C11.5101 4.58339 11.9205 4.99383 11.9204 5.50009L11.9199 10.6244L15.5378 14.2422C15.8958 14.6002 15.8958 15.1806 15.5378 15.5386C15.1798 15.8966 14.5994 15.8966 14.2414 15.5386L10.355 11.6522C10.1831 11.4803 10.0865 11.2471 10.0865 11.0039L10.0871 5.49991C10.0871 4.99365 10.4976 4.58328 11.0039 4.58333Z" fill="black" fill-opacity="0.85"/>
<path fill-rule="evenodd" clip-rule="evenodd" d="M2.75 11C2.75 6.44365 6.44365 2.75 11 2.75C15.5564 2.75 19.25 6.44365 19.25 11C19.25 15.5564 15.5564 19.25 11 19.25C6.44365 19.25 2.75 15.5564 2.75 11ZM11.0039 4.58333C11.5102 4.58338 11.9205 4.99383 11.9205 5.50009L11.92 10.6244L15.5378 14.2422C15.8958 14.6002 15.8958 15.1806 15.5378 15.5386C15.1798 15.8966 14.5994 15.8966 14.2415 15.5386L10.3551 11.6522C10.1831 11.4803 10.0866 11.2471 10.0866 11.0039L10.0871 5.49991C10.0872 4.99365 10.4976 4.58328 11.0039 4.58333Z" fill="#91D5FF"/>
</svg>
