<svg width="42" height="34" viewBox="0 0 42 34" fill="none" xmlns="http://www.w3.org/2000/svg">
<path d="M40.9349 30.2995H0.311324C0.105177 30.0723 0 29.8367 0 29.6011H41.2462C41.2462 29.8367 41.1411 30.0723 40.9349 30.2995Z" fill="#91D5FF"/>
<path d="M15.2759 33.4758C10.2694 33.2149 6.01608 32.6007 3.27727 31.7719C5.78469 31.8939 8.29632 32.0874 10.85 32.3777C8.05652 31.9654 5.27564 31.6878 2.47372 31.5069C1.43878 31.1366 0.698331 30.7286 0.311279 30.2994H40.9349H39.1805C36.5932 30.4846 34.0268 30.6865 31.4521 30.8758C26.6308 31.2376 21.8011 31.6163 16.9293 31.9907L18.4775 31.9108C23.3661 31.6373 28.2295 31.368 33.0634 31.0946C34.9272 30.9936 36.7783 30.8884 38.621 30.779C39.2478 30.7454 39.8747 30.7075 40.5015 30.6739C39.7274 31.2166 38.377 31.7172 36.5847 32.1421C35.8738 32.1548 35.167 32.1716 34.456 32.1926C34.6747 32.1926 34.8893 32.1926 35.1081 32.1926C35.5246 32.1926 35.9369 32.1926 36.3492 32.1968C33.8417 32.769 30.5223 33.2065 26.7318 33.4337C24.9017 33.3874 23.08 33.358 21.271 33.358C20.6105 33.358 19.9542 33.3622 19.2978 33.3706C17.939 33.3874 16.6011 33.4253 15.2759 33.4758Z" fill="#91D5FF"/>
<path d="M10.8501 32.3778C8.29636 32.0875 5.78473 31.8939 3.27731 31.7719C2.99123 31.6836 2.72618 31.5952 2.47375 31.5069C5.27567 31.6878 8.05655 31.9655 10.8501 32.3778Z" fill="#91D5FF"/>
<path d="M20.6231 33.6147C18.772 33.6147 16.9797 33.5642 15.2759 33.4758C16.6011 33.4253 17.939 33.3875 19.2979 33.3707C19.9542 33.3622 20.6105 33.358 21.271 33.358C23.08 33.358 24.9017 33.3875 26.7318 33.4338C24.8049 33.5516 22.7519 33.6147 20.6231 33.6147Z" fill="#91D5FF"/>
<path d="M16.9292 31.9907C21.801 31.6163 26.6307 31.2376 31.4521 30.8758C34.0268 30.6865 36.5931 30.4846 39.1805 30.2994H40.9348C40.8212 30.4257 40.674 30.5477 40.5015 30.6739C39.8746 30.7075 39.2478 30.7454 38.6209 30.779C36.7782 30.8884 34.9271 30.9936 33.0634 31.0946C28.2294 31.368 23.366 31.6373 18.4774 31.9108L16.9292 31.9907Z" fill="#91D5FF"/>
<path d="M36.3492 32.1968C35.9369 32.1926 35.5247 32.1926 35.1082 32.1926C34.8894 32.1926 34.6748 32.1926 34.4561 32.1926C35.1671 32.1716 35.8738 32.1548 36.5848 32.1422C36.5049 32.159 36.4292 32.1758 36.3492 32.1968Z" fill="#91D5FF"/>
<path d="M41.2462 29.6011H0V29.5969C0 29.1341 0.40388 28.6881 1.14433 28.2758C2.03623 28.2674 2.92392 28.259 3.81162 28.2548C5.66694 28.2464 7.52226 28.238 9.38179 28.238C15.8481 28.238 22.348 28.3095 28.9027 28.4568C32.8741 28.5493 36.8414 28.6797 40.7919 28.7555C41.0906 29.0289 41.2462 29.3108 41.2462 29.5969V29.6011ZM40.5773 28.583C36.2987 28.4105 32.0159 28.1959 27.7541 28.0487C21.1322 27.8173 14.5649 27.7121 8.05656 27.7121C6.19283 27.7121 4.3375 27.7205 2.48218 27.7373C2.4359 27.7373 2.38962 27.7373 2.34335 27.7373C4.19026 27.0516 7.03424 26.4794 10.5009 26.1008C16.9293 26.1933 23.4166 26.3995 29.9502 26.7318C32.1758 26.8454 34.4097 26.959 36.6479 27.0684C38.4696 27.506 39.8285 28.0192 40.5773 28.583ZM32.9415 26.3785C27.0095 26.084 21.1448 25.8484 15.318 25.7179C17.0092 25.6296 18.7888 25.5833 20.6231 25.5833C25.2383 25.5833 29.5043 25.8778 32.9415 26.3785Z" fill="#91D5FF"/>
<path d="M40.7918 28.7555C36.8414 28.6797 32.8741 28.5493 28.9026 28.4568C22.348 28.3095 15.848 28.238 9.38176 28.238C7.52223 28.238 5.6669 28.2464 3.81158 28.2548C2.92388 28.259 2.03619 28.2674 1.14429 28.2758C1.48085 28.0907 1.88053 27.9098 2.34331 27.7373C2.38958 27.7373 2.43586 27.7373 2.48214 27.7373C4.33746 27.7205 6.19279 27.7121 8.05652 27.7121C14.5649 27.7121 21.1321 27.8173 27.7541 28.0487C32.0159 28.1959 36.2987 28.4105 40.5773 28.583C40.6572 28.6377 40.7245 28.6966 40.7918 28.7555Z" fill="#91D5FF"/>
<path d="M36.6479 27.0684C34.4097 26.959 32.1757 26.8454 29.9502 26.7318C23.4166 26.3994 16.9293 26.1933 10.5009 26.1007C11.9986 25.9325 13.6141 25.8062 15.318 25.7179C21.1448 25.8483 27.0094 26.0839 32.9414 26.3784C34.3214 26.5761 35.5667 26.8117 36.6479 27.0684Z" fill="#635743"/>
<path d="M37.4556 6.96694H3.79053V2.73041H37.4556V6.96694Z" fill="black"/>
<path d="M37.4556 6.96691C37.4556 8.47726 29.9207 9.70152 20.6231 9.70152C11.3254 9.70152 3.79053 8.47726 3.79053 6.96691C3.79053 5.46078 11.3254 4.24072 20.6231 4.24072C29.9207 4.24072 37.4556 5.46078 37.4556 6.96691Z" fill="black"/>
<path d="M37.4556 2.7304C37.4556 4.24074 29.9207 5.46079 20.6231 5.46079C11.3254 5.46079 3.79053 4.24074 3.79053 2.7304C3.79053 1.22005 11.3254 0 20.6231 0C29.9207 0 37.4556 1.22005 37.4556 2.7304Z" fill="#3C3C3B"/>
<path d="M37.4556 28.9742H3.79053V24.7335H37.4556V28.9742Z" fill="black"/>
<path d="M37.4556 28.9742C37.4556 30.4804 29.9207 31.7046 20.6231 31.7046C11.3254 31.7046 3.79053 30.4804 3.79053 28.9742C3.79053 27.4639 11.3254 26.2396 20.6231 26.2396C29.9207 26.2396 37.4556 27.4639 37.4556 28.9742Z" fill="black"/>
<path d="M37.4556 24.7334C37.4556 26.2396 29.9207 27.4638 20.6231 27.4638C11.3254 27.4638 3.79053 26.2396 3.79053 24.7334C3.79053 23.2273 11.3254 22.0031 20.6231 22.0031C29.9207 22.0031 37.4556 23.2273 37.4556 24.7334Z" fill="#3C3C3B"/>
<path d="M30.8925 5.30518H10.3535L10.3788 23.8584C13.1386 26.1429 28.0064 25.7516 30.8673 23.8584L30.8925 5.30518Z" fill="black"/>
<path d="M30.8673 23.8584C30.8673 24.7755 26.2816 25.5202 20.623 25.5202C14.9645 25.5202 10.3788 24.7755 10.3788 23.8584C10.3788 22.9412 14.9645 22.1966 20.623 22.1966C26.2816 22.1966 30.8673 22.9412 30.8673 23.8584Z" fill="black"/>
</svg>
