<svg width="40" height="40" viewBox="0 0 40 40" fill="none" xmlns="http://www.w3.org/2000/svg">
<path d="M39.6981 36.055H0.301918C0.101999 35.7847 0 35.5043 0 35.224H40C40 35.5043 39.898 35.7847 39.6981 36.055Z" fill="#91D5FF"/>
<path d="M14.8143 39.8348C9.95916 39.5244 5.83432 38.7935 3.17826 37.8072C5.60992 37.9524 8.04566 38.1827 10.5222 38.5281C7.8131 38.0375 5.11624 37.7071 2.39898 37.4918C1.39531 37.0513 0.677237 36.5657 0.30188 36.0551H39.698H37.9967C35.4875 36.2753 32.9987 36.5156 30.5018 36.7409C25.8262 37.1714 21.1424 37.622 16.4178 38.0676L17.9192 37.9724C22.6601 37.647 27.3765 37.3266 32.0644 37.0012C33.8719 36.8811 35.667 36.7559 37.4541 36.6258C38.062 36.5857 38.6699 36.5407 39.2778 36.5006C38.5271 37.1464 37.2174 37.7422 35.4794 38.2478C34.7898 38.2628 34.1044 38.2828 33.4149 38.3079C33.6271 38.3079 33.8351 38.3079 34.0473 38.3079C34.4512 38.3079 34.851 38.3079 35.2509 38.3129C32.8192 38.9937 29.6001 39.5144 25.9241 39.7847C24.1493 39.7296 22.3827 39.6946 20.6283 39.6946C19.9877 39.6946 19.3512 39.6996 18.7148 39.7096C17.3969 39.7296 16.0995 39.7747 14.8143 39.8348Z" fill="#91D5FF"/>
<path d="M10.5223 38.5282C8.04572 38.1827 5.60998 37.9525 3.17832 37.8073C2.90088 37.7021 2.64385 37.597 2.39905 37.4919C5.11631 37.7072 7.81317 38.0376 10.5223 38.5282Z" fill="#91D5FF"/>
<path d="M20 40C18.2048 40 16.4667 39.9399 14.8143 39.8348C16.0995 39.7747 17.397 39.7297 18.7148 39.7097C19.3513 39.6996 19.9877 39.6946 20.6283 39.6946C22.3827 39.6946 24.1493 39.7297 25.9241 39.7848C24.0555 39.9249 22.0644 40 20 40Z" fill="#91D5FF"/>
<path d="M16.4177 38.0676C21.1423 37.622 25.8261 37.1714 30.5018 36.7409C32.9987 36.5156 35.4875 36.2753 37.9967 36.0551H39.698C39.5879 36.2052 39.4451 36.3504 39.2778 36.5006C38.6699 36.5407 38.062 36.5857 37.454 36.6258C35.667 36.7559 33.8718 36.8811 32.0644 37.0012C27.3765 37.3266 22.6601 37.647 17.9192 37.9724L16.4177 38.0676Z" fill="#91D5FF"/>
<path d="M35.2509 38.3129C34.8511 38.3079 34.4512 38.3079 34.0473 38.3079C33.8352 38.3079 33.6271 38.3079 33.4149 38.3079C34.1044 38.2828 34.7899 38.2628 35.4794 38.2478C35.4019 38.2678 35.3284 38.2879 35.2509 38.3129Z" fill="#91D5FF"/>
<path d="M40 35.224H0V35.219C0 34.6683 0.391677 34.1377 1.10975 33.6471C1.9747 33.637 2.83558 33.627 3.69645 33.622C5.49572 33.612 7.29498 33.602 9.09833 33.602C15.3692 33.602 21.6728 33.6871 28.0294 33.8623C31.8809 33.9725 35.7283 34.1277 39.5594 34.2178C39.849 34.5432 40 34.8786 40 35.219V35.224ZM39.3513 34.0125C35.202 33.8073 31.0486 33.5519 26.9155 33.3767C20.4937 33.1014 14.1248 32.9762 7.81314 32.9762C6.00571 32.9762 4.20645 32.9862 2.40718 33.0063C2.3623 33.0063 2.31742 33.0063 2.27254 33.0063C4.06365 32.1902 6.82171 31.5094 10.1836 31.0588C16.4178 31.169 22.7091 31.4143 29.0453 31.8098C31.2036 31.9449 33.3701 32.0801 35.5406 32.2103C37.3072 32.7309 38.625 33.3417 39.3513 34.0125ZM31.9461 31.3892C26.1934 31.0388 20.5059 30.7584 14.8552 30.6033C16.4953 30.4981 18.2211 30.4431 20 30.4431C24.4757 30.4431 28.6128 30.7935 31.9461 31.3892Z" fill="#91D5FF"/>
<path d="M39.5594 34.2177C35.7283 34.1276 31.8809 33.9724 28.0294 33.8623C21.6728 33.6871 15.3692 33.602 9.09832 33.602C7.29497 33.602 5.49571 33.612 3.69644 33.622C2.83557 33.627 1.97469 33.637 1.10974 33.647C1.43614 33.4268 1.82374 33.2115 2.27253 33.0062C2.31741 33.0062 2.36229 33.0062 2.40717 33.0062C4.20644 32.9862 6.0057 32.9762 7.81313 32.9762C14.1248 32.9762 20.4937 33.1014 26.9155 33.3767C31.0485 33.5519 35.202 33.8072 39.3513 34.0125C39.4288 34.0776 39.4941 34.1477 39.5594 34.2177Z" fill="#91D5FF"/>
<path d="M35.5406 32.2102C33.3701 32.0801 31.2036 31.9449 29.0453 31.8097C22.7091 31.4142 16.4178 31.1689 10.1836 31.0588C11.6361 30.8585 13.2028 30.7083 14.8552 30.6032C20.5059 30.7584 26.1934 31.0388 31.9461 31.3892C33.2844 31.6245 34.492 31.9048 35.5406 32.2102Z" fill="#635743"/>
<path d="M36.3239 8.29038H3.67603V3.24908H36.3239V8.29038Z" fill="black"/>
<path d="M36.3239 8.29031C36.3239 10.0876 29.0167 11.5444 20 11.5444C10.9832 11.5444 3.67603 10.0876 3.67603 8.29031C3.67603 6.49808 10.9832 5.04626 20 5.04626C29.0167 5.04626 36.3239 6.49808 36.3239 8.29031Z" fill="black"/>
<path d="M36.3239 3.24906C36.3239 5.0463 29.0167 6.49811 20 6.49811C10.9832 6.49811 3.67603 5.0463 3.67603 3.24906C3.67603 1.45181 10.9832 0 20 0C29.0167 0 36.3239 1.45181 36.3239 3.24906Z" fill="#3C3C3B"/>
<path d="M36.3239 34.4781H3.67603V29.4318H36.3239V34.4781Z" fill="black"/>
<path d="M36.3239 34.4781C36.3239 36.2704 29.0167 37.7272 20 37.7272C10.9832 37.7272 3.67603 36.2704 3.67603 34.4781C3.67603 32.6809 10.9832 31.2241 20 31.2241C29.0167 31.2241 36.3239 32.6809 36.3239 34.4781Z" fill="black"/>
<path d="M36.3239 29.4317C36.3239 31.224 29.0167 32.6808 20 32.6808C10.9832 32.6808 3.67603 31.224 3.67603 29.4317C3.67603 27.6395 10.9832 26.1827 20 26.1827C29.0167 26.1827 36.3239 27.6395 36.3239 29.4317Z" fill="#3C3C3B"/>
<path d="M29.9591 6.31293H10.0406L10.0651 28.3905C12.7416 31.1089 27.1602 30.6433 29.9346 28.3905L29.9591 6.31293Z" fill="black"/>
<path d="M29.9346 28.3905C29.9346 29.4819 25.4875 30.368 19.9999 30.368C14.5124 30.368 10.0652 29.4819 10.0652 28.3905C10.0652 27.2991 14.5124 26.413 19.9999 26.413C25.4875 26.413 29.9346 27.2991 29.9346 28.3905Z" fill="black"/>
</svg>
