<svg width="208" height="97" viewBox="0 0 208 97" fill="none" xmlns="http://www.w3.org/2000/svg">
<path d="M94.9402 0C89.5909 11.5053 84.2429 23.0107 78.8936 34.516L118.366 36.6733C119.458 24.6067 120.147 12.116 120.044 0H94.9402Z" fill="#5E6061"/>
<path d="M191.151 62.2736C183.681 63.1043 176.985 65.5096 169.489 64.9869C164.236 75.1695 153.731 81.5268 143.184 86.0001C109.431 100.312 69.7894 100.08 36.2067 85.3736C27.7734 81.6815 18.4774 74.8591 19.6921 65.7349C20.3401 60.8696 23.9414 56.9563 27.6574 53.7509C43.3174 40.2496 63.8254 33.3923 84.3507 30.9003C104.877 28.4083 125.655 29.9763 146.272 31.5483C153.075 32.0669 160.257 37.9349 164.883 42.9523C173.951 42.4243 183.273 42.4949 192.321 43.3136C192.945 50.0203 192.227 55.6256 191.151 62.2736Z" fill="#7A7B7C"/>
<path d="M199.499 45.8802C202.456 39.3029 204.732 30.2162 197.32 29.1909C187.055 27.7735 188.704 43.9322 189.1 49.5509C189.181 50.7189 189.813 51.5189 190.628 51.9482C190.419 52.3629 190.298 52.8509 190.324 53.4309C190.544 58.2695 191.067 74.4959 199.439 71.6869C200.757 71.2442 201.658 70.1362 201.694 68.7255C201.796 64.6415 201.377 60.7149 200.42 56.8602C204.16 57.4576 207.814 56.7695 207.786 51.6615C207.764 47.3015 203.674 46.0215 199.499 45.8802Z" fill="#5E6061"/>
<path d="M77.1374 47.5172C61.3774 47.5172 61.3507 72.0117 77.1374 72.0117C92.8974 72.0117 92.924 47.5172 77.1374 47.5172Z" fill="#B1B1B0"/>
<path d="M77.1374 50.5572C65.2894 50.5572 65.2707 68.9692 77.1374 68.9692C88.9854 68.9692 89.0041 50.5572 77.1374 50.5572Z" fill="#E9E8E7"/>
<path d="M112.583 47.5172C96.8227 47.5172 96.796 72.0117 112.583 72.0117C128.344 72.0117 128.371 47.5172 112.583 47.5172Z" fill="#B1B1B0"/>
<path d="M112.583 50.5572C100.735 50.5572 100.716 68.9692 112.583 68.9692C124.431 68.9692 124.449 50.5572 112.583 50.5572Z" fill="#E9E8E7"/>
<path d="M44.3562 62.6933C43.7829 57.1386 43.8722 50.0066 39.5429 45.8773C39.4495 45.7906 39.2762 45.9093 39.3575 46.0213C43.3615 51.416 43.3709 58.7093 43.9335 65.168C44.5415 72.1358 44.8349 79.5238 42.7949 86.2905C42.6189 86.8708 43.5909 87.117 43.6895 86.5358C45.0495 78.5025 45.1949 70.812 44.3562 62.6933Z" fill="#959595"/>
<path d="M165.761 59.8162C157.797 66.4069 147.088 68.9709 137.253 71.4362C126.896 74.0325 116.343 75.8418 105.715 76.8538C84.8855 78.8377 64.8894 76.8334 44.2721 74.0028C44.1174 73.9804 44.0454 74.2017 44.2054 74.2429C64.9548 79.4694 87.8481 79.4866 108.992 77.1601C119.389 76.0162 129.704 74.1173 139.823 71.4616C149.061 69.0362 158.743 66.4442 166.348 60.4042C166.764 60.0749 166.172 59.4749 165.761 59.8162Z" fill="#959595"/>
<path d="M164.395 49.8867C125.374 33.492 81.9709 39.696 43.4095 54.1907C43.0882 54.3107 43.2242 54.8307 43.5536 54.7107C82.1856 40.5573 125.176 34.196 164.19 50.6347C164.648 50.828 164.85 50.0787 164.395 49.8867Z" fill="#959595"/>
<path d="M168.485 64.1401C163.705 58.4575 164.835 51.4894 165.216 44.6654C165.224 44.4934 164.955 44.4575 164.916 44.6255C163.325 51.5455 163.008 59.1188 167.751 64.8748C168.175 65.3908 168.913 64.6508 168.485 64.1401Z" fill="#959595"/>
<path d="M168.179 44.6839C168.159 44.1505 167.323 44.1492 167.348 44.6839C167.689 51.5225 169.127 58.7385 172.655 64.6905C172.771 64.8852 173.123 64.7559 173.035 64.5292C170.445 57.9252 168.465 51.8679 168.179 44.6839Z" fill="#959595"/>
<path d="M119.183 21.2509C110.325 21.4523 101.447 21.2602 92.6041 21.4616C92.3734 21.4682 92.2988 21.8429 92.5481 21.8829C101.067 23.2629 110.723 22.9469 119.245 21.7136C119.511 21.6749 119.445 21.2456 119.183 21.2509Z" fill="#7A7B7C"/>
<path d="M119.16 12.6363C111.363 12.6203 103.557 12.515 95.7615 12.6363C95.6202 12.6376 95.5028 12.7323 95.4615 12.8643C94.5028 15.8963 93.4442 18.9123 92.7375 22.0136C92.7095 22.139 92.8775 22.1776 92.9255 22.0656C93.8095 19.9696 94.1775 17.2523 95.3162 15.3003C96.9615 12.4763 100.371 13.3283 103.282 13.3577C108.575 13.407 113.867 13.4416 119.16 13.4816C119.703 13.4856 119.704 12.6376 119.16 12.6363Z" fill="#7A7B7C"/>
<path d="M39.1855 17.0814C37.9201 18.0681 36.8615 19.3374 36.0135 20.8654C35.7775 21.2947 35.5814 21.7494 35.3681 22.1921C35.1588 22.6254 34.0788 24.2841 35.1614 22.8694C32.7534 26.0174 32.1455 30.3667 34.6215 32.9574C35.0415 33.3974 35.4974 33.6841 35.9641 33.9067C37.8508 35.8294 40.7401 36.0121 43.2374 34.3774C47.9628 31.2867 51.0228 22.0107 47.6561 17.5187C45.6495 14.8427 41.9948 14.8974 39.1855 17.0814Z" fill="#FFFF"/>
<path d="M29.6587 34.5105C22.8427 34.5105 22.8321 45.1025 29.6587 45.1025C36.4734 45.1025 36.4854 34.5105 29.6587 34.5105Z" fill="#FFFF"/>
<path d="M14.5948 62.7559C12.6935 62.7559 10.8721 64.4266 10.9588 66.3906C11.0481 68.3586 12.5561 70.0239 14.5948 70.0239C16.4961 70.0239 18.3175 68.3533 18.2281 66.3906C18.1401 64.4213 16.6321 62.7559 14.5948 62.7559Z" fill="#FFFF"/>
<path d="M14.0454 55.4239C15.3347 51.8466 14.2654 47.4533 10.8641 45.4213C7.24272 43.2573 1.97608 45.0106 1.02008 49.3226C0.924077 49.7626 0.890736 50.2333 0.912069 50.7053C0.365402 51.6399 0.0293932 52.7412 0.00272655 53.9292C-0.0866068 57.8906 2.01738 62.4893 6.59205 62.4893C10.48 62.4893 12.8681 58.6853 14.0454 55.4239Z" fill="#FFFF"/>
<path d="M77.3748 4.25984C72.1708 2.49184 67.0268 7.8425 69.5095 12.8652C69.6521 13.1505 69.8428 13.4092 70.0561 13.6465C69.9655 15.1145 70.4335 16.6398 71.5775 17.7985C74.8041 21.0585 79.8575 19.1358 81.5375 15.3172C83.4228 11.0332 82.1335 5.87584 77.3748 4.25984Z" fill="#FFFF"/>
</svg>
