<svg width="22" height="22" viewBox="0 0 22 22" fill="none" xmlns="http://www.w3.org/2000/svg">
<path fill-rule="evenodd" clip-rule="evenodd" d="M11 0.916664C11.3249 0.916664 11.6255 1.08858 11.7901 1.36856L16.3735 9.16023C16.5402 9.44366 16.5423 9.79467 16.3791 10.0801C16.2158 10.3655 15.9122 10.5417 15.5834 10.5417H6.41671C6.08788 10.5417 5.78425 10.3655 5.621 10.0801C5.45774 9.79467 5.45988 9.44366 5.6266 9.16023L10.2099 1.36856C10.3746 1.08858 10.6752 0.916664 11 0.916664ZM8.01942 8.70833H13.9807L11 3.64128L8.01942 8.70833ZM16.5 13.75C14.9813 13.75 13.75 14.9812 13.75 16.5C13.75 18.0188 14.9813 19.25 16.5 19.25C18.0188 19.25 19.25 18.0188 19.25 16.5C19.25 14.9812 18.0188 13.75 16.5 13.75ZM11.9167 16.5C11.9167 13.9687 13.9687 11.9167 16.5 11.9167C19.0313 11.9167 21.0834 13.9687 21.0834 16.5C21.0834 19.0313 19.0313 21.0833 16.5 21.0833C13.9687 21.0833 11.9167 19.0313 11.9167 16.5ZM1.83337 13.2917C1.83337 12.7854 2.24378 12.375 2.75004 12.375H9.16671C9.67297 12.375 10.0834 12.7854 10.0834 13.2917V19.7083C10.0834 20.2146 9.67297 20.625 9.16671 20.625H2.75004C2.24378 20.625 1.83337 20.2146 1.83337 19.7083V13.2917ZM3.66671 14.2083V18.7917H8.25004V14.2083H3.66671Z" fill="black" fill-opacity="0.85"/>
<path d="M13.9806 8.70865H8.01934L11 3.6416L13.9806 8.70865Z" fill="#A3BDAE"/>
<path d="M3.66663 18.792V14.2087H8.24996V18.792H3.66663Z" fill="#A3BDAE"/>
<path d="M13.75 16.5003C13.75 14.9815 14.9812 13.7503 16.5 13.7503C18.0187 13.7503 19.25 14.9815 19.25 16.5003C19.25 18.0191 18.0187 19.2503 16.5 19.2503C14.9812 19.2503 13.75 18.0191 13.75 16.5003Z" fill="#A3BDAE"/>
</svg>
