<svg width="20" height="20" viewBox="0 0 20 20" fill="none" xmlns="http://www.w3.org/2000/svg">
<path fill-rule="evenodd" clip-rule="evenodd" d="M0.833374 10C0.833374 4.9374 4.93743 0.833344 10 0.833344C15.0627 0.833344 19.1667 4.9374 19.1667 10C19.1667 15.0626 15.0627 19.1667 10 19.1667C4.93743 19.1667 0.833374 15.0626 0.833374 10ZM10 2.50001C5.8579 2.50001 2.50004 5.85787 2.50004 10C2.50004 14.1421 5.8579 17.5 10 17.5C14.1422 17.5 17.5 14.1421 17.5 10C17.5 5.85787 14.1422 2.50001 10 2.50001ZM9.19899 5.86909C9.52443 5.54365 10.0521 5.54365 10.3775 5.86909L14.1275 9.61909C14.4529 9.94452 14.4529 10.4722 14.1275 10.7976L10.3775 14.5476C10.0521 14.873 9.52443 14.873 9.19899 14.5476C8.87356 14.2222 8.87356 13.6945 9.19899 13.3691L11.5264 11.0417H6.03825C5.57801 11.0417 5.20492 10.6686 5.20492 10.2083C5.20492 9.74811 5.57801 9.37501 6.03825 9.37501H11.5264L9.19899 7.0476C8.87356 6.72216 8.87356 6.19452 9.19899 5.86909Z" fill="black" fill-opacity="0.85"/>
<path fill-rule="evenodd" clip-rule="evenodd" d="M2.5 10C2.5 5.85786 5.85786 2.5 10 2.5C14.1421 2.5 17.5 5.85786 17.5 10C17.5 14.1421 14.1421 17.5 10 17.5C5.85786 17.5 2.5 14.1421 2.5 10ZM9.19895 5.86908C9.52439 5.54364 10.052 5.54364 10.3775 5.86908L14.1275 9.61908C14.4529 9.94451 14.4529 10.4722 14.1275 10.7976L10.3775 14.5476C10.052 14.873 9.52439 14.873 9.19895 14.5476C8.87352 14.2222 8.87352 13.6945 9.19895 13.3691L11.5264 11.0417H6.03821C5.57797 11.0417 5.20487 10.6686 5.20487 10.2083C5.20487 9.7481 5.57797 9.375 6.03821 9.375H11.5264L9.19895 7.04759C8.87352 6.72215 8.87352 6.19451 9.19895 5.86908Z" fill="#91D5FF"/>
</svg>
