<svg width="20" height="20" viewBox="0 0 20 20" fill="none" xmlns="http://www.w3.org/2000/svg">
<path fill-rule="evenodd" clip-rule="evenodd" d="M7.5 6.24999C7.5 4.8693 8.6193 3.74999 10 3.74999C11.3807 3.74999 12.5 4.8693 12.5 6.24999C12.5 6.81276 12.314 7.3321 12.0002 7.74993C12.8097 8.35807 13.3333 9.32622 13.3333 10.4167C13.3333 10.8769 12.9602 11.25 12.5 11.25C12.0398 11.25 11.6667 10.8769 11.6667 10.4167C11.6667 9.49619 10.9205 8.74999 10 8.74999C9.07953 8.74999 8.33333 9.49619 8.33333 10.4167C8.33333 10.8769 7.96024 11.25 7.5 11.25C7.03976 11.25 6.66667 10.8769 6.66667 10.4167C6.66667 9.32622 7.19027 8.35807 7.99977 7.74993C7.68596 7.3321 7.5 6.81276 7.5 6.24999ZM10 7.08333C10.4602 7.08333 10.8333 6.71022 10.8333 6.24999C10.8333 5.78977 10.4602 5.41666 10 5.41666C9.53978 5.41666 9.16667 5.78977 9.16667 6.24999C9.16667 6.71022 9.53978 7.08333 10 7.08333Z" fill="black" fill-opacity="0.85"/>
<path d="M6.66667 12.9167C6.66667 12.4564 7.03976 12.0833 7.5 12.0833H12.5C12.9602 12.0833 13.3333 12.4564 13.3333 12.9167C13.3333 13.3769 12.9602 13.75 12.5 13.75H7.5C7.03976 13.75 6.66667 13.3769 6.66667 12.9167Z" fill="black" fill-opacity="0.85"/>
<path d="M7.5 14.5833C7.03976 14.5833 6.66667 14.9564 6.66667 15.4167C6.66667 15.8769 7.03976 16.25 7.5 16.25H10.4167C10.8769 16.25 11.25 15.8769 11.25 15.4167C11.25 14.9564 10.8769 14.5833 10.4167 14.5833H7.5Z" fill="black" fill-opacity="0.85"/>
<path fill-rule="evenodd" clip-rule="evenodd" d="M2.5 1.66666C2.5 1.20642 2.8731 0.833328 3.33333 0.833328H16.6667C17.1269 0.833328 17.5 1.20642 17.5 1.66666V18.3333C17.5 18.7936 17.1269 19.1667 16.6667 19.1667H3.33333C2.8731 19.1667 2.5 18.7936 2.5 18.3333V1.66666ZM4.16667 2.49999V17.5H15.8333V2.49999H4.16667Z" fill="black" fill-opacity="0.85"/>
<path fill-rule="evenodd" clip-rule="evenodd" d="M4.16663 17.5V2.5H15.8333V17.5H4.16663ZM7.49996 6.25C7.49996 4.8693 8.61926 3.75 9.99996 3.75C11.3807 3.75 12.5 4.8693 12.5 6.25C12.5 6.81277 12.314 7.33211 12.0002 7.74993C12.8097 8.35808 13.3333 9.32622 13.3333 10.4167C13.3333 10.8769 12.9602 11.25 12.5 11.25C12.0397 11.25 11.6666 10.8769 11.6666 10.4167C11.6666 9.4962 10.9204 8.75 9.99996 8.75C9.07949 8.75 8.33329 9.4962 8.33329 10.4167C8.33329 10.8769 7.9602 11.25 7.49996 11.25C7.03972 11.25 6.66663 10.8769 6.66663 10.4167C6.66663 9.32622 7.19023 8.35808 7.99973 7.74993C7.68592 7.33211 7.49996 6.81277 7.49996 6.25ZM6.66663 12.9167C6.66663 12.4564 7.03972 12.0833 7.49996 12.0833H12.5C12.9602 12.0833 13.3333 12.4564 13.3333 12.9167C13.3333 13.3769 12.9602 13.75 12.5 13.75H7.49996C7.03972 13.75 6.66663 13.3769 6.66663 12.9167ZM7.49996 14.5833C7.03972 14.5833 6.66663 14.9564 6.66663 15.4167C6.66663 15.8769 7.03972 16.25 7.49996 16.25H10.4166C10.8769 16.25 11.25 15.8769 11.25 15.4167C11.25 14.9564 10.8769 14.5833 10.4166 14.5833H7.49996Z" fill="#A3BDAE"/>
<path d="M10.8333 6.25C10.8333 6.71022 10.4602 7.08333 9.99996 7.08333C9.53974 7.08333 9.16663 6.71022 9.16663 6.25C9.16663 5.78978 9.53974 5.41667 9.99996 5.41667C10.4602 5.41667 10.8333 5.78978 10.8333 6.25Z" fill="#A3BDAE"/>
</svg>
