<svg width="22" height="22" viewBox="0 0 22 22" fill="none" xmlns="http://www.w3.org/2000/svg">
<path fill-rule="evenodd" clip-rule="evenodd" d="M11 0.916664C9.55215 0.916664 8.38899 1.87845 7.63739 3.04169C7.02353 3.99175 6.60826 5.17834 6.4686 6.41666H4.12505C3.6483 6.41666 3.25114 6.78211 3.21155 7.25721L2.75543 12.7306L1.84259 19.1205C1.80501 19.3835 1.88344 19.65 2.05755 19.8507C2.23166 20.0515 2.48431 20.1668 2.75005 20.1668H19.25C19.5158 20.1668 19.7684 20.0515 19.9425 19.8507C20.1167 19.65 20.1951 19.3835 20.1575 19.1205L19.2447 12.7307L18.7885 7.25721C18.749 6.78211 18.3518 6.41666 17.875 6.41666H15.5315C15.3918 5.17834 14.9766 3.99175 14.3627 3.04169C13.6111 1.87845 12.4479 0.916664 11 0.916664ZM3.80697 18.3335L4.46175 13.75H8.70838V14.2083C8.70838 14.7146 9.11879 15.125 9.62505 15.125H12.375C12.8813 15.125 13.2917 14.7146 13.2917 14.2083V13.75H17.5383L18.1931 18.3335H3.80697ZM11.4584 12.375H10.5417L10.5417 13.2917H11.4584L11.4584 12.375ZM13.2917 11.9167H17.3371L17.0316 8.25H4.9685L4.66295 11.9167H8.70838V11.4583C8.70838 10.9521 9.11879 10.5417 9.62505 10.5417H12.375C12.4067 10.5417 12.438 10.5433 12.4688 10.5464C12.931 10.5933 13.2917 10.9837 13.2917 11.4583V11.9167ZM13.6833 6.41666C13.5538 5.52409 13.2438 4.6882 12.8228 4.03664C12.2474 3.146 11.5772 2.75 11 2.75C10.4229 2.75 9.75272 3.146 9.17725 4.03664C8.75627 4.6882 8.44631 5.52409 8.31682 6.41666H13.6833Z" fill="black" fill-opacity="0.85"/>
<path d="M17.3372 11.9167H13.2917V11.4583C13.2917 10.9837 12.931 10.5933 12.4688 10.5464C12.438 10.5433 12.4067 10.5417 12.3751 10.5417H9.62506C9.1188 10.5417 8.7084 10.9521 8.7084 11.4583V11.9167H4.66296L4.96852 8.25H17.0316L17.3372 11.9167Z" fill="#91D5FF"/>
</svg>
