<svg width="194" height="156" viewBox="0 0 194 156" fill="none" xmlns="http://www.w3.org/2000/svg">
<g filter="url(#filter0_d_202_21)">
<path d="M8 0.17627L192.5 5.17627L186 154.176L0.5 143.676L8 0.17627Z" fill="white"/>
</g>
<path d="M155.811 118.24L152.811 120.24C143.311 124.615 150.811 150.24 150.811 150.24C150.811 150.24 159.561 140.99 166.686 140.115C173.811 139.24 177.561 125.99 175.811 121.24L173.811 117.24" fill="#74ABEE"/>
<path d="M155.811 118.24L152.811 120.24C143.311 124.615 150.811 150.24 150.811 150.24C150.811 150.24 159.561 140.99 166.686 140.115C173.811 139.24 177.561 125.99 175.811 121.24L173.811 117.24" stroke="#9B9B9A" stroke-width="1.8" stroke-miterlimit="10" stroke-linecap="round" stroke-linejoin="round"/>
<path d="M155.811 119.24C155.811 119.24 149.311 113.74 155.561 104.49C155.561 104.49 154.811 101.24 152.811 101.24C150.811 101.24 157.811 98.24 158.811 102.24C158.811 102.24 165.811 99.24 169.811 102.24C169.811 102.24 175.061 98.74 176.936 100.49C176.936 100.49 172.811 103.24 174.811 105.24C176.811 107.24 178.811 115.24 173.811 119.24" fill="#74ABEE"/>
<path d="M165.811 119.24C165.811 119.24 155.811 119.24 155.811 111.365C155.811 102.631 164.001 106.629 164.811 108.24C164.811 108.24 171.811 102.24 173.936 109.74C175.994 117.005 165.811 119.24 165.811 119.24ZM150.831 148.24C150.831 148.24 149.952 141.24 152.733 139.24C155.514 137.24 165.811 129.24 162.811 124.24" fill="#A57939"/>
<path d="M162.811 111.24C162.811 111.24 163.311 109.74 159.811 109.24M166.811 111.24C166.811 111.24 166.311 109.74 169.811 109.24M163.436 114.67L165.186 116.24L167.186 114.584" stroke="black" stroke-width="1.5" stroke-miterlimit="10" stroke-linecap="round" stroke-linejoin="round"/>
<path d="M163.811 149.24C163.811 149.24 164.811 145.24 158.811 146.24V143.865M168.811 146.615C168.811 146.615 169.811 142.615 163.811 143.615V141.24M155.811 119.24C155.811 119.24 149.311 113.74 155.561 104.49C155.561 104.49 154.811 101.24 152.811 101.24C150.811 101.24 157.811 98.24 158.811 102.24C158.811 102.24 165.811 99.24 169.811 102.24C169.811 102.24 175.061 98.74 176.936 100.49C176.936 100.49 172.811 103.24 174.811 105.24C176.811 107.24 178.811 115.24 173.811 119.24" stroke="black" stroke-width="2" stroke-miterlimit="10" stroke-linecap="round" stroke-linejoin="round"/>
<path d="M152.811 120.24C143.311 124.615 150.811 150.24 150.811 150.24C150.811 150.24 159.561 140.99 166.686 140.115C173.811 139.24 177.561 125.99 175.811 121.24M165.811 119.24C165.811 119.24 155.811 119.24 155.811 111.365C155.811 102.631 164.001 106.629 164.811 108.24C164.811 108.24 171.811 102.24 173.936 109.74C175.994 117.005 165.811 119.24 165.811 119.24Z" stroke="black" stroke-width="2" stroke-miterlimit="10" stroke-linecap="round" stroke-linejoin="round"/>
<path d="M150.811 148.24C150.811 148.24 150.061 141.24 152.436 139.24C154.811 137.24 162.811 130.24 161.811 124.24" stroke="black" stroke-width="2" stroke-miterlimit="10" stroke-linecap="round" stroke-linejoin="round"/>
<path fill-rule="evenodd" clip-rule="evenodd" d="M86.939 37.0945C98.2984 36.7019 109.996 37.2664 118.944 44.018C128.963 51.5782 135.332 62.686 136.966 74.8432C138.851 88.8719 139.241 105.228 128.461 114.835C117.831 124.308 101.004 122.752 86.939 119.427C75.8825 116.812 69.2066 107.385 61.7857 99.0694C55.213 91.7041 48.001 84.5209 47.1535 74.8432C46.2384 64.3937 49.3954 53.5132 57.1518 46.1538C64.8629 38.8375 76.1217 37.4684 86.939 37.0945Z" fill="#C9C0BB"/>
<path d="M73.89 79.45H70.85L70.29 81H69.33L71.85 74.07H72.9L75.41 81H74.45L73.89 79.45ZM73.63 78.71L72.37 75.19L71.11 78.71H73.63ZM77.4183 76.54C77.6049 76.2133 77.8783 75.9467 78.2383 75.74C78.5983 75.5333 79.0083 75.43 79.4683 75.43C79.9616 75.43 80.4049 75.5467 80.7983 75.78C81.1916 76.0133 81.5016 76.3433 81.7283 76.77C81.9549 77.19 82.0683 77.68 82.0683 78.24C82.0683 78.7933 81.9549 79.2867 81.7283 79.72C81.5016 80.1533 81.1883 80.49 80.7883 80.73C80.3949 80.97 79.9549 81.09 79.4683 81.09C78.9949 81.09 78.5783 80.9867 78.2183 80.78C77.8649 80.5733 77.5983 80.31 77.4183 79.99V81H76.5083V73.6H77.4183V76.54ZM81.1383 78.24C81.1383 77.8267 81.0549 77.4667 80.8883 77.16C80.7216 76.8533 80.4949 76.62 80.2083 76.46C79.9283 76.3 79.6183 76.22 79.2783 76.22C78.9449 76.22 78.6349 76.3033 78.3483 76.47C78.0683 76.63 77.8416 76.8667 77.6683 77.18C77.5016 77.4867 77.4183 77.8433 77.4183 78.25C77.4183 78.6633 77.5016 79.0267 77.6683 79.34C77.8416 79.6467 78.0683 79.8833 78.3483 80.05C78.6349 80.21 78.9449 80.29 79.2783 80.29C79.6183 80.29 79.9283 80.21 80.2083 80.05C80.4949 79.8833 80.7216 79.6467 80.8883 79.34C81.0549 79.0267 81.1383 78.66 81.1383 78.24ZM85.6561 81.09C85.1428 81.09 84.6761 80.9733 84.2561 80.74C83.8428 80.5067 83.5161 80.1767 83.2761 79.75C83.0428 79.3167 82.9261 78.8167 82.9261 78.25C82.9261 77.69 83.0461 77.1967 83.2861 76.77C83.5328 76.3367 83.8661 76.0067 84.2861 75.78C84.7061 75.5467 85.1761 75.43 85.6961 75.43C86.2161 75.43 86.6861 75.5467 87.1061 75.78C87.5261 76.0067 87.8561 76.3333 88.0961 76.76C88.3428 77.1867 88.4661 77.6833 88.4661 78.25C88.4661 78.8167 88.3394 79.3167 88.0861 79.75C87.8394 80.1767 87.5028 80.5067 87.0761 80.74C86.6494 80.9733 86.1761 81.09 85.6561 81.09ZM85.6561 80.29C85.9828 80.29 86.2894 80.2133 86.5761 80.06C86.8628 79.9067 87.0928 79.6767 87.2661 79.37C87.4461 79.0633 87.5361 78.69 87.5361 78.25C87.5361 77.81 87.4494 77.4367 87.2761 77.13C87.1028 76.8233 86.8761 76.5967 86.5961 76.45C86.3161 76.2967 86.0128 76.22 85.6861 76.22C85.3528 76.22 85.0461 76.2967 84.7661 76.45C84.4928 76.5967 84.2728 76.8233 84.1061 77.13C83.9394 77.4367 83.8561 77.81 83.8561 78.25C83.8561 78.6967 83.9361 79.0733 84.0961 79.38C84.2628 79.6867 84.4828 79.9167 84.7561 80.07C85.0294 80.2167 85.3294 80.29 85.6561 80.29ZM94.5226 75.52V81H93.6126V80.19C93.4392 80.47 93.1959 80.69 92.8826 80.85C92.5759 81.0033 92.2359 81.08 91.8626 81.08C91.4359 81.08 91.0526 80.9933 90.7126 80.82C90.3726 80.64 90.1026 80.3733 89.9026 80.02C89.7092 79.6667 89.6126 79.2367 89.6126 78.73V75.52H90.5126V78.61C90.5126 79.15 90.6492 79.5667 90.9226 79.86C91.1959 80.1467 91.5692 80.29 92.0426 80.29C92.5292 80.29 92.9126 80.14 93.1926 79.84C93.4726 79.54 93.6126 79.1033 93.6126 78.53V75.52H94.5226ZM97.1691 76.27V79.5C97.1691 79.7667 97.2257 79.9567 97.3391 80.07C97.4524 80.1767 97.6491 80.23 97.9291 80.23H98.5991V81H97.7791C97.2724 81 96.8924 80.8833 96.6391 80.65C96.3857 80.4167 96.2591 80.0333 96.2591 79.5V76.27H95.5491V75.52H96.2591V74.14H97.1691V75.52H98.5991V76.27H97.1691ZM109.438 74.08V81H108.528V75.84L106.228 81H105.588L103.278 75.83V81H102.368V74.08H103.348L105.908 79.8L108.468 74.08H109.438ZM115.981 78.05C115.981 78.2233 115.971 78.4067 115.951 78.6H111.571C111.604 79.14 111.788 79.5633 112.121 79.87C112.461 80.17 112.871 80.32 113.351 80.32C113.744 80.32 114.071 80.23 114.331 80.05C114.598 79.8633 114.784 79.6167 114.891 79.31H115.871C115.724 79.8367 115.431 80.2667 114.991 80.6C114.551 80.9267 114.004 81.09 113.351 81.09C112.831 81.09 112.364 80.9733 111.951 80.74C111.544 80.5067 111.224 80.1767 110.991 79.75C110.758 79.3167 110.641 78.8167 110.641 78.25C110.641 77.6833 110.754 77.1867 110.981 76.76C111.208 76.3333 111.524 76.0067 111.931 75.78C112.344 75.5467 112.818 75.43 113.351 75.43C113.871 75.43 114.331 75.5433 114.731 75.77C115.131 75.9967 115.438 76.31 115.651 76.71C115.871 77.1033 115.981 77.55 115.981 78.05ZM115.041 77.86C115.041 77.5133 114.964 77.2167 114.811 76.97C114.658 76.7167 114.448 76.5267 114.181 76.4C113.921 76.2667 113.631 76.2 113.311 76.2C112.851 76.2 112.458 76.3467 112.131 76.64C111.811 76.9333 111.628 77.34 111.581 77.86H115.041Z" fill="black"/>
<defs>
<filter id="filter0_d_202_21" x="0.5" y="0.17627" width="193" height="155" filterUnits="userSpaceOnUse" color-interpolation-filters="sRGB">
<feFlood flood-opacity="0" result="BackgroundImageFix"/>
<feColorMatrix in="SourceAlpha" type="matrix" values="0 0 0 0 0 0 0 0 0 0 0 0 0 0 0 0 0 0 127 0" result="hardAlpha"/>
<feOffset dx="0.5" dy="0.5"/>
<feGaussianBlur stdDeviation="0.25"/>
<feComposite in2="hardAlpha" operator="out"/>
<feColorMatrix type="matrix" values="0 0 0 0 0.384314 0 0 0 0 0.678431 0 0 0 0 0.956863 0 0 0 0.3 0"/>
<feBlend mode="normal" in2="BackgroundImageFix" result="effect1_dropShadow_202_21"/>
<feBlend mode="normal" in="SourceGraphic" in2="effect1_dropShadow_202_21" result="shape"/>
</filter>
</defs>
</svg>
