<svg width="186" height="151" viewBox="0 0 186 151" fill="none" xmlns="http://www.w3.org/2000/svg">
<g filter="url(#filter0_d_202_22)">
<path d="M0.5 0H185V149.5L0.5 149.5V0Z" fill="white"/>
</g>
<path fill-rule="evenodd" clip-rule="evenodd" d="M62.6629 31.1701C74.0577 32.4168 79.9286 45.5427 89.3076 52.8187C102.787 63.2754 125.55 64.425 128.617 82.3348C131.681 100.226 115.772 116.106 101.785 125.672C90.2398 133.568 76.2125 126.664 62.6629 127.443C47.6134 128.308 30.2037 141.891 19.2573 130.418C8.33135 118.966 17.4842 98.8274 19.6266 82.3348C21.3123 69.3573 22.1091 55.9413 30.1776 46.3488C38.5062 36.4471 50.5048 29.8397 62.6629 31.1701Z" fill="#D7C5B7"/>
<path d="M137.389 52.7653H136.751H134.874L127.654 52.7935L101.239 52.831H101.145V52.7419C101.145 41.7256 101.145 28.4432 101.122 13.8237V13.7064H129.479H167.89H168.003V13.819C168.003 29.0062 167.979 42.3074 167.97 52.7372V52.8169H167.89L148.776 52.7794H143.662L148.776 52.7559L167.89 52.7184L167.811 52.8028C167.811 42.3731 167.811 29.0719 167.778 13.8847L167.89 14.002H101.234L101.352 13.8847C101.352 28.5042 101.352 41.7866 101.324 52.8028L101.234 52.709L127.649 52.7512H134.87H136.746L137.389 52.7653Z" fill="black"/>
<path d="M141.889 52.7654H167.886V13.8473H101.235V52.7654H137.389" fill="white"/>
<path d="M168.12 53H141.889V52.5308H167.651V14.0818H101.469V52.5308H137.389V53H101V13.6127H168.12V53Z" fill="black"/>
<path d="M167.89 13.8473H101.235V16.7233H167.89V13.8473Z" fill="#F5F5F5"/>
<path d="M168.12 16.9579H101V13.6127H168.12V16.9579ZM101.469 16.4887H167.651V14.0818H101.469V16.4887Z" fill="black"/>
<path d="M103.261 15.3393C103.261 15.4389 103.222 15.5343 103.151 15.6047C103.081 15.6751 102.986 15.7147 102.886 15.7147C102.787 15.7147 102.691 15.6751 102.621 15.6047C102.55 15.5343 102.511 15.4389 102.511 15.3393C102.511 15.2398 102.55 15.1443 102.621 15.0739C102.691 15.0035 102.787 14.964 102.886 14.964C102.986 14.964 103.081 15.0035 103.151 15.0739C103.222 15.1443 103.261 15.2398 103.261 15.3393Z" fill="#263238"/>
<path d="M102.886 15.9303C102.765 15.9303 102.647 15.8944 102.547 15.8272C102.446 15.7599 102.368 15.6644 102.322 15.5527C102.276 15.441 102.264 15.3181 102.288 15.1996C102.312 15.0812 102.371 14.9725 102.456 14.8874C102.542 14.8023 102.651 14.7446 102.77 14.7216C102.889 14.6986 103.011 14.7114 103.123 14.7582C103.234 14.8051 103.329 14.884 103.395 14.9849C103.462 15.0859 103.497 15.2042 103.496 15.3251C103.495 15.486 103.43 15.64 103.316 15.7533C103.201 15.8667 103.047 15.9303 102.886 15.9303ZM102.886 15.1843C102.858 15.1843 102.831 15.1926 102.808 15.208C102.785 15.2235 102.767 15.2455 102.756 15.2712C102.745 15.2969 102.743 15.3252 102.748 15.3525C102.753 15.3798 102.767 15.4049 102.787 15.4246C102.806 15.4443 102.831 15.4577 102.859 15.4631C102.886 15.4685 102.914 15.4658 102.94 15.4551C102.966 15.4445 102.988 15.4264 103.003 15.4033C103.019 15.3801 103.027 15.3529 103.027 15.3251C103.023 15.2902 103.007 15.2579 102.981 15.2345C102.955 15.2111 102.921 15.1982 102.886 15.1984V15.1843Z" fill="black"/>
<path d="M104.65 15.3393C104.65 15.3884 104.641 15.437 104.622 15.4823C104.603 15.5275 104.575 15.5686 104.54 15.6031C104.505 15.6376 104.464 15.6648 104.418 15.6831C104.373 15.7015 104.324 15.7106 104.275 15.71C104.177 15.71 104.082 15.6709 104.013 15.6014C103.943 15.5319 103.904 15.4376 103.904 15.3393C103.904 15.2903 103.913 15.2416 103.931 15.196C103.95 15.1505 103.977 15.1091 104.011 15.0742C104.046 15.0393 104.087 15.0116 104.132 14.9926C104.177 14.9737 104.226 14.964 104.275 14.964C104.375 14.964 104.47 15.0035 104.54 15.0739C104.611 15.1443 104.65 15.2398 104.65 15.3393Z" fill="#263238"/>
<path d="M104.275 15.9303C104.154 15.9303 104.036 15.8944 103.936 15.8272C103.835 15.7599 103.757 15.6644 103.711 15.5527C103.665 15.441 103.653 15.3181 103.677 15.1996C103.701 15.0812 103.76 14.9725 103.845 14.8874C103.931 14.8023 104.04 14.7446 104.159 14.7216C104.277 14.6986 104.4 14.7114 104.512 14.7582C104.623 14.8051 104.718 14.884 104.784 14.9849C104.851 15.0859 104.886 15.2042 104.885 15.3251C104.885 15.4049 104.869 15.484 104.838 15.5578C104.808 15.6315 104.763 15.6984 104.706 15.7547C104.649 15.811 104.582 15.8554 104.508 15.8856C104.434 15.9157 104.355 15.9309 104.275 15.9303ZM104.275 15.1843C104.247 15.1843 104.22 15.1926 104.197 15.208C104.174 15.2235 104.156 15.2455 104.145 15.2712C104.134 15.2969 104.131 15.3252 104.137 15.3525C104.142 15.3798 104.156 15.4049 104.175 15.4246C104.195 15.4443 104.22 15.4577 104.247 15.4631C104.275 15.4685 104.303 15.4658 104.329 15.4551C104.355 15.4445 104.377 15.4264 104.392 15.4033C104.407 15.3801 104.416 15.3529 104.416 15.3251C104.413 15.2898 104.397 15.2569 104.371 15.2332C104.345 15.2096 104.31 15.1971 104.275 15.1984V15.1843Z" fill="black"/>
<path d="M106.039 15.3393C106.039 15.4376 106 15.5319 105.93 15.6014C105.861 15.6709 105.767 15.71 105.668 15.71C105.619 15.7106 105.571 15.7015 105.525 15.6831C105.48 15.6648 105.438 15.6376 105.403 15.6031C105.368 15.5686 105.341 15.5275 105.322 15.4823C105.303 15.437 105.293 15.3884 105.293 15.3393C105.293 15.2398 105.333 15.1443 105.403 15.0739C105.473 15.0035 105.569 14.964 105.668 14.964C105.717 14.964 105.766 14.9737 105.811 14.9926C105.857 15.0116 105.898 15.0393 105.932 15.0742C105.967 15.1091 105.994 15.1505 106.012 15.196C106.03 15.2416 106.04 15.2903 106.039 15.3393Z" fill="#263238"/>
<path d="M105.668 15.9304C105.547 15.9313 105.429 15.8962 105.328 15.8296C105.227 15.7629 105.148 15.6677 105.101 15.5561C105.054 15.4444 105.042 15.3214 105.065 15.2027C105.089 15.0839 105.147 14.9748 105.232 14.8892C105.318 14.8036 105.427 14.7454 105.546 14.7221C105.665 14.6987 105.788 14.7112 105.899 14.7579C106.011 14.8046 106.106 14.8835 106.173 14.9846C106.239 15.0856 106.274 15.2041 106.274 15.3252C106.272 15.4853 106.208 15.6385 106.095 15.7518C105.982 15.865 105.828 15.9292 105.668 15.9304ZM105.668 15.1844C105.648 15.1807 105.627 15.1814 105.607 15.1866C105.587 15.1919 105.569 15.2014 105.553 15.2146C105.537 15.2278 105.524 15.2444 105.515 15.2631C105.507 15.2818 105.502 15.3022 105.502 15.3228C105.502 15.3435 105.507 15.3639 105.515 15.3826C105.524 15.4013 105.537 15.4178 105.553 15.431C105.569 15.4442 105.587 15.4538 105.607 15.459C105.627 15.4642 105.648 15.465 105.668 15.4612C105.701 15.4553 105.73 15.4381 105.751 15.4129C105.772 15.3876 105.783 15.3557 105.783 15.3228C105.783 15.2899 105.772 15.2581 105.751 15.2328C105.73 15.2075 105.701 15.1904 105.668 15.1844Z" fill="black"/>
<path d="M134.654 20.0404C134.654 20.0404 133.336 20.0826 131.712 20.0826C130.089 20.0826 128.775 20.0826 128.775 20.0404C128.775 19.9981 130.094 20.0028 131.712 20.0028C133.331 20.0028 134.654 20.0216 134.654 20.0404Z" fill="#263238"/>
<path d="M131.712 20.3172C129.967 20.3172 129.183 20.3172 128.827 20.2703C128.545 20.2328 128.545 20.1624 128.545 20.0404C128.545 19.9184 128.545 19.8528 128.827 19.8152C129.183 19.7683 129.967 19.7683 131.712 19.7683C133.458 19.7683 134.246 19.7683 134.598 19.8152C134.879 19.8528 134.879 19.9184 134.879 20.0404C134.879 20.1624 134.879 20.2328 134.598 20.2703C134.246 20.3172 133.462 20.3172 131.712 20.3172Z" fill="black"/>
<path d="M142.471 20.0404C142.471 20.0404 141.152 20.0826 139.529 20.0826C137.905 20.0826 136.592 20.0826 136.592 20.0404C136.592 19.9981 137.905 20.0028 139.529 20.0028C141.152 20.0028 142.471 20.0216 142.471 20.0404Z" fill="#263238"/>
<path d="M139.529 20.3172C137.783 20.3172 137 20.3172 136.643 20.2703C136.362 20.2328 136.362 20.1624 136.362 20.0404C136.362 19.9184 136.362 19.8528 136.643 19.8152C137 19.7683 137.783 19.7683 139.529 19.7683C141.274 19.7683 142.062 19.7683 142.414 19.8152C142.696 19.8528 142.696 19.9184 142.696 20.0404C142.696 20.1624 142.696 20.2328 142.414 20.2703C142.062 20.3172 141.279 20.3172 139.529 20.3172Z" fill="black"/>
<path d="M150.287 20.0404C150.287 20.0404 148.969 20.0826 147.345 20.0826C145.722 20.0826 144.408 20.0826 144.408 20.0404C144.408 19.9981 145.722 20.0028 147.345 20.0028C148.969 20.0028 150.287 20.0216 150.287 20.0404Z" fill="#263238"/>
<path d="M147.345 20.3172C145.6 20.3172 144.812 20.3172 144.46 20.2703C144.178 20.2328 144.178 20.1624 144.178 20.0404C144.178 19.9184 144.178 19.8528 144.46 19.8152C144.812 19.7683 145.6 19.7683 147.345 19.7683C149.09 19.7683 149.879 19.7683 150.231 19.8152C150.507 19.8528 150.507 19.9184 150.507 20.0404C150.507 20.1624 150.507 20.2328 150.231 20.2703C149.879 20.3172 149.095 20.3172 147.345 20.3172Z" fill="black"/>
<path d="M158.169 20.0404C158.169 20.0404 156.856 20.0826 155.232 20.0826C153.609 20.0826 152.295 20.0826 152.295 20.0404C152.295 19.9981 153.609 20.0028 155.232 20.0028C156.856 20.0028 158.169 20.0216 158.169 20.0404Z" fill="#263238"/>
<path d="M155.256 20.3172C153.51 20.3172 152.722 20.3172 152.37 20.2703C152.093 20.2328 152.093 20.1624 152.093 20.0404C152.093 19.9184 152.093 19.8528 152.37 19.8152C152.722 19.7683 153.51 19.7683 155.256 19.7683C157.001 19.7683 157.789 19.7683 158.141 19.8152C158.418 19.8528 158.418 19.9184 158.418 20.0404C158.418 20.1624 158.418 20.2328 158.141 20.2703C157.766 20.3172 156.982 20.3172 155.256 20.3172Z" fill="black"/>
<path d="M162.007 40.4636C162.007 40.4636 155.621 40.5011 147.753 40.5011C139.885 40.5011 133.495 40.5011 133.495 40.4636C133.495 40.4261 139.876 40.4214 147.753 40.4214C155.631 40.4214 162.007 40.4402 162.007 40.4636Z" fill="#263238"/>
<path d="M147.749 40.7358C143.808 40.7358 140.242 40.7358 137.666 40.7358H134.607C134.096 40.7358 133.781 40.7358 133.584 40.7358H133.519C133.256 40.7358 133.256 40.6513 133.256 40.5153C133.256 40.3792 133.256 40.3135 133.519 40.2901H133.58C133.781 40.2901 134.096 40.2901 134.607 40.2666H137.666C140.247 40.2666 143.808 40.2666 147.749 40.2666C151.69 40.2666 155.256 40.2666 157.827 40.2666H160.881C161.397 40.2666 161.711 40.2666 161.908 40.2901H161.974C162.237 40.3135 162.237 40.3745 162.237 40.5153C162.237 40.656 162.237 40.7123 161.974 40.7358H161.908C161.711 40.7358 161.392 40.7358 160.881 40.7358H157.827C155.256 40.7311 151.69 40.7358 147.749 40.7358Z" fill="black"/>
<path d="M161.852 44.7988C161.852 44.8223 155.471 44.841 147.599 44.841C139.726 44.841 133.34 44.841 133.34 44.7988C133.34 44.7566 139.721 44.7613 147.599 44.7613C155.476 44.7613 161.852 44.78 161.852 44.7988Z" fill="#E0E0E0"/>
<path d="M147.599 45.0755C143.662 45.0755 140.092 45.0755 137.516 45.0755H134.462C133.95 45.0755 133.631 45.0755 133.434 45.0755H133.368C133.106 45.0474 133.106 44.9911 133.106 44.8503C133.106 44.7096 133.106 44.6533 133.368 44.6251H133.434C133.631 44.6251 133.95 44.6251 134.462 44.6251H137.516H147.599H157.676H160.735C161.247 44.6251 161.566 44.6251 161.763 44.6251H161.824C162.082 44.6533 162.082 44.7143 162.082 44.8503C162.082 44.9864 162.082 45.0474 161.824 45.0755H161.763C161.566 45.0755 161.247 45.0755 160.735 45.0755H157.676C155.101 45.0708 151.535 45.0755 147.599 45.0755Z" fill="black"/>
<path d="M161.852 45.9576C161.852 45.9576 155.471 45.9952 147.599 45.9952C139.726 45.9952 133.34 45.9952 133.34 45.9576C133.34 45.9201 139.721 45.9154 147.599 45.9154C155.476 45.9154 161.852 45.9248 161.852 45.9576Z" fill="#E0E0E0"/>
<path d="M147.599 46.2204C143.662 46.2204 140.092 46.2204 137.516 46.2204H134.462C133.95 46.2204 133.631 46.2204 133.434 46.2204H133.368C133.106 46.2204 133.106 46.1359 133.106 45.9999C133.106 45.8638 133.106 45.7981 133.368 45.7747H133.434C133.631 45.7747 133.95 45.7747 134.462 45.7512H137.516C140.096 45.7512 143.662 45.7512 147.599 45.7512C151.535 45.7512 155.105 45.7512 157.676 45.7512H160.735C161.247 45.7512 161.566 45.7512 161.763 45.7747H161.824C162.082 45.7981 162.082 45.8591 162.082 45.9999C162.082 46.1406 162.082 46.1969 161.824 46.2204H161.763C161.566 46.2204 161.247 46.2204 160.735 46.2204H157.676C155.101 46.2157 151.535 46.2204 147.599 46.2204Z" fill="black"/>
<path d="M147.936 41.9651C147.936 41.9651 144.704 42.0073 140.716 42.0073C136.728 42.0073 133.495 42.0073 133.495 41.9651C133.495 41.9228 136.728 41.9275 140.716 41.9275C144.704 41.9275 147.936 41.9463 147.936 41.9651Z" fill="#263238"/>
<path d="M140.711 42.2418C138.717 42.2418 136.911 42.2418 135.602 42.2418C134.523 42.2418 133.936 42.2418 133.622 42.2089H133.523C133.256 42.1761 133.256 42.1104 133.256 41.9884C133.256 41.8664 133.256 41.8054 133.523 41.7726H133.622C133.936 41.7444 134.523 41.7444 135.602 41.7397C136.911 41.7397 138.717 41.7397 140.711 41.7397C142.705 41.7397 144.511 41.7397 145.816 41.7397C146.9 41.7397 147.481 41.7397 147.796 41.7726H147.894C148.162 41.8054 148.162 41.8711 148.162 41.9884C148.162 42.1057 148.162 42.1714 147.894 42.2089H147.796C147.481 42.2324 146.9 42.2371 145.816 42.2418C144.516 42.2371 142.71 42.2418 140.711 42.2418Z" fill="black"/>
<path d="M165.019 20.974C165.066 20.9764 165.113 20.9764 165.16 20.974C165.292 20.9437 165.41 20.8712 165.498 20.7676C165.561 20.6943 165.608 20.6077 165.634 20.5142C165.649 20.4005 165.649 20.2854 165.634 20.1717C165.634 19.9231 165.695 19.604 165.469 19.3694C165.361 19.2505 165.212 19.1767 165.052 19.163C164.883 19.163 164.7 19.163 164.512 19.163H160.576C160.462 19.1635 160.351 19.1953 160.254 19.2549C160.157 19.3144 160.079 19.3995 160.027 19.5008C159.978 19.6014 159.954 19.7125 159.957 19.8245V20.153C159.952 20.263 159.96 20.3731 159.98 20.4814C160.005 20.5848 160.059 20.6791 160.135 20.7535C160.207 20.8265 160.295 20.8812 160.393 20.913C160.494 20.9367 160.599 20.9462 160.703 20.9412H162.941H164.447H164.86H165C165 20.9412 165 20.9412 164.963 20.9412H164.86H164.447H162.941H160.703C160.592 20.9479 160.482 20.9385 160.374 20.913C160.262 20.8798 160.16 20.8184 160.079 20.7347C159.997 20.6487 159.937 20.544 159.905 20.4298C159.892 20.3711 159.884 20.3115 159.882 20.2515V19.7354C159.876 19.6121 159.902 19.4894 159.957 19.3788C160.015 19.2648 160.104 19.169 160.213 19.102C160.322 19.035 160.448 18.9993 160.576 18.9988H165.057C165.237 19.0109 165.406 19.0935 165.526 19.2287C165.631 19.3481 165.691 19.501 165.695 19.6603C165.695 19.8058 165.695 19.9418 165.695 20.0685C165.705 20.1865 165.695 20.3054 165.667 20.4204C165.64 20.5186 165.59 20.6088 165.521 20.6831C165.426 20.7871 165.302 20.8593 165.164 20.8896C165.121 20.9262 165.072 20.9548 165.019 20.974Z" fill="#263238"/>
<path d="M160.661 21.2462C160.546 21.2506 160.432 21.2364 160.323 21.2039C160.175 21.1605 160.041 21.0797 159.933 20.9693C159.822 20.8554 159.741 20.7149 159.699 20.5612C159.679 20.4861 159.668 20.4089 159.666 20.3313V19.8058C159.661 19.6798 159.682 19.5543 159.728 19.4366C159.773 19.3189 159.841 19.2116 159.929 19.1209C160.016 19.0303 160.121 18.9582 160.237 18.909C160.353 18.8598 160.478 18.8345 160.604 18.8346H165.108C165.348 18.8539 165.572 18.9648 165.732 19.1442C165.872 19.3068 165.951 19.5121 165.958 19.726V20.1952C165.963 20.3153 165.95 20.4355 165.92 20.5518C165.884 20.6836 165.817 20.8045 165.723 20.9037C165.606 21.0342 165.452 21.1258 165.282 21.1664H165.212C165.16 21.1702 165.108 21.1702 165.057 21.1664H164.118H160.754L160.661 21.2462ZM160.689 20.7066L165.019 20.7394H165.108C165.191 20.7171 165.265 20.6696 165.319 20.6034C165.36 20.5595 165.389 20.5064 165.404 20.4486C165.416 20.3772 165.416 20.3041 165.404 20.2327V20.153C165.404 20.1014 165.404 20.0357 165.404 19.9653C165.404 19.7542 165.404 19.6134 165.305 19.4961C165.272 19.4569 165.231 19.4247 165.185 19.4013C165.139 19.378 165.089 19.3639 165.038 19.3601C164.944 19.3601 164.836 19.3601 164.719 19.3601H160.576C160.507 19.3615 160.44 19.3814 160.381 19.4177C160.323 19.454 160.275 19.5054 160.243 19.5665C160.21 19.6337 160.194 19.7077 160.196 19.7823V20.214C160.188 20.2747 160.188 20.3362 160.196 20.3969C160.213 20.4626 160.247 20.5225 160.295 20.5705C160.338 20.6172 160.393 20.6513 160.454 20.6691C160.529 20.6954 160.609 20.7081 160.689 20.7066Z" fill="black"/>
<path d="M126.795 27.655H107.756V46.0749H126.795V27.655Z" fill="#455A64"/>
<path d="M127.03 46.3096H107.521V27.4205H127.03V46.3096ZM107.991 45.8404H126.561V27.8897H107.991V45.8404Z" fill="black"/>
<g opacity="0.3">
<path d="M109.229 44.4986L114.498 35.0212L118.805 41.0783L121.423 37.8598L125.318 44.4986H109.229Z" fill="black"/>
<path d="M125.73 44.7332H108.84L114.47 34.5802L118.815 40.6795L121.451 37.4422L125.73 44.7332ZM109.628 44.264H124.909L121.39 38.2726L118.791 41.463L114.522 35.4576L109.628 44.264Z" fill="black"/>
</g>
<g opacity="0.3">
<path d="M120.64 33.1774C120.64 33.4483 120.559 33.7132 120.409 33.9385C120.258 34.1638 120.044 34.3394 119.794 34.4431C119.544 34.5468 119.268 34.5739 119.002 34.521C118.737 34.4682 118.493 34.3377 118.301 34.1461C118.109 33.9545 117.979 33.7104 117.926 33.4446C117.873 33.1789 117.9 32.9034 118.004 32.6531C118.108 32.4028 118.283 32.1888 118.509 32.0383C118.734 31.8877 118.999 31.8074 119.27 31.8074C119.633 31.8074 119.981 31.9517 120.238 32.2086C120.495 32.4656 120.64 32.814 120.64 33.1774Z" fill="black"/>
<path d="M119.27 34.7819C118.952 34.7819 118.642 34.6878 118.378 34.5115C118.114 34.3352 117.909 34.0846 117.787 33.7914C117.666 33.4982 117.634 33.1756 117.696 32.8643C117.758 32.553 117.911 32.2671 118.135 32.0427C118.359 31.8183 118.645 31.6655 118.957 31.6036C119.268 31.5417 119.59 31.5734 119.884 31.6949C120.177 31.8163 120.427 32.022 120.604 32.2859C120.78 32.5497 120.874 32.86 120.874 33.1773C120.873 33.6025 120.704 34.0099 120.403 34.3106C120.102 34.6112 119.695 34.7807 119.27 34.7819ZM119.27 32.0419C119.045 32.0419 118.826 32.1085 118.639 32.2333C118.452 32.358 118.307 32.5354 118.221 32.7428C118.135 32.9503 118.112 33.1786 118.156 33.3988C118.2 33.6191 118.308 33.8214 118.467 33.9802C118.626 34.139 118.828 34.2471 119.048 34.2909C119.268 34.3347 119.497 34.3122 119.704 34.2263C119.912 34.1404 120.089 33.9948 120.214 33.8081C120.338 33.6214 120.405 33.4019 120.405 33.1773C120.405 32.8762 120.285 32.5874 120.072 32.3745C119.86 32.1616 119.571 32.0419 119.27 32.0419Z" fill="black"/>
</g>
<g opacity="0.3">
<path d="M125.318 29.1001H109.234C109.201 29.1276 109.17 29.1574 109.14 29.1892V33.3227C109.14 34.6739 109.14 36.0017 109.14 37.2919C109.14 39.8724 109.14 42.3121 109.14 44.5547V44.6345H109.22L120.903 44.5923H124.187H125.041H124.173H120.889L109.337 44.5501C109.337 42.3262 109.337 39.9146 109.337 37.367V33.3978C109.337 32.7221 109.337 32.0371 109.337 31.3475V29.3488H125.257C125.257 33.9138 125.285 37.7142 125.294 40.3932C125.294 41.7303 125.294 42.7907 125.294 43.5179C125.294 43.8744 125.294 44.1513 125.294 44.3483C125.294 44.4375 125.294 44.5078 125.294 44.5641C125.294 44.6204 125.294 44.6392 125.294 44.6392C125.294 44.6392 125.294 44.6157 125.294 44.5735V44.3671C125.294 44.1747 125.294 43.8979 125.294 43.5507C125.294 42.8235 125.294 41.7725 125.294 40.4401C125.294 37.7376 125.318 33.8716 125.336 29.269V29.1892L125.318 29.1001Z" fill="black"/>
<path d="M108.915 44.8645V29.3254H108.732L108.817 29.2268L108.976 29.0579C109.017 29.0095 109.062 28.9655 109.112 28.9266L109.38 28.6732V28.875H125.646V31.9574L125.58 44.4751L125.613 44.5079L125.562 44.6393C125.544 44.6823 125.515 44.7197 125.477 44.7472L125.43 44.7706L125.271 44.8363L125.238 44.7941H123.511H120.94L108.915 44.8645ZM109.544 44.2358L125.078 44.3062V43.4335V40.3041L125.041 29.513H109.591L109.544 44.2358Z" fill="black"/>
</g>
<path d="M106.555 21.3071C107.255 21.3071 107.822 20.74 107.822 20.0403C107.822 19.3407 107.255 18.7736 106.555 18.7736C105.855 18.7736 105.288 19.3407 105.288 20.0403C105.288 20.74 105.855 21.3071 106.555 21.3071Z" fill="#455A64"/>
<path d="M106.555 21.5605C106.257 21.5605 105.966 21.4721 105.718 21.3066C105.471 21.1411 105.277 20.9059 105.163 20.6307C105.049 20.3555 105.02 20.0527 105.078 19.7606C105.136 19.4684 105.279 19.2001 105.49 18.9895C105.701 18.7788 105.969 18.6354 106.261 18.5773C106.553 18.5192 106.856 18.549 107.131 18.663C107.406 18.777 107.642 18.97 107.807 19.2177C107.973 19.4653 108.061 19.7565 108.061 20.0544C108.061 20.4538 107.902 20.8369 107.62 21.1193C107.337 21.4018 106.954 21.5605 106.555 21.5605ZM106.555 19.0222C106.35 19.0222 106.149 19.0831 105.978 19.1973C105.808 19.3114 105.675 19.4736 105.596 19.6634C105.518 19.8531 105.498 20.0618 105.538 20.2631C105.579 20.4644 105.678 20.6491 105.823 20.7939C105.969 20.9388 106.154 21.0371 106.355 21.0766C106.557 21.1161 106.766 21.0949 106.955 21.0157C107.144 20.9365 107.306 20.8029 107.419 20.6317C107.533 20.4606 107.593 20.2597 107.592 20.0544C107.594 19.9173 107.568 19.7811 107.517 19.654C107.466 19.5268 107.389 19.4111 107.293 19.3137C107.196 19.2163 107.081 19.1391 106.955 19.0867C106.828 19.0342 106.692 19.0075 106.555 19.0081V19.0222Z" fill="black"/>
<path d="M148.406 33.4776C148.406 33.548 145.196 33.5996 141.241 33.5996C137.286 33.5996 134.077 33.548 134.077 33.4776C134.077 33.4072 137.286 33.3556 141.241 33.3556C145.196 33.3556 148.406 33.4119 148.406 33.4776Z" fill="black"/>
<path d="M63.516 78.084C63.516 78.78 63.276 79.36 62.796 79.824C62.324 80.28 61.6 80.508 60.624 80.508H59.016V84H57.924V75.636H60.624C61.568 75.636 62.284 75.864 62.772 76.32C63.268 76.776 63.516 77.364 63.516 78.084ZM60.624 79.608C61.232 79.608 61.68 79.476 61.968 79.212C62.256 78.948 62.4 78.572 62.4 78.084C62.4 77.052 61.808 76.536 60.624 76.536H59.016V79.608H60.624ZM65.9652 78.492C66.1572 78.116 66.4292 77.824 66.7812 77.616C67.1412 77.408 67.5772 77.304 68.0892 77.304V78.432H67.8012C66.5772 78.432 65.9652 79.096 65.9652 80.424V84H64.8732V77.424H65.9652V78.492ZM72.2178 84.108C71.6018 84.108 71.0418 83.968 70.5378 83.688C70.0418 83.408 69.6498 83.012 69.3618 82.5C69.0818 81.98 68.9418 81.38 68.9418 80.7C68.9418 80.028 69.0858 79.436 69.3738 78.924C69.6698 78.404 70.0698 78.008 70.5738 77.736C71.0778 77.456 71.6418 77.316 72.2658 77.316C72.8898 77.316 73.4538 77.456 73.9578 77.736C74.4618 78.008 74.8578 78.4 75.1458 78.912C75.4418 79.424 75.5898 80.02 75.5898 80.7C75.5898 81.38 75.4378 81.98 75.1338 82.5C74.8378 83.012 74.4338 83.408 73.9218 83.688C73.4098 83.968 72.8418 84.108 72.2178 84.108ZM72.2178 83.148C72.6098 83.148 72.9778 83.056 73.3218 82.872C73.6658 82.688 73.9418 82.412 74.1498 82.044C74.3658 81.676 74.4738 81.228 74.4738 80.7C74.4738 80.172 74.3698 79.724 74.1618 79.356C73.9538 78.988 73.6818 78.716 73.3458 78.54C73.0098 78.356 72.6458 78.264 72.2538 78.264C71.8538 78.264 71.4858 78.356 71.1498 78.54C70.8218 78.716 70.5578 78.988 70.3578 79.356C70.1578 79.724 70.0578 80.172 70.0578 80.7C70.0578 81.236 70.1538 81.688 70.3458 82.056C70.5458 82.424 70.8098 82.7 71.1378 82.884C71.4658 83.06 71.8258 83.148 72.2178 83.148ZM78.3576 78.324V82.2C78.3576 82.52 78.4256 82.748 78.5616 82.884C78.6976 83.012 78.9336 83.076 79.2696 83.076H80.0736V84H79.0896C78.4816 84 78.0256 83.86 77.7216 83.58C77.4176 83.3 77.2656 82.84 77.2656 82.2V78.324H76.4136V77.424H77.2656V75.768H78.3576V77.424H80.0736V78.324H78.3576ZM84.2647 84.108C83.6487 84.108 83.0887 83.968 82.5847 83.688C82.0887 83.408 81.6967 83.012 81.4087 82.5C81.1287 81.98 80.9887 81.38 80.9887 80.7C80.9887 80.028 81.1327 79.436 81.4207 78.924C81.7167 78.404 82.1167 78.008 82.6207 77.736C83.1247 77.456 83.6887 77.316 84.3127 77.316C84.9367 77.316 85.5007 77.456 86.0047 77.736C86.5087 78.008 86.9047 78.4 87.1927 78.912C87.4887 79.424 87.6367 80.02 87.6367 80.7C87.6367 81.38 87.4847 81.98 87.1807 82.5C86.8847 83.012 86.4807 83.408 85.9687 83.688C85.4567 83.968 84.8887 84.108 84.2647 84.108ZM84.2647 83.148C84.6567 83.148 85.0247 83.056 85.3687 82.872C85.7127 82.688 85.9887 82.412 86.1967 82.044C86.4127 81.676 86.5207 81.228 86.5207 80.7C86.5207 80.172 86.4167 79.724 86.2087 79.356C86.0007 78.988 85.7287 78.716 85.3927 78.54C85.0567 78.356 84.6927 78.264 84.3007 78.264C83.9007 78.264 83.5327 78.356 83.1967 78.54C82.8687 78.716 82.6047 78.988 82.4047 79.356C82.2047 79.724 82.1047 80.172 82.1047 80.7C82.1047 81.236 82.2007 81.688 82.3927 82.056C82.5927 82.424 82.8567 82.7 83.1847 82.884C83.5127 83.06 83.8727 83.148 84.2647 83.148ZM90.4044 78.324V82.2C90.4044 82.52 90.4724 82.748 90.6084 82.884C90.7444 83.012 90.9804 83.076 91.3164 83.076H92.1204V84H91.1364C90.5284 84 90.0724 83.86 89.7684 83.58C89.4644 83.3 89.3124 82.84 89.3124 82.2V78.324H88.4604V77.424H89.3124V75.768H90.4044V77.424H92.1204V78.324H90.4044ZM99.1075 77.424L95.1475 87.096H94.0195L95.3155 83.928L92.6635 77.424H93.8755L95.9395 82.752L97.9795 77.424H99.1075ZM101.297 78.636C101.513 78.26 101.833 77.948 102.257 77.7C102.689 77.444 103.189 77.316 103.757 77.316C104.341 77.316 104.869 77.456 105.341 77.736C105.821 78.016 106.197 78.412 106.469 78.924C106.741 79.428 106.877 80.016 106.877 80.688C106.877 81.352 106.741 81.944 106.469 82.464C106.197 82.984 105.821 83.388 105.341 83.676C104.869 83.964 104.341 84.108 103.757 84.108C103.197 84.108 102.701 83.984 102.269 83.736C101.845 83.48 101.521 83.164 101.297 82.788V87.12H100.205V77.424H101.297V78.636ZM105.761 80.688C105.761 80.192 105.661 79.76 105.461 79.392C105.261 79.024 104.989 78.744 104.645 78.552C104.309 78.36 103.937 78.264 103.529 78.264C103.129 78.264 102.757 78.364 102.413 78.564C102.077 78.756 101.805 79.04 101.597 79.416C101.397 79.784 101.297 80.212 101.297 80.7C101.297 81.196 101.397 81.632 101.597 82.008C101.805 82.376 102.077 82.66 102.413 82.86C102.757 83.052 103.129 83.148 103.529 83.148C103.937 83.148 104.309 83.052 104.645 82.86C104.989 82.66 105.261 82.376 105.461 82.008C105.661 81.632 105.761 81.192 105.761 80.688ZM114.315 80.46C114.315 80.668 114.303 80.888 114.279 81.12H109.023C109.063 81.768 109.283 82.276 109.683 82.644C110.091 83.004 110.583 83.184 111.159 83.184C111.631 83.184 112.023 83.076 112.335 82.86C112.655 82.636 112.879 82.34 113.007 81.972H114.183C114.007 82.604 113.655 83.12 113.127 83.52C112.599 83.912 111.943 84.108 111.159 84.108C110.535 84.108 109.975 83.968 109.479 83.688C108.991 83.408 108.607 83.012 108.327 82.5C108.047 81.98 107.907 81.38 107.907 80.7C107.907 80.02 108.043 79.424 108.315 78.912C108.587 78.4 108.967 78.008 109.455 77.736C109.951 77.456 110.519 77.316 111.159 77.316C111.783 77.316 112.335 77.452 112.815 77.724C113.295 77.996 113.663 78.372 113.919 78.852C114.183 79.324 114.315 79.86 114.315 80.46ZM113.187 80.232C113.187 79.816 113.095 79.46 112.911 79.164C112.727 78.86 112.475 78.632 112.155 78.48C111.843 78.32 111.495 78.24 111.111 78.24C110.559 78.24 110.087 78.416 109.695 78.768C109.311 79.12 109.091 79.608 109.035 80.232H113.187ZM118.084 84.108C117.58 84.108 117.128 84.024 116.728 83.856C116.328 83.68 116.012 83.44 115.78 83.136C115.548 82.824 115.42 82.468 115.396 82.068H116.524C116.556 82.396 116.708 82.664 116.98 82.872C117.26 83.08 117.624 83.184 118.072 83.184C118.488 83.184 118.816 83.092 119.056 82.908C119.296 82.724 119.416 82.492 119.416 82.212C119.416 81.924 119.288 81.712 119.032 81.576C118.776 81.432 118.38 81.292 117.844 81.156C117.356 81.028 116.956 80.9 116.644 80.772C116.34 80.636 116.076 80.44 115.852 80.184C115.636 79.92 115.528 79.576 115.528 79.152C115.528 78.816 115.628 78.508 115.828 78.228C116.028 77.948 116.312 77.728 116.68 77.568C117.048 77.4 117.468 77.316 117.94 77.316C118.668 77.316 119.256 77.5 119.704 77.868C120.152 78.236 120.392 78.74 120.424 79.38H119.332C119.308 79.036 119.168 78.76 118.912 78.552C118.664 78.344 118.328 78.24 117.904 78.24C117.512 78.24 117.2 78.324 116.968 78.492C116.736 78.66 116.62 78.88 116.62 79.152C116.62 79.368 116.688 79.548 116.824 79.692C116.968 79.828 117.144 79.94 117.352 80.028C117.568 80.108 117.864 80.2 118.24 80.304C118.712 80.432 119.096 80.56 119.392 80.688C119.688 80.808 119.94 80.992 120.148 81.24C120.364 81.488 120.476 81.812 120.484 82.212C120.484 82.572 120.384 82.896 120.184 83.184C119.984 83.472 119.7 83.7 119.332 83.868C118.972 84.028 118.556 84.108 118.084 84.108Z" fill="black"/>
<defs>
<filter id="filter0_d_202_22" x="0" y="0" width="185.5" height="150.5" filterUnits="userSpaceOnUse" color-interpolation-filters="sRGB">
<feFlood flood-opacity="0" result="BackgroundImageFix"/>
<feColorMatrix in="SourceAlpha" type="matrix" values="0 0 0 0 0 0 0 0 0 0 0 0 0 0 0 0 0 0 127 0" result="hardAlpha"/>
<feOffset dy="0.5"/>
<feGaussianBlur stdDeviation="0.25"/>
<feComposite in2="hardAlpha" operator="out"/>
<feColorMatrix type="matrix" values="0 0 0 0 0 0 0 0 0 0 0 0 0 0 0 0 0 0 0.25 0"/>
<feBlend mode="normal" in2="BackgroundImageFix" result="effect1_dropShadow_202_22"/>
<feBlend mode="normal" in="SourceGraphic" in2="effect1_dropShadow_202_22" result="shape"/>
</filter>
</defs>
</svg>
