<svg width="186" height="151" viewBox="0 0 186 151" fill="none" xmlns="http://www.w3.org/2000/svg">
<g filter="url(#filter0_d_202_23)">
<path d="M1 6.37255L185 0V143.137L1 150V6.37255Z" fill="white"/>
</g>
<path d="M178.492 104H123.508C121.571 104 120 105.571 120 107.508V138.492C120 140.429 121.571 142 123.508 142H178.492C180.429 142 182 140.429 182 138.492V107.508C182 105.571 180.429 104 178.492 104Z" fill="#74ABEE"/>
<path d="M149.474 137.006L154.18 129.874L155.435 136.089L158.605 131.943L159.375 135.378C164.167 132.735 168.908 136.852 172.643 135.493" stroke="black" stroke-width="2" stroke-linecap="round" stroke-linejoin="round"/>
<path d="M125 116.544H141.528V136.006H125V116.544Z" fill="white" stroke="white" stroke-width="2" stroke-linecap="round" stroke-linejoin="round"/>
<path d="M178.492 104H123.508C121.571 104 120 105.571 120 107.508V138.492C120 140.429 121.571 142 123.508 142H178.492C180.429 142 182 140.429 182 138.492V107.508C182 105.571 180.429 104 178.492 104Z" stroke="black" stroke-width="2" stroke-linecap="round" stroke-linejoin="round"/>
<path d="M141.613 138L140.46 133.437C140.417 132.342 139.958 131.304 139.175 130.536C138.393 129.768 137.347 129.328 136.251 129.306H130.251C129.155 129.329 128.11 129.769 127.327 130.536C126.545 131.304 126.086 132.342 126.043 133.437L124.915 138H141.613Z" fill="#FCEA2B"/>
<path d="M133.331 124.8C134.988 124.8 136.331 123.457 136.331 121.8C136.331 120.143 134.988 118.8 133.331 118.8C131.674 118.8 130.331 120.143 130.331 121.8C130.331 123.457 131.674 124.8 133.331 124.8Z" fill="#FCEA2B"/>
<path d="M133.331 124.8C134.988 124.8 136.331 123.457 136.331 121.8C136.331 120.143 134.988 118.8 133.331 118.8C131.674 118.8 130.331 120.143 130.331 121.8C130.331 123.457 131.674 124.8 133.331 124.8Z" stroke="black" stroke-width="2" stroke-miterlimit="10"/>
<path d="M141.613 137.006L141.435 133.738C141.365 132.399 140.788 131.136 139.821 130.208C138.854 129.279 137.569 128.753 136.228 128.738H130.3C128.959 128.753 127.674 129.278 126.706 130.207C125.739 131.136 125.162 132.399 125.092 133.738L124.914 137.006" stroke="black" stroke-width="2" stroke-linecap="round" stroke-linejoin="round"/>
<path d="M124.915 109.002H141.613M149.861 109.002H177.032M149.934 116.556H169.108M149.934 120.554H169.108M149.934 124.552H169.108" stroke="black" stroke-width="2" stroke-linecap="round" stroke-linejoin="round"/>
<path fill-rule="evenodd" clip-rule="evenodd" d="M128.423 48.86C136.177 60.814 139.681 76.5587 133.873 89.6295C128.157 102.493 113.531 107.999 100.142 112.503C88.0132 116.582 74.8928 118.588 63.261 113.38C52.0024 108.338 45.5234 97.255 40.7713 85.9181C36.038 74.626 31.1177 61.558 37.0135 50.762C42.6652 40.413 56.6127 39.7712 67.8996 36.2426C77.4853 33.2459 86.7699 30.0958 96.5782 32.1406C108.804 34.6894 121.659 38.4336 128.423 48.86Z" fill="#D9D1C5"/>
<path d="M80.328 88L78.336 84.58H77.016V88H75.924V79.636H78.624C79.256 79.636 79.788 79.744 80.22 79.96C80.66 80.176 80.988 80.468 81.204 80.836C81.42 81.204 81.528 81.624 81.528 82.096C81.528 82.672 81.36 83.18 81.024 83.62C80.696 84.06 80.2 84.352 79.536 84.496L81.636 88H80.328ZM77.016 83.704H78.624C79.216 83.704 79.66 83.56 79.956 83.272C80.252 82.976 80.4 82.584 80.4 82.096C80.4 81.6 80.252 81.216 79.956 80.944C79.668 80.672 79.224 80.536 78.624 80.536H77.016V83.704ZM89.2248 84.46C89.2248 84.668 89.2128 84.888 89.1888 85.12H83.9328C83.9728 85.768 84.1928 86.276 84.5928 86.644C85.0008 87.004 85.4928 87.184 86.0688 87.184C86.5408 87.184 86.9328 87.076 87.2448 86.86C87.5648 86.636 87.7888 86.34 87.9168 85.972H89.0928C88.9168 86.604 88.5648 87.12 88.0368 87.52C87.5088 87.912 86.8528 88.108 86.0688 88.108C85.4448 88.108 84.8848 87.968 84.3888 87.688C83.9008 87.408 83.5168 87.012 83.2368 86.5C82.9568 85.98 82.8168 85.38 82.8168 84.7C82.8168 84.02 82.9528 83.424 83.2248 82.912C83.4968 82.4 83.8768 82.008 84.3648 81.736C84.8608 81.456 85.4288 81.316 86.0688 81.316C86.6928 81.316 87.2448 81.452 87.7248 81.724C88.2048 81.996 88.5728 82.372 88.8288 82.852C89.0928 83.324 89.2248 83.86 89.2248 84.46ZM88.0968 84.232C88.0968 83.816 88.0048 83.46 87.8208 83.164C87.6368 82.86 87.3848 82.632 87.0648 82.48C86.7528 82.32 86.4048 82.24 86.0208 82.24C85.4688 82.24 84.9968 82.416 84.6048 82.768C84.2208 83.12 84.0008 83.608 83.9448 84.232H88.0968ZM92.9942 88.108C92.4902 88.108 92.0382 88.024 91.6382 87.856C91.2382 87.68 90.9222 87.44 90.6902 87.136C90.4582 86.824 90.3302 86.468 90.3062 86.068H91.4342C91.4662 86.396 91.6182 86.664 91.8902 86.872C92.1702 87.08 92.5342 87.184 92.9822 87.184C93.3982 87.184 93.7262 87.092 93.9662 86.908C94.2062 86.724 94.3262 86.492 94.3262 86.212C94.3262 85.924 94.1982 85.712 93.9422 85.576C93.6862 85.432 93.2902 85.292 92.7542 85.156C92.2662 85.028 91.8662 84.9 91.5542 84.772C91.2502 84.636 90.9862 84.44 90.7622 84.184C90.5462 83.92 90.4382 83.576 90.4382 83.152C90.4382 82.816 90.5382 82.508 90.7382 82.228C90.9382 81.948 91.2222 81.728 91.5902 81.568C91.9582 81.4 92.3782 81.316 92.8502 81.316C93.5782 81.316 94.1662 81.5 94.6142 81.868C95.0622 82.236 95.3022 82.74 95.3342 83.38H94.2422C94.2182 83.036 94.0782 82.76 93.8222 82.552C93.5742 82.344 93.2382 82.24 92.8142 82.24C92.4222 82.24 92.1102 82.324 91.8782 82.492C91.6462 82.66 91.5302 82.88 91.5302 83.152C91.5302 83.368 91.5982 83.548 91.7342 83.692C91.8782 83.828 92.0542 83.94 92.2622 84.028C92.4782 84.108 92.7742 84.2 93.1502 84.304C93.6222 84.432 94.0062 84.56 94.3022 84.688C94.5982 84.808 94.8502 84.992 95.0582 85.24C95.2742 85.488 95.3862 85.812 95.3942 86.212C95.3942 86.572 95.2942 86.896 95.0942 87.184C94.8942 87.472 94.6102 87.7 94.2422 87.868C93.8822 88.028 93.4662 88.108 92.9942 88.108ZM102.768 81.424V88H101.676V87.028C101.468 87.364 101.176 87.628 100.8 87.82C100.432 88.004 100.024 88.096 99.5757 88.096C99.0637 88.096 98.6037 87.992 98.1957 87.784C97.7877 87.568 97.4637 87.248 97.2237 86.824C96.9917 86.4 96.8757 85.884 96.8757 85.276V81.424H97.9557V85.132C97.9557 85.78 98.1197 86.28 98.4477 86.632C98.7757 86.976 99.2237 87.148 99.7917 87.148C100.376 87.148 100.836 86.968 101.172 86.608C101.508 86.248 101.676 85.724 101.676 85.036V81.424H102.768ZM112.52 81.304C113.032 81.304 113.488 81.412 113.888 81.628C114.288 81.836 114.604 82.152 114.836 82.576C115.068 83 115.184 83.516 115.184 84.124V88H114.104V84.28C114.104 83.624 113.94 83.124 113.612 82.78C113.292 82.428 112.856 82.252 112.304 82.252C111.736 82.252 111.284 82.436 110.948 82.804C110.612 83.164 110.444 83.688 110.444 84.376V88H109.364V84.28C109.364 83.624 109.2 83.124 108.872 82.78C108.552 82.428 108.116 82.252 107.564 82.252C106.996 82.252 106.544 82.436 106.208 82.804C105.872 83.164 105.704 83.688 105.704 84.376V88H104.612V81.424H105.704V82.372C105.92 82.028 106.208 81.764 106.568 81.58C106.936 81.396 107.34 81.304 107.78 81.304C108.332 81.304 108.82 81.428 109.244 81.676C109.668 81.924 109.984 82.288 110.192 82.768C110.376 82.304 110.68 81.944 111.104 81.688C111.528 81.432 112 81.304 112.52 81.304ZM122.975 84.46C122.975 84.668 122.963 84.888 122.939 85.12H117.683C117.723 85.768 117.943 86.276 118.343 86.644C118.751 87.004 119.243 87.184 119.819 87.184C120.291 87.184 120.683 87.076 120.995 86.86C121.315 86.636 121.539 86.34 121.667 85.972H122.843C122.667 86.604 122.315 87.12 121.787 87.52C121.259 87.912 120.603 88.108 119.819 88.108C119.195 88.108 118.635 87.968 118.139 87.688C117.651 87.408 117.267 87.012 116.987 86.5C116.707 85.98 116.567 85.38 116.567 84.7C116.567 84.02 116.703 83.424 116.975 82.912C117.247 82.4 117.627 82.008 118.115 81.736C118.611 81.456 119.179 81.316 119.819 81.316C120.443 81.316 120.995 81.452 121.475 81.724C121.955 81.996 122.323 82.372 122.579 82.852C122.843 83.324 122.975 83.86 122.975 84.46ZM121.847 84.232C121.847 83.816 121.755 83.46 121.571 83.164C121.387 82.86 121.135 82.632 120.815 82.48C120.503 82.32 120.155 82.24 119.771 82.24C119.219 82.24 118.747 82.416 118.355 82.768C117.971 83.12 117.751 83.608 117.695 84.232H121.847Z" fill="black"/>
<defs>
<filter id="filter0_d_202_23" x="0.5" y="0" width="185" height="151" filterUnits="userSpaceOnUse" color-interpolation-filters="sRGB">
<feFlood flood-opacity="0" result="BackgroundImageFix"/>
<feColorMatrix in="SourceAlpha" type="matrix" values="0 0 0 0 0 0 0 0 0 0 0 0 0 0 0 0 0 0 127 0" result="hardAlpha"/>
<feOffset dy="0.5"/>
<feGaussianBlur stdDeviation="0.25"/>
<feComposite in2="hardAlpha" operator="out"/>
<feColorMatrix type="matrix" values="0 0 0 0 0 0 0 0 0 0 0 0 0 0 0 0 0 0 0.25 0"/>
<feBlend mode="normal" in2="BackgroundImageFix" result="effect1_dropShadow_202_23"/>
<feBlend mode="normal" in="SourceGraphic" in2="effect1_dropShadow_202_23" result="shape"/>
</filter>
</defs>
</svg>
