<svg width="187" height="153" viewBox="0 0 187 153" fill="none" xmlns="http://www.w3.org/2000/svg">
<g filter="url(#filter0_d_202_25)">
<path d="M1 0.17627H186V151.176H1V0.17627Z" fill="white"/>
</g>
<path fill-rule="evenodd" clip-rule="evenodd" d="M70.396 38.7204C81.8313 41.9002 87.179 53.5567 96.7025 60.6333C109.675 70.2731 131.451 71.2076 135.243 86.9063C139.164 103.138 127.245 120.481 113.431 129.886C101.105 138.279 85.3128 131.264 70.396 131.062C55.8618 130.865 40.0739 137.536 28.5137 128.735C16.1459 119.32 13.2226 102.415 12.3935 86.9063C11.5071 70.3251 11.0072 50.9776 23.7892 40.3589C36.2132 30.0376 54.8279 34.3915 70.396 38.7204Z" fill="#7B9D7E" fill-opacity="0.35"/>
<path d="M162.727 115.163H118.883V143.019H162.727V115.163Z" fill="#455A64"/>
<path d="M161.748 114.365H117.792C115.145 114.365 113 116.51 113 119.157V119.351C113 121.998 115.145 124.143 117.792 124.143H161.748C164.395 124.143 166.54 121.998 166.54 119.351V119.157C166.54 116.51 164.395 114.365 161.748 114.365Z" fill="#455A64"/>
<path d="M162.786 124.01C162.786 124.047 152.543 124.078 139.912 124.078C127.282 124.078 117.036 124.047 117.036 124.01C117.036 123.974 127.277 123.943 139.912 123.943C152.548 123.943 162.786 123.971 162.786 124.01Z" fill="#263238"/>
<path d="M124.74 143.242C124.7 143.242 124.669 138.994 124.669 133.757C124.669 128.52 124.7 124.272 124.74 124.272C124.779 124.272 124.807 128.52 124.807 133.757C124.807 138.994 124.776 143.242 124.74 143.242Z" fill="#263238"/>
<path d="M152.453 120.197C152.38 119.961 152.323 119.721 152.281 119.478C152.145 118.898 151.957 118.332 151.717 117.787C151.475 117.245 151.185 116.726 150.852 116.236C150.699 116.041 150.559 115.837 150.432 115.625C150.621 115.791 150.789 115.98 150.931 116.188C151.656 117.153 152.151 118.27 152.377 119.455C152.433 119.698 152.459 119.947 152.453 120.197Z" fill="#263238"/>
<path d="M154.806 118.737C154.784 118.737 154.688 118.455 154.454 118.035C153.838 116.925 152.851 116.068 151.666 115.614C151.212 115.439 150.916 115.385 150.919 115.36C150.991 115.355 151.064 115.361 151.133 115.38C151.325 115.411 151.513 115.459 151.697 115.521C152.935 115.935 153.958 116.823 154.541 117.99C154.63 118.163 154.703 118.343 154.761 118.528C154.787 118.595 154.802 118.665 154.806 118.737Z" fill="#263238"/>
<g opacity="0.3">
<path d="M128.672 114.568C130.422 124.23 133.463 134.2 137.762 143.036H139.735C140.541 141.909 140.273 140.364 139.769 139.09C139.264 137.816 138.551 136.553 138.559 135.175C138.559 134.329 138.841 133.503 138.951 132.661C139.354 129.405 137.119 126.429 136.6 123.19C136.414 122.02 136.522 120.667 137.409 119.881C138.187 119.19 139.326 119.137 140.366 119.162C143.083 119.227 145.843 119.568 148.495 118.971C151.147 118.373 153.755 116.558 154.304 113.897L128.672 114.568Z" fill="black"/>
</g>
<path d="M154.409 84.2422L162.997 81.9224C162.997 81.9224 161.159 76.4712 159.727 72.5448C158.462 69.0722 156.345 67.6263 155.235 66.8399C154.788 66.5213 154.27 66.3162 153.727 66.2423C151.691 65.9604 146.133 65.2417 143.374 65.0106C139.96 64.7287 132.835 66.6031 132.835 66.6031C132.835 66.6031 126.586 70.07 124.477 71.4709C123.963 71.8103 123.568 72.3035 123.35 72.8802C122.961 73.9288 122.465 75.7299 121.873 78.0581C121.493 79.5407 120.244 84.4423 120.244 84.4423L127.572 84.2168C129.049 88.7013 130.419 92.7291 130.419 92.7291L129.092 100.976C129.092 100.976 139.109 104.982 141.668 104.697C144.228 104.412 155.826 99.9336 155.826 99.9336C155.826 99.9336 154.499 86.8494 154.499 86.4717C154.499 86.3251 154.459 85.3753 154.409 84.2422Z" fill="#74ABEE"/>
<g opacity="0.3">
<path d="M145.958 75.5182C145.67 75.1896 145.306 74.9374 144.896 74.7839C144.487 74.6305 144.046 74.5806 143.613 74.6388C142.749 74.7648 141.928 75.1028 141.226 75.6225C139.002 77.1305 137.426 79.4051 136.031 81.6967C133.598 85.6956 131.554 89.9184 129.926 94.3073L129.982 95.4348C131.806 95.2065 132.993 93.6675 133.785 92.0101C134.577 90.3528 134.912 88.5178 135.614 86.8182C136.969 83.5517 139.561 80.9537 142.824 79.5912C143.367 79.6611 143.919 79.601 144.434 79.4157C144.949 79.2305 145.413 78.9254 145.787 78.5257C146.497 77.7055 146.632 76.3751 145.958 75.5182Z" fill="black"/>
</g>
<path d="M154.493 85.6656C154.451 85.6656 154.211 83.2866 153.949 80.3496C153.687 77.4126 153.512 75.0252 153.552 75.0195C153.591 75.0139 153.834 77.3957 154.096 80.3355C154.358 83.2753 154.541 85.6599 154.493 85.6656Z" fill="#263238"/>
<path d="M125.622 75.0195C125.669 75.1391 125.704 75.2627 125.729 75.3888C125.794 75.6706 125.873 76.0004 125.969 76.4091C126.166 77.2547 126.431 78.4611 126.71 79.7915C126.989 81.1219 127.24 82.3057 127.409 83.1739C127.488 83.5854 127.553 83.9321 127.606 84.2027C127.637 84.3273 127.654 84.4549 127.657 84.5832C127.61 84.4638 127.574 84.3402 127.55 84.2139C127.485 83.9462 127.406 83.6051 127.307 83.1964C127.11 82.3339 126.848 81.1416 126.566 79.814C126.284 78.4865 126.039 77.2998 125.867 76.4317C125.791 76.0201 125.723 75.6763 125.673 75.4057C125.642 75.2792 125.625 75.1497 125.622 75.0195Z" fill="#263238"/>
<path d="M153.183 66.3438C153.225 66.3438 152.977 67.3077 152.808 68.5056C152.639 69.7036 152.602 70.6901 152.557 70.6901C152.519 70.4762 152.509 70.2582 152.529 70.0418C152.543 69.5211 152.588 69.0016 152.661 68.4859C152.736 67.9701 152.84 67.4591 152.974 66.9554C153.015 66.743 153.085 66.5372 153.183 66.3438Z" fill="#263238"/>
<path d="M154.409 84.2421C154.333 84.2647 156.593 92.0329 156.593 92.0329L149.95 91.4917L146.779 95.3758L158.101 99.5474C158.101 99.5474 165.119 96.4187 165.119 96.134C165.119 95.8493 162.583 82.0408 162.583 82.0408L154.409 84.2421Z" fill="#886962"/>
<path d="M149.521 85.1412C149.586 85.1392 149.65 85.1239 149.708 85.0963C149.767 85.0687 149.819 85.0293 149.862 84.9806C149.914 84.9233 149.954 84.8559 149.978 84.7827C150.003 84.7095 150.012 84.632 150.006 84.5549C149.991 84.4511 149.947 84.3536 149.879 84.2741C149.81 84.1947 149.72 84.1366 149.62 84.1068C149.496 84.0615 149.362 84.0502 149.232 84.074C149.102 84.0978 148.981 84.1558 148.881 84.2421C148.764 84.3384 148.668 84.4585 148.599 84.5944C148.564 84.6665 148.535 84.7421 148.515 84.8199C148.495 84.8988 148.47 84.9862 148.515 85.0369C148.539 85.0626 148.571 85.0808 148.605 85.0893C148.64 85.0978 148.676 85.0962 148.709 85.0848C148.788 85.0633 148.858 85.0156 148.907 84.9496C148.959 84.8776 148.993 84.7944 149.007 84.7067C149.02 84.6191 149.013 84.5294 148.986 84.445C148.943 84.3573 148.883 84.2789 148.809 84.2147C148.736 84.1504 148.65 84.1014 148.557 84.0707C148.465 84.04 148.367 84.0281 148.27 84.0358C148.172 84.0434 148.077 84.0704 147.991 84.1152C147.792 84.2052 147.619 84.3427 147.486 84.5155C147.418 84.5958 147.374 84.6934 147.359 84.7974C147.352 84.8427 147.363 84.889 147.388 84.9271C147.414 84.9652 147.453 84.9923 147.497 85.0031C147.549 85.0104 147.601 85.0055 147.65 84.9888C147.699 84.9722 147.743 84.9442 147.779 84.9073C147.854 84.8315 147.9 84.7317 147.909 84.6254C147.915 84.5088 147.891 84.3926 147.839 84.288C147.787 84.1834 147.709 84.0938 147.613 84.0279C147.508 83.9636 147.391 83.9223 147.269 83.9068C147.147 83.8912 147.023 83.9017 146.905 83.9377C146.783 83.9654 146.669 84.0206 146.571 84.0993C146.473 84.1779 146.395 84.2779 146.342 84.3915C146.314 84.4447 146.298 84.5031 146.295 84.563C146.293 84.6228 146.303 84.6825 146.325 84.7382C146.35 84.7902 146.39 84.8332 146.441 84.8615C146.491 84.8897 146.549 84.9018 146.607 84.896C146.668 84.8942 146.729 84.8774 146.783 84.8472C146.837 84.8169 146.882 84.7741 146.916 84.7223C146.95 84.6705 146.971 84.6113 146.977 84.5498C146.983 84.4883 146.974 84.4262 146.951 84.3689C146.904 84.244 146.818 84.1379 146.706 84.067C146.593 83.9962 146.46 83.9645 146.328 83.9771C146.042 84.0018 145.774 84.1278 145.572 84.3323C145.461 84.4294 145.362 84.5391 145.276 84.6592C145.235 84.7097 145.206 84.7691 145.192 84.8327C145.178 84.8964 145.179 84.9624 145.195 85.0257C145.209 85.0508 145.228 85.0727 145.252 85.0901C145.275 85.1076 145.301 85.1203 145.329 85.1274C145.357 85.1345 145.387 85.1359 145.415 85.1315C145.444 85.1271 145.471 85.117 145.496 85.1018C145.553 85.0698 145.6 85.0219 145.631 84.9638C145.661 84.9058 145.674 84.8401 145.668 84.7748C145.658 84.6276 145.613 84.485 145.536 84.3593C145.459 84.2335 145.352 84.1285 145.226 84.0532C145.031 83.9338 144.801 83.8875 144.576 83.9226C144.35 83.9577 144.145 84.072 143.997 84.2449C143.949 84.2988 143.913 84.3619 143.891 84.4302C143.868 84.4986 143.86 84.5707 143.867 84.6423C143.895 84.9242 144.363 84.9834 144.515 84.7466C144.589 84.6191 144.61 84.4678 144.574 84.3251C144.537 84.1823 144.447 84.0594 144.321 83.9828C144.187 83.9077 144.037 83.8644 143.884 83.8561C143.73 83.8478 143.577 83.8747 143.436 83.9348C143.288 83.9914 143.146 84.0632 143.013 84.1491C142.882 84.2223 142.768 84.3233 142.68 84.445C142.641 84.4997 142.618 84.5642 142.613 84.6313C142.608 84.6984 142.621 84.7656 142.652 84.8255C142.664 84.853 142.681 84.8777 142.703 84.898C142.725 84.9182 142.751 84.9335 142.779 84.9429C142.807 84.9522 142.837 84.9554 142.867 84.9522C142.897 84.949 142.925 84.9394 142.951 84.9242C143.006 84.89 143.05 84.8401 143.077 84.7809C143.104 84.7217 143.113 84.6559 143.103 84.5916C143.084 84.4499 143.024 84.3168 142.931 84.2083C142.841 84.0986 142.725 84.013 142.594 83.9589C142.462 83.9048 142.32 83.8839 142.179 83.8982C142.04 83.9114 141.906 83.9587 141.79 84.036C141.674 84.1132 141.579 84.2179 141.513 84.3407C141.483 84.3965 141.465 84.4581 141.461 84.5214C141.458 84.5847 141.468 84.6481 141.491 84.7072C141.516 84.7578 141.558 84.7988 141.608 84.8237C141.659 84.8486 141.717 84.8562 141.773 84.8453C141.833 84.8381 141.891 84.8158 141.94 84.7803C141.989 84.7448 142.029 84.6973 142.055 84.6423C142.08 84.585 142.093 84.5231 142.093 84.4605C142.093 84.3979 142.08 84.3361 142.055 84.2787C142 84.1617 141.916 84.0606 141.812 83.9847C141.707 83.9087 141.585 83.8606 141.457 83.8446C141.202 83.7875 140.937 83.7943 140.685 83.8644C140.567 83.8911 140.459 83.9492 140.371 84.0326C140.284 84.116 140.221 84.2215 140.189 84.3379C140.163 84.45 140.177 84.5675 140.228 84.6703C140.28 84.7731 140.365 84.8549 140.47 84.9016C140.576 84.9216 140.685 84.8994 140.774 84.8399C140.863 84.7803 140.925 84.6881 140.947 84.5831C140.968 84.4764 140.964 84.366 140.933 84.2614C140.903 84.1569 140.848 84.0613 140.772 83.9828C140.629 83.8221 140.44 83.7091 140.231 83.6586C140.034 83.6107 139.829 83.6113 139.632 83.6604C139.436 83.7095 139.254 83.8056 139.103 83.9405C138.964 84.0632 138.866 84.2254 138.822 84.4056C138.801 84.4862 138.804 84.571 138.829 84.6502C138.855 84.7294 138.902 84.7999 138.965 84.8537C139.023 84.9025 139.097 84.9281 139.172 84.9255C139.248 84.9229 139.32 84.8923 139.374 84.8396C139.428 84.7915 139.468 84.7307 139.493 84.6627C139.517 84.5948 139.523 84.5219 139.512 84.4507C139.49 84.3148 139.436 84.1864 139.354 84.0763C139.271 83.9663 139.163 83.8781 139.039 83.8193C138.851 83.7169 138.634 83.684 138.424 83.7263C138.27 83.759 138.126 83.8286 138.004 83.9292C137.906 84.0155 137.822 84.1174 137.756 84.2308C137.766 84.1985 137.779 84.1673 137.796 84.1378C137.845 84.0508 137.909 83.9727 137.984 83.9067C138.106 83.7967 138.253 83.7191 138.413 83.6812C138.634 83.6316 138.866 83.6615 139.067 83.7657C139.195 83.8279 139.308 83.9195 139.394 84.0331C139.481 84.1467 139.54 84.2792 139.566 84.4197C139.579 84.5033 139.571 84.5889 139.544 84.669C139.516 84.7491 139.47 84.8212 139.408 84.8791C139.339 84.9449 139.249 84.9832 139.154 84.9868C139.059 84.9905 138.966 84.9592 138.892 84.8988C138.816 84.8355 138.758 84.7521 138.726 84.658C138.694 84.564 138.689 84.4629 138.712 84.3661C138.751 84.1688 138.849 83.988 138.993 83.8475C139.155 83.6994 139.351 83.5934 139.563 83.5389C139.776 83.4843 139.998 83.4828 140.211 83.5346C140.444 83.5879 140.655 83.712 140.814 83.8897C140.903 83.982 140.967 84.0943 141.003 84.2171C141.038 84.3398 141.043 84.4693 141.017 84.5944C140.981 84.7255 140.902 84.8411 140.795 84.9242C140.738 84.9677 140.671 84.9972 140.601 85.0104C140.53 85.0236 140.458 85.0202 140.389 85.0003C140.321 84.9777 140.259 84.9409 140.206 84.8923C140.154 84.8437 140.112 84.7844 140.084 84.7184C140.022 84.5897 140.002 84.445 140.025 84.3041C140.063 84.1662 140.136 84.0411 140.239 83.9418C140.342 83.8426 140.47 83.773 140.609 83.7404C140.884 83.6601 141.174 83.6494 141.454 83.7093C141.604 83.731 141.747 83.7894 141.868 83.8794C141.99 83.9694 142.088 84.0882 142.153 84.2252C142.185 84.2997 142.201 84.3797 142.201 84.4605C142.201 84.5414 142.185 84.6214 142.153 84.6959C142.117 84.7716 142.063 84.8371 141.995 84.8864C141.927 84.9356 141.847 84.967 141.764 84.9777C141.677 84.9954 141.587 84.984 141.507 84.9453C141.427 84.9066 141.362 84.8427 141.322 84.7635C141.289 84.6848 141.274 84.5997 141.278 84.5144C141.282 84.4291 141.304 84.3457 141.344 84.2703C141.422 84.1243 141.534 83.9997 141.672 83.9077C141.809 83.8157 141.967 83.7591 142.132 83.7429C142.297 83.7268 142.463 83.7515 142.615 83.815C142.768 83.8785 142.903 83.9787 143.007 84.1068C143.121 84.2363 143.193 84.3976 143.213 84.569C143.226 84.6618 143.212 84.7563 143.172 84.841C143.132 84.9257 143.068 84.9967 142.988 85.0454C142.946 85.0711 142.899 85.0876 142.851 85.0939C142.802 85.1002 142.753 85.0962 142.706 85.082C142.611 85.0487 142.533 84.98 142.489 84.8904C142.445 84.8067 142.425 84.7126 142.43 84.6183C142.435 84.524 142.466 84.4329 142.52 84.3548C142.619 84.2133 142.749 84.0958 142.9 84.0109C143.042 83.9188 143.193 83.8422 143.351 83.7826C143.515 83.7138 143.692 83.6836 143.869 83.6944C144.046 83.7051 144.218 83.7565 144.371 83.8446C144.452 83.8929 144.523 83.9569 144.579 84.0328C144.635 84.1087 144.675 84.195 144.697 84.2867C144.719 84.3783 144.722 84.4734 144.707 84.5665C144.692 84.6595 144.658 84.7485 144.608 84.8284C144.549 84.9068 144.47 84.9677 144.379 85.0044C144.288 85.0412 144.189 85.0524 144.092 85.0369C143.989 85.027 143.89 84.9857 143.811 84.9186C143.736 84.8505 143.686 84.7591 143.67 84.6592C143.659 84.5664 143.668 84.4723 143.695 84.383C143.723 84.2937 143.769 84.2112 143.83 84.1406C144.002 83.9378 144.242 83.8034 144.504 83.762C144.767 83.7207 145.036 83.775 145.262 83.9151C145.41 84.0037 145.534 84.1271 145.623 84.2744C145.713 84.4218 145.765 84.5887 145.775 84.7607C145.78 84.854 145.759 84.9469 145.713 85.0286C145.668 85.1103 145.6 85.1777 145.519 85.223C145.431 85.2657 145.332 85.2777 145.237 85.2568C145.188 85.2459 145.142 85.2237 145.102 85.1919C145.063 85.1601 145.032 85.1196 145.011 85.0736C144.985 84.9873 144.979 84.8959 144.996 84.8072C145.012 84.7184 145.049 84.6348 145.104 84.5634C145.196 84.4323 145.304 84.313 145.426 84.2083C145.652 83.9814 145.952 83.8434 146.271 83.8193C146.435 83.8107 146.597 83.8499 146.739 83.932C146.879 84.0203 146.984 84.155 147.035 84.3125C147.062 84.391 147.071 84.4744 147.061 84.5567C147.052 84.639 147.025 84.7183 146.982 84.7889C146.934 84.8569 146.872 84.9131 146.8 84.9532C146.728 84.9933 146.647 85.0161 146.564 85.02C146.48 85.0255 146.396 85.006 146.323 84.9639C146.25 84.9217 146.19 84.8589 146.153 84.7833C146.122 84.7101 146.107 84.631 146.11 84.5517C146.113 84.4723 146.134 84.3945 146.17 84.3238C146.232 84.1913 146.324 84.0749 146.438 83.9835C146.553 83.8921 146.686 83.8282 146.829 83.7967C146.965 83.7568 147.107 83.7459 147.247 83.7648C147.387 83.7838 147.521 83.8321 147.641 83.9067C147.756 83.9854 147.848 84.0925 147.909 84.2175C147.969 84.3425 147.997 84.4811 147.988 84.6198C147.987 84.6906 147.971 84.7605 147.942 84.8249C147.912 84.8893 147.87 84.9468 147.817 84.9936C147.763 85.0404 147.701 85.0754 147.633 85.0965C147.566 85.1176 147.494 85.1242 147.424 85.1159C147.351 85.0984 147.288 85.0549 147.245 84.9936C147.203 84.9322 147.184 84.8574 147.193 84.7833C147.212 84.6556 147.265 84.5356 147.348 84.4366C147.495 84.2533 147.683 84.1074 147.898 84.0109C148.1 83.9142 148.332 83.9017 148.544 83.9763C148.755 84.0508 148.928 84.2062 149.025 84.4084C149.058 84.5076 149.067 84.6134 149.049 84.7166C149.032 84.8198 148.99 84.9172 148.926 85.0003C148.864 85.0828 148.776 85.1415 148.676 85.1666C148.625 85.1817 148.571 85.1812 148.521 85.1651C148.47 85.149 148.426 85.1181 148.394 85.0764C148.375 85.0317 148.365 84.9838 148.365 84.9355C148.365 84.8871 148.375 84.8392 148.394 84.7945C148.418 84.7126 148.45 84.6332 148.489 84.5578C148.563 84.4123 148.665 84.2837 148.791 84.1801C148.901 84.0892 149.034 84.0291 149.175 84.0058C149.316 83.9826 149.461 83.997 149.594 84.0476C149.704 84.0827 149.801 84.1487 149.874 84.2377C149.947 84.3267 149.993 84.4349 150.006 84.5493C150.01 84.6318 149.998 84.7144 149.969 84.792C149.941 84.8695 149.897 84.9404 149.84 85.0003C149.801 85.0469 149.752 85.0839 149.697 85.1084C149.642 85.1329 149.582 85.1441 149.521 85.1412Z" fill="#263238"/>
<path d="M137.703 84.3293L133.824 98.9863L146.156 99.3753L150.034 84.8987L137.703 84.3293Z" fill="#455A64"/>
<path d="M137.703 84.3293L137.209 84.3744L133.297 97.9124L133.892 98.7298L137.703 84.3293Z" fill="#E0E0E0"/>
<path d="M145.865 88.0641H149.871C150.059 88.0613 150.244 88.1148 150.403 88.2177C150.561 88.3206 150.685 88.4683 150.759 88.6419C150.919 89.0057 150.997 89.4001 150.99 89.7975C151.163 90.0329 151.261 90.3147 151.272 90.6065C151.312 91.3378 151.312 92.0709 151.272 92.8022C151.235 92.9178 150.809 93.0333 150.809 93.0333C150.809 93.0333 151.091 93.6506 150.849 94.1101C150.735 94.3681 150.529 94.5743 150.271 94.6879C150.271 94.6879 149.733 95.9224 149.191 96.0747C148.65 96.2269 148.154 96.0747 147.884 96.0747C147.613 96.0747 143.261 93.8423 143.261 93.8423V93.3406C143.261 93.3406 141.722 93.4956 141.682 92.6472C141.643 91.7988 142.683 91.8523 142.683 91.8523H145.034C145.034 91.8523 142.452 91.9538 142.215 91.5705C141.978 91.1871 141.674 90.2598 142.463 90.1076C143.252 89.9554 146.815 89.9526 146.815 89.9526L148.76 90.2739H149.067L148.828 89.4283C148.828 89.4283 146.787 89.4283 146.483 89.386C146.178 89.3437 145.603 89.2704 145.603 88.7321C145.603 88.1937 145.865 88.0641 145.865 88.0641Z" fill="#886962"/>
<path d="M148.117 92.0891C147.871 92.1329 147.621 92.1499 147.37 92.1398C146.908 92.1398 146.268 92.1398 145.564 92.0891C144.859 92.0384 144.222 91.9707 143.765 91.9059C143.516 91.8842 143.269 91.835 143.03 91.7593C143.279 91.7482 143.529 91.7605 143.777 91.796C144.236 91.8354 144.87 91.889 145.572 91.9341C146.274 91.9792 146.911 92.0074 147.37 92.0299C147.621 92.0247 147.871 92.0445 148.117 92.0891Z" fill="#654742"/>
<path d="M147.754 94.2483C147.531 94.2716 147.307 94.265 147.086 94.2286C146.677 94.1919 146.113 94.1271 145.493 94.0256C144.873 93.9242 144.318 93.8114 143.918 93.7128C143.698 93.675 143.483 93.6116 143.278 93.5239C143.501 93.5256 143.723 93.5531 143.94 93.6057L145.519 93.8734L147.1 94.1215C147.322 94.141 147.541 94.1835 147.754 94.2483Z" fill="#654742"/>
<path d="M151.108 91.2209C151.108 91.2209 151.164 91.2379 151.249 91.3083C151.366 91.4114 151.455 91.5423 151.508 91.6888C151.595 91.9186 151.59 92.173 151.494 92.3991C151.431 92.5427 151.336 92.6699 151.217 92.771C151.097 92.8722 150.956 92.9445 150.804 92.9826L150.849 92.8727C150.939 93.0266 150.996 93.1979 151.015 93.3753C151.035 93.5526 151.016 93.7321 150.961 93.902C150.907 94.0718 150.816 94.2281 150.697 94.3606C150.577 94.4932 150.431 94.5989 150.268 94.671L150.313 94.6202C150.176 95.1418 149.872 95.6042 149.448 95.9365C149.327 96.0298 149.197 96.1101 149.059 96.1761C149.011 96.2041 148.959 96.2223 148.904 96.2297C148.904 96.2099 149.104 96.1169 149.389 95.8661C149.773 95.5283 150.046 95.0822 150.172 94.5864V94.5498L150.206 94.5357C150.348 94.4705 150.476 94.3765 150.58 94.2595C150.684 94.1425 150.762 94.0051 150.81 93.856C150.858 93.707 150.875 93.5496 150.858 93.3939C150.842 93.2382 150.794 93.0876 150.716 92.9516L150.66 92.8642L150.761 92.8388C150.893 92.8082 151.016 92.7482 151.122 92.6633C151.227 92.5783 151.312 92.4707 151.37 92.3484C151.463 92.1509 151.479 91.9258 151.415 91.717C151.35 91.5316 151.245 91.3624 151.108 91.2209Z" fill="#654742"/>
<path d="M141.669 72.1671L144.14 67.1894L143.374 65.0078C143.374 65.0078 147.083 63.0826 145.815 59.1534C145.203 57.2565 143.625 53.4513 142.151 50.0239C141.389 48.2483 139.987 46.8246 138.223 46.036C136.459 45.2473 134.463 45.1516 132.632 45.7677L132.254 45.8945C128.263 47.5012 127.398 51.7883 129.114 55.7344L134.134 70.3914L141.669 72.1671Z" fill="#886962"/>
<path d="M143.376 64.9963C141.581 65.6372 139.635 65.7294 137.787 65.2613C137.787 65.2613 139.941 67.6712 143.729 66.0054L143.376 64.9963Z" fill="#654742"/>
<path d="M142.289 53.1131C142.339 53.2582 142.33 53.4172 142.265 53.5562C142.2 53.6952 142.083 53.8032 141.939 53.8572C141.87 53.887 141.795 53.9026 141.72 53.9031C141.644 53.9036 141.57 53.889 141.5 53.86C141.43 53.8311 141.367 53.7885 141.314 53.7348C141.261 53.6811 141.22 53.6172 141.192 53.5471C141.142 53.402 141.15 53.243 141.216 53.104C141.281 52.965 141.398 52.857 141.542 52.803C141.611 52.7732 141.685 52.7576 141.761 52.7571C141.836 52.7566 141.911 52.7712 141.981 52.8002C142.05 52.8291 142.113 52.8717 142.166 52.9254C142.219 52.9792 142.261 53.043 142.289 53.1131Z" fill="#263238"/>
<path d="M141.947 51.9855C141.902 52.0813 141.384 51.9122 140.775 52.1151C140.166 52.3181 139.833 52.769 139.743 52.7155C139.701 52.6958 139.726 52.5379 139.873 52.335C140.072 52.0696 140.349 51.8727 140.665 51.7712C140.979 51.6694 141.318 51.6694 141.632 51.7712C141.857 51.8304 141.97 51.9432 141.947 51.9855Z" fill="#263238"/>
<path d="M136.755 54.9478C136.806 55.0933 136.797 55.2527 136.732 55.3921C136.667 55.5316 136.55 55.6401 136.406 55.6947C136.337 55.7245 136.262 55.7402 136.187 55.7406C136.111 55.7411 136.037 55.7265 135.967 55.6976C135.897 55.6687 135.834 55.6261 135.781 55.5723C135.728 55.5186 135.687 55.4548 135.659 55.3847C135.609 55.2392 135.617 55.0798 135.682 54.9403C135.748 54.8009 135.865 54.6923 136.008 54.6377C136.078 54.6079 136.152 54.5923 136.228 54.5918C136.303 54.5913 136.378 54.606 136.448 54.6349C136.517 54.6638 136.58 54.7064 136.633 54.7601C136.686 54.8139 136.728 54.8777 136.755 54.9478Z" fill="#263238"/>
<path d="M136.107 53.767C136.071 53.8684 135.527 53.767 134.952 54.0235C134.377 54.28 134.089 54.7732 133.993 54.7338C133.948 54.7169 133.957 54.559 134.081 54.3392C134.249 54.0505 134.503 53.8219 134.808 53.6852C135.107 53.5453 135.443 53.5048 135.766 53.5697C136.006 53.6232 136.124 53.7219 136.107 53.767Z" fill="#263238"/>
<path d="M139.769 58.0372C140.051 57.8302 140.359 57.6606 140.685 57.5326C140.834 57.465 140.967 57.3861 140.967 57.2733C140.967 57.1606 140.845 57.0056 140.713 56.8505L139.867 55.8358C138.678 54.3814 137.759 53.1666 137.818 53.1186C137.877 53.0707 138.889 54.2123 140.073 55.6554L140.902 56.6842C141.061 56.8378 141.16 57.0423 141.184 57.262C141.179 57.3237 141.161 57.3835 141.13 57.4372C141.099 57.4908 141.057 57.5369 141.006 57.5721C140.929 57.6227 140.845 57.6635 140.758 57.6933C140.444 57.8496 140.112 57.9652 139.769 58.0372Z" fill="#263238"/>
<path d="M135.29 51.6868C135.29 51.87 134.659 51.994 133.982 52.3153C133.306 52.6367 132.798 53.0228 132.655 52.9073C132.59 52.8509 132.638 52.6648 132.815 52.4281C133.058 52.1316 133.364 51.8938 133.712 51.7328C134.059 51.5717 134.439 51.4914 134.822 51.4979C135.115 51.5007 135.29 51.5853 135.29 51.6868Z" fill="#263238"/>
<path d="M141.231 50.3676C141.172 50.5424 140.71 50.5395 140.208 50.7002C139.707 50.8609 139.32 51.1005 139.174 50.9821C139.109 50.9257 139.129 50.7679 139.27 50.5762C139.466 50.3384 139.728 50.1638 140.022 50.0745C140.317 49.9853 140.632 49.9852 140.927 50.0745C141.15 50.1647 141.257 50.2774 141.231 50.3676Z" fill="#263238"/>
<path d="M130.408 58.5107C130.332 58.5107 127.451 58.6178 128.435 61.2646C129.419 63.9113 131.874 62.392 131.851 62.299C131.829 62.206 130.408 58.5107 130.408 58.5107Z" fill="#886962"/>
<path d="M130.67 61.5972C130.656 61.5972 130.636 61.6479 130.571 61.7128C130.479 61.8 130.357 61.8485 130.23 61.8481C129.912 61.8481 129.512 61.4929 129.323 61.0194C129.23 60.7956 129.19 60.5537 129.204 60.3119C129.198 60.2199 129.215 60.1279 129.253 60.0439C129.291 59.9599 129.349 59.8864 129.421 59.8299C129.47 59.7979 129.527 59.7835 129.585 59.7892C129.642 59.7948 129.696 59.8202 129.737 59.8609C129.799 59.9201 129.802 59.9793 129.819 59.9793C129.836 59.9793 129.858 59.9145 129.796 59.813C129.757 59.7532 129.698 59.7085 129.63 59.6862C129.536 59.6578 129.435 59.6669 129.348 59.7115C129.247 59.7737 129.164 59.8608 129.106 59.9645C129.048 60.0681 129.018 60.1848 129.018 60.3034C128.991 60.5739 129.031 60.8468 129.134 61.0983C129.348 61.6254 129.808 62.0256 130.23 61.9918C130.309 61.9862 130.386 61.9631 130.455 61.9241C130.523 61.8851 130.583 61.8312 130.628 61.7663C130.69 61.6648 130.681 61.6 130.67 61.5972Z" fill="#654742"/>
<path d="M138.137 59.0491C138.232 59.0096 138.455 59.6635 139.168 59.9369C139.881 60.2104 140.555 59.9088 140.578 59.9961C140.6 60.0356 140.465 60.1765 140.174 60.278C139.794 60.4121 139.379 60.4071 139.002 60.2639C138.64 60.1274 138.345 59.8555 138.179 59.5057C138.072 59.2464 138.092 59.0603 138.137 59.0491Z" fill="#263238"/>
<path d="M143.114 44.2286C142.993 43.9855 142.813 43.7765 142.591 43.6205C142.368 43.4645 142.11 43.3664 141.84 43.3351C141.788 43.1872 141.722 43.0447 141.643 42.9095C141.399 42.4982 141.021 42.1832 140.573 42.017C140.125 41.8508 139.633 41.8434 139.18 41.9962C138.991 41.678 138.719 41.4173 138.393 41.2422C138.067 41.0671 137.699 40.9842 137.329 41.0025C136.96 41.0207 136.602 41.1395 136.295 41.3458C135.988 41.5522 135.743 41.8385 135.586 42.1738C135.153 42.0001 134.68 41.9545 134.222 42.0425C133.764 42.1304 133.341 42.3482 133.004 42.6699C132.916 42.7443 132.85 42.8419 132.815 42.9517C132.807 42.9895 132.807 43.0285 132.815 43.0664C132.823 43.1042 132.838 43.14 132.86 43.1716C132.669 43.0165 132.443 42.9098 132.201 42.8608C131.96 42.8117 131.71 42.8216 131.473 42.8897C131.313 42.939 131.163 43.0153 131.028 43.1152C130.617 43.2947 130.291 43.6273 130.121 44.0426C129.521 44.0517 128.946 44.2801 128.503 44.6847C128.061 45.0893 127.782 45.642 127.719 46.2383C127.291 46.4168 126.927 46.7185 126.671 47.105C126.416 47.4915 126.281 47.9453 126.284 48.4086C126.007 48.5239 125.766 48.7109 125.584 48.9504C125.403 49.1899 125.289 49.4733 125.254 49.7715C125.219 50.0696 125.263 50.3718 125.384 50.647C125.504 50.9222 125.695 51.1604 125.938 51.3372C125.938 51.3372 124.207 52.3914 125.256 53.8994C125.791 54.6717 126.89 54.1361 126.89 54.1361L130.143 59.0603C130.129 59.0941 130.707 59.6043 130.989 59.3591C131.271 59.1138 131.335 58.7221 131.423 58.3613C131.556 57.9594 131.626 57.539 131.629 57.1154C131.624 56.9037 131.552 56.6989 131.422 56.5318C131.292 56.3646 131.111 56.2441 130.907 56.1881C131.101 56.0191 131.247 55.802 131.331 55.5586C131.415 55.3151 131.433 55.054 131.383 54.8013C131.281 54.2972 131.09 53.8153 130.82 53.3779L129.729 51.3851C130.209 51.2029 130.631 50.8929 130.948 50.4885C131.264 50.0841 131.465 49.6008 131.527 49.0908C131.746 49.1539 131.976 49.1699 132.201 49.1378C132.427 49.1057 132.643 49.0262 132.835 48.9045C133.028 48.7828 133.192 48.6217 133.318 48.4317C133.444 48.2418 133.528 48.0274 133.565 47.8026C133.898 48.2188 134.376 48.4933 134.903 48.5707C135.431 48.6481 135.968 48.5227 136.406 48.2198C136.485 48.8089 137.652 48.9893 138.247 48.9526C138.841 48.916 139.394 48.3015 139.394 48.3015C139.793 48.3829 140.204 48.3915 140.606 48.3269L140.665 48.3128C141.446 48.1324 141.953 47.1853 142.097 46.4102C142.301 46.3664 142.493 46.2789 142.661 46.1537C142.938 45.9279 143.133 45.6166 143.215 45.2684C143.297 44.9202 143.262 44.5546 143.114 44.2286Z" fill="#263238"/>
<path d="M121.132 84.4112C121.132 84.4112 119.415 90.6122 119.038 92.1399C118.66 93.6676 118.663 97.1824 119.514 98.2253C120.365 99.2682 123.212 99.9306 123.212 99.9306C123.212 99.9306 128.784 97.2106 130.679 93.8931C132.573 90.5755 137.762 81.5474 137.762 81.5474L136.119 77.0376L127.482 85.285L127.57 84.2139L121.132 84.4112Z" fill="#886962"/>
<path d="M139.168 62.826C139.239 62.79 139.317 62.7685 139.396 62.7625C139.476 62.7565 139.556 62.7662 139.631 62.7911C139.707 62.8159 139.777 62.8555 139.837 62.9074C139.898 62.9593 139.947 63.0227 139.983 63.0938L144.958 72.99L143.684 73.5538L138.892 63.6237C138.825 63.4809 138.817 63.3177 138.869 63.1688C138.92 63.0199 139.028 62.8969 139.168 62.826Z" fill="#455A64"/>
<path d="M135.842 77.3364L140.487 72.5447H144.941L147.793 76.3104C147.793 76.3104 146.443 76.5612 145.958 75.8369L145.33 74.9405C145.33 74.9405 145.958 76.3188 145.612 76.9981C145.612 76.9981 144.944 78.5709 144.837 78.7401C144.634 79.0557 144.479 79.2587 143.898 79.1629C143.317 79.067 142.415 78.5991 142.514 78.2552C142.544 78.1575 142.601 78.07 142.677 78.0019C142.754 77.9339 142.847 77.888 142.948 77.8691L141.592 77.6746C141.592 77.6746 140.228 80.1466 139.405 80.7272C138.897 81.0821 138.341 81.3622 137.753 81.5587L135.842 77.3364Z" fill="#886962"/>
<path d="M127.657 85.1411C127.657 85.1637 127.282 85.3441 126.69 85.6879C125.922 86.1389 125.2 86.6638 124.534 87.2551C123.869 87.8513 123.266 88.5122 122.733 89.2281C122.321 89.775 122.099 90.1386 122.079 90.1245C122.113 90.0305 122.157 89.9407 122.211 89.8567C122.304 89.6876 122.451 89.4508 122.648 89.1661C123.681 87.6821 125.047 86.4601 126.637 85.5977C126.941 85.4343 127.2 85.3159 127.372 85.2426C127.463 85.1978 127.558 85.1638 127.657 85.1411Z" fill="#654742"/>
<path d="M141.51 73.9259C141.723 73.8645 141.941 73.8276 142.162 73.816C142.567 73.7652 143.128 73.7089 143.746 73.6525C143.902 73.6328 144.06 73.6328 144.216 73.6525C144.367 73.6743 144.51 73.7313 144.634 73.8188C144.836 73.9638 144.998 74.1578 145.104 74.3825C145.212 74.5782 145.283 74.7923 145.313 75.0139C145.29 75.0139 145.206 74.7828 145.014 74.4304C144.904 74.2294 144.749 74.0567 144.56 73.9259C144.45 73.8552 144.326 73.8082 144.197 73.7878C144.052 73.771 143.905 73.771 143.76 73.7878C143.14 73.8413 142.579 73.8836 142.17 73.9062C141.952 73.9362 141.73 73.9428 141.51 73.9259Z" fill="#654742"/>
<path d="M145.057 78.4863C145.034 78.4863 145.076 78.1481 145.057 77.6097C145.04 77.2949 144.997 76.9819 144.93 76.6739C144.854 76.3357 144.744 75.9298 144.405 75.7325C144.233 75.6408 144.048 75.5753 143.856 75.538L143.309 75.414C143.001 75.3446 142.688 75.2966 142.373 75.2702C142.083 75.2601 141.792 75.2676 141.502 75.2928C141.572 75.2523 141.65 75.2273 141.731 75.2195C141.944 75.1778 142.161 75.1599 142.379 75.166C142.7 75.177 143.02 75.2157 143.334 75.2815C143.512 75.3153 143.698 75.3548 143.898 75.3999C144.104 75.4368 144.303 75.5063 144.487 75.6057C144.674 75.719 144.82 75.8888 144.904 76.0905C144.981 76.2712 145.036 76.4604 145.068 76.6542C145.132 76.9706 145.166 77.2925 145.169 77.6154C145.173 77.8321 145.16 78.0489 145.13 78.2636C145.117 78.3413 145.093 78.4165 145.057 78.4863Z" fill="#654742"/>
<path d="M143.444 76.877C143.512 77.1697 143.535 77.4708 143.515 77.7705V77.8578L143.427 77.8409C143.377 77.8366 143.327 77.8366 143.278 77.8409C143.044 77.8499 142.823 77.9512 142.663 78.1228C142.536 78.2553 142.497 78.368 142.474 78.3596C142.452 78.3511 142.474 78.2243 142.584 78.058C142.665 77.95 142.77 77.8621 142.89 77.801C143.01 77.7399 143.143 77.7073 143.278 77.7056C143.338 77.7063 143.399 77.7129 143.458 77.7254L143.371 77.7958C143.349 77.4876 143.373 77.1778 143.444 76.877Z" fill="#654742"/>
<path d="M143.45 77.0264C143.148 77.0391 142.847 77.025 142.548 76.9841C142.245 76.992 141.943 76.974 141.643 76.9306C141.935 76.8286 142.247 76.7968 142.553 76.8375C142.863 76.8301 143.17 76.8948 143.45 77.0264Z" fill="#654742"/>
<path d="M141.716 76.7953C141.733 77.1176 141.664 77.4387 141.516 77.7254C141.414 78.0327 141.234 78.3078 140.992 78.5231C140.958 78.4978 141.184 78.1454 141.381 77.6775C141.578 77.2096 141.674 76.7868 141.716 76.7953Z" fill="#654742"/>
<path d="M159.519 130.978L159.119 143.738L174.99 144.319C174.954 142.799 166.853 139.454 166.853 139.454L167.448 131.28L159.519 130.978Z" fill="#74ABEE"/>
<g opacity="0.6">
<path d="M161.971 138.586C161.817 138.627 161.683 138.723 161.595 138.857C161.507 138.991 161.471 139.152 161.495 139.31C161.53 139.466 161.624 139.602 161.756 139.69C161.889 139.779 162.051 139.813 162.208 139.786C162.372 139.744 162.513 139.641 162.606 139.499C162.698 139.358 162.734 139.187 162.707 139.02C162.654 138.861 162.541 138.729 162.393 138.652C162.245 138.575 162.072 138.558 161.912 138.605" fill="white"/>
</g>
<g opacity="0.6">
<path d="M159.119 143.738L159.209 142.453L174.393 143.49C174.393 143.49 175.089 143.825 174.99 144.319L159.119 143.738Z" fill="white"/>
</g>
<path d="M167.115 139.383C167.115 139.459 166.721 139.482 166.329 139.716C165.937 139.95 165.723 140.28 165.652 140.237C165.582 140.195 165.714 139.761 166.194 139.485C166.673 139.208 167.132 139.313 167.115 139.383Z" fill="#263238"/>
<path d="M168.753 140.133C168.77 140.209 168.429 140.327 168.152 140.646C167.876 140.964 167.789 141.308 167.713 141.303C167.637 141.297 167.603 140.854 167.952 140.457C168.302 140.06 168.756 140.06 168.753 140.133Z" fill="#263238"/>
<path d="M169.627 142.165C169.556 142.165 169.46 141.787 169.677 141.37C169.894 140.953 170.258 140.807 170.289 140.863C170.32 140.919 170.086 141.145 169.917 141.494C169.748 141.844 169.703 142.165 169.627 142.165Z" fill="#263238"/>
<path d="M167.042 137.506C167.008 137.576 166.656 137.455 166.216 137.469C165.776 137.483 165.429 137.61 165.393 137.542C165.356 137.475 165.694 137.21 166.21 137.201C166.726 137.193 167.084 137.447 167.042 137.506Z" fill="#263238"/>
<path d="M166.735 135.609C166.735 135.643 166.424 135.679 165.94 135.575C165.655 135.515 165.378 135.42 165.117 135.293C164.961 135.217 164.812 135.131 164.668 135.034C164.581 134.982 164.502 134.916 164.434 134.839C164.386 134.782 164.358 134.711 164.354 134.636C164.351 134.561 164.372 134.487 164.415 134.425C164.456 134.373 164.508 134.331 164.569 134.302C164.629 134.274 164.695 134.26 164.761 134.262C164.862 134.263 164.962 134.281 165.057 134.312C165.226 134.359 165.389 134.422 165.545 134.501C165.809 134.631 166.051 134.802 166.261 135.009C166.616 135.364 166.732 135.657 166.706 135.671C166.681 135.685 166.498 135.445 166.143 135.149C165.93 134.98 165.697 134.837 165.449 134.724C165.303 134.661 165.152 134.609 164.998 134.569C164.829 134.518 164.688 134.51 164.64 134.569C164.626 134.597 164.623 134.608 164.657 134.659C164.706 134.715 164.763 134.763 164.826 134.803C164.964 134.899 165.108 134.983 165.238 135.059C165.48 135.19 165.734 135.298 165.996 135.381C166.247 135.439 166.494 135.516 166.735 135.609Z" fill="#263238"/>
<path d="M166.628 135.716C166.599 135.716 166.458 135.434 166.447 134.941C166.443 134.469 166.568 134.006 166.808 133.599C166.855 133.496 166.927 133.407 167.019 133.34C167.11 133.273 167.217 133.23 167.329 133.216C167.4 133.221 167.468 133.245 167.525 133.287C167.582 133.328 167.627 133.385 167.653 133.45C167.691 133.545 167.715 133.644 167.724 133.746C167.744 133.924 167.738 134.105 167.704 134.282C167.649 134.577 167.522 134.855 167.335 135.09C167.011 135.491 166.684 135.57 166.678 135.544C166.673 135.519 166.929 135.364 167.18 134.981C167.327 134.758 167.424 134.506 167.462 134.242C167.484 134.09 167.484 133.935 167.462 133.783C167.442 133.613 167.386 133.475 167.321 133.501C167.256 133.526 167.104 133.619 167.039 133.752C166.955 133.885 166.884 134.027 166.828 134.174C166.73 134.428 166.668 134.693 166.644 134.964C166.599 135.415 166.661 135.708 166.628 135.716Z" fill="#263238"/>
<path d="M135.71 131.071L139.729 143.191L124.678 148.265C124.28 146.799 131.093 141.286 131.093 141.286L128.201 133.628L135.71 131.071Z" fill="#74ABEE"/>
<g opacity="0.6">
<path d="M135.527 139.065C135.687 139.06 135.843 139.116 135.966 139.22C136.088 139.324 136.167 139.469 136.189 139.628C136.2 139.788 136.149 139.945 136.047 140.068C135.945 140.191 135.801 140.271 135.642 140.291C135.473 140.295 135.308 140.237 135.179 140.127C135.05 140.017 134.966 139.864 134.943 139.696C134.943 139.378 135.276 139.017 135.589 139.07" fill="white"/>
</g>
<g opacity="0.6">
<path d="M139.729 143.188L139.275 141.982L125.016 147.301C125.016 147.301 124.452 147.819 124.678 148.265L139.729 143.188Z" fill="white"/>
</g>
<path d="M130.825 141.291C130.85 141.362 131.231 141.272 131.671 141.387C132.11 141.503 132.409 141.745 132.468 141.692C132.528 141.638 132.271 141.255 131.736 141.128C131.2 141.001 130.786 141.229 130.825 141.291Z" fill="#263238"/>
<path d="M129.455 142.475C129.455 142.551 129.822 142.571 130.177 142.797C130.532 143.022 130.715 143.329 130.786 143.301C130.856 143.273 130.766 142.842 130.318 142.568C129.87 142.295 129.455 142.405 129.455 142.475Z" fill="#263238"/>
<path d="M129.207 144.668C129.278 144.668 129.258 144.259 128.925 143.921C128.593 143.583 128.201 143.538 128.193 143.608C128.184 143.679 128.474 143.825 128.728 144.107C128.982 144.389 129.131 144.685 129.207 144.668Z" fill="#263238"/>
<path d="M130.357 139.471C130.411 139.53 130.715 139.313 131.138 139.189C131.561 139.065 131.933 139.099 131.95 139.025C131.967 138.952 131.566 138.791 131.068 138.929C130.569 139.068 130.301 139.426 130.357 139.471Z" fill="#263238"/>
<path d="M130.115 137.565C130.115 137.596 130.43 137.543 130.867 137.306C131.122 137.167 131.359 136.996 131.572 136.798C131.699 136.681 131.819 136.556 131.93 136.424C131.998 136.348 132.055 136.263 132.096 136.17C132.127 136.101 132.135 136.024 132.117 135.951C132.099 135.878 132.057 135.813 131.998 135.767C131.944 135.728 131.881 135.702 131.816 135.692C131.75 135.682 131.683 135.687 131.62 135.708C131.52 135.738 131.425 135.784 131.338 135.843C131.191 135.937 131.052 136.043 130.924 136.161C130.708 136.362 130.525 136.595 130.383 136.852C130.229 137.076 130.146 137.341 130.146 137.613C130.188 137.613 130.281 137.331 130.546 136.951C130.701 136.727 130.884 136.523 131.09 136.345C131.212 136.24 131.342 136.146 131.479 136.063C131.623 135.967 131.761 135.922 131.823 135.978C131.885 136.035 131.854 136.009 131.823 136.068C131.79 136.136 131.749 136.198 131.699 136.254C131.6 136.382 131.492 136.502 131.377 136.615C131.184 136.811 130.971 136.987 130.743 137.142C130.377 137.41 130.098 137.526 130.115 137.565Z" fill="#263238"/>
<path d="M130.245 137.638C130.276 137.638 130.332 137.328 130.199 136.844C130.069 136.391 129.817 135.981 129.472 135.66C129.397 135.574 129.302 135.509 129.195 135.471C129.088 135.433 128.973 135.423 128.861 135.443C128.794 135.466 128.736 135.509 128.693 135.565C128.65 135.621 128.624 135.688 128.618 135.758C128.608 135.859 128.613 135.961 128.632 136.06C128.719 136.537 128.991 136.96 129.388 137.238C129.816 137.52 130.151 137.52 130.149 137.486C129.927 137.366 129.712 137.232 129.506 137.086C129.303 136.915 129.139 136.701 129.027 136.46C128.963 136.319 128.918 136.171 128.894 136.018C128.863 135.851 128.894 135.702 128.945 135.696C129.011 135.697 129.076 135.711 129.136 135.739C129.196 135.767 129.249 135.807 129.292 135.857C129.411 135.962 129.52 136.077 129.619 136.201C129.784 136.416 129.918 136.653 130.016 136.906C130.188 137.34 130.202 137.655 130.245 137.638Z" fill="#263238"/>
<path d="M132.085 102.284C132.085 102.284 126.188 97.0555 123.601 97.1006C121.013 97.1457 112.526 96.5792 116.086 108.339C119.674 120.197 126.101 138.329 126.276 137.678L137.347 132.818L132.838 115.952C132.838 115.952 147.909 116.121 150.82 115.74C153.732 115.36 159.178 111.512 159.178 111.512L158.31 132.824L169.866 132.181C169.866 132.181 171.49 106.58 171.958 101.32C172.363 96.7399 167.217 91.5986 161.965 92.7571C158.538 93.5153 146.28 102.169 146.28 102.169L132.085 102.284Z" fill="#263238"/>
<path d="M159.575 100.193C159.593 100.38 159.593 100.569 159.575 100.757C159.556 101.151 159.527 101.659 159.496 102.273C159.437 103.556 159.395 105.326 159.364 107.285C159.333 109.244 159.296 111.016 159.229 112.299C159.198 112.942 159.158 113.46 159.124 113.818C159.119 114.008 159.094 114.197 159.051 114.382C159.036 114.194 159.036 114.006 159.051 113.818C159.051 113.424 159.074 112.913 159.091 112.302C159.113 110.983 159.141 109.227 159.172 107.285C159.203 105.343 159.265 103.553 159.358 102.27C159.406 101.63 159.454 101.112 159.499 100.754C159.509 100.565 159.535 100.377 159.575 100.193Z" fill="#455A64"/>
<path d="M159.107 110.171C158.905 109.995 158.733 109.788 158.597 109.556C157.885 108.47 157.494 107.205 157.47 105.906C157.447 105.639 157.471 105.37 157.54 105.111C157.605 105.111 157.515 106.337 157.966 107.755C158.417 109.173 159.161 110.137 159.107 110.171Z" fill="#455A64"/>
<path d="M143.382 114.489C143.362 114.489 143.34 114.207 143.25 113.677C143.124 112.942 142.921 112.222 142.644 111.529C142.233 110.505 141.67 109.549 140.972 108.694C140.114 107.645 139.061 106.773 137.872 106.126C135.374 104.677 133.167 103.251 131.628 102.14C130.859 101.577 130.253 101.109 129.853 100.759C129.65 100.59 129.5 100.446 129.399 100.351C129.344 100.305 129.295 100.253 129.252 100.196C129.252 100.196 129.483 100.373 129.9 100.7C130.318 101.027 130.929 101.489 131.707 102.028C133.263 103.11 135.476 104.511 137.979 105.974C139.185 106.634 140.25 107.526 141.113 108.598C141.814 109.472 142.374 110.451 142.77 111.498C143.044 112.201 143.234 112.935 143.334 113.683C143.364 113.885 143.382 114.088 143.388 114.292C143.393 114.357 143.391 114.424 143.382 114.489Z" fill="#455A64"/>
<path d="M147.461 102.002C147.413 102.173 147.349 102.338 147.269 102.496C147.131 102.809 146.945 103.262 146.731 103.832C145.609 106.8 145.089 109.962 145.2 113.133C145.22 113.739 145.251 114.23 145.282 114.568C145.307 114.743 145.315 114.921 145.304 115.098C145.256 114.927 145.223 114.753 145.206 114.576C145.152 114.241 145.101 113.748 145.065 113.139C144.876 109.949 145.402 106.756 146.604 103.795C146.835 103.231 147.041 102.78 147.201 102.479C147.272 102.312 147.359 102.152 147.461 102.002Z" fill="#455A64"/>
<path d="M125.289 100.469C125.346 100.499 125.399 100.534 125.45 100.573L125.892 100.897C125.991 100.968 126.095 101.047 126.211 101.134C126.327 101.222 126.436 101.334 126.563 101.447C126.854 101.696 127.128 101.965 127.384 102.25L127.832 102.749C127.975 102.932 128.114 103.127 128.269 103.313L128.5 103.62C128.573 103.727 128.641 103.84 128.711 103.953C128.852 104.181 128.993 104.409 129.145 104.655C129.734 105.725 130.23 106.845 130.628 108C131.065 109.224 131.394 110.419 131.69 111.501L132.457 114.385C132.683 115.205 132.863 115.867 133.001 116.321C133.063 116.541 133.111 116.716 133.151 116.848C133.169 116.909 133.183 116.971 133.193 117.034C133.163 116.978 133.139 116.918 133.122 116.857C133.08 116.724 133.021 116.552 132.95 116.338C132.798 115.887 132.601 115.227 132.364 114.41L131.569 111.535C131.265 110.453 130.932 109.263 130.498 108.046C130.103 106.897 129.614 105.784 129.035 104.717C128.897 104.471 128.753 104.243 128.61 104.018C128.539 103.905 128.474 103.792 128.401 103.685L128.178 103.381C128.029 103.181 127.897 102.983 127.75 102.803L127.313 102.301C127.063 102.014 126.796 101.743 126.513 101.489C126.389 101.374 126.281 101.261 126.169 101.168L125.861 100.926L125.433 100.582C125.382 100.549 125.333 100.511 125.289 100.469Z" fill="#455A64"/>
<path d="M131.964 102.18C134.067 103.567 136.384 103.894 138.861 104.367C140.29 104.649 141.784 104.889 143.179 104.477C146.17 103.595 149.059 100.19 150.978 98.978L142.959 101.013L131.964 102.18Z" fill="#74ABEE"/>
<path d="M83.112 81.692C83.416 81.74 83.692 81.864 83.94 82.064C84.196 82.264 84.396 82.512 84.54 82.808C84.692 83.104 84.768 83.42 84.768 83.756C84.768 84.18 84.66 84.564 84.444 84.908C84.228 85.244 83.912 85.512 83.496 85.712C83.088 85.904 82.604 86 82.044 86H78.924V77.636H81.924C82.492 77.636 82.976 77.732 83.376 77.924C83.776 78.108 84.076 78.36 84.276 78.68C84.476 79 84.576 79.36 84.576 79.76C84.576 80.256 84.44 80.668 84.168 80.996C83.904 81.316 83.552 81.548 83.112 81.692ZM80.016 81.248H81.852C82.364 81.248 82.76 81.128 83.04 80.888C83.32 80.648 83.46 80.316 83.46 79.892C83.46 79.468 83.32 79.136 83.04 78.896C82.76 78.656 82.356 78.536 81.828 78.536H80.016V81.248ZM81.948 85.1C82.492 85.1 82.916 84.972 83.22 84.716C83.524 84.46 83.676 84.104 83.676 83.648C83.676 83.184 83.516 82.82 83.196 82.556C82.876 82.284 82.448 82.148 81.912 82.148H80.016V85.1H81.948ZM87.3754 77.12V86H86.2834V77.12H87.3754ZM92.1045 86.108C91.4885 86.108 90.9285 85.968 90.4245 85.688C89.9285 85.408 89.5365 85.012 89.2485 84.5C88.9685 83.98 88.8285 83.38 88.8285 82.7C88.8285 82.028 88.9725 81.436 89.2605 80.924C89.5565 80.404 89.9565 80.008 90.4605 79.736C90.9645 79.456 91.5285 79.316 92.1525 79.316C92.7765 79.316 93.3405 79.456 93.8445 79.736C94.3485 80.008 94.7445 80.4 95.0325 80.912C95.3285 81.424 95.4765 82.02 95.4765 82.7C95.4765 83.38 95.3245 83.98 95.0205 84.5C94.7245 85.012 94.3205 85.408 93.8085 85.688C93.2965 85.968 92.7285 86.108 92.1045 86.108ZM92.1045 85.148C92.4965 85.148 92.8645 85.056 93.2085 84.872C93.5525 84.688 93.8285 84.412 94.0365 84.044C94.2525 83.676 94.3605 83.228 94.3605 82.7C94.3605 82.172 94.2565 81.724 94.0485 81.356C93.8405 80.988 93.5685 80.716 93.2325 80.54C92.8965 80.356 92.5325 80.264 92.1405 80.264C91.7405 80.264 91.3725 80.356 91.0365 80.54C90.7085 80.716 90.4445 80.988 90.2445 81.356C90.0445 81.724 89.9445 82.172 89.9445 82.7C89.9445 83.236 90.0405 83.688 90.2325 84.056C90.4325 84.424 90.6965 84.7 91.0245 84.884C91.3525 85.06 91.7125 85.148 92.1045 85.148ZM99.6243 79.316C100.192 79.316 100.688 79.44 101.112 79.688C101.544 79.936 101.864 80.248 102.072 80.624V79.424H103.176V86.144C103.176 86.744 103.048 87.276 102.792 87.74C102.536 88.212 102.168 88.58 101.688 88.844C101.216 89.108 100.664 89.24 100.032 89.24C99.1683 89.24 98.4483 89.036 97.8723 88.628C97.2963 88.22 96.9563 87.664 96.8523 86.96H97.9323C98.0523 87.36 98.3003 87.68 98.6763 87.92C99.0523 88.168 99.5043 88.292 100.032 88.292C100.632 88.292 101.12 88.104 101.496 87.728C101.88 87.352 102.072 86.824 102.072 86.144V84.764C101.856 85.148 101.536 85.468 101.112 85.724C100.688 85.98 100.192 86.108 99.6243 86.108C99.0403 86.108 98.5083 85.964 98.0283 85.676C97.5563 85.388 97.1843 84.984 96.9123 84.464C96.6403 83.944 96.5043 83.352 96.5043 82.688C96.5043 82.016 96.6403 81.428 96.9123 80.924C97.1843 80.412 97.5563 80.016 98.0283 79.736C98.5083 79.456 99.0403 79.316 99.6243 79.316ZM102.072 82.7C102.072 82.204 101.972 81.772 101.772 81.404C101.572 81.036 101.3 80.756 100.956 80.564C100.62 80.364 100.248 80.264 99.8403 80.264C99.4323 80.264 99.0603 80.36 98.7243 80.552C98.3883 80.744 98.1203 81.024 97.9203 81.392C97.7203 81.76 97.6203 82.192 97.6203 82.688C97.6203 83.192 97.7203 83.632 97.9203 84.008C98.1203 84.376 98.3883 84.66 98.7243 84.86C99.0603 85.052 99.4323 85.148 99.8403 85.148C100.248 85.148 100.62 85.052 100.956 84.86C101.3 84.66 101.572 84.376 101.772 84.008C101.972 83.632 102.072 83.196 102.072 82.7Z" fill="black"/>
<defs>
<filter id="filter0_d_202_25" x="0.5" y="0.17627" width="186" height="152" filterUnits="userSpaceOnUse" color-interpolation-filters="sRGB">
<feFlood flood-opacity="0" result="BackgroundImageFix"/>
<feColorMatrix in="SourceAlpha" type="matrix" values="0 0 0 0 0 0 0 0 0 0 0 0 0 0 0 0 0 0 127 0" result="hardAlpha"/>
<feOffset dy="0.5"/>
<feGaussianBlur stdDeviation="0.25"/>
<feComposite in2="hardAlpha" operator="out"/>
<feColorMatrix type="matrix" values="0 0 0 0 0 0 0 0 0 0 0 0 0 0 0 0 0 0 0.25 0"/>
<feBlend mode="normal" in2="BackgroundImageFix" result="effect1_dropShadow_202_25"/>
<feBlend mode="normal" in="SourceGraphic" in2="effect1_dropShadow_202_25" result="shape"/>
</filter>
</defs>
</svg>
