<svg width="196" height="166" viewBox="0 0 196 166" fill="none" xmlns="http://www.w3.org/2000/svg">
<g filter="url(#filter0_d_202_24)">
<path d="M1 13.6763L186.5 0.67627L195 150.176L7.5 164.176L1 13.6763Z" fill="white"/>
</g>
<path fill-rule="evenodd" clip-rule="evenodd" d="M95.345 30.4235C110.311 33.0447 113.679 52.662 124.957 62.8816C137.555 74.2981 162.972 75.6005 163.968 92.6094C164.956 109.468 142.609 116.619 128.656 126.051C118.389 132.992 107.722 139.106 95.345 138.999C83.0782 138.892 72.5582 132.677 62.606 125.477C49.8573 116.253 33.1818 108.263 31.2267 92.6094C29.178 76.206 41.3756 61.8041 53.2189 50.3178C64.8211 39.0652 79.453 27.6403 95.345 30.4235Z" fill="#EFE9D2"/>
<path d="M148.073 23.3013L139.996 49.5327C142.224 52.2693 144.611 54.8806 148.753 56.173L168.72 61.6659L176.468 30.6735L148.073 23.3013Z" fill="#E0E0E0"/>
<path d="M147.071 21.5408L139 47.7722L147.75 54.4125L167.717 59.9054L176.573 30.2846L147.071 21.5408Z" fill="#74ABEE"/>
<path d="M142.917 46.6973L139 47.7655C139.742 49.2117 140.775 50.4891 142.033 51.5176C143.731 52.8361 145.665 53.8186 147.731 54.4124C146.44 53.5278 145.346 52.3858 144.517 51.0581C143.689 49.7304 143.144 48.2457 142.917 46.6973Z" fill="#74ABEE"/>
<g opacity="0.3">
<path d="M142.917 46.6973C141.361 47.5413 139.62 48.5964 139 47.7655C139.742 49.2117 140.775 50.4891 142.033 51.5176C143.731 52.8361 145.665 53.8186 147.731 54.4124C146.44 53.5278 145.346 52.3858 144.517 51.0581C143.689 49.7304 143.144 48.2457 142.917 46.6973Z" fill="black"/>
</g>
<path d="M143.444 26.9941L157.727 24.0003L157.121 21L142.627 23.7629L143.444 26.9941Z" fill="#E0E0E0"/>
<path d="M178.288 37.7292L170.375 25.4641L167.79 27.1126L175.565 39.6481L178.288 37.7292Z" fill="#E0E0E0"/>
<path d="M170.507 38.6722C170.507 38.725 165.462 37.2808 159.297 35.4477C153.131 33.6145 148.087 32.0913 148.087 32.0385C148.087 31.9858 153.131 33.4365 159.33 35.2696C165.528 37.1028 170.52 38.626 170.507 38.6722Z" fill="#263238"/>
<path d="M169.214 42.6881C169.214 42.7408 164.163 41.2967 157.971 39.4635C151.779 37.6304 146.761 36.1071 146.761 36.0544C146.761 36.0016 151.812 37.4523 158.004 39.2855C164.196 41.1187 169.227 42.6419 169.214 42.6881Z" fill="#263238"/>
<path d="M168.278 46.3149C168.278 46.3611 163.233 44.917 157.035 43.0838C150.836 41.2507 145.825 39.7274 145.825 39.6813C145.825 39.6351 150.869 41.0792 157.035 42.9058C163.2 44.7324 168.291 46.2622 168.278 46.3149Z" fill="#263238"/>
<path d="M167.236 49.7569C167.236 49.8097 162.185 48.3656 155.993 46.5324C149.801 44.6992 144.783 43.176 144.783 43.1232C144.783 43.0705 149.827 44.5212 156.026 46.3543C162.224 48.1875 167.249 49.7108 167.236 49.7569Z" fill="#263238"/>
<path d="M70.5 93H69.408L65.016 86.34V93H63.924V84.624H65.016L69.408 91.272V84.624H70.5V93ZM75.2295 93.108C74.6135 93.108 74.0535 92.968 73.5495 92.688C73.0535 92.408 72.6615 92.012 72.3735 91.5C72.0935 90.98 71.9535 90.38 71.9535 89.7C71.9535 89.028 72.0975 88.436 72.3855 87.924C72.6815 87.404 73.0815 87.008 73.5855 86.736C74.0895 86.456 74.6535 86.316 75.2775 86.316C75.9015 86.316 76.4655 86.456 76.9695 86.736C77.4735 87.008 77.8695 87.4 78.1575 87.912C78.4535 88.424 78.6015 89.02 78.6015 89.7C78.6015 90.38 78.4495 90.98 78.1455 91.5C77.8495 92.012 77.4455 92.408 76.9335 92.688C76.4215 92.968 75.8535 93.108 75.2295 93.108ZM75.2295 92.148C75.6215 92.148 75.9895 92.056 76.3335 91.872C76.6775 91.688 76.9535 91.412 77.1615 91.044C77.3775 90.676 77.4855 90.228 77.4855 89.7C77.4855 89.172 77.3815 88.724 77.1735 88.356C76.9655 87.988 76.6935 87.716 76.3575 87.54C76.0215 87.356 75.6575 87.264 75.2655 87.264C74.8655 87.264 74.4975 87.356 74.1615 87.54C73.8335 87.716 73.5695 87.988 73.3695 88.356C73.1695 88.724 73.0695 89.172 73.0695 89.7C73.0695 90.236 73.1655 90.688 73.3575 91.056C73.5575 91.424 73.8215 91.7 74.1495 91.884C74.4775 92.06 74.8375 92.148 75.2295 92.148ZM81.3693 87.324V91.2C81.3693 91.52 81.4373 91.748 81.5733 91.884C81.7093 92.012 81.9453 92.076 82.2813 92.076H83.0853V93H82.1013C81.4933 93 81.0373 92.86 80.7333 92.58C80.4293 92.3 80.2773 91.84 80.2773 91.2V87.324H79.4253V86.424H80.2773V84.768H81.3693V86.424H83.0853V87.324H81.3693ZM90.4084 89.46C90.4084 89.668 90.3964 89.888 90.3724 90.12H85.1164C85.1564 90.768 85.3764 91.276 85.7764 91.644C86.1844 92.004 86.6764 92.184 87.2524 92.184C87.7244 92.184 88.1164 92.076 88.4284 91.86C88.7484 91.636 88.9724 91.34 89.1004 90.972H90.2764C90.1004 91.604 89.7484 92.12 89.2204 92.52C88.6924 92.912 88.0364 93.108 87.2524 93.108C86.6284 93.108 86.0684 92.968 85.5724 92.688C85.0844 92.408 84.7004 92.012 84.4204 91.5C84.1404 90.98 84.0004 90.38 84.0004 89.7C84.0004 89.02 84.1364 88.424 84.4084 87.912C84.6804 87.4 85.0604 87.008 85.5484 86.736C86.0444 86.456 86.6124 86.316 87.2524 86.316C87.8764 86.316 88.4284 86.452 88.9084 86.724C89.3884 86.996 89.7564 87.372 90.0124 87.852C90.2764 88.324 90.4084 88.86 90.4084 89.46ZM89.2804 89.232C89.2804 88.816 89.1884 88.46 89.0044 88.164C88.8204 87.86 88.5684 87.632 88.2484 87.48C87.9364 87.32 87.5884 87.24 87.2044 87.24C86.6524 87.24 86.1804 87.416 85.7884 87.768C85.4044 88.12 85.1844 88.608 85.1284 89.232H89.2804ZM94.1778 93.108C93.6738 93.108 93.2218 93.024 92.8218 92.856C92.4218 92.68 92.1058 92.44 91.8738 92.136C91.6418 91.824 91.5138 91.468 91.4898 91.068H92.6178C92.6498 91.396 92.8018 91.664 93.0738 91.872C93.3538 92.08 93.7178 92.184 94.1658 92.184C94.5818 92.184 94.9098 92.092 95.1498 91.908C95.3898 91.724 95.5098 91.492 95.5098 91.212C95.5098 90.924 95.3818 90.712 95.1258 90.576C94.8698 90.432 94.4738 90.292 93.9378 90.156C93.4498 90.028 93.0498 89.9 92.7378 89.772C92.4338 89.636 92.1698 89.44 91.9458 89.184C91.7298 88.92 91.6218 88.576 91.6218 88.152C91.6218 87.816 91.7218 87.508 91.9218 87.228C92.1218 86.948 92.4058 86.728 92.7738 86.568C93.1418 86.4 93.5618 86.316 94.0338 86.316C94.7618 86.316 95.3498 86.5 95.7978 86.868C96.2458 87.236 96.4858 87.74 96.5178 88.38H95.4258C95.4018 88.036 95.2618 87.76 95.0058 87.552C94.7578 87.344 94.4218 87.24 93.9978 87.24C93.6058 87.24 93.2938 87.324 93.0618 87.492C92.8298 87.66 92.7138 87.88 92.7138 88.152C92.7138 88.368 92.7818 88.548 92.9178 88.692C93.0618 88.828 93.2378 88.94 93.4458 89.028C93.6618 89.108 93.9578 89.2 94.3338 89.304C94.8058 89.432 95.1898 89.56 95.4858 89.688C95.7818 89.808 96.0338 89.992 96.2418 90.24C96.4578 90.488 96.5698 90.812 96.5778 91.212C96.5778 91.572 96.4778 91.896 96.2778 92.184C96.0778 92.472 95.7938 92.7 95.4258 92.868C95.0658 93.028 94.6498 93.108 94.1778 93.108ZM105.399 81.696L102.111 95.04H101.031L104.307 81.696H105.399ZM115.373 84.636V85.524H113.093V93H112.001V85.524H109.709V84.636H115.373ZM117.809 84.636V93H116.717V84.636H117.809ZM120.762 92.112H123.69V93H119.67V84.636H120.762V92.112Z" fill="black"/>
<defs>
<filter id="filter0_d_202_24" x="0.5" y="0.67627" width="195" height="164.5" filterUnits="userSpaceOnUse" color-interpolation-filters="sRGB">
<feFlood flood-opacity="0" result="BackgroundImageFix"/>
<feColorMatrix in="SourceAlpha" type="matrix" values="0 0 0 0 0 0 0 0 0 0 0 0 0 0 0 0 0 0 127 0" result="hardAlpha"/>
<feOffset dy="0.5"/>
<feGaussianBlur stdDeviation="0.25"/>
<feComposite in2="hardAlpha" operator="out"/>
<feColorMatrix type="matrix" values="0 0 0 0 0 0 0 0 0 0 0 0 0 0 0 0 0 0 0.25 0"/>
<feBlend mode="normal" in2="BackgroundImageFix" result="effect1_dropShadow_202_24"/>
<feBlend mode="normal" in="SourceGraphic" in2="effect1_dropShadow_202_24" result="shape"/>
</filter>
</defs>
</svg>
