<svg width="20" height="20" viewBox="0 0 20 20" fill="none" xmlns="http://www.w3.org/2000/svg">
<path fill-rule="evenodd" clip-rule="evenodd" d="M4.58337 8.75003C4.58337 7.36933 5.70268 6.25003 7.08337 6.25003C8.46407 6.25003 9.58337 7.36933 9.58337 8.75003C9.58337 9.3128 9.39742 9.83214 9.0836 10.25C9.8931 10.8581 10.4167 11.8263 10.4167 12.9167C10.4167 13.3769 10.0436 13.75 9.58337 13.75C9.12314 13.75 8.75004 13.3769 8.75004 12.9167C8.75004 11.9962 8.00384 11.25 7.08337 11.25C6.1629 11.25 5.41671 11.9962 5.41671 12.9167C5.41671 13.3769 5.04361 13.75 4.58337 13.75C4.12314 13.75 3.75004 13.3769 3.75004 12.9167C3.75004 11.8263 4.27365 10.8581 5.08315 10.25C4.76933 9.83214 4.58337 9.3128 4.58337 8.75003ZM7.08337 9.58336C7.54359 9.58336 7.91671 9.21025 7.91671 8.75003C7.91671 8.28981 7.54359 7.9167 7.08337 7.9167C6.62315 7.9167 6.25004 8.28981 6.25004 8.75003C6.25004 9.21025 6.62315 9.58336 7.08337 9.58336Z" fill="black" fill-opacity="0.85"/>
<path d="M10.8334 8.33336C10.8334 7.87313 11.2065 7.50003 11.6667 7.50003H15C15.4603 7.50003 15.8334 7.87313 15.8334 8.33336C15.8334 8.7936 15.4603 9.1667 15 9.1667H11.6667C11.2065 9.1667 10.8334 8.7936 10.8334 8.33336Z" fill="black" fill-opacity="0.85"/>
<path d="M12.5 10.8334C12.0398 10.8334 11.6667 11.2065 11.6667 11.6667C11.6667 12.1269 12.0398 12.5 12.5 12.5H15C15.4603 12.5 15.8334 12.1269 15.8334 11.6667C15.8334 11.2065 15.4603 10.8334 15 10.8334H12.5Z" fill="black" fill-opacity="0.85"/>
<path fill-rule="evenodd" clip-rule="evenodd" d="M0.833374 3.33336C0.833374 2.87313 1.20647 2.50003 1.66671 2.50003H18.3334C18.7936 2.50003 19.1667 2.87313 19.1667 3.33336V16.6667C19.1667 17.1269 18.7936 17.5 18.3334 17.5H1.66671C1.20647 17.5 0.833374 17.1269 0.833374 16.6667V3.33336ZM2.50004 4.1667V15.8334H17.5V4.1667H2.50004Z" fill="black" fill-opacity="0.85"/>
<path fill-rule="evenodd" clip-rule="evenodd" d="M2.5 15.8334V4.16669H17.5V15.8334H2.5ZM4.58333 8.75002C4.58333 7.36932 5.70264 6.25002 7.08333 6.25002C8.46403 6.25002 9.58333 7.36932 9.58333 8.75002C9.58333 9.31279 9.39738 9.83213 9.08356 10.25C9.89306 10.8581 10.4167 11.8262 10.4167 12.9167C10.4167 13.3769 10.0436 13.75 9.58333 13.75C9.1231 13.75 8.75 13.3769 8.75 12.9167C8.75 11.9962 8.0038 11.25 7.08333 11.25C6.16286 11.25 5.41667 11.9962 5.41667 12.9167C5.41667 13.3769 5.04357 13.75 4.58333 13.75C4.1231 13.75 3.75 13.3769 3.75 12.9167C3.75 11.8262 4.27361 10.8581 5.08311 10.25C4.76929 9.83213 4.58333 9.31279 4.58333 8.75002ZM10.8333 8.33335C10.8333 7.87312 11.2064 7.50002 11.6667 7.50002H15C15.4602 7.50002 15.8333 7.87312 15.8333 8.33335C15.8333 8.79359 15.4602 9.16669 15 9.16669H11.6667C11.2064 9.16669 10.8333 8.79359 10.8333 8.33335ZM12.5 10.8334C12.0398 10.8334 11.6667 11.2064 11.6667 11.6667C11.6667 12.1269 12.0398 12.5 12.5 12.5H15C15.4602 12.5 15.8333 12.1269 15.8333 11.6667C15.8333 11.2064 15.4602 10.8334 15 10.8334H12.5Z" fill="#A3BDAE"/>
<path d="M7.91667 8.75002C7.91667 9.21024 7.54355 9.58335 7.08333 9.58335C6.62311 9.58335 6.25 9.21024 6.25 8.75002C6.25 8.2898 6.62311 7.91669 7.08333 7.91669C7.54355 7.91669 7.91667 8.2898 7.91667 8.75002Z" fill="#A3BDAE"/>
</svg>
