<svg width="20" height="20" viewBox="0 0 20 20" fill="none" xmlns="http://www.w3.org/2000/svg">
<path fill-rule="evenodd" clip-rule="evenodd" d="M2.5 2.50001C2.5 1.57954 3.24619 0.833344 4.16667 0.833344H15.8333C16.7538 0.833344 17.5 1.57954 17.5 2.50001V17.5C17.5 18.4205 16.7538 19.1667 15.8333 19.1667H4.16667C3.2462 19.1667 2.5 18.4205 2.5 17.5V2.50001ZM7.5 17.5H15.8333V2.50001H7.5V17.5ZM5.83333 2.50001V17.5H4.16667V2.50001H5.83333ZM9.16667 5.00001C9.16667 4.53977 9.53976 4.16668 10 4.16668H13.3333C13.7936 4.16668 14.1667 4.53977 14.1667 5.00001C14.1667 5.46025 13.7936 5.83334 13.3333 5.83334H10C9.53976 5.83334 9.16667 5.46025 9.16667 5.00001ZM9.16667 8.33334C9.16667 7.87311 9.53976 7.50001 10 7.50001H13.3333C13.7936 7.50001 14.1667 7.87311 14.1667 8.33334C14.1667 8.79358 13.7936 9.16668 13.3333 9.16668H10C9.53976 9.16668 9.16667 8.79358 9.16667 8.33334Z" fill="black" fill-opacity="0.85"/>
<path fill-rule="evenodd" clip-rule="evenodd" d="M15.8333 17.5H7.49996V2.5H15.8333V17.5ZM9.16663 5C9.16663 4.53976 9.53972 4.16667 9.99996 4.16667H13.3333C13.7935 4.16667 14.1666 4.53976 14.1666 5C14.1666 5.46024 13.7935 5.83333 13.3333 5.83333H9.99996C9.53972 5.83333 9.16663 5.46024 9.16663 5ZM9.16663 8.33333C9.16663 7.8731 9.53972 7.5 9.99996 7.5H13.3333C13.7935 7.5 14.1666 7.8731 14.1666 8.33333C14.1666 8.79357 13.7935 9.16667 13.3333 9.16667H9.99996C9.53972 9.16667 9.16663 8.79357 9.16663 8.33333Z" fill="#91D5FF"/>
<path d="M5.83329 2.5V17.5H4.16663V2.5H5.83329Z" fill="#91D5FF"/>
</svg>
