<svg width="20" height="20" viewBox="0 0 20 20" fill="none" xmlns="http://www.w3.org/2000/svg">
<path fill-rule="evenodd" clip-rule="evenodd" d="M0.833374 2.49999C0.833374 2.03975 1.20647 1.66666 1.66671 1.66666H12.5C12.9603 1.66666 13.3334 2.03975 13.3334 2.49999V17.5C13.3334 17.9602 12.9603 18.3333 12.5 18.3333H1.66671C1.20647 18.3333 0.833374 17.9602 0.833374 17.5V2.49999ZM5.83337 16.6667H11.6667V3.33332H5.83337V16.6667ZM4.16671 3.33332V16.6667H2.50004V3.33332H4.16671ZM14.1667 2.49999C14.1667 2.03975 14.5398 1.66666 15 1.66666H18.3334C18.7936 1.66666 19.1667 2.03975 19.1667 2.49999V15.8333C19.1667 16.0543 19.0789 16.2663 18.9226 16.4226L17.256 18.0892C16.9305 18.4147 16.4029 18.4147 16.0774 18.0892L14.4108 16.4226C14.2545 16.2663 14.1667 16.0543 14.1667 15.8333V2.49999ZM15.8334 3.33332V15.4881L16.6667 16.3215L17.5 15.4881V3.33332H15.8334Z" fill="black" fill-opacity="0.85"/>
<path d="M4.16667 3.33334V16.6667H2.5V3.33334H4.16667Z" fill="#A3BDAE"/>
<path d="M11.6667 16.6667H5.83333V3.33334H11.6667V16.6667Z" fill="#A3BDAE"/>
<path d="M15.8333 15.4882V3.33334H17.5V15.4882L16.6667 16.3215L15.8333 15.4882Z" fill="#A3BDAE"/>
</svg>
