<svg width="17" height="17" viewBox="0 0 17 17" fill="none" xmlns="http://www.w3.org/2000/svg">
<path d="M5.66671 1.41668C5.66671 1.02548 5.98384 0.708344 6.37504 0.708344H10.625C11.0162 0.708344 11.3334 1.02548 11.3334 1.41668C11.3334 1.80788 11.0162 2.12501 10.625 2.12501H6.37504C5.98384 2.12501 5.66671 1.80788 5.66671 1.41668Z" fill="black" fill-opacity="0.85"/>
<path d="M9.20837 9.56251C9.20837 9.17131 8.89124 8.85418 8.50004 8.85418C8.10884 8.85418 7.79171 9.17131 7.79171 9.56251V9.91668C7.79171 10.3079 8.10884 10.625 8.50004 10.625C8.89124 10.625 9.20837 10.3079 9.20837 9.91668V9.56251Z" fill="black" fill-opacity="0.85"/>
<path d="M8.50004 5.66668C8.89124 5.66668 9.20837 5.98381 9.20837 6.37501V7.43751C9.20837 7.82871 8.89124 8.14584 8.50004 8.14584C8.10884 8.14584 7.79171 7.82871 7.79171 7.43751V6.37501C7.79171 5.98381 8.10884 5.66668 8.50004 5.66668Z" fill="black" fill-opacity="0.85"/>
<path fill-rule="evenodd" clip-rule="evenodd" d="M5.66671 3.54168C5.66671 3.15048 5.98384 2.83334 6.37504 2.83334H10.625C11.0162 2.83334 11.3334 3.15048 11.3334 3.54168V9.26911L16.0842 14.02C16.2171 14.1528 16.2917 14.333 16.2917 14.5208V15.5833C16.2917 15.9745 15.9746 16.2917 15.5834 16.2917H1.41671C1.02551 16.2917 0.708374 15.9745 0.708374 15.5833V14.5208C0.708374 14.333 0.783002 14.1528 0.91584 14.02L3.04075 11.8951L5.66671 9.26911V3.54168ZM3.83511 13.1042L2.12504 14.8142V14.875H14.875V14.8142L13.165 13.1042H3.83511ZM11.7483 11.6875H5.25178L6.87591 10.0634C7.00875 9.93054 7.08337 9.75037 7.08337 9.56251V4.25001H9.91671V9.56251C9.91671 9.75037 9.99134 9.93054 10.1242 10.0634L11.7483 11.6875Z" fill="black" fill-opacity="0.85"/>
<path d="M2.125 14.875V14.8142L3.83507 13.1042H13.1649L14.875 14.8142V14.875H2.125Z" fill="#91D5FF"/>
<path fill-rule="evenodd" clip-rule="evenodd" d="M5.25173 11.6875H11.7483L10.1241 10.0634C9.99129 9.93053 9.91667 9.75036 9.91667 9.5625V4.25H7.08333V9.5625C7.08333 9.75036 7.00871 9.93053 6.87587 10.0634L5.25173 11.6875ZM9.20833 9.5625C9.20833 9.1713 8.8912 8.85417 8.5 8.85417C8.1088 8.85417 7.79167 9.1713 7.79167 9.5625V9.91667C7.79167 10.3079 8.1088 10.625 8.5 10.625C8.8912 10.625 9.20833 10.3079 9.20833 9.91667V9.5625ZM8.5 5.66667C8.8912 5.66667 9.20833 5.9838 9.20833 6.375V7.4375C9.20833 7.8287 8.8912 8.14583 8.5 8.14583C8.1088 8.14583 7.79167 7.8287 7.79167 7.4375V6.375C7.79167 5.9838 8.1088 5.66667 8.5 5.66667Z" fill="#91D5FF"/>
</svg>
