<svg width="20" height="20" viewBox="0 0 20 20" fill="none" xmlns="http://www.w3.org/2000/svg">
<path fill-rule="evenodd" clip-rule="evenodd" d="M13.5775 1.91073C13.7337 1.75445 13.9457 1.66666 14.1667 1.66666H17.5C17.9603 1.66666 18.3334 2.03975 18.3334 2.49999C18.3334 2.96023 17.9603 3.33332 17.5 3.33332H14.5119L12.8452 4.99999L14.5119 6.66666H17.5C17.9603 6.66666 18.3334 7.03975 18.3334 7.49999C18.3334 7.96023 17.9603 8.33332 17.5 8.33332H14.1667C13.9457 8.33332 13.7337 8.24553 13.5775 8.08925L11.3215 5.83332H5.69112C5.56931 6.17797 5.37406 6.48792 5.12419 6.7444L8.02879 12.9167H17.0834C18.0039 12.9167 18.75 13.6628 18.75 14.5833V17.5C18.75 17.9602 18.3769 18.3333 17.9167 18.3333H2.08337C1.62314 18.3333 1.25004 17.9602 1.25004 17.5V14.5833C1.25004 13.6628 1.99624 12.9167 2.91671 12.9167H6.1868L3.6296 7.48262C3.53246 7.49409 3.4336 7.49999 3.33337 7.49999C1.95266 7.49999 0.833374 6.3807 0.833374 4.99999C0.833374 3.61928 1.95266 2.49999 3.33337 2.49999C4.42189 2.49999 5.34792 3.19566 5.69112 4.16666H11.3215L13.5775 1.91073ZM7.47503 14.5833H2.91671V16.6667H17.0834V14.5833H7.52616C7.50908 14.5839 7.49203 14.5838 7.47503 14.5833ZM3.33337 4.16666C3.79361 4.16666 4.16671 4.53975 4.16671 4.99999C4.16671 5.46023 3.79361 5.83332 3.33337 5.83332C2.87314 5.83332 2.50004 5.46023 2.50004 4.99999C2.50004 4.53975 2.87314 4.16666 3.33337 4.16666Z" fill="black" fill-opacity="0.85"/>
<path d="M4.16667 4.99999C4.16667 4.53975 3.79357 4.16666 3.33333 4.16666C2.8731 4.16666 2.5 4.53975 2.5 4.99999C2.5 5.46023 2.8731 5.83332 3.33333 5.83332C3.79357 5.83332 4.16667 5.46023 4.16667 4.99999Z" fill="#A3BDAE"/>
<path d="M2.91667 14.5833H7.47499C7.49199 14.5838 7.50904 14.5838 7.52612 14.5833H17.0833V16.6667H2.91667V14.5833Z" fill="#A3BDAE"/>
</svg>
