<svg width="20" height="20" viewBox="0 0 20 20" fill="none" xmlns="http://www.w3.org/2000/svg">
<path fill-rule="evenodd" clip-rule="evenodd" d="M4.16667 0.833344C3.24619 0.833344 2.5 1.57954 2.5 2.50001V17.5C2.5 18.4205 3.2462 19.1667 4.16667 19.1667H9.16667C9.6269 19.1667 10 18.7936 10 18.3333C10 17.8731 9.6269 17.5 9.16667 17.5H4.16667V2.50001H11.6667V5.83334C11.6667 6.29358 12.0398 6.66668 12.5 6.66668H15.8333V9.58334C15.8333 10.0436 16.2064 10.4167 16.6667 10.4167C17.1269 10.4167 17.5 10.0436 17.5 9.58334V5.83334C17.5 5.61783 17.4182 5.42142 17.2839 5.27349L13.5361 1.10921C13.378 0.933611 13.1529 0.833344 12.9167 0.833344H4.16667ZM13.3333 3.37535V5.00001H14.7955L13.3333 3.37535Z" fill="black" fill-opacity="0.85"/>
<path d="M13.75 15.4167C14.2102 15.4167 14.5833 15.0436 14.5833 14.5833C14.5833 14.1231 14.2102 13.75 13.75 13.75C13.2898 13.75 12.9167 14.1231 12.9167 14.5833C12.9167 15.0436 13.2898 15.4167 13.75 15.4167Z" fill="black" fill-opacity="0.85"/>
<path fill-rule="evenodd" clip-rule="evenodd" d="M13.75 11.25C12.3934 11.25 11.2572 12.0541 10.5338 12.7204C10.1572 13.0672 9.85502 13.4114 9.64702 13.6683C9.54251 13.7974 9.46045 13.9061 9.40335 13.9843C9.37477 14.0234 9.35235 14.055 9.33641 14.0778L9.31735 14.1053L9.31152 14.1138L9.30955 14.1167L9.30847 14.1183C9.11977 14.3993 9.11949 14.7669 9.30819 15.0479L10 14.5833C9.30819 15.0479 9.30879 15.0488 9.30879 15.0488L9.30955 15.0499L9.31152 15.0529L9.31735 15.0614L9.33641 15.0889C9.35235 15.1117 9.37477 15.1433 9.40335 15.1824C9.46045 15.2606 9.54251 15.3693 9.64702 15.4983C9.85502 15.7552 10.1572 16.0995 10.5338 16.4463C11.2572 17.1126 12.3934 17.9167 13.75 17.9167C15.1066 17.9167 16.2428 17.1126 16.9662 16.4463C17.3428 16.0995 17.645 15.7552 17.853 15.4983C17.9575 15.3693 18.0395 15.2606 18.0967 15.1824C18.1252 15.1433 18.1477 15.1117 18.1636 15.0889L18.1826 15.0614L18.1885 15.0529L18.1905 15.0499L18.1915 15.0484C18.3802 14.7674 18.3805 14.3997 18.1918 14.1187L17.5 14.5833C18.1918 14.1187 18.1912 14.1179 18.1912 14.1179L18.1905 14.1167L18.1885 14.1138L18.1826 14.1053L18.1636 14.0778C18.1477 14.055 18.1252 14.0234 18.0967 13.9843C18.0395 13.9061 17.9575 13.7974 17.853 13.6683C17.645 13.4114 17.3428 13.0672 16.9662 12.7204C16.2428 12.0541 15.1066 11.25 13.75 11.25ZM17.5 14.5833L18.1915 15.0484C18.1915 15.0484 18.1918 15.0479 17.5 14.5833ZM10 14.5833L9.30847 14.1183C9.30847 14.1183 9.30819 14.1187 10 14.5833ZM11.6629 13.9463C11.4208 14.1693 11.2141 14.3939 11.0533 14.5833C11.2141 14.7728 11.4208 14.9974 11.6629 15.2204C12.2967 15.8041 13.0355 16.25 13.75 16.25C14.4645 16.25 15.2033 15.8041 15.8371 15.2204C16.0792 14.9974 16.2859 14.7728 16.4467 14.5833C16.2859 14.3939 16.0792 14.1693 15.8371 13.9463C15.2033 13.3626 14.4645 12.9167 13.75 12.9167C13.0355 12.9167 12.2967 13.3626 11.6629 13.9463Z" fill="black" fill-opacity="0.85"/>
<path fill-rule="evenodd" clip-rule="evenodd" d="M11.0532 14.5833C11.2141 14.3939 11.4208 14.1692 11.6628 13.9463C12.2967 13.3625 13.0354 12.9167 13.75 12.9167C14.4645 12.9167 15.2032 13.3625 15.8371 13.9463C16.0791 14.1692 16.2858 14.3939 16.4467 14.5833C16.2858 14.7728 16.0791 14.9974 15.8371 15.2204C15.2032 15.8041 14.4645 16.25 13.75 16.25C13.0354 16.25 12.2967 15.8041 11.6628 15.2204C11.4208 14.9974 11.2141 14.7728 11.0532 14.5833ZM13.75 15.4167C14.2102 15.4167 14.5833 15.0436 14.5833 14.5833C14.5833 14.1231 14.2102 13.75 13.75 13.75C13.2897 13.75 12.9166 14.1231 12.9166 14.5833C12.9166 15.0436 13.2897 15.4167 13.75 15.4167Z" fill="#91D5FF"/>
</svg>
