<svg width="17" height="18" viewBox="0 0 17 18" fill="none" xmlns="http://www.w3.org/2000/svg">
<path d="M6.72917 5.44519C6.72917 5.05399 7.0463 4.73686 7.4375 4.73686H11.6875C12.0787 4.73686 12.3958 5.05399 12.3958 5.44519C12.3958 5.83639 12.0787 6.15352 11.6875 6.15352H7.4375C7.0463 6.15352 6.72917 5.83639 6.72917 5.44519Z" fill="black" fill-opacity="0.85"/>
<path d="M7.4375 8.27852C7.0463 8.27852 6.72917 8.59565 6.72917 8.98686C6.72917 9.37806 7.0463 9.69519 7.4375 9.69519H11.6875C12.0787 9.69519 12.3958 9.37806 12.3958 8.98686C12.3958 8.59565 12.0787 8.27852 11.6875 8.27852H7.4375Z" fill="black" fill-opacity="0.85"/>
<path d="M6.72917 12.5285C6.72917 12.1373 7.0463 11.8202 7.4375 11.8202H11.6875C12.0787 11.8202 12.3958 12.1373 12.3958 12.5285C12.3958 12.9197 12.0787 13.2369 11.6875 13.2369H7.4375C7.0463 13.2369 6.72917 12.9197 6.72917 12.5285Z" fill="black" fill-opacity="0.85"/>
<path d="M6.02083 5.44519C6.02083 5.8364 5.70371 6.15352 5.3125 6.15352C4.92129 6.15352 4.60417 5.8364 4.60417 5.44519C4.60417 5.05398 4.92129 4.73686 5.3125 4.73686C5.70371 4.73686 6.02083 5.05398 6.02083 5.44519Z" fill="black" fill-opacity="0.85"/>
<path d="M5.3125 9.69519C5.70371 9.69519 6.02083 9.37807 6.02083 8.98686C6.02083 8.59564 5.70371 8.27852 5.3125 8.27852C4.92129 8.27852 4.60417 8.59564 4.60417 8.98686C4.60417 9.37807 4.92129 9.69519 5.3125 9.69519Z" fill="black" fill-opacity="0.85"/>
<path d="M6.02083 12.5285C6.02083 12.9197 5.70371 13.2369 5.3125 13.2369C4.92129 13.2369 4.60417 12.9197 4.60417 12.5285C4.60417 12.1373 4.92129 11.8202 5.3125 11.8202C5.70371 11.8202 6.02083 12.1373 6.02083 12.5285Z" fill="black" fill-opacity="0.85"/>
<path fill-rule="evenodd" clip-rule="evenodd" d="M2.125 2.61186C2.125 1.82945 2.75926 1.19519 3.54167 1.19519H13.4583C14.2407 1.19519 14.875 1.82945 14.875 2.61186V15.3619C14.875 16.1443 14.2407 16.7785 13.4583 16.7785H3.54167C2.75926 16.7785 2.125 16.1443 2.125 15.3619V2.61186ZM13.4583 2.61186H3.54167V15.3619H13.4583V2.61186Z" fill="black" fill-opacity="0.85"/>
<path fill-rule="evenodd" clip-rule="evenodd" d="M3.54166 2.61182H13.4583V15.3618H3.54166V2.61182ZM6.72916 5.44515C6.72916 5.05395 7.0463 4.73682 7.4375 4.73682H11.6875C12.0787 4.73682 12.3958 5.05395 12.3958 5.44515C12.3958 5.83635 12.0787 6.15348 11.6875 6.15348H7.4375C7.0463 6.15348 6.72916 5.83635 6.72916 5.44515ZM7.4375 8.27848C7.0463 8.27848 6.72916 8.59561 6.72916 8.98682C6.72916 9.37802 7.0463 9.69515 7.4375 9.69515H11.6875C12.0787 9.69515 12.3958 9.37802 12.3958 8.98682C12.3958 8.59561 12.0787 8.27848 11.6875 8.27848H7.4375ZM6.72916 12.5285C6.72916 12.1373 7.0463 11.8201 7.4375 11.8201H11.6875C12.0787 11.8201 12.3958 12.1373 12.3958 12.5285C12.3958 12.9197 12.0787 13.2368 11.6875 13.2368H7.4375C7.0463 13.2368 6.72916 12.9197 6.72916 12.5285ZM6.02083 5.44515C6.02083 5.83636 5.70371 6.15348 5.3125 6.15348C4.92128 6.15348 4.60416 5.83636 4.60416 5.44515C4.60416 5.05394 4.92128 4.73682 5.3125 4.73682C5.70371 4.73682 6.02083 5.05394 6.02083 5.44515ZM5.3125 9.69515C5.70371 9.69515 6.02083 9.37803 6.02083 8.98682C6.02083 8.5956 5.70371 8.27848 5.3125 8.27848C4.92128 8.27848 4.60416 8.5956 4.60416 8.98682C4.60416 9.37803 4.92128 9.69515 5.3125 9.69515ZM6.02083 12.5285C6.02083 12.9197 5.70371 13.2368 5.3125 13.2368C4.92128 13.2368 4.60416 12.9197 4.60416 12.5285C4.60416 12.1373 4.92128 11.8201 5.3125 11.8201C5.70371 11.8201 6.02083 12.1373 6.02083 12.5285Z" fill="#A3BDAE"/>
</svg>
