<svg width="24" height="24" viewBox="0 0 24 24" fill="none" xmlns="http://www.w3.org/2000/svg">
<path fill-rule="evenodd" clip-rule="evenodd" d="M14 3C14 2.44772 14.4477 2 15 2H21C21.5523 2 22 2.44772 22 3V15C22 15.5523 21.5523 16 21 16H10V21C10 21.5523 9.55228 22 9 22H3C2.44772 22 2 21.5523 2 21V9C2 8.44772 2.44772 8 3 8H14V3ZM14 10H10V14H14V10ZM16 14V10H20V14H16ZM20 8H16V4H20V8ZM8 14V10H4V14H8ZM4 16V20H8V16H4Z" fill="black" fill-opacity="0.85"/>
<path d="M4 20V16H8V20H4Z" fill="#A3BDAE"/>
<path d="M8 10V14H4V10H8Z" fill="#A3BDAE"/>
<path d="M10 10H14V14H10V10Z" fill="#A3BDAE"/>
<path d="M16 14V10H20V14H16Z" fill="#A3BDAE"/>
<path d="M20 8H16V4H20V8Z" fill="#A3BDAE"/>
</svg>
