<svg width="18" height="19" viewBox="0 0 18 19" fill="none" xmlns="http://www.w3.org/2000/svg">
<path fill-rule="evenodd" clip-rule="evenodd" d="M7.8268 2.03749C8.10946 2.1588 8.29432 2.44877 8.29432 2.77086V6.03746C10.5568 6.22648 12.5191 7.19948 14.1499 8.94397C15.9456 10.8648 16.9747 13.2582 17.2462 16.0844C17.2796 16.4319 17.0933 16.7614 16.7877 16.8954C16.4821 17.0294 16.1295 16.9362 15.9198 16.666C14.1026 14.3246 12.6133 13.1731 11.456 12.9139C10.3474 12.6657 9.29471 12.5938 8.29432 12.6914V16.2292C8.29432 16.5551 8.10507 16.8478 7.8175 16.9665C7.52992 17.0852 7.20281 17.0057 6.99332 16.7663L0.948995 9.85712C0.678432 9.54785 0.684489 9.06915 0.962782 8.76761L7.00711 2.21843C7.22003 1.98773 7.54414 1.91618 7.8268 2.03749ZM2.53361 9.33461L6.79432 14.205V11.995C6.79432 11.6071 7.06053 11.2764 7.42313 11.2137C8.81261 10.9735 10.2627 11.0281 11.7673 11.3651C12.8639 11.6107 13.9936 12.3413 15.1576 13.4758C14.7009 12.1839 14.0085 11.0468 13.0822 10.0561C11.5551 8.42251 9.72119 7.60516 7.53839 7.58694C7.12651 7.5835 6.79432 7.23008 6.79432 6.7953V4.71802L2.53361 9.33461Z" fill="black" fill-opacity="0.85"/>
<path d="M6.79434 14.2052L2.53363 9.3349L6.79434 4.7183V6.79558C6.79434 7.23036 7.12653 7.58378 7.53841 7.58722C9.72121 7.60544 11.5551 8.42279 13.0822 10.0564C14.0085 11.0471 14.7009 12.1841 15.1576 13.4761C13.9936 12.3416 12.8639 11.611 11.7673 11.3654C10.2628 11.0284 8.81263 10.9738 7.42315 11.214C7.06055 11.2767 6.79434 11.6074 6.79434 11.9952V14.2052Z" fill="#A3BDAE"/>
</svg>
