<svg width="24" height="24" viewBox="0 0 24 24" fill="none" xmlns="http://www.w3.org/2000/svg">
<path fill-rule="evenodd" clip-rule="evenodd" d="M9.5 3C8.39543 3 7.5 3.89543 7.5 5V6C7.5 6.55228 7.05228 7 6.5 7H3V11H4C6.20914 11 8 12.7909 8 15C8 17.2091 6.20914 19 4 19H3V21H16V18C16 17.4477 16.4477 17 17 17H19C20.1046 17 21 16.1046 21 15C21 13.8954 20.1046 13 19 13H17C16.4477 13 16 12.5523 16 12V7H12.5C11.9477 7 11.5 6.55228 11.5 6V5C11.5 3.89543 10.6046 3 9.5 3ZM5.5 5C5.5 2.79086 7.29086 1 9.5 1C11.7091 1 13.5 2.79086 13.5 5H17C17.5523 5 18 5.44772 18 6V11H19C21.2091 11 23 12.7909 23 15C23 17.2091 21.2091 19 19 19H18V22C18 22.5523 17.5523 23 17 23H2C1.44772 23 1 22.5523 1 22V18C1 17.4477 1.44772 17 2 17H4C5.10457 17 6 16.1046 6 15C6 13.8954 5.10457 13 4 13H2C1.44772 13 1 12.5523 1 12V6C1 5.44772 1.44772 5 2 5H5.5Z" fill="black" fill-opacity="0.85"/>
<path d="M7.5 5C7.5 3.89543 8.39543 3 9.5 3C10.6046 3 11.5 3.89543 11.5 5V6C11.5 6.55228 11.9477 7 12.5 7H16V12C16 12.5523 16.4477 13 17 13H19C20.1046 13 21 13.8954 21 15C21 16.1046 20.1046 17 19 17H17C16.4477 17 16 17.4477 16 18V21H3V19H4C6.20914 19 8 17.2091 8 15C8 12.7909 6.20914 11 4 11H3V7H6.5C7.05228 7 7.5 6.55228 7.5 6V5Z" fill="#A3BDAE"/>
</svg>
