<svg width="13" height="13" viewBox="0 0 13 13" fill="none" xmlns="http://www.w3.org/2000/svg">
<g clip-path="url(#clip0_380_6298)">
<path fill-rule="evenodd" clip-rule="evenodd" d="M6.50014 0.270844C4.95705 0.271644 3.46457 0.818175 2.28955 1.81271C1.11453 2.80725 0.333609 4.18493 0.0864149 5.69943C-0.160779 7.21392 0.141872 8.76646 0.940258 10.0794C1.73864 11.3924 2.9807 12.3802 4.44433 12.8662C4.76723 12.9261 4.88886 12.726 4.88886 12.5558C4.88886 12.3857 4.8824 11.8923 4.88025 11.3529C3.072 11.7435 2.6899 10.5899 2.6899 10.5899C2.39499 9.84071 1.96876 9.64379 1.96876 9.64379C1.37892 9.24353 2.01289 9.25102 2.01289 9.25102C2.66623 9.29704 3.00958 9.91776 3.00958 9.91776C3.58865 10.9056 4.53044 10.6198 4.9007 10.4529C4.95882 10.0344 5.12781 9.74974 5.31401 9.58814C3.86957 9.42546 2.35193 8.87109 2.35193 6.39461C2.34298 5.75235 2.58267 5.13125 3.02142 4.6598C2.95468 4.49712 2.73188 3.84001 3.08492 2.94745C3.08492 2.94745 3.63063 2.77408 4.87272 3.60992C5.93811 3.32022 7.06217 3.32022 8.12756 3.60992C9.36858 2.77408 9.9132 2.94745 9.9132 2.94745C10.2673 3.83787 10.0445 4.49498 9.97778 4.6598C10.4179 5.13132 10.6581 5.75351 10.6483 6.39675C10.6483 8.87858 9.12748 9.42546 7.68088 9.58493C7.91337 9.78613 8.1211 10.1789 8.1211 10.7825C8.1211 11.6472 8.11357 12.3429 8.11357 12.5558C8.11357 12.7281 8.23088 12.9293 8.56024 12.8662C10.0241 12.3802 11.2662 11.3922 12.0646 10.079C12.863 8.76578 13.1655 7.213 12.918 5.69837C12.6705 4.18374 11.8892 2.80604 10.7138 1.81167C9.53839 0.817307 8.04556 0.271137 6.50229 0.270844H6.50014Z" fill="#191717"/>
<path d="M4.34835 10.8199C4.34835 10.8724 4.28808 10.9173 4.21058 10.9184C4.13308 10.9195 4.06958 10.8767 4.06958 10.8242C4.06958 10.7718 4.12985 10.7268 4.20735 10.7258C4.28484 10.7247 4.34835 10.7664 4.34835 10.8199Z" fill="#191717"/>
<path d="M4.84351 10.7375C4.85319 10.79 4.79938 10.8445 4.72188 10.8574C4.64438 10.8702 4.57657 10.8392 4.56689 10.7878C4.5572 10.7364 4.61317 10.6808 4.68851 10.6669C4.76386 10.653 4.83382 10.6851 4.84351 10.7375Z" fill="#191717"/>
<path d="M3.81664 10.7836C3.80049 10.8339 3.7273 10.8563 3.65411 10.8349C3.58092 10.8135 3.53248 10.7536 3.54648 10.7022C3.56047 10.6508 3.63474 10.6273 3.709 10.6508C3.78327 10.6744 3.83063 10.7311 3.81664 10.7836Z" fill="#191717"/>
<path d="M3.32917 10.5738C3.29365 10.6134 3.22153 10.6027 3.16234 10.5492C3.10314 10.4957 3.08914 10.4229 3.12466 10.3844C3.16018 10.3458 3.23229 10.3565 3.29365 10.409C3.355 10.4614 3.36684 10.5353 3.32917 10.5738V10.5738Z" fill="#191717"/>
<path d="M2.98147 10.2142C2.94165 10.242 2.87383 10.2142 2.83616 10.1585C2.82574 10.1486 2.81746 10.1366 2.8118 10.1234C2.80614 10.1101 2.80322 10.0959 2.80322 10.0815C2.80322 10.0671 2.80614 10.0529 2.8118 10.0396C2.81746 10.0264 2.82574 10.0144 2.83616 10.0044C2.87599 9.97768 2.9438 10.0044 2.98147 10.059C3.01914 10.1136 3.02022 10.1864 2.98147 10.2142V10.2142Z" fill="#191717"/>
<path d="M2.72533 9.84284C2.70304 9.85401 2.67754 9.85713 2.65319 9.85166C2.62884 9.8462 2.60717 9.83248 2.59187 9.81288C2.54989 9.76793 2.54127 9.70586 2.57356 9.67803C2.60585 9.65021 2.66398 9.66305 2.70596 9.708C2.74793 9.75295 2.75762 9.81502 2.72533 9.84284Z" fill="#191717"/>
<path d="M2.46159 9.55065C2.4476 9.58276 2.39594 9.59239 2.35396 9.56992C2.31198 9.54744 2.28077 9.50571 2.29584 9.47253C2.31091 9.43935 2.3615 9.43079 2.40348 9.45326C2.44545 9.47574 2.47774 9.51855 2.46159 9.55065Z" fill="#191717"/>
</g>
<defs>
<clipPath id="clip0_380_6298">
<rect width="13" height="13" fill="white"/>
</clipPath>
</defs>
</svg>
