<svg width="15" height="16" viewBox="0 0 15 16" fill="none" xmlns="http://www.w3.org/2000/svg">
<path fill-rule="evenodd" clip-rule="evenodd" d="M3.42629 4.76295C3.52071 4.70185 3.6315 4.66668 3.75 4.66668H3.75045H11.2493H11.25C11.3687 4.66668 11.4796 4.70196 11.5741 4.76322C11.6311 4.79999 11.6831 4.84695 11.7278 4.90354C11.7868 4.97814 11.8308 5.06676 11.8547 5.16404C11.8691 5.22281 11.8758 5.28285 11.875 5.34249V10.6667C11.875 11.0349 11.5952 11.3333 11.25 11.3333H3.75C3.40482 11.3333 3.125 11.0349 3.125 10.6667V5.34255C3.12418 5.28282 3.13087 5.22268 3.14538 5.16383C3.16927 5.06663 3.21321 4.97809 3.27221 4.90355C3.31696 4.84681 3.36919 4.79976 3.42629 4.76295ZM4.375 6.57909V10H10.625V6.57909L7.84669 8.55478C7.63675 8.70407 7.36325 8.70407 7.15331 8.55478L4.375 6.57909ZM9.18586 6.00001H5.81414L7.5 7.19885L9.18586 6.00001Z" fill="black" fill-opacity="0.85"/>
<path fill-rule="evenodd" clip-rule="evenodd" d="M1.25 3.00001C1.25 2.07954 1.94956 1.33334 2.8125 1.33334H12.1875C13.0505 1.33334 13.75 2.07954 13.75 3.00001V13C13.75 13.9205 13.0505 14.6667 12.1875 14.6667H2.8125C1.94956 14.6667 1.25 13.9205 1.25 13V3.00001ZM2.8125 2.66668C2.63991 2.66668 2.5 2.81592 2.5 3.00001V13C2.5 13.1841 2.63991 13.3333 2.8125 13.3333H12.1875C12.3601 13.3333 12.5 13.1841 12.5 13V3.00001C12.5 2.81591 12.3601 2.66668 12.1875 2.66668H2.8125Z" fill="black" fill-opacity="0.85"/>
<path fill-rule="evenodd" clip-rule="evenodd" d="M2.5 2.99999C2.5 2.8159 2.63991 2.66666 2.8125 2.66666H12.1875C12.3601 2.66666 12.5 2.81589 12.5 2.99999V13C12.5 13.1841 12.3601 13.3333 12.1875 13.3333H2.8125C2.63991 13.3333 2.5 13.1841 2.5 13V2.99999ZM3.42629 4.76293C3.52071 4.70183 3.6315 4.66666 3.75 4.66666H3.75045H11.2493H11.25C11.3687 4.66666 11.4796 4.70194 11.5741 4.7632C11.6311 4.79997 11.6831 4.84693 11.7278 4.90352C11.7868 4.97812 11.8308 5.06674 11.8547 5.16402C11.8691 5.22278 11.8758 5.28283 11.875 5.34247V10.6667C11.875 11.0348 11.5952 11.3333 11.25 11.3333H3.75C3.40482 11.3333 3.125 11.0348 3.125 10.6667V5.34253C3.12418 5.2828 3.13087 5.22266 3.14538 5.16381C3.16927 5.06661 3.21321 4.97807 3.27221 4.90352C3.31696 4.84679 3.36919 4.79974 3.42629 4.76293Z" fill="#A3BDAE"/>
<path d="M5.81414 5.99999H9.18586L7.5 7.19883L5.81414 5.99999Z" fill="#A3BDAE"/>
<path d="M4.375 9.99999V6.57907L7.15331 8.55476C7.36325 8.70405 7.63675 8.70405 7.84669 8.55476L10.625 6.57907V9.99999H4.375Z" fill="#A3BDAE"/>
</svg>
