<svg width="19" height="19" viewBox="0 0 19 19" fill="none" xmlns="http://www.w3.org/2000/svg">
<path d="M5.54166 6.33333C5.10444 6.33333 4.75 6.68778 4.75 7.125C4.75 7.56223 5.10444 7.91667 5.54166 7.91667H12.6667C13.1039 7.91667 13.4583 7.56223 13.4583 7.125C13.4583 6.68778 13.1039 6.33333 12.6667 6.33333H5.54166Z" fill="black" fill-opacity="0.85"/>
<path d="M4.75 10.2917C4.75 9.85444 5.10444 9.5 5.54166 9.5H12.6667C13.1039 9.5 13.4583 9.85444 13.4583 10.2917C13.4583 10.7289 13.1039 11.0833 12.6667 11.0833H5.54166C5.10444 11.0833 4.75 10.7289 4.75 10.2917Z" fill="black" fill-opacity="0.85"/>
<path d="M5.54166 12.6667C5.10444 12.6667 4.75 13.0211 4.75 13.4583C4.75 13.8956 5.10444 14.25 5.54166 14.25H9.5C9.93722 14.25 10.2917 13.8956 10.2917 13.4583C10.2917 13.0211 9.93722 12.6667 9.5 12.6667H5.54166Z" fill="black" fill-opacity="0.85"/>
<path fill-rule="evenodd" clip-rule="evenodd" d="M0.791664 9.5V17.4166C0.791664 17.8538 1.14617 18.2083 1.58339 18.2083H9.5C14.3095 18.2083 18.2083 14.3095 18.2083 9.5C18.2083 4.69052 14.3095 0.791667 9.5 0.791667C4.69052 0.791667 0.791664 4.69052 0.791664 9.5ZM2.375 9.5C2.375 5.56497 5.56497 2.375 9.5 2.375C13.435 2.375 16.625 5.56497 16.625 9.5C16.625 13.435 13.435 16.625 9.5 16.625H2.375V9.5Z" fill="black" fill-opacity="0.85"/>
<path fill-rule="evenodd" clip-rule="evenodd" d="M9.5 2.375C5.56497 2.375 2.375 5.56497 2.375 9.5V16.625H9.5C13.435 16.625 16.625 13.435 16.625 9.5C16.625 5.56497 13.435 2.375 9.5 2.375ZM5.54167 6.33333C5.10444 6.33333 4.75 6.68777 4.75 7.125C4.75 7.56223 5.10444 7.91667 5.54167 7.91667H12.6667C13.1039 7.91667 13.4583 7.56223 13.4583 7.125C13.4583 6.68777 13.1039 6.33333 12.6667 6.33333H5.54167ZM4.75 10.2917C4.75 9.85444 5.10444 9.5 5.54167 9.5H12.6667C13.1039 9.5 13.4583 9.85444 13.4583 10.2917C13.4583 10.7289 13.1039 11.0833 12.6667 11.0833H5.54167C5.10444 11.0833 4.75 10.7289 4.75 10.2917ZM5.54167 12.6667C5.10444 12.6667 4.75 13.0211 4.75 13.4583C4.75 13.8956 5.10444 14.25 5.54167 14.25H9.5C9.93723 14.25 10.2917 13.8956 10.2917 13.4583C10.2917 13.0211 9.93723 12.6667 9.5 12.6667H5.54167Z" fill="#A3BDAE"/>
</svg>
