<svg width="242" height="51" viewBox="0 0 242 51" fill="none" xmlns="http://www.w3.org/2000/svg">
<path d="M0 4.6499H10.51L20.02 31.3199C21.04 34.2199 21.98 37.3299 23.03 40.9199H23.11L23.14 4.6599H29.92V49.6899H19.39L9.87 23.0099C8.85 20.1099 7.91 16.9999 6.89 13.4099H6.81L6.76 49.6799H0V4.6499Z" fill="#FC4832"/>
<path d="M74.87 27.15C74.87 11.96 80.88 3.76001 91.75 3.76001C102.59 3.76001 108.6 11.95 108.6 27.15C108.6 42.37 102.59 50.56 91.75 50.56C80.88 50.56 74.87 42.37 74.87 27.15ZM100.16 27.15C100.16 15.57 97.18 10.49 91.75 10.49C86.32 10.49 83.34 15.56 83.34 27.15C83.34 38.73 86.32 43.81 91.75 43.81C97.18 43.81 100.16 38.73 100.16 27.15Z" fill="#FC4832"/>
<path d="M138.25 49.6799L130.45 31.8699H123.25V49.6799H115.42V4.6499H131.63C142.14 4.6499 145.8 9.6999 145.8 17.8899C145.8 24.0899 143.48 28.7599 138.08 30.7699L147.01 49.6899H138.25V49.6799ZM123.24 25.6299H131.04C136.06 25.6299 137.91 22.9799 137.91 18.0199C137.91 13.8299 136.28 11.2099 131.24 11.2099H123.24V25.6299Z" fill="#FC4832"/>
<path d="M153.61 4.6499H167.21C179.7 4.6499 185.08 11.5999 185.08 27.1799C185.08 42.7299 179.7 49.6799 167.21 49.6799H153.61V4.6499ZM166.98 43.0099C172.47 43.0099 176.74 40.9099 176.74 27.1799C176.74 13.4199 172.47 11.3199 166.98 11.3199H161.6V43.0099H166.98Z" fill="#FC4832"/>
<path d="M214.06 39.2799H199.72L196.99 49.6799H188.77L201.07 4.6499H212.71L225 49.6799H216.78L214.06 39.2799ZM212.32 32.5799L210.89 27.1499C209.46 21.6599 208.41 17.3599 206.97 11.2099H206.8C205.37 17.3599 204.35 21.6599 202.88 27.1499L201.45 32.5799H212.32Z" fill="#FC4832"/>
<path d="M41.86 4.6499V11.0799H59.67V36.6199C59.67 41.7999 57.55 44.4499 52.61 44.4499C47.73 44.4499 45.52 42.0199 45.5 36.0299H37.92C37.92 36.1399 37.91 36.2599 37.91 36.3699C37.91 45.1699 42.4 50.5699 52.64 50.5699C62.93 50.5699 67.37 45.2499 67.37 36.0099V4.6499H41.86Z" fill="#FC4832"/>
<path d="M232.38 0L236.93 7.87L241.47 15.74H232.38H223.3L227.84 7.87L232.38 0Z" fill="#03A48D"/>
</svg>
