<svg width="30" height="17" viewBox="0 0 30 17" fill="none" xmlns="http://www.w3.org/2000/svg">
<path d="M21.9038 12.6278C21.215 12.6278 20.6547 12.067 20.6547 11.3782C20.6547 10.6894 21.215 10.1291 21.9038 10.1291C22.5927 10.1291 23.153 10.6893 23.153 11.3782C23.153 12.0672 22.5927 12.6278 21.9038 12.6278ZM8.09621 12.6278C7.4074 12.6278 6.84709 12.067 6.84709 11.3782C6.84709 10.6894 7.40728 10.1291 8.09621 10.1291C8.78502 10.1291 9.34533 10.6893 9.34533 11.3782C9.34533 12.0672 8.78514 12.6278 8.09621 12.6278ZM22.3518 5.10288L24.8485 0.778845C24.9172 0.659512 24.9358 0.51779 24.9001 0.384775C24.8645 0.25176 24.7775 0.138318 24.6584 0.0693381C24.539 0.000644822 24.3973 -0.0179167 24.2643 0.0177243C24.1313 0.0533654 24.0179 0.140299 23.9489 0.259461L21.421 4.63814C19.4877 3.75601 17.3167 3.26452 15 3.26452C12.6833 3.26452 10.5123 3.75601 8.57912 4.63814L6.05115 0.259461C5.98215 0.140299 5.86871 0.0533654 5.7357 0.0177243C5.60269 -0.0179167 5.46098 0.000644822 5.34164 0.0693381C5.22239 0.138253 5.13538 0.251697 5.09972 0.384738C5.06407 0.51778 5.0827 0.659533 5.15152 0.778845L7.64817 5.10288C3.36106 7.43456 0.42895 11.7747 0 16.9023H30C29.5707 11.7748 26.6386 7.43455 22.3518 5.10276" fill="#3DDB85"/>
</svg>
