<svg width="30" height="30" viewBox="0 0 30 30" fill="none" xmlns="http://www.w3.org/2000/svg">
<path d="M8.89012 13.8584C8.75246 13.6787 8.54921 13.5608 8.32486 13.5306C8.1005 13.5004 7.87331 13.5603 7.693 13.6972C7.58692 13.7808 7.50135 13.8876 7.44282 14.0094L0.0926332 28.7139C-0.0114705 28.9223 -0.0285699 29.1635 0.0450935 29.3845C0.118757 29.6055 0.277155 29.7882 0.48547 29.8924C0.607235 29.954 0.741853 29.9859 0.878307 29.9854H11.1189C11.283 29.9896 11.4447 29.9459 11.5842 29.8596C11.7238 29.7733 11.8351 29.6482 11.9046 29.4996C14.1148 24.9344 12.7751 17.9936 8.89012 13.8584Z" fill="url(#paint0_linear_249_9343)"/>
<path d="M14.2927 0.477144C12.4604 3.29679 11.3925 6.54433 11.1939 9.90116C10.9953 13.258 11.6727 16.6088 13.1597 19.6249L18.0971 29.4996C18.17 29.6455 18.2821 29.7683 18.4209 29.8541C18.5597 29.9399 18.7196 29.9854 18.8827 29.9854H29.1213C29.2368 29.9857 29.3512 29.9632 29.4579 29.9191C29.5647 29.875 29.6616 29.8103 29.7433 29.7287C29.8249 29.647 29.8897 29.5501 29.9337 29.4433C29.9778 29.3366 30.0003 29.2222 30.0001 29.1067C30.0002 28.9706 29.969 28.8362 29.9091 28.7139L15.7876 0.473009C15.7206 0.331497 15.6147 0.211921 15.4824 0.128186C15.3501 0.044452 15.1967 0 15.0402 0C14.8836 0 14.7302 0.044452 14.5979 0.128186C14.4656 0.211921 14.3598 0.331497 14.2927 0.473009V0.477144Z" fill="#2684FF"/>
<defs>
<linearGradient id="paint0_linear_249_9343" x1="12.9363" y1="16.1059" x2="5.17469" y2="29.5492" gradientUnits="userSpaceOnUse">
<stop stop-color="#0052CC"/>
<stop offset="0.92" stop-color="#2684FF"/>
</linearGradient>
</defs>
</svg>
