<svg width="30" height="27" viewBox="0 0 30 27" fill="none" xmlns="http://www.w3.org/2000/svg">
<path d="M0.973597 8.03564e-05C0.833305 -0.00173373 0.694317 0.0271877 0.566395 0.0848134C0.438472 0.142439 0.324715 0.227372 0.233115 0.333647C0.141515 0.439922 0.0742917 0.564962 0.0361666 0.699986C-0.00195862 0.835009 -0.0100612 0.976743 0.0124277 1.11523L4.09277 25.8854C4.14359 26.1885 4.2996 26.464 4.5334 26.6636C4.76719 26.8631 5.06381 26.9739 5.37116 26.9764H24.9461C25.1765 26.9793 25.4002 26.8994 25.5766 26.7512C25.753 26.603 25.8703 26.3964 25.9072 26.169L29.9876 1.12004C30.0101 0.981555 30.0019 0.839837 29.9638 0.704834C29.9256 0.569831 29.8584 0.444815 29.7668 0.338565C29.6752 0.232315 29.5614 0.147407 29.4335 0.0898027C29.3056 0.0321982 29.1666 0.0032939 29.0263 0.0051194L0.973597 8.03564e-05ZM18.1551 17.9025H11.9073L10.2156 9.06426H19.669L18.1551 17.9025Z" fill="#2684FF"/>
<path d="M28.6651 9.05188H19.6515L18.1387 17.8831H11.896L4.52466 26.6326C4.7583 26.8346 5.05616 26.9469 5.36501 26.9495H24.9291C25.1593 26.9525 25.383 26.8726 25.5593 26.7246C25.7355 26.5765 25.8528 26.37 25.8896 26.1428L28.6651 9.05188Z" fill="url(#paint0_linear_249_9280)"/>
<defs>
<linearGradient id="paint0_linear_249_9280" x1="30.7491" y1="11.525" x2="20.337" y2="26.309" gradientUnits="userSpaceOnUse">
<stop offset="0.18" stop-color="#0052CC"/>
<stop offset="1" stop-color="#2684FF"/>
</linearGradient>
</defs>
</svg>
