<svg width="30" height="35" viewBox="0 0 30 35" fill="none" xmlns="http://www.w3.org/2000/svg">
<path d="M30 0L27.2669 30.6174L14.9816 34.0233L2.73018 30.6222L0 0H30Z" fill="#264DE4"/>
<path d="M24.9271 28.6677L27.2627 2.50378H15V31.4199L24.9271 28.6677Z" fill="#2965F1"/>
<path d="M6.25891 13.8612L6.59552 17.6169H15V13.8612H6.25891Z" fill="#EBEBEB"/>
<path d="M15 6.25952H14.987H5.58252L5.92393 10.0152H15V6.25952Z" fill="#EBEBEB"/>
<path d="M15 27.5225V23.615L14.9835 23.6194L10.8008 22.49L10.5334 19.4946H8.50094H6.76331L7.28948 25.3916L14.9827 27.5273L15 27.5225Z" fill="#EBEBEB"/>
<path d="M19.6118 17.6168L19.1758 22.4876L14.9871 23.6182V27.5255L22.6864 25.3916L22.7429 24.7571L23.6255 14.8696L23.7171 13.8611L24.3951 6.25952H14.9871V10.0152H20.2792L19.9375 13.8611H14.9871V17.6168H19.6118Z" fill="white"/>
</svg>
