<svg width="30" height="39" viewBox="0 0 30 39" fill="none" xmlns="http://www.w3.org/2000/svg">
<path d="M13.4941 0H19.7575V28.7073C16.5493 29.3141 14.1875 29.5529 11.6321 29.5529C3.98214 29.5449 0 26.1273 0 19.5635C0 13.2393 4.22396 9.13495 10.7695 9.13495C11.7852 9.13495 12.559 9.21489 13.4941 9.45436V0ZM13.7136 14.6277C12.98 14.3882 12.3755 14.3083 11.6016 14.3083C8.4337 14.3083 6.60386 16.2407 6.60386 19.6271C6.60386 22.9242 8.35317 24.7448 11.5614 24.7448C12.2545 24.7448 12.8188 24.7058 13.7136 24.586V14.6277Z" fill="#2BA977"/>
<path d="M30 9.90568V24.279C30 29.2289 29.6292 31.6093 28.5409 33.6615C27.5252 35.6346 26.1871 36.8787 23.4222 38.2529L17.6102 35.5141C20.3751 34.2291 21.7132 33.0937 22.5678 31.361C23.4624 29.5891 23.7446 27.5369 23.7446 22.1389V9.90579H30V9.90568ZM23.1134 0H29.3768V6.36416H23.1134V0Z" fill="#2BA977"/>
</svg>
