<svg width="30" height="22" viewBox="0 0 30 22" fill="none" xmlns="http://www.w3.org/2000/svg">
<path d="M29.7041 8.12649C29.6228 8.06187 28.8632 7.48836 27.2614 7.48836C26.8384 7.49021 26.4164 7.52648 25.9993 7.59685C25.6893 5.4719 23.9325 4.43588 23.8537 4.3894L23.4236 4.14136L23.1407 4.54958C22.7864 5.09794 22.5278 5.70244 22.3759 6.33738C22.0891 7.55037 22.2636 8.68968 22.8797 9.66369C22.1357 10.0783 20.9421 10.1804 20.7005 10.1894H0.939079C0.422916 10.1901 0.00407325 10.6073 0.00126025 11.1234C-0.0217895 12.8546 0.271518 14.5755 0.866739 16.2013C1.54748 17.9865 2.56025 19.3016 3.87786 20.1063C5.35435 21.0105 7.75316 21.5273 10.4723 21.5273C11.7007 21.5311 12.9268 21.4199 14.1345 21.1953C15.8133 20.887 17.4288 20.3002 18.914 19.4591C20.1379 18.7504 21.2393 17.8488 22.1758 16.789C23.7414 15.0167 24.6741 13.0429 25.3677 11.2887H25.6441C27.3583 11.2887 28.4124 10.6028 28.9937 10.0279C29.38 9.66133 29.6816 9.21474 29.8773 8.7194L30 8.3603L29.7041 8.12649Z" fill="#2496ED"/>
<path d="M2.77076 9.61073H5.41888C5.5466 9.61073 5.65009 9.5072 5.65009 9.37952V7.02072C5.65081 6.893 5.54786 6.78892 5.42018 6.78821C5.41976 6.78821 5.4193 6.78821 5.41888 6.78821H2.77076C2.64304 6.78821 2.53955 6.89174 2.53955 7.01942V7.02072V9.37948C2.53955 9.5072 2.64304 9.61073 2.77076 9.61073Z" fill="#2496ED"/>
<path d="M6.42005 9.61073H9.06817C9.19589 9.61073 9.29939 9.5072 9.29939 9.37952V7.02072C9.3001 6.893 9.19715 6.78892 9.06943 6.78821C9.06901 6.78821 9.06855 6.78821 9.06813 6.78821H6.42001C6.29158 6.78821 6.1875 6.89229 6.1875 7.02072V9.37948C6.18826 9.50741 6.29213 9.61073 6.42005 9.61073Z" fill="#2496ED"/>
<path d="M10.1248 9.61073H12.7729C12.9006 9.61073 13.0041 9.5072 13.0041 9.37952V7.02072C13.0049 6.893 12.9019 6.78892 12.7742 6.78821C12.7738 6.78821 12.7733 6.78821 12.7729 6.78821H10.1248C9.99705 6.78821 9.89355 6.89174 9.89355 7.01942V7.02072V9.37948C9.8936 9.5072 9.99713 9.61073 10.1248 9.61073Z" fill="#2496ED"/>
<path d="M13.7857 9.61073H16.4338C16.5617 9.61073 16.6656 9.50745 16.6663 9.37952V7.02072C16.6663 6.89229 16.5622 6.78821 16.4338 6.78821H13.7857C13.6579 6.78821 13.5544 6.89174 13.5544 7.01942V7.02072V9.37948C13.5544 9.5072 13.658 9.61073 13.7857 9.61073Z" fill="#2496ED"/>
<path d="M6.42001 6.21726H9.06813C9.19602 6.21654 9.29934 6.11263 9.29934 5.98475V3.62599C9.29934 3.49827 9.19581 3.39478 9.06813 3.39478H6.42001C6.29213 3.39478 6.18821 3.49806 6.1875 3.62599V5.98475C6.18821 6.11288 6.29187 6.21654 6.42001 6.21726Z" fill="#2496ED"/>
<path d="M10.1248 6.21726H12.7729C12.9008 6.21654 13.0041 6.11263 13.0041 5.98475V3.62599C13.0041 3.49827 12.9006 3.39478 12.7729 3.39478H10.1248C9.99705 3.39478 9.89355 3.49831 9.89355 3.62599V5.98475C9.89355 6.11263 9.99688 6.21654 10.1248 6.21726Z" fill="#2496ED"/>
<path d="M13.7857 6.21726H16.4338C16.5619 6.21654 16.6656 6.11288 16.6663 5.98475V3.62599C16.6656 3.49806 16.5617 3.39478 16.4338 3.39478H13.7857C13.6579 3.39478 13.5544 3.49831 13.5544 3.62599V5.98475C13.5544 6.11263 13.6578 6.21654 13.7857 6.21726Z" fill="#2496ED"/>
<path d="M13.7857 2.82253H16.4338C16.5617 2.82253 16.6656 2.7192 16.6663 2.59131V0.231211C16.6656 0.103283 16.5617 0 16.4338 0H13.7857C13.6579 0 13.5544 0.103493 13.5544 0.231211V2.59127C13.5544 2.71899 13.658 2.82253 13.7857 2.82253Z" fill="#2496ED"/>
<path d="M17.4789 9.61073H20.127C20.2549 9.61073 20.3588 9.50745 20.3595 9.37952V7.02072C20.3595 6.89229 20.2554 6.78821 20.127 6.78821H17.4789C17.3512 6.78821 17.2477 6.89174 17.2477 7.01942V7.02072V9.37948C17.2477 9.5072 17.3512 9.61073 17.4789 9.61073Z" fill="#2496ED"/>
</svg>
