<svg width="30" height="27" viewBox="0 0 30 27" fill="none" xmlns="http://www.w3.org/2000/svg">
<path d="M8.96489 23.8305C7.82207 22.9315 6.60298 22.0696 5.76995 20.8562C4.01696 18.716 2.6673 16.2383 1.7445 13.6344C1.1869 11.9413 0.995911 10.126 0.27698 8.49827C-0.475065 7.31606 0.405826 6.02368 1.70087 5.64797C2.27731 5.53733 3.29112 4.99354 2.06748 5.38212C0.970487 6.18721 0.86424 4.65157 1.98901 4.55427C2.75691 4.45226 3.03955 3.82373 2.77684 3.25797C1.95292 2.72046 4.77544 2.1299 3.35515 1.32795C1.8757 -0.268108 5.42469 -0.575392 4.54898 1.23724C4.33947 2.63116 7.02891 0.981744 6.40492 2.59161C7.03895 3.36453 8.77986 2.76738 8.7367 3.85182C9.66059 3.91538 9.97776 4.69285 10.845 4.75248C11.7439 5.15848 13.3733 5.47832 13.6793 6.49135C12.7874 7.19726 10.7224 5.03277 10.6233 6.98728C10.8926 9.8743 10.824 12.8483 11.8803 15.5975C12.3799 17.2623 13.5909 18.5727 14.6848 19.8693C15.7316 21.1391 17.1492 22.033 18.5941 22.7857C19.8615 23.3836 21.228 23.7801 22.6094 24.0287C23.1696 23.6002 24.1588 22.007 25.0329 22.6788C25.0744 23.4337 23.2982 24.2568 24.9493 24.1734C25.9189 23.881 26.5915 24.9232 27.3898 23.983C28.1254 24.8545 30.4473 23.4263 29.9239 25.2074C29.2161 25.6641 28.1839 25.3881 27.4751 26.0163C26.3063 25.4325 25.3757 26.5386 24.0818 26.3987C22.6448 26.6561 21.183 26.76 19.7259 26.7622C17.3359 26.5734 14.8952 26.4938 12.6214 25.6616C11.3408 25.2895 10.0906 24.5601 8.96489 23.8305ZM10.9834 24.7051C12.2342 25.2459 13.4572 25.816 14.8279 25.9879C17.0026 26.2904 19.2482 26.7556 21.4308 26.3313C20.443 25.8852 19.4218 26.505 18.4378 26.0124C17.2576 26.2663 15.9911 25.9477 14.7912 25.7908C13.4268 25.1829 11.9544 24.765 10.6766 23.9762C9.08008 23.3931 11.5024 24.7241 11.9335 24.8319C12.9316 25.3984 10.8361 24.5415 10.5405 24.306C9.70469 23.837 9.59813 23.935 10.4578 24.4111C10.6309 24.5125 10.8018 24.6187 10.9834 24.7051ZM8.60346 23.0232C9.81549 23.472 8.59813 22.171 8.04288 22.2463C7.7968 21.8195 7.10283 21.5498 7.59231 21.3205C6.71158 21.6263 6.66968 20.158 6.25583 20.3678C5.32409 20.0735 5.89331 19.0315 4.78344 18.3915C4.68206 17.7171 3.6808 17.1322 3.36159 16.1151C3.22034 15.5942 2.23007 14.0987 2.83852 15.4905C3.35641 16.8304 4.26759 17.9779 5.02591 19.1239C5.61474 20.2151 6.31013 21.3555 7.38249 22.0363C7.74407 22.3832 8.0931 22.9144 8.60346 23.0232ZM5.11207 19.1898C5.15444 19.0067 5.33367 19.5859 5.11207 19.1898V19.1898ZM10.055 23.5613C9.66907 23.4099 10.3233 23.4411 10.055 23.5613V23.5613ZM10.7129 23.8014C10.4126 23.9866 10.6447 23.47 10.7129 23.8014V23.8014ZM11.5365 24.1448C10.9323 23.9094 11.9285 23.7714 11.5365 24.1448V24.1448ZM12.948 24.9315C12.1854 24.7986 13.1862 24.5794 12.948 24.9315V24.9315ZM10.2377 23.042C9.45093 23.0367 10.8466 22.6481 10.2377 23.042V23.042ZM10.8554 23.3501C10.6352 23.4434 10.8381 23.1418 10.8554 23.3501V23.3501ZM13.943 25.2773C14.4393 25.5907 16.8416 25.9639 15.3373 25.4058C15.0856 25.4588 12.5482 24.6881 13.943 25.2773ZM9.04116 21.4596C8.2706 21.2289 8.99298 21.2509 9.04116 21.4596V21.4596ZM10.4787 22.2973C9.70218 22.0961 10.8527 22.0365 10.4787 22.2973V22.2973ZM11.6878 23.0387C10.8168 22.8355 12.2245 22.8363 11.6878 23.0387V23.0387ZM8.45641 20.8227C9.03865 21.2692 10.8053 20.8799 9.34829 20.5559C8.68507 20.2025 7.19055 19.9605 8.20924 20.7691L8.45625 20.8226L8.45641 20.8227ZM12.5067 23.2947C11.4892 23.0586 12.7493 22.8813 12.5067 23.2947V23.2947ZM11.2758 22.3166C12.7002 22.7195 10.0782 21.4158 10.9244 22.1683L11.112 22.2531L11.2758 22.3166ZM13.7435 23.7427C12.5252 23.5568 15.0924 23.7556 13.7435 23.7427V23.7427ZM7.93726 20.0421C7.60455 20.0633 7.88453 19.791 7.93726 20.0421V20.0421ZM16.0252 25.0227C15.585 25.3603 16.0611 24.5688 16.0252 25.0227V25.0227ZM10.2391 21.4517C9.81769 21.4419 10.1575 21.2127 10.2391 21.4517V21.4517ZM8.06517 19.8844C7.00505 19.5432 8.83965 19.838 8.06517 19.8844V19.8844ZM5.48982 18.2198C4.64722 17.5525 5.39346 17.8486 5.48982 18.2198V18.2198ZM12.2507 22.5104C12.1088 22.3486 12.184 22.5458 12.2507 22.5104V22.5104ZM16.4588 25.0927C16.2297 25.1862 16.4453 24.8455 16.4588 25.0927V25.0927ZM11.8783 22.1258C11.2179 22.0294 11.9541 21.8072 11.8783 22.1258V22.1258ZM8.74329 20.139C7.8205 19.7494 9.31926 20.0773 8.74329 20.139V20.139ZM14.0464 23.4342C13.1714 23.2606 14.9441 23.0786 14.0464 23.4342V23.4342ZM11.2879 21.5618C12.3226 21.6952 10.0569 20.8579 11.0609 21.4867L11.2879 21.5618ZM14.8839 23.7729C15.8499 23.1953 15.5315 25.1252 16.5228 23.9361C17.5006 23.222 15.6784 24.8187 16.8835 24.0632C17.7551 23.4803 19.0425 24.3396 19.8557 24.6198C20.4405 24.5911 21.0092 25.1257 21.6087 24.8005C22.7628 24.4897 19.3517 24.3394 20.2459 23.7879C19.1897 24.0952 18.4097 23.4215 17.8899 22.7451C16.7054 22.4715 15.3356 21.8659 14.7444 20.8176C14.5034 20.424 15.0928 20.873 14.5363 20.2295C13.8226 19.5947 13.466 18.874 12.987 18.1022C12.4145 17.7968 12.3478 16.898 12.2899 18.0721C12.2946 17.3312 11.5988 16.8323 11.4291 17.0398C11.426 16.326 12.1735 16.6838 11.6502 16.1557C11.5376 15.4161 11.1669 14.6454 11.0553 13.8103C10.882 13.4078 11.0308 12.5455 10.4641 13.4569C10.2577 14.42 10.3957 12.2734 10.7168 12.9814C11.1382 12.259 10.5653 12.3439 10.542 12.4442C10.8166 11.8348 10.7157 10.9702 10.4702 11.3001C10.6167 10.6541 10.7014 8.92279 10.2513 9.2296C10.5242 8.55414 10.7687 6.13887 9.58432 7.05978C9.10441 7.06653 8.27327 7.23398 7.88045 7.42937C9.11241 8.10844 7.75647 7.67466 7.25505 7.56669C7.18977 8.19507 6.69306 7.92325 6.07253 7.92937C7.06359 8.0521 5.58995 8.94319 5.02136 8.59698C4.28297 8.94994 5.65853 9.83083 5.03611 10.1031C5.11254 10.5138 3.90491 9.95497 3.9997 10.9032C3.28281 10.6017 3.90098 12.0281 4.25959 11.5457C5.47899 11.8757 5.11803 12.6279 5.14895 13.3426C4.95043 13.759 4.16809 12.3638 4.97475 12.4285C4.33853 11.3947 4.27089 12.0548 3.74216 12.535C3.61912 12.5699 5.09088 13.2183 4.16731 13.5389C4.97993 13.6643 5.003 14.3754 5.16857 14.8254C5.6568 15.334 5.55699 14.2635 6.14127 14.875C5.77152 14.3304 4.18253 13.3404 5.46173 13.6579C5.45498 13.1097 5.2304 12.6676 5.62243 12.6785C6.01054 11.9754 5.21596 14.4117 6.09089 13.5181C6.33305 13.4125 6.393 12.8144 6.8285 13.5746C7.46064 14.1967 7.05684 14.6476 6.16481 14.0779C6.32441 14.6193 7.35801 14.8127 7.16372 15.6593C7.36978 16.4038 7.65776 16.1297 7.90886 16.0865C8.10597 16.81 8.21771 16.278 8.22713 15.9338C9.12905 16.1269 8.91781 16.6601 9.20014 17.0325C9.82161 17.3131 8.3103 15.1309 9.37748 16.3765C10.5002 17.39 9.79854 17.8131 8.791 17.6509C9.42864 17.5991 9.63439 18.5128 10.4319 18.4808C11.1593 18.8267 11.6517 20.1558 10.398 19.6024C9.96333 19.2104 8.4244 18.7267 9.68131 19.4724C10.842 20.01 11.7639 20.3317 12.8835 21.0064C13.6848 21.5784 14.0308 22.2336 14.3345 22.3631C13.6612 22.6848 12.3053 22.1063 13.3121 21.929C12.6842 21.8146 11.9778 21.4971 12.5792 22.2796C13.0908 22.7065 14.3915 22.6614 14.6247 22.7096C14.4269 23.1453 14.0878 23.1798 14.6327 23.2137C14.0247 23.5376 14.8276 23.5878 14.8839 23.7729ZM13.6408 20.2622C13.2709 19.8755 13.1754 19.1509 13.5751 19.7813C13.7802 19.8637 14.232 20.9652 13.6408 20.2622ZM17.6894 22.8339C17.6961 23.0092 17.9201 22.819 17.6894 22.8339V22.8339ZM13.0567 19.3138C13.0426 18.729 13.1906 19.7648 13.0567 19.3138V19.3138ZM12.6545 18.7723C12.1892 17.8734 13.241 19.0269 12.6545 18.7723V18.7723ZM7.77813 15.4068C7.91262 15.8743 8.05136 15.334 7.77813 15.4068V15.4068ZM11.6589 17.5104C11.8268 16.88 11.8562 18.0393 11.6589 17.5104V17.5104ZM8.91718 15.6039C8.72399 15.2562 9.32145 15.9302 8.91718 15.6039V15.6039ZM11.2701 16.3583C10.8295 15.3707 11.5821 15.8189 11.3676 16.52L11.2701 16.3583ZM7.21252 13.6523C7.01541 13.3282 6.68945 12.3776 6.79444 12.0876C6.88939 12.56 7.79947 14.1213 7.24093 12.7342C6.62354 11.5714 7.97869 13.1116 8.11821 13.4016C8.18303 13.6902 7.73732 13.3228 8.03927 13.9992C7.48842 13.2292 7.7141 14.4247 7.21252 13.6523ZM5.95859 12.7882C6.01007 12.0349 6.24563 13.3046 5.95859 12.7882V12.7882ZM6.52263 12.9823C6.79177 12.4137 6.979 13.7748 6.52263 12.9823V12.9823ZM5.16559 11.9325C4.6987 11.4686 4.36097 11.0411 5.18756 11.6447C5.50614 11.6571 4.47977 10.6722 5.26414 11.3319C6.08901 11.4823 5.6714 12.6841 5.16559 11.9325ZM5.8784 11.914C6.02231 12.1785 6.14959 11.6453 5.8784 11.914V11.914ZM6.31704 12.0546C5.90586 11.2841 6.81579 12.3776 6.31704 12.0546V12.0546ZM5.44509 11.2213C4.0879 10.0135 7.15069 11.853 5.66685 11.4452L5.44509 11.2213ZM9.33401 13.4809C8.74659 13.1287 9.17832 11.0016 9.37858 12.4564C9.94952 12.2717 9.34703 13.2077 9.77296 13.199C9.70579 13.7896 9.51527 14.0019 9.33385 13.4809H9.33401ZM10.7723 14.331C10.8299 13.6899 10.8935 14.7692 10.7723 14.331V14.331ZM10.5225 14.0842C10.5291 14.4065 10.5872 13.8103 10.5225 14.0842V14.0842ZM5.71142 10.8246C4.83947 9.62147 8.24549 12.0415 6.2698 11.1296C6.06343 11.0757 5.815 11.0565 5.71142 10.8246ZM8.48121 12.293C8.39866 11.28 8.66545 12.4609 8.48121 12.293V12.293ZM10.5842 13.6421C10.5963 14.0237 10.7469 13.065 10.5842 13.6421V13.6421ZM5.84497 10.3652C6.36318 10.2546 7.99266 11.2754 6.49626 10.6571C6.32991 10.4729 5.97554 10.5567 5.84497 10.3652ZM10.2951 12.5835C10.3505 11.5477 10.6044 11.9649 10.297 12.7318L10.2951 12.5835ZM6.23057 10.005C6.44165 9.69539 5.66998 8.60468 6.34183 9.61378C6.63217 9.84448 7.18224 10.0002 6.69651 10.0972C7.46049 10.7712 6.51023 10.2798 6.23057 10.005ZM10.0751 12.2599C10.2038 12.9512 10.221 11.0801 10.0751 12.2599V12.2599ZM5.78973 8.9151C5.87494 9.1301 5.95106 8.84605 5.78973 8.9151V8.9151ZM6.79256 9.51193C7.05057 8.9705 7.26855 10.1158 6.79256 9.51193V9.51193ZM9.62105 11.0854C9.61838 10.8774 9.67441 11.388 9.62105 11.0854V11.0854ZM9.4572 10.7227C9.06455 9.75409 9.8224 11.2356 9.4572 10.7227V10.7227ZM9.21615 10.0877C9.15023 9.68754 9.4401 10.5906 9.21615 10.0877V10.0877ZM9.60849 9.44994C9.33903 8.9752 9.94873 7.35796 10.0167 8.36079C9.73232 9.1425 9.93461 9.57973 10.133 8.53139C10.4994 7.70636 10.0539 10.1595 9.60849 9.44994ZM10.0117 7.04456C10.0377 7.21845 10.1291 6.90049 10.0117 7.04456V7.04456ZM9.3384 20.3113C9.17864 20.1719 9.35849 20.4 9.3384 20.3113V20.3113ZM10.7253 21.0128C11.4968 21.2108 11.4928 20.8927 10.7956 20.7984C10.4205 20.4494 9.23718 20.0793 10.2965 20.7551C10.3665 20.9328 10.5883 20.9287 10.7253 21.0128ZM7.98607 19.1934C8.41121 19.5104 9.58699 20.0917 8.59154 19.3143C8.92723 18.9241 7.94919 18.7166 8.27358 18.4558C7.4484 17.9508 7.6226 17.9957 8.20076 18.0117C7.20892 17.5683 8.34389 17.6014 8.29053 17.3743C7.90807 17.2989 6.39111 16.7 7.28362 17.4235C6.37636 16.961 7.06736 17.5958 6.79319 17.5286C5.86537 17.2758 7.61931 18.2353 6.64567 17.9971C7.178 18.4189 8.07851 19.0774 6.87087 18.4434C6.71174 18.6725 7.73497 19.0195 7.98607 19.1934ZM9.43664 20.0268C8.57192 19.3325 11.2006 20.5952 9.43664 20.0268V20.0268ZM16.8625 24.5254C16.6214 24.8239 16.8852 24.1754 16.8625 24.5254V24.5254ZM17.6256 24.8466C18.0326 24.4522 17.6423 25.4747 18.3 24.7501C18.3071 24.2313 18.2796 23.9249 17.5442 24.555C17.3414 24.6674 17.2507 25.1456 17.6256 24.8466ZM5.51038 17.238C4.63435 16.7491 5.3853 16.7468 5.51038 17.238V17.238ZM6.32536 17.7719C5.24563 17.3177 6.02262 17.2701 6.32536 17.7719V17.7719ZM10.9618 20.568C11.4144 20.9701 13.0409 20.8631 11.5115 20.6176C11.2851 20.2827 10.0733 20.3634 10.9618 20.568ZM17.3353 24.5043C16.6605 24.7652 18.0321 23.9197 17.3353 24.5043V24.5043ZM18.7843 25.5001C18.4841 25.5822 18.7887 25.3124 18.7843 25.5001V25.5001ZM18.7865 25.2374C18.039 25.2857 19.558 24.4199 18.7865 25.2374V25.2374ZM3.50597 15.5598C2.8484 14.6215 3.09715 14.1998 2.46312 13.4338C2.34306 12.848 1.37523 11.5185 1.96249 12.9269C2.50047 13.7507 2.66023 15.0259 3.50597 15.5598ZM18.5447 24.9777C17.9621 24.5779 19.9642 24.0602 18.5447 24.9777V24.9777ZM19.6282 25.402C19.1787 25.2744 20.3391 24.7917 19.6282 25.402V25.402ZM5.26885 16.2008C4.74358 16.1622 5.47224 15.8982 5.26885 16.2008V16.2008ZM19.402 25.1122C20.0902 24.6685 19.2435 24.7366 19.2773 25.153L19.402 25.1122ZM10.062 19.2251C9.69857 19.2507 10.0385 18.9255 10.062 19.2251V19.2251ZM10.6393 19.5574C10.3572 19.6156 10.4558 19.1865 10.6393 19.5574V19.5574ZM20.5062 25.4121C21.3881 24.776 19.9719 25.2903 20.3212 25.5326L20.5062 25.4121ZM20.1688 25.2489C19.4103 25.5156 20.887 24.647 20.1688 25.2489V25.2489ZM21.8936 26.3976C21.3079 26.2931 22.376 26.0747 21.8936 26.3976V26.3976ZM5.71095 15.9826C6.35753 16.1275 8.29414 17.5746 7.15163 16.0828C6.56626 15.9095 6.91732 14.4789 6.32049 14.7321C6.72115 15.4015 6.65006 15.6863 5.80887 15.2643C4.75159 14.7483 5.21471 15.5201 5.42124 15.7328C5.13985 15.7968 5.79381 15.9773 5.71095 15.9826ZM2.76601 13.6567C2.88167 13.178 1.7004 11.0232 2.2081 12.5769C2.3914 12.9024 2.37288 13.5192 2.76601 13.6567ZM8.17141 16.9892C7.83855 16.7108 8.15572 16.9498 8.17141 16.9892V16.9892ZM8.9911 17.1799C8.0851 16.974 8.99063 16.673 8.9911 17.1799V17.1799ZM16.0943 21.658C15.5588 21.6498 15.9588 21.3114 16.0943 21.658V21.658ZM16.4354 21.907C16.2386 21.9445 16.3852 21.7132 16.4354 21.907V21.907ZM19.2509 23.6804C18.913 23.6548 19.5218 23.4805 19.2509 23.6804V23.6804ZM4.23699 14.0324C3.40726 13.8185 5.01147 13.7325 4.23699 14.0324V14.0324ZM15.469 21.1087C14.9753 21.233 15.4604 20.6071 15.469 21.1087V21.1087ZM3.93096 13.3192C3.47082 13.2086 4.42845 13.1512 3.93096 13.3192V13.3192ZM5.3751 14.0187C5.2224 14.0812 5.366 13.8539 5.3751 14.0187V14.0187ZM22.9882 24.8196C23.628 24.6898 25.0858 25.1453 25.3216 24.6501C24.5447 24.6311 22.6335 24.1018 22.5431 24.7763L22.7133 24.803L22.9882 24.8196ZM5.83398 14.1344C5.43787 14.1155 5.84513 13.6264 5.83398 14.1344V14.1344ZM2.03719 11.5006C1.38135 11.3541 1.86472 10.5325 2.03719 11.5006V11.5006ZM2.94272 11.7282C2.11393 11.4485 2.95371 11.4175 2.94272 11.7282V11.7282ZM3.45999 11.9824C3.31043 11.8611 3.34291 12.1353 3.45999 11.9824V11.9824ZM6.71566 14.0708C6.35282 13.9664 6.86899 13.93 6.71566 14.0708V14.0708ZM3.11551 11.4091C2.0667 11.2996 3.02794 10.678 3.11551 11.4091V11.4091ZM1.2591 10.2048C1.07815 10.3319 1.23257 9.8674 1.2591 10.2048V10.2048ZM1.53515 9.99624C1.29817 10.0472 1.49011 9.59605 1.53515 9.99624V9.99624ZM3.06058 10.9069C3.70575 10.6535 1.88575 10.3828 2.92875 10.8591L3.06058 10.9069ZM23.4779 23.5183C22.9532 23.4012 23.8908 23.1398 23.4779 23.5183V23.5183ZM25.9444 24.7969C25.5279 24.8612 26.1099 24.3074 25.9444 24.7969V24.7969ZM3.21689 10.1074C2.70528 10.2014 3.28469 9.63387 3.21689 10.1074V10.1074ZM1.04613 8.65301C0.929526 7.98461 0.945534 6.81135 2.06073 7.20793C0.572022 7.50344 3.09103 9.05822 2.77292 7.83066C3.39894 7.86126 3.9975 7.46076 3.66903 8.06873C4.9024 7.93251 5.7574 6.86298 6.94871 7.01286C7.87668 6.88997 8.89129 6.79691 9.89129 6.4234C10.7136 6.36408 11.5051 5.47895 11.0544 4.95415C9.93304 4.85936 8.75946 4.99966 7.52012 5.24605C6.14692 5.53137 4.89926 6.0739 3.51382 6.30664C2.16321 6.48806 3.78532 6.80648 3.39863 6.87742C2.69382 7.12209 4.23903 7.28703 3.30713 7.54472C2.73164 7.43533 2.13277 7.23759 2.37853 6.63103C1.08474 6.79895 -0.0521184 7.33583 0.970016 8.65238L1.04613 8.65301ZM4.16354 7.06543C4.4669 5.94804 5.78863 7.98493 4.66072 7.21374C4.52607 7.11298 4.30447 7.03075 4.16354 7.06543ZM4.22255 6.52353C4.45529 6.70651 4.6604 6.19741 4.22255 6.52353V6.52353ZM4.77842 6.53247C4.81797 6.01819 6.05119 6.8046 4.98181 6.71766L4.77842 6.53247ZM5.53894 6.2266C5.61867 6.51536 5.81672 5.90221 5.53894 6.2266V6.2266ZM5.73354 6.09634C6.19588 5.54078 8.35205 5.74166 6.77373 6.0422C6.35078 5.72361 6.0267 6.23005 5.73354 6.09634ZM8.54744 5.66257C8.47697 4.14498 9.94528 6.20196 8.54744 5.66257V5.66257ZM9.34578 5.65833C9.63768 4.89341 10.4786 5.35136 9.48074 5.50453C9.50256 5.58598 9.45155 5.89938 9.34578 5.65833ZM2.90192 9.71469C1.97599 9.25126 3.77418 9.18064 2.90192 9.71469V9.71469ZM3.54693 9.89392C2.8823 9.76209 3.85265 9.56874 3.54693 9.89392V9.89392ZM1.64657 8.5452C1.0568 8.39956 2.14485 8.16227 1.64657 8.5452V8.5452ZM27.4004 24.6567C27.0195 24.857 27.4148 24.2126 27.4004 24.6567V24.6567ZM24.7834 22.8708C24.4471 22.9155 24.8578 22.3595 24.7834 22.8708V22.8708ZM28.1199 24.829C28.8167 24.8314 30.2312 24.6125 28.715 24.6133C28.4773 24.6505 27.3288 24.6424 28.1199 24.829ZM4.1141 9.58051C4.67798 9.54175 4.99641 8.95841 4.00503 8.992C2.46861 8.83286 5.3605 9.51805 3.80792 9.32204C3.59919 9.46014 4.10218 9.61865 4.1141 9.58051ZM4.61066 9.83177C4.43645 10.0242 4.5518 9.46972 4.61066 9.83177V9.83177ZM5.1998 8.26083C4.86128 8.17969 5.44462 7.95731 5.1998 8.26083V8.26083ZM3.32439 5.126C4.33084 4.78356 5.70718 4.3989 6.18223 5.29455C5.6987 4.71246 5.98716 4.13949 6.44384 4.99056C7.0898 5.85168 7.41309 4.59884 6.99313 4.31008C7.47179 4.90487 8.01636 5.18595 7.31359 4.34774C8.07725 3.42919 5.78455 4.46796 5.26352 4.4576C5.01273 4.56997 2.67499 5.05365 3.32439 5.12615V5.126ZM3.91432 3.99636C4.48824 3.56321 5.89927 4.25405 4.9939 3.56588C4.90523 3.48772 3.01099 4.0877 3.91432 3.99636ZM6.00677 4.08267C6.67847 4.09994 5.71707 3.18028 6.51745 3.59711C6.38609 3.16757 5.58555 3.08706 5.19415 2.91553C4.97287 3.30819 5.64472 4.08801 6.00677 4.08283V4.08267ZM4.28109 2.18341C3.87383 2.34318 4.51351 1.86844 4.28109 2.18341V2.18341ZM5.1364 2.38822C6.21895 2.24462 4.8605 1.92211 4.91825 2.37661L5.1364 2.38822ZM3.53956 1.13852C2.77731 0.14354 4.97302 1.30566 4.19854 0.263911C3.54678 -0.255082 2.92044 0.848033 3.5394 1.13852H3.53956ZM13.3215 6.40723C13.671 5.78749 11.8781 5.57186 13.0859 6.18752C13.197 6.22487 13.1721 6.45008 13.3215 6.40723Z" fill="black"/>
</svg>
