<svg width="30" height="34" viewBox="0 0 30 34" fill="none" xmlns="http://www.w3.org/2000/svg">
<path d="M29.9999 29.0543C30.0122 31.3344 28.1734 33.1911 25.8946 33.2034C25.7252 33.2047 25.5544 33.1952 25.3864 33.1747C23.2715 32.8618 21.7223 31.0216 21.7742 28.8849V4.3182C21.7237 2.17876 23.277 0.338514 25.3932 0.0283913C27.6569 -0.236648 29.7076 1.38364 29.9726 3.6474C29.9917 3.81408 30.0013 3.98075 29.9999 4.14879V29.0543Z" fill="#F9AB00"/>
<path d="M4.11357 24.983C6.38552 24.983 8.22713 26.8246 8.22713 29.0966C8.22713 31.3686 6.38552 33.2102 4.11357 33.2102C1.84161 33.2102 0 31.3686 0 29.0966C0 26.8246 1.84161 24.983 4.11357 24.983ZM14.9364 12.5166C12.6536 12.6423 10.883 14.5563 10.9363 16.842V27.8903C10.9363 30.889 12.256 32.7088 14.1891 33.0968C16.4201 33.549 18.5937 32.1077 19.0459 29.8767C19.1019 29.6034 19.1292 29.3261 19.1279 29.0474V16.6507C19.132 14.3705 17.2876 12.5194 15.0075 12.5153C14.9843 12.5153 14.9597 12.5153 14.9364 12.5166Z" fill="#E37400"/>
</svg>
