<svg width="30" height="30" viewBox="0 0 30 30" fill="none" xmlns="http://www.w3.org/2000/svg">
<path d="M0 0H30V30H0V0Z" fill="#CF4547"/>
<path d="M10.3802 15.1998C10.3661 15.2204 10.3414 15.2844 10.305 15.3931C10.2686 15.5018 10.2245 15.6376 10.1728 15.8009C10.1211 15.9643 10.0646 16.1476 10.0047 16.3497C9.94419 16.5519 9.8819 16.7587 9.81844 16.9691C9.75439 17.18 9.69328 17.3863 9.63452 17.589C9.57576 17.7912 9.52287 17.9745 9.47645 18.1379C9.43003 18.3012 9.39125 18.4381 9.3601 18.5492C9.32896 18.6597 9.31015 18.7249 9.3031 18.7454C9.28606 18.8107 9.25844 18.8835 9.22025 18.9635C9.18205 19.0434 9.1374 19.1186 9.08569 19.1903C9.03398 19.262 8.97698 19.3213 8.91469 19.3683C8.8524 19.4153 8.78835 19.4388 8.72313 19.4388C8.61266 19.4388 8.53215 19.4018 8.48221 19.3284C8.43226 19.2549 8.40699 19.1198 8.40699 18.9235V18.8377C8.40699 18.8089 8.40876 18.7784 8.41228 18.746C8.41581 18.6808 8.44166 18.558 8.48985 18.3776C8.53803 18.1978 8.5962 17.9945 8.66319 17.7671C8.73018 17.5397 8.80304 17.3052 8.88061 17.0613C8.95817 16.8181 9.0281 16.6001 9.09039 16.4079C8.90705 16.6124 8.70903 16.8157 8.49455 17.0185C8.28066 17.2212 8.06089 17.4028 7.83701 17.5643C7.61254 17.7259 7.38631 17.8582 7.15831 17.9598C6.93032 18.0621 6.71114 18.1132 6.50078 18.1132C6.25927 18.1132 6.05125 18.0597 5.87673 17.9539C5.70221 17.8476 5.55824 17.7083 5.44425 17.5367C5.33025 17.3651 5.24563 17.1706 5.1904 16.9538C5.13516 16.737 5.10754 16.5202 5.10754 16.3033V16.2234C5.10754 16.1987 5.10931 16.1746 5.11283 16.15C5.1334 15.7574 5.18981 15.3543 5.28089 14.9412C5.37256 14.5281 5.49243 14.1168 5.6411 13.7084C5.78976 13.2994 5.96135 12.8999 6.15643 12.5091C6.35152 12.1183 6.56365 11.7493 6.79341 11.402C7.02316 11.0548 7.26702 10.7345 7.52616 10.4419C7.7853 10.1493 8.0509 9.89775 8.32355 9.68739C8.5962 9.47702 8.87179 9.31249 9.14974 9.19379C9.42768 9.0751 9.70327 9.01575 9.97592 9.01575C10.2903 9.01575 10.5941 9.10154 10.8873 9.27312C11.1805 9.4447 11.4549 9.72323 11.7106 10.1075C11.7693 10.1933 11.8063 10.2803 11.8216 10.3684C11.8369 10.4566 11.8451 10.5394 11.8451 10.617C11.8451 10.8009 11.801 10.9461 11.7129 11.0524C11.6248 11.1588 11.5202 11.2117 11.3997 11.2117C11.2892 11.2117 11.1864 11.1535 11.0918 11.0365C10.9966 10.9202 10.8908 10.7533 10.7733 10.5365C10.6628 10.3402 10.5412 10.198 10.4084 10.1099C10.2756 10.0217 10.1311 9.97826 9.97592 9.97826C9.73441 9.97826 9.47586 10.0787 9.20145 10.2791C8.92703 10.4795 8.65497 10.7445 8.38584 11.0736C8.11671 11.4026 7.85816 11.7787 7.61136 12.2024C7.36457 12.6255 7.14597 13.0591 6.95618 13.5028C6.76638 13.9464 6.61536 14.3842 6.50313 14.8155C6.39089 15.2468 6.33507 15.6346 6.33507 15.9784C6.33507 16.093 6.34271 16.2105 6.35857 16.3309C6.37444 16.4514 6.40323 16.5613 6.44671 16.6594C6.48961 16.7576 6.54837 16.8386 6.623 16.9015C6.69704 16.965 6.79106 16.9967 6.90505 16.9967C7.03256 16.9967 7.17771 16.9538 7.33989 16.868C7.50207 16.7822 7.67071 16.67 7.84465 16.5307C8.01917 16.3915 8.19428 16.234 8.37056 16.0583C8.54684 15.8826 8.71079 15.7045 8.86239 15.5247C9.014 15.3449 9.14915 15.1722 9.26608 15.0065C9.38361 14.8408 9.47175 14.6968 9.52992 14.574L10.0118 13.1326C10.0705 12.9774 10.1475 12.867 10.2421 12.8012C10.3373 12.7359 10.4348 12.703 10.5347 12.703C10.5829 12.703 10.6311 12.7112 10.6799 12.7277C10.7281 12.7442 10.7715 12.7694 10.8092 12.8047C10.8474 12.8393 10.8773 12.8846 10.8996 12.9398C10.922 12.9951 10.9331 13.0597 10.9331 13.1332C10.9331 13.3294 10.9161 13.5133 10.8814 13.6855C10.8468 13.8577 10.8027 14.0252 10.7492 14.1885C10.6957 14.3519 10.6364 14.517 10.5706 14.6821C10.5059 14.8466 10.4419 15.0194 10.3802 15.1998ZM16.9109 16.402C16.7587 16.6065 16.5819 16.8057 16.3803 17.0002C16.1782 17.1947 15.9702 17.3675 15.7563 17.5185C15.5424 17.6695 15.3314 17.7912 15.1246 17.8834C14.9172 17.9757 14.7309 18.0215 14.5652 18.0215C14.3995 18.0215 14.2649 17.9663 14.1609 17.8558C14.0575 17.7453 14.0058 17.5573 14.0058 17.2911C14.0058 17.1031 14.0334 16.8839 14.0886 16.6347C13.9987 16.7946 13.8865 16.9562 13.7519 17.1195C13.6174 17.2829 13.4634 17.4321 13.2906 17.5673C13.1179 17.7024 12.9246 17.8117 12.7107 17.8952C12.4968 17.9792 12.2635 18.0209 12.0114 18.0209C11.8974 18.0209 11.7875 18.0068 11.6823 17.978C11.5772 17.9492 11.4849 17.9005 11.4056 17.8311C11.3263 17.7618 11.2622 17.6689 11.214 17.552C11.1658 17.4357 11.1417 17.2893 11.1417 17.1136C11.1417 17.1095 11.1488 17.0472 11.1623 16.9268C11.1758 16.8063 11.2199 16.6159 11.2945 16.3562C11.3686 16.0965 11.4837 15.7604 11.6389 15.3473C11.7946 14.9342 12.0138 14.4335 12.2964 13.8442C12.3687 13.689 12.4527 13.5774 12.5473 13.5098C12.6425 13.4422 12.7448 13.4087 12.8552 13.4087C12.9034 13.4087 12.9534 13.4158 13.0057 13.4299C13.0574 13.4446 13.1055 13.4669 13.1508 13.4975C13.1955 13.528 13.2319 13.5668 13.2595 13.6138C13.2871 13.6608 13.3012 13.7149 13.3012 13.7766C13.3012 13.8177 13.2959 13.8565 13.2854 13.8929C13.2683 13.9629 13.2313 14.0534 13.1737 14.1662C13.1167 14.279 13.0503 14.4077 12.9745 14.5528C12.8987 14.698 12.8182 14.8543 12.7336 15.0223C12.649 15.1898 12.5702 15.3637 12.498 15.5435C12.4257 15.7234 12.3634 15.9067 12.3117 16.0924C12.26 16.2786 12.2306 16.4596 12.2235 16.6353C12.2235 16.7088 12.2406 16.7764 12.2753 16.8381C12.3099 16.8992 12.3669 16.9303 12.4462 16.9303C12.6707 16.9303 12.8846 16.8569 13.0885 16.7094C13.2924 16.5625 13.4804 16.3791 13.6532 16.1605C13.826 15.9419 13.9823 15.7069 14.1221 15.4548C14.262 15.2033 14.3789 14.9736 14.4718 14.765C14.5376 14.6257 14.5951 14.4764 14.6451 14.3172C14.695 14.158 14.7497 14.0105 14.8085 13.8753C14.8672 13.7402 14.9342 13.6279 15.0106 13.538C15.0864 13.4481 15.1816 13.4029 15.2956 13.4029C15.4196 13.4029 15.5183 13.4499 15.5906 13.5439C15.6628 13.6379 15.6993 13.7507 15.6993 13.8812C15.6993 13.9546 15.6764 14.0563 15.6293 14.185C15.5823 14.3137 15.5242 14.4612 15.4531 14.6269C15.3826 14.7926 15.3056 14.9694 15.2227 15.1575C15.1399 15.3455 15.0629 15.5371 14.9924 15.731C14.9213 15.9255 14.8631 16.1153 14.8161 16.3016C14.7697 16.4878 14.7462 16.6606 14.7462 16.8198C14.7462 16.9673 14.822 17.0408 14.9742 17.0408C15.0811 17.0408 15.2139 17.0038 15.3731 16.9303C15.5324 16.8569 15.6987 16.7534 15.8732 16.6206C16.0477 16.4878 16.2217 16.3315 16.3962 16.1511C16.5707 15.9713 16.7252 15.7768 16.8598 15.5682L16.9109 16.402Z" fill="white" stroke="white" stroke-width="0.264085" stroke-miterlimit="10"/>
<path d="M17.072 16.0953C17.0338 16.1893 16.9967 16.2986 16.9603 16.4237C16.9239 16.5483 16.9062 16.66 16.9062 16.7581C16.9062 16.8192 16.9168 16.8686 16.9374 16.9056C16.958 16.9426 16.9979 16.9608 17.0567 16.9608C17.129 16.9608 17.2194 16.9355 17.3287 16.8838C17.4375 16.8327 17.555 16.7651 17.6807 16.6811C17.8071 16.5977 17.9381 16.5013 18.0744 16.3926C18.2107 16.2845 18.3465 16.1716 18.4811 16.0553C18.6156 15.9384 18.7443 15.822 18.8671 15.7057C18.9899 15.5887 19.0992 15.4818 19.1962 15.3837C19.2238 15.3549 19.2567 15.3343 19.2943 15.3225C19.3319 15.3102 19.3648 15.3043 19.3924 15.3043C19.4612 15.3043 19.5188 15.3331 19.5634 15.3901C19.6081 15.4471 19.6304 15.5229 19.6304 15.6169C19.6304 15.7027 19.6063 15.7991 19.5581 15.9055C19.51 16.0118 19.4253 16.1164 19.3043 16.2181C19.0834 16.4596 18.8606 16.6882 18.6362 16.905C18.4117 17.1218 18.1884 17.3128 17.9657 17.4785C17.743 17.6442 17.5221 17.7758 17.3029 17.8746C17.0837 17.9727 16.8704 18.0215 16.663 18.0215C16.5214 18.0215 16.4033 17.9991 16.3081 17.9539C16.2129 17.9086 16.1371 17.8475 16.0801 17.77C16.0231 17.6924 15.9825 17.6001 15.9584 17.4938C15.9343 17.3874 15.922 17.2752 15.922 17.1565C15.922 16.9561 15.9473 16.7504 15.9972 16.5401C16.0472 16.3297 16.1065 16.1364 16.1758 15.9607C16.2969 15.6416 16.4191 15.3249 16.5437 15.0099C16.6677 14.695 16.7817 14.4065 16.8857 14.145L18.4546 10.188C18.5169 10.0287 18.6003 9.91592 18.7061 9.8507C18.8113 9.78547 18.9176 9.75256 19.0246 9.75256C19.1315 9.75256 19.2291 9.78723 19.3172 9.85657C19.4054 9.92591 19.4494 10.0387 19.4494 10.1939C19.4494 10.2673 19.4347 10.3455 19.4054 10.4271C19.376 10.5088 19.339 10.597 19.2943 10.691C19.2079 10.8831 19.1051 11.1182 18.9864 11.3961C18.8671 11.6741 18.7396 11.9767 18.6033 12.304C18.4669 12.6313 18.3271 12.9715 18.1837 13.3253C18.0403 13.679 17.9005 14.0233 17.7642 14.3589C17.6278 14.6944 17.5003 15.0123 17.381 15.3126C17.2606 15.6134 17.1577 15.8743 17.072 16.0953Z" fill="white" stroke="white" stroke-width="0.264085" stroke-miterlimit="10"/>
<path d="M24.4107 14.9846C24.4588 14.9517 24.5041 14.9253 24.5452 14.9047C24.5863 14.8841 24.6263 14.8742 24.6645 14.8742C24.7403 14.8742 24.7973 14.9082 24.8355 14.9752C24.8737 15.0428 24.8925 15.1257 24.8925 15.2238C24.8925 15.3301 24.8696 15.4383 24.8226 15.5487C24.7761 15.6592 24.7062 15.7509 24.6128 15.8249C24.2432 16.1522 23.9135 16.4507 23.6238 16.7204C23.3336 16.9901 23.0603 17.2223 22.8029 17.4168C22.5456 17.6113 22.2947 17.7611 22.0496 17.8675C21.8046 17.9738 21.5419 18.0267 21.2622 18.0267C20.9996 18.0267 20.7968 17.9691 20.6535 17.8551C20.5101 17.7405 20.4384 17.5831 20.4384 17.3827V17.3368C20.4384 17.3227 20.4401 17.3051 20.4437 17.2845C20.4572 17.1617 20.5112 17.0207 20.6041 16.8615C20.6975 16.7022 20.8098 16.5365 20.9408 16.3643C21.0718 16.1922 21.2117 16.0188 21.3604 15.8431C21.509 15.6674 21.6459 15.5005 21.7723 15.3431C21.898 15.1856 22.0026 15.0416 22.0855 14.9106C22.1683 14.7795 22.21 14.6738 22.21 14.5915C22.21 14.5422 22.1924 14.5034 22.1583 14.4752C22.1237 14.4464 22.0667 14.4323 21.9873 14.4323C21.8492 14.4323 21.707 14.4681 21.5601 14.5398C21.4132 14.6115 21.2681 14.7073 21.1253 14.8277C20.9819 14.9482 20.8421 15.0863 20.7057 15.242C20.5694 15.3977 20.4419 15.5587 20.3226 15.7268C20.2033 15.8948 20.0946 16.0629 19.9965 16.2327C19.8984 16.4025 19.8143 16.5588 19.7456 16.7022C19.725 16.7475 19.6956 16.8109 19.6574 16.8926C19.6193 16.9743 19.5781 17.0665 19.5335 17.1688C19.4882 17.271 19.4412 17.3762 19.3907 17.4843C19.3407 17.593 19.2949 17.6953 19.2538 17.7911C19.212 17.8874 19.175 17.9726 19.1421 18.049C19.1092 18.1248 19.0857 18.1765 19.0722 18.2053C19.0546 18.2424 19.0264 18.3117 18.9864 18.4139C18.9464 18.5162 18.9012 18.6355 18.8489 18.773C18.7972 18.9099 18.7425 19.0538 18.6861 19.2055C18.6291 19.3571 18.5757 19.4998 18.5257 19.635C18.4758 19.7701 18.4317 19.8883 18.3935 19.9905C18.3553 20.0927 18.3312 20.1621 18.3206 20.1991C18.286 20.3055 18.2454 20.4054 18.199 20.5C18.1526 20.594 18.0991 20.6768 18.0386 20.7485C17.9781 20.8202 17.9093 20.8772 17.8311 20.9201C17.7536 20.963 17.666 20.9842 17.5697 20.9842C17.4451 20.9842 17.3428 20.9542 17.2612 20.8954C17.1801 20.8361 17.1395 20.7227 17.1395 20.5552C17.1395 20.4735 17.1501 20.3895 17.1707 20.3037C17.1912 20.2179 17.2177 20.1327 17.2482 20.0493C17.2794 19.9652 17.3111 19.8836 17.344 19.8042C17.3769 19.7243 17.4069 19.6479 17.4345 19.5739C17.6208 19.1649 17.8112 18.7548 18.0045 18.344C18.1978 17.9327 18.3835 17.5261 18.561 17.1229C18.739 16.7204 18.9035 16.3244 19.0557 15.936C19.2073 15.5476 19.3337 15.175 19.4336 14.8195C19.4612 14.7461 19.4994 14.6415 19.5476 14.5063C19.5957 14.3712 19.651 14.2384 19.7133 14.1073C19.7756 13.9763 19.8455 13.8629 19.923 13.7671C20.0006 13.6707 20.0846 13.6231 20.174 13.6231C20.312 13.6231 20.4119 13.6549 20.4742 13.7183C20.5365 13.7818 20.5677 13.8746 20.5677 13.9974C20.5677 14.0221 20.5641 14.0609 20.5571 14.1138C20.55 14.1667 20.5412 14.2231 20.5312 14.2824C20.5207 14.3418 20.5095 14.3982 20.4977 14.4511C20.4854 14.504 20.4742 14.5427 20.4642 14.5674C20.5918 14.4282 20.7298 14.2907 20.8785 14.1532C21.0272 14.0162 21.1805 13.8923 21.3398 13.7818C21.4984 13.6713 21.6606 13.5814 21.8263 13.5115C21.992 13.4421 22.1577 13.4075 22.3234 13.4075C22.4374 13.4075 22.5503 13.4239 22.6625 13.4568C22.7747 13.4897 22.8746 13.5373 22.9628 13.6008C23.0509 13.6643 23.1226 13.7442 23.1778 13.84C23.2331 13.9363 23.2607 14.0474 23.2607 14.1743C23.2607 14.3424 23.2184 14.521 23.1338 14.7114C23.0491 14.9018 22.9428 15.0927 22.8153 15.2849C22.6872 15.477 22.5491 15.6645 22.401 15.8461C22.2523 16.0282 22.1137 16.1939 21.9838 16.3432C21.8545 16.4924 21.7458 16.6194 21.6577 16.7234C21.5695 16.828 21.5237 16.8985 21.5202 16.9349C21.5202 16.9843 21.536 17.0236 21.5666 17.0548C21.5972 17.0859 21.6495 17.1006 21.7223 17.1006C21.7811 17.1006 21.8675 17.0677 21.9815 17.0025C22.0955 16.9373 22.2553 16.8239 22.4604 16.6623C22.6654 16.5007 22.9263 16.2838 23.2425 16.0118C23.5586 15.7403 23.9482 15.3977 24.4107 14.9846Z" fill="white" stroke="white" stroke-width="0.264085" stroke-miterlimit="10"/>
</svg>
