<svg width="30" height="30" viewBox="0 0 30 30" fill="none" xmlns="http://www.w3.org/2000/svg">
<path d="M15 29.2373C22.8631 29.2373 29.2373 22.863 29.2373 14.9999C29.2373 7.13695 22.8631 0.762695 15 0.762695C7.13695 0.762695 0.762695 7.13695 0.762695 14.9999C0.762695 22.863 7.13695 29.2373 15 29.2373Z" fill="white"/>
<path d="M15 0C6.71572 0 0 6.71572 0 15C0 23.2843 6.71572 30 15 30C23.2843 30 30 23.2843 30 15C30 6.71572 23.2843 0 15 0ZM15 1.52542C22.4418 1.52542 28.4746 7.5582 28.4746 15C28.4746 22.4418 22.4418 28.4746 15 28.4746C7.5582 28.4746 1.52542 22.4418 1.52542 15C1.52542 7.5582 7.5582 1.52542 15 1.52542Z" fill="#4000BF"/>
<path fill-rule="evenodd" clip-rule="evenodd" d="M15.1695 4.32214C21.0668 4.32214 25.8475 9.1028 25.8475 15.0001C25.8475 20.8974 21.0668 25.6781 15.1695 25.6781C9.27226 25.6781 4.49158 20.8974 4.49158 15.0001C4.49158 13.5588 4.77711 12.1843 5.29471 10.9299C6.05048 11.9591 7.26928 12.6272 8.64411 12.6272C10.9375 12.6272 12.7967 10.7681 12.7967 8.47468C12.7967 7.09984 12.1285 5.88106 11.0992 5.1253C12.3537 4.60769 13.7283 4.32214 15.1695 4.32214Z" fill="url(#paint0_linear_249_9287)"/>
<defs>
<linearGradient id="paint0_linear_249_9287" x1="15.1695" y1="25.6781" x2="15.1695" y2="4.32214" gradientUnits="userSpaceOnUse">
<stop stop-color="#7400E1"/>
<stop offset="1" stop-color="#4000BF"/>
</linearGradient>
</defs>
</svg>
