<svg width="30" height="41" viewBox="0 0 30 41" fill="none" xmlns="http://www.w3.org/2000/svg">
<path d="M9.66183 31.4577C9.66183 31.4577 8.10745 32.3617 10.7681 32.6675C13.9914 33.0352 15.6387 32.9826 19.1909 32.3102C19.1909 32.3102 20.1249 32.8958 21.429 33.403C13.4662 36.8157 3.40732 33.2053 9.66183 31.4577ZM8.68878 27.0043C8.68878 27.0043 6.94537 28.2948 9.60801 28.5702C13.0512 28.9254 15.7704 28.9545 20.4757 28.0484C20.4757 28.0484 21.1265 28.7082 22.1499 29.0691C12.5222 31.8843 1.79876 29.2911 8.68878 27.0043Z" fill="#5382A1"/>
<path d="M16.8918 19.4498C18.8539 21.7087 16.3763 23.7414 16.3763 23.7414C16.3763 23.7414 21.3582 21.1696 19.0703 17.949C16.9334 14.9457 15.2946 13.4533 24.1661 8.30823C24.1661 8.30823 10.2408 11.7861 16.8918 19.4496" fill="#E76F00"/>
<path d="M27.4233 34.7519C27.4233 34.7519 28.5736 35.6996 26.1564 36.4329C21.5602 37.8253 7.02618 38.2458 2.98865 36.4883C1.53733 35.8571 4.25908 34.9808 5.11518 34.7969C6.00802 34.6032 6.51833 34.6394 6.51833 34.6394C4.90424 33.5023 -3.91442 36.872 2.03892 37.837C18.2744 40.4699 31.6345 36.6515 27.4233 34.7519ZM10.4092 22.39C10.4092 22.39 3.01645 24.1461 7.79135 24.7836C9.8074 25.0535 13.8264 24.9925 17.5701 24.6788C20.6296 24.4208 23.7018 23.872 23.7018 23.872C23.7018 23.872 22.623 24.334 21.8425 24.867C14.3351 26.8414 -0.167804 25.9229 4.0074 23.9032C7.53837 22.1964 10.4093 22.39 10.4093 22.39H10.4092ZM23.6713 29.803C31.303 25.8373 27.7744 22.0264 25.3115 22.5399C24.7078 22.6654 24.4387 22.7742 24.4387 22.7742C24.4387 22.7742 24.6628 22.4233 25.0908 22.2713C29.9631 20.5583 33.7103 27.3235 23.5179 30.0029C23.5179 30.003 23.6361 29.8975 23.6713 29.803Z" fill="#5382A1"/>
<path d="M19.0702 0.000117772C19.0702 0.000117772 23.2967 4.2282 15.0615 10.7294C8.45781 15.9447 13.5557 18.9182 15.0588 22.3157C11.2041 18.8378 8.37513 15.7762 10.2731 12.9267C13.0585 8.74376 20.7754 6.71582 19.0702 0" fill="#E76F00"/>
<path d="M11.1592 40.549C18.4847 41.0179 29.7336 40.2888 30 36.8226C30 36.8226 29.4879 38.1367 23.946 39.1802C17.6936 40.3568 9.9822 40.2194 5.40845 39.4653C5.40857 39.4653 6.34475 40.2403 11.1594 40.549" fill="#5382A1"/>
</svg>
