<svg width="30" height="30" viewBox="0 0 30 30" fill="none" xmlns="http://www.w3.org/2000/svg">
<path d="M13.8063 3.90027L14.4564 5.1214C14.6026 5.34674 14.7609 5.5462 14.9475 5.73196C15.4943 6.27197 16.004 6.84832 16.4731 7.45707C17.5747 8.90354 18.3177 10.5099 18.8484 12.2472C19.1666 13.3084 19.3394 14.3971 19.3524 15.4979C19.4056 18.789 18.2774 21.615 16.0026 23.9636C15.6326 24.3361 15.2329 24.6777 14.8074 24.9853C14.582 24.9853 14.4755 24.8125 14.3826 24.6534C14.2134 24.3583 14.1009 24.0343 14.0507 23.6979C13.9707 23.2998 13.9182 22.9016 13.9441 22.4905V22.3047C13.9258 22.2651 13.7271 3.99391 13.8063 3.90027Z" fill="#599636"/>
<path d="M13.8063 3.85993C13.7796 3.80664 13.753 3.84699 13.7264 3.87287C13.7393 4.13933 13.6464 4.37686 13.501 4.60372C13.3411 4.82907 13.1295 5.00188 12.9171 5.18764C11.7371 6.20931 10.8083 7.44338 10.0645 8.82362C9.0748 10.6812 8.56473 12.672 8.42008 14.7679C8.35385 15.5238 8.65913 18.1914 8.89742 18.9611C9.54757 21.0044 10.7154 22.7166 12.2281 24.2027C12.5996 24.5605 12.997 24.8924 13.4081 25.2114C13.5277 25.2114 13.5406 25.1048 13.568 25.0256C13.6204 24.8562 13.6604 24.6832 13.6875 24.508L13.954 22.5179L13.8063 3.85993Z" fill="#6CAC48"/>
<path d="M14.4565 25.7938C14.4832 25.4893 14.6293 25.2365 14.7884 24.9845C14.6286 24.9183 14.5098 24.7866 14.4169 24.6397C14.3368 24.5005 14.2705 24.3539 14.219 24.2019C14.0332 23.6446 13.9936 23.06 13.9404 22.4905V22.1456C13.8741 22.1989 13.8604 22.6496 13.8604 22.7166C13.8217 23.3185 13.7418 23.917 13.6214 24.5079C13.5818 24.747 13.5551 24.9853 13.4082 25.1977C13.4082 25.2243 13.4082 25.251 13.4211 25.2906C13.6602 25.994 13.7257 26.7104 13.766 27.4405V27.7069C13.766 28.0252 13.7531 27.9582 14.0172 28.0647C14.1238 28.1043 14.2426 28.118 14.3492 28.1972C14.4291 28.1972 14.4421 28.131 14.4421 28.0777L14.4025 27.6399V26.4188C14.3895 26.2057 14.4291 25.994 14.4558 25.7945L14.4565 25.7938Z" fill="#C2BFBF"/>
</svg>
