<svg width="30" height="34" viewBox="0 0 30 34" fill="none" xmlns="http://www.w3.org/2000/svg">
<path d="M13.6464 0.352698C14.4662 -0.116506 15.5339 -0.118625 16.3529 0.352698C20.4733 2.68093 24.5949 5.00552 28.7146 7.33517C29.4895 7.77164 30.0078 8.63399 29.9999 9.52683V23.5344C30.0057 24.4642 29.4362 25.3472 28.6187 25.7737C24.5118 28.0891 20.4071 30.4074 16.3009 32.7228C15.4643 33.2012 14.3751 33.1643 13.5646 32.6467C12.3334 31.933 11.1 31.2227 9.86868 30.5097C9.61706 30.3597 9.33342 30.2403 9.15575 29.9963C9.31281 29.7846 9.59363 29.7583 9.82182 29.6658C10.3358 29.5024 10.8078 29.2401 11.2799 28.9855C11.3993 28.9038 11.5451 28.9351 11.6595 29.0082C12.7124 29.6119 13.7559 30.2331 14.8123 30.831C15.0377 30.9611 15.2659 30.7884 15.4585 30.681C19.4886 28.4033 23.5236 26.1341 27.553 23.8557C27.7023 23.7839 27.7848 23.6254 27.7727 23.4619C27.7755 18.8411 27.7734 14.2194 27.7741 9.59865C27.7912 9.41309 27.6838 9.24248 27.516 9.16654C23.4234 6.86173 19.3329 4.55339 15.241 2.248C15.1701 2.19926 15.0861 2.17311 15.0001 2.17298C14.9141 2.17285 14.83 2.19876 14.759 2.24729C10.6671 4.55339 6.57731 6.86385 2.48541 9.16854C2.31821 9.2446 2.206 9.41238 2.2259 9.59865C2.22661 14.2194 2.2259 18.8411 2.2259 23.4626C2.21881 23.5424 2.23633 23.6224 2.27612 23.692C2.31591 23.7615 2.37605 23.8172 2.44844 23.8515C3.54038 24.4707 4.63373 25.0855 5.72638 25.7026C6.34194 26.034 7.09773 26.2308 7.77592 25.977C8.37441 25.7623 8.79392 25.1516 8.7825 24.5161C8.78816 19.9223 8.77968 15.3278 8.78674 10.7346C8.77179 10.5307 8.96524 10.3622 9.16352 10.3814C9.68818 10.3779 10.2135 10.3743 10.7382 10.3828C10.9572 10.3779 11.1079 10.5975 11.0808 10.8029C11.0787 15.4258 11.0865 20.0489 11.0773 24.6718C11.0787 25.9038 10.5725 27.2445 9.43291 27.8473C8.02895 28.5746 6.29367 28.4204 4.90666 27.723C3.70592 27.1237 2.56006 26.4164 1.38063 25.7743C0.561026 25.3501 -0.00566803 24.4636 0.000101341 23.5345V9.52683C-0.00849385 8.6155 0.530413 7.7375 1.32941 7.30738C5.43556 4.9901 9.541 2.67104 13.6464 0.352698Z" fill="#8CC84B"/>
<path d="M17.2286 10.0558C19.0195 9.94052 20.9367 9.9875 22.5482 10.8697C23.7959 11.5458 24.4877 12.9647 24.5097 14.3509C24.4748 14.5379 24.2794 14.641 24.1009 14.6282C23.5813 14.6275 23.0616 14.6353 22.542 14.6247C22.3216 14.6331 22.1934 14.4299 22.1658 14.2351C22.0165 13.5718 21.6548 12.9149 21.0305 12.595C20.0722 12.1152 18.9611 12.1394 17.9161 12.1494C17.1533 12.1899 16.3329 12.2559 15.6867 12.7045C15.1905 13.0443 15.0398 13.7303 15.2169 14.2827C15.3838 14.6794 15.8417 14.8074 16.2164 14.9254C18.3746 15.4898 20.6616 15.4337 22.7786 16.1765C23.6551 16.4793 24.5125 17.0681 24.8125 17.9857C25.2049 19.2157 25.0329 20.6858 24.1579 21.6732C23.4482 22.4857 22.4147 22.928 21.3839 23.1682C20.0125 23.4739 18.5894 23.4817 17.1967 23.346C15.8872 23.1967 14.5244 22.8526 13.5135 21.9604C12.649 21.2098 12.2268 20.0402 12.2687 18.9114C12.2787 18.7208 12.4685 18.5879 12.6511 18.6035C13.1744 18.5993 13.6976 18.5979 14.2209 18.6042C14.4299 18.5893 14.5848 18.7699 14.5955 18.9669C14.6921 19.5988 14.9296 20.262 15.4806 20.6367C16.5441 21.3228 17.8784 21.2758 19.0961 21.295C20.1049 21.2503 21.2374 21.2367 22.0606 20.5699C22.495 20.1896 22.6237 19.5534 22.5063 19.006C22.3791 18.5438 21.8957 18.3285 21.4805 18.1877C19.35 17.5137 17.0374 17.7583 14.9275 16.9961C14.0709 16.6934 13.2426 16.1211 12.9135 15.241C12.4543 13.9956 12.6647 12.455 13.6315 11.501C14.5741 10.552 15.9349 10.1865 17.2286 10.0557V10.0558Z" fill="#8CC84B"/>
</svg>
