<svg width="30" height="20" viewBox="0 0 30 20" fill="none" xmlns="http://www.w3.org/2000/svg">
<path d="M16.8302 20H27.9825C28.3367 20 28.6848 19.9076 28.9915 19.7321C29.2983 19.5565 29.5529 19.3041 29.73 19C29.907 18.6959 30.0002 18.351 30 17.9999C29.9998 17.6489 29.9064 17.304 29.7291 17.0001L22.2395 4.14295C22.0625 3.83895 21.8079 3.5865 21.5012 3.41097C21.1945 3.23545 20.8466 3.14304 20.4925 3.14304C20.1383 3.14304 19.7904 3.23545 19.4837 3.41097C19.177 3.5865 18.9224 3.83895 18.7453 4.14295L16.8302 7.43265L13.0861 0.999765C12.9089 0.695785 12.6541 0.443365 12.3473 0.26788C12.0405 0.092385 11.6926 0 11.3384 0C10.9842 0 10.6362 0.092385 10.3294 0.26788C10.0227 0.44337 9.76785 0.695785 9.5907 0.999765L0.270885 17.0001C0.0935852 17.304 0.000150181 17.6489 1.80931e-07 17.9999C-0.000149819 18.351 0.0929702 18.6959 0.270005 19C0.44704 19.3041 0.701745 19.5565 1.0085 19.7321C1.31526 19.9076 1.66325 20 2.01747 20H9.01795C11.7916 20 13.837 18.7925 15.2445 16.4367L18.6616 10.5715L20.4919 7.43265L25.9849 16.8611H18.6616L16.8302 20ZM8.9038 16.8579L4.01837 16.8568L11.3417 4.28621L14.9957 10.5715L12.5492 14.7725C11.6145 16.301 10.5525 16.8579 8.9038 16.8579Z" fill="#00DC82"/>
</svg>
