<svg width="30" height="16" viewBox="0 0 30 16" fill="none" xmlns="http://www.w3.org/2000/svg">
<path fill-rule="evenodd" clip-rule="evenodd" d="M15 15.2032C23.2843 15.2032 30 11.7997 30 7.60159C30 3.40348 23.2843 0 15 0C6.71588 0 0 3.40348 0 7.60159C0 11.7997 6.71588 15.2032 15 15.2032Z" fill="#6E81B6"/>
<path fill-rule="evenodd" clip-rule="evenodd" d="M18.04 10.0586L18.784 6.22921C18.9519 5.36492 18.8123 4.72028 18.3692 4.31289C17.9398 3.91875 17.211 3.72703 16.1412 3.72703H14.8527L15.2213 1.82976C15.2282 1.79445 15.2272 1.75805 15.2183 1.72317C15.2095 1.68828 15.1931 1.65579 15.1702 1.62801C15.1473 1.60023 15.1186 1.57786 15.0861 1.56251C15.0535 1.54715 15.018 1.53918 14.982 1.53918H13.2036C13.0868 1.53918 12.9864 1.62208 12.9641 1.73671L12.1738 5.80205C12.102 5.3446 11.925 4.95136 11.6417 4.62687C11.12 4.02975 10.2949 3.72703 9.18901 3.72703H5.74201C5.6252 3.72703 5.5249 3.80992 5.50259 3.92437L3.90333 12.1534C3.88937 12.225 3.90805 12.2986 3.95448 12.3549C4.00074 12.4113 4.06966 12.4438 4.14276 12.4438H5.93518C6.052 12.4438 6.1523 12.3609 6.17461 12.246L6.5615 10.2557H7.89575C8.59589 10.2557 9.1843 10.1799 9.64356 10.0304C10.1132 9.87773 10.5454 9.61871 10.9263 9.26211C11.2341 8.97934 11.4884 8.66264 11.6841 8.3211L11.3647 9.96515C11.3507 10.0368 11.3694 10.1108 11.4159 10.1667C11.4621 10.2231 11.5312 10.2555 11.6041 10.2555H13.3826C13.4994 10.2555 13.5997 10.1727 13.622 10.0582L14.4997 5.54122H15.7201C16.2401 5.54122 16.3925 5.64479 16.434 5.68923C16.4715 5.72986 16.5495 5.87297 16.4619 6.32407L15.7545 9.96497C15.7478 10.0003 15.7488 10.0366 15.7577 10.0715C15.7666 10.1063 15.7831 10.1387 15.806 10.1665C15.8288 10.1942 15.8575 10.2166 15.89 10.2319C15.9225 10.2473 15.958 10.2553 15.994 10.2554H17.8007C17.8572 10.2555 17.9121 10.2359 17.9557 10.2C17.9994 10.1641 18.0292 10.1141 18.04 10.0586ZM9.79465 6.89452C9.68292 7.4686 9.47251 7.87798 9.16888 8.11142C8.86053 8.34921 8.36735 8.46965 7.70294 8.46965H6.90849L7.48293 5.51347H8.5101C9.26465 5.51347 9.56865 5.67472 9.69072 5.80985C9.85995 5.9974 9.89586 6.37268 9.79465 6.89452ZM25.5312 4.62687C25.0098 4.02975 24.1847 3.72703 23.0788 3.72703H19.6318C19.5148 3.72703 19.4147 3.80992 19.3923 3.92437L17.7933 12.1534C17.7791 12.225 17.7978 12.2986 17.8442 12.3549C17.8907 12.4111 17.9598 12.4438 18.0323 12.4438H19.8249C19.9419 12.4438 20.0421 12.3609 20.0644 12.246L20.4513 10.2557H21.7857C22.486 10.2557 23.0739 10.1799 23.5333 10.0304C24.0031 9.87773 24.4353 9.61871 24.8161 9.26211C25.1338 8.97027 25.3952 8.64215 25.5933 8.2879C25.7914 7.93366 25.9334 7.53861 26.0163 7.11345C26.22 6.06487 26.0569 5.22833 25.5312 4.62687ZM23.7862 6.89452C23.6743 7.4686 23.4638 7.87798 23.1606 8.11142C22.852 8.34921 22.3589 8.46965 21.6946 8.46965H20.9L21.4743 5.51347H22.5016C23.2562 5.51347 23.5602 5.67472 23.6824 5.80985C23.8513 5.9974 23.8874 6.37268 23.7862 6.89452Z" fill="white"/>
<path fill-rule="evenodd" clip-rule="evenodd" d="M8.45908 5.26956C9.14 5.26956 9.594 5.39526 9.82091 5.64665C10.0476 5.89805 10.1017 6.32974 9.98306 6.94118C9.859 7.57802 9.6203 8.03256 9.2666 8.305C8.9129 8.57744 8.37456 8.71347 7.65193 8.71347H6.56145L7.23075 5.26956H8.45908ZM4.09155 12.1998H5.88398L6.30933 10.0122H7.84474C8.5222 10.0122 9.0796 9.94089 9.51709 9.7985C9.95459 9.65612 10.3524 9.4176 10.7102 9.08259C11.0106 8.8067 11.2537 8.50198 11.4398 8.16896C11.6257 7.83594 11.7577 7.46864 11.8359 7.06688C12.0256 6.0914 11.8825 5.33159 11.4069 4.78744C10.9315 4.24311 10.175 3.97104 9.138 3.97104H5.69099L4.09155 12.1998ZM13.1524 1.7832H14.9308L14.5057 3.97104H16.0902C17.0868 3.97104 17.7747 4.14481 18.1531 4.49252C18.5315 4.84023 18.6448 5.40378 18.4936 6.18282L17.7495 10.0122H15.9428L16.6502 6.3711C16.7305 5.95682 16.7011 5.67441 16.5613 5.52368C16.4214 5.37313 16.1238 5.29767 15.6689 5.29767H14.2476L13.3314 10.0122H11.5529L13.1524 1.7832ZM22.4506 5.26956C23.1315 5.26956 23.5854 5.39526 23.8125 5.64665C24.0392 5.89805 24.0931 6.32974 23.9744 6.94118C23.8507 7.57802 23.612 8.03256 23.2581 8.305C22.9046 8.57744 22.3661 8.71347 21.6438 8.71347H20.5534L21.2225 5.26956H22.4506ZM18.0827 12.1998H19.8753L20.3005 10.0122H21.8359C22.5136 10.0122 23.071 9.94089 23.5085 9.7985C23.946 9.65612 24.3437 9.4176 24.7016 9.08259C25.002 8.8067 25.245 8.50198 25.4309 8.16896C25.6169 7.83594 25.7491 7.46864 25.8274 7.06688C26.017 6.0914 25.8739 5.33159 25.3985 4.78744C24.9227 4.24311 24.1663 3.97104 23.1294 3.97104H19.6824L18.0827 12.1998Z" fill="black"/>
</svg>
