<svg width="30" height="32" viewBox="0 0 30 32" fill="none" xmlns="http://www.w3.org/2000/svg">
<path d="M29.9206 18.5786C29.7403 18.031 29.2679 17.6496 28.6571 17.5581C28.3691 17.5149 28.0392 17.5333 27.6489 17.614C26.9685 17.7548 26.4637 17.8084 26.0953 17.8187C27.4858 15.4646 28.6165 12.7801 29.2674 10.2531C30.3199 6.16692 29.7574 4.30543 29.1002 3.46344C27.3608 1.23478 24.8232 0.0375208 21.7617 0.000886951C20.1285 -0.019138 18.6948 0.304206 17.9469 0.536731C17.2505 0.413519 16.5018 0.344727 15.7161 0.332005C14.2434 0.308447 12.9422 0.630377 11.8304 1.29203C11.2149 1.08329 10.2269 0.789045 9.08608 0.601282C6.40285 0.159555 4.24025 0.503749 2.65841 1.62432C0.742962 2.98107 -0.144986 5.33836 0.0192354 8.6307C0.0713916 9.676 0.654508 12.8564 1.57265 15.8727C2.10032 17.6064 2.66299 19.046 3.24505 20.1521C4.07051 21.7205 4.95375 22.6442 5.94531 22.9759C6.50106 23.1615 7.51082 23.2916 8.57286 22.4046C8.70747 22.5681 8.88708 22.7305 9.12543 22.8814C9.42815 23.0728 9.79829 23.2292 10.168 23.3219C11.5002 23.6559 12.7481 23.5724 13.8127 23.1043C13.8193 23.2941 13.8243 23.4755 13.8285 23.6322C13.8356 23.8863 13.8426 24.1354 13.8519 24.3684C13.915 25.9438 14.0219 27.1687 14.3386 28.0258C14.356 28.0729 14.3793 28.1448 14.404 28.221C14.562 28.7061 14.8262 29.5181 15.4984 30.1541C16.1944 30.8129 17.0363 31.0149 17.8073 31.0149C18.194 31.0149 18.563 30.9641 18.8866 30.8946C20.0402 30.6466 21.3503 30.269 22.298 28.9157C23.1941 27.6365 23.6297 25.7097 23.7085 22.6738C23.7187 22.588 23.7281 22.506 23.7372 22.4279L23.756 22.2675L23.967 22.2861L24.0214 22.2897C25.1964 22.3434 26.633 22.0936 27.5153 21.6826C28.2125 21.3582 30.4466 20.1754 29.9206 18.5786Z" fill="black"/>
<path d="M27.9117 18.8892C24.4182 19.6118 24.1779 18.4258 24.1779 18.4258C27.8665 12.9374 29.4085 5.9707 28.0779 4.26563C24.4476 -0.385467 18.1636 1.81422 18.0587 1.87123L18.025 1.87736C17.3348 1.73365 16.5624 1.64813 15.6942 1.63388C14.1135 1.60796 12.9144 2.04945 12.0045 2.74137C12.0045 2.74137 0.794416 -1.88958 1.31586 8.56558C1.42675 10.7898 4.49504 25.3952 8.15468 20.9837C9.4923 19.3705 10.7848 18.0065 10.7848 18.0065C11.4267 18.4341 12.1951 18.6523 13.0007 18.5739L13.0634 18.5207C13.0439 18.721 13.0528 18.9168 13.0884 19.1488C12.1456 20.205 12.4227 20.3904 10.538 20.7795C8.6309 21.1737 9.7512 21.8752 10.4827 22.0588C11.3695 22.281 13.4209 22.596 14.8071 20.6502L14.7519 20.8722C15.1212 21.1689 15.3806 22.802 15.3371 24.2826C15.2936 25.763 15.2646 26.7795 15.5556 27.5734C15.8468 28.3673 16.1368 30.1537 18.6145 29.6214C20.6846 29.1765 21.7575 28.0236 21.9068 26.1005C22.0126 24.7334 22.2524 24.9355 22.2674 23.7132L22.4597 23.1346C22.6814 21.2813 22.495 20.6834 23.7703 20.9615L24.0804 20.9888C25.019 21.0316 26.2477 20.8374 26.9689 20.5013C28.5216 19.7787 29.4425 18.5722 27.9115 18.8892H27.9117Z" fill="#336791"/>
<path d="M12.6607 9.56019C12.3458 9.51625 12.0607 9.55689 11.9165 9.66643C11.8354 9.72804 11.8103 9.79942 11.8035 9.84854C11.7854 9.9787 11.8763 10.1226 11.9322 10.1969C12.0903 10.407 12.3213 10.5514 12.5499 10.5832C12.583 10.5879 12.616 10.59 12.6488 10.59C13.03 10.59 13.3766 10.2924 13.4072 10.0727C13.4454 9.79754 13.047 9.61413 12.6607 9.5603V9.56019ZM23.09 9.5689C23.06 9.35322 22.6772 9.29174 22.314 9.34239C21.9513 9.39304 21.5996 9.55724 21.629 9.77339C21.6524 9.94148 21.9552 10.2284 22.3134 10.2284C22.3438 10.2284 22.3743 10.2264 22.4051 10.2221C22.6442 10.1888 22.8197 10.0365 22.9031 9.94878C23.03 9.81497 23.1035 9.66585 23.09 9.5689Z" fill="white"/>
<path d="M29.0742 18.807C28.941 18.4031 28.5122 18.2732 27.7999 18.4207C25.6848 18.8584 24.9274 18.5552 24.6787 18.3715C26.3227 15.8602 27.6751 12.8244 28.4047 9.99202C28.7503 8.65035 28.9412 7.40432 28.9568 6.3887C28.9741 5.27402 28.7847 4.45488 28.3943 3.95449C26.8199 1.93726 24.5093 0.855206 21.7124 0.825521C19.7895 0.803847 18.1649 1.29729 17.85 1.43605C17.1868 1.27067 16.4637 1.16913 15.6766 1.15617C14.2331 1.13273 12.9853 1.47928 11.9523 2.18569C11.5036 2.01819 10.3439 1.61898 8.92573 1.38987C6.47391 0.994085 4.52556 1.29399 3.1352 2.28169C1.47618 3.46034 0.710281 5.5672 0.858644 8.54363C0.908569 9.54499 1.47759 12.6255 2.37552 15.5757C3.5575 19.4587 4.84238 21.6568 6.19421 22.109C6.35245 22.1619 6.53487 22.1989 6.7361 22.1989C7.22924 22.1989 7.83385 21.976 8.4629 21.2177C9.23016 20.2947 10.0238 19.3942 10.8429 18.5171C11.3744 18.8031 11.9582 18.9629 12.5553 18.9789C12.5565 18.9946 12.558 19.0102 12.5594 19.0258C12.4566 19.1487 12.356 19.2734 12.2575 19.3998C11.8438 19.9264 11.7577 20.0361 10.4259 20.311C10.0471 20.3895 9.04096 20.5974 9.02616 21.3046C9.01019 22.0773 10.2155 22.4019 10.3529 22.4363C10.8314 22.5564 11.2925 22.6157 11.7322 22.6157C12.8015 22.6157 13.7426 22.2632 14.4946 21.5813C14.4714 24.336 14.586 27.0505 14.9158 27.8775C15.186 28.5546 15.846 30.2093 17.9306 30.2091C18.2365 30.2091 18.5731 30.1734 18.9435 30.0938C21.1192 29.6262 22.064 28.6619 22.4294 26.5361C22.625 25.4 22.9606 22.687 23.1185 21.2318C23.4516 21.3361 23.8805 21.3838 24.3441 21.3837C25.3112 21.3837 26.427 21.1776 27.1268 20.8519C27.9129 20.4858 29.3314 19.5875 29.0742 18.807ZM23.8931 8.97357C23.8859 9.40317 23.8269 9.79319 23.7644 10.2003C23.6971 10.6381 23.6276 11.0908 23.6101 11.6403C23.5928 12.1751 23.6594 12.7311 23.7238 13.2688C23.854 14.3549 23.9875 15.473 23.4705 16.5762C23.3847 16.4237 23.3082 16.2659 23.2415 16.104C23.1772 15.9478 23.0377 15.6969 22.8444 15.3497C22.0927 13.9978 20.3325 10.8322 21.2336 9.54052C21.502 9.15604 22.1832 8.76072 23.8931 8.97357ZM21.8204 1.69543C24.3265 1.75091 26.3089 2.69103 27.7125 4.48951C28.789 5.86899 27.6036 12.1459 24.1719 17.561C24.1374 17.517 24.1027 17.4731 24.0679 17.4294L24.0244 17.375C24.9112 15.9065 24.7378 14.4535 24.5834 13.1653C24.52 12.6366 24.4601 12.1373 24.4754 11.6682C24.4911 11.1711 24.5567 10.7447 24.6201 10.3324C24.698 9.8244 24.7773 9.29869 24.7554 8.67897C24.7717 8.61395 24.7783 8.53715 24.7697 8.44597C24.7139 7.8517 24.0373 6.07313 22.6582 4.46336C21.9038 3.58285 20.8037 2.5975 19.3017 1.9329C19.9477 1.79862 20.8312 1.6734 21.8204 1.69543ZM7.7972 20.6626C7.10413 21.4983 6.62556 21.3381 6.46815 21.2855C5.44265 20.9425 4.25268 18.769 3.20357 15.3223C2.29576 12.34 1.76527 9.34109 1.72322 8.50016C1.59071 5.8406 2.23362 3.98711 3.63421 2.99105C5.91358 1.3702 9.66108 2.34035 11.1669 2.83238C11.1453 2.85382 11.1228 2.87384 11.1014 2.89563C8.63029 5.39805 8.68891 9.67351 8.69502 9.93489C8.69478 10.0357 8.70324 10.1785 8.71475 10.3749C8.75728 11.094 8.83645 12.4324 8.62501 13.948C8.4286 15.3565 8.86159 16.735 9.81274 17.7303C9.91035 17.8322 10.0129 17.9292 10.1202 18.021C9.69679 18.4757 8.77666 19.4812 7.7972 20.6626ZM10.4378 17.1296C9.67119 16.3275 9.32301 15.2117 9.48241 14.0682C9.7056 12.4671 9.62326 11.0727 9.57897 10.3235C9.57275 10.2187 9.56723 10.1268 9.56405 10.0543C9.92504 9.73335 11.5979 8.83458 12.7909 9.10868C13.3353 9.23366 13.667 9.60542 13.8049 10.2448C14.5187 13.5552 13.8994 14.9349 13.4018 16.0437C13.2992 16.2721 13.2023 16.488 13.1196 16.7113L13.0555 16.884C12.8931 17.3206 12.7421 17.7265 12.6484 18.1119C11.8334 18.1096 11.0406 17.7604 10.4378 17.1295V17.1296ZM10.5629 21.594C10.3249 21.5344 10.1109 21.4309 9.9853 21.345C10.0902 21.2955 10.2769 21.2282 10.6006 21.1613C12.1673 20.8379 12.4093 20.6096 12.9377 19.9369C13.0588 19.7826 13.1961 19.6078 13.3863 19.3948L13.3865 19.3946C13.6697 19.0765 13.7993 19.1305 14.0342 19.2283C14.2246 19.3072 14.4101 19.5465 14.4853 19.8099C14.5209 19.9343 14.5608 20.1704 14.4301 20.3541C13.3264 21.9038 11.718 21.8839 10.5629 21.594ZM18.7621 29.245C16.8455 29.6568 16.1669 28.6762 15.7197 27.5551C15.4311 26.8314 15.2892 23.5678 15.3898 19.9636C15.3911 19.9157 15.3843 19.8694 15.3711 19.8258C15.3594 19.7398 15.3415 19.6547 15.3176 19.5712C15.1679 19.0467 14.8032 18.6081 14.3656 18.4262C14.1918 18.354 13.8727 18.2215 13.4893 18.3198C13.571 17.982 13.7128 17.6005 13.8666 17.1874L13.9311 17.0136C14.0037 16.8177 14.0948 16.6148 14.1912 16.3999C14.7119 15.2399 15.4251 13.6509 14.6511 10.0614C14.3611 8.7169 13.393 8.06032 11.9253 8.21286C11.0455 8.30415 10.2404 8.66012 9.83893 8.86426C9.75259 8.90808 9.67365 8.95049 9.59988 8.99171C9.71195 7.63708 10.1353 5.10545 11.719 3.50369C12.7162 2.49537 14.0442 1.99734 15.6622 2.02419C18.8503 2.07649 20.8948 3.71713 22.0486 5.08437C23.0428 6.26243 23.5812 7.4492 23.796 8.08929C22.1802 7.9245 21.0813 8.24431 20.5243 9.04296C19.3124 10.7802 21.1873 14.1519 22.0884 15.7724C22.2537 16.0694 22.3963 16.326 22.4411 16.4351C22.7346 17.1483 23.1145 17.6244 23.3918 17.9719C23.4769 18.0784 23.5593 18.1817 23.6221 18.2719C23.1327 18.4134 22.2537 18.7402 22.3338 20.3742C22.2692 21.194 21.8098 25.0324 21.5763 26.3886C21.2682 28.1803 20.6107 28.8476 18.7621 29.2451V29.245ZM26.7623 20.0646C26.2618 20.2975 25.4244 20.4722 24.6289 20.5097C23.7502 20.551 23.3029 20.411 23.1977 20.3249C23.1483 19.3067 23.5262 19.2003 23.9262 19.0877C23.989 19.0701 24.0504 19.0527 24.1096 19.032C24.1463 19.062 24.1866 19.0919 24.2308 19.1211C24.937 19.5885 26.1966 19.6389 27.975 19.2708L27.9945 19.2669C27.7546 19.4918 27.3442 19.7936 26.7623 20.0646Z" fill="white"/>
</svg>
