<svg width="30" height="30" viewBox="0 0 30 30" fill="none" xmlns="http://www.w3.org/2000/svg">
<path d="M6.66663 6.80554H23.3333V23.1944H6.66663V6.80554Z" fill="url(#paint0_linear_249_9339)"/>
<path d="M7.99207 8.10889H22.0078V21.8912H7.99207V8.10889Z" fill="url(#paint1_linear_249_9339)"/>
<path d="M10.6943 11.4247C10.6943 11.4247 11.748 11.397 12.6155 11.397C13.492 11.397 14.117 11.6032 14.5367 11.9656C14.9377 12.308 15.2082 12.8918 15.2082 13.5564C15.2082 14.2209 15.0029 14.7647 14.6298 15.147C14.1449 15.6404 13.5798 15.9325 12.6155 15.9729C12.3491 15.984 12.1025 15.9867 12.1025 15.9867V18.1469H10.6942L10.6943 11.4247ZM12.1025 14.7899C12.2555 14.8048 12.3514 14.7976 12.5782 14.7949C13.3336 14.7858 13.7998 14.3264 13.7998 13.6317C13.7998 13.0076 13.4154 12.4951 12.6902 12.4686C12.4011 12.458 12.1025 12.4686 12.1025 12.4686V14.7899Z" fill="url(#paint2_linear_249_9339)"/>
<path d="M15.7455 16.642C16.0294 16.8162 16.6991 17.077 17.1557 17.077C17.6221 17.077 17.8148 16.9126 17.8148 16.6564C17.8148 16.3997 17.6626 16.1302 17.0845 15.9353C16.0601 15.5865 15.6645 15.1689 15.6748 14.5845C15.6748 13.6405 16.4658 12.9327 17.693 12.9327C18.2711 12.9327 18.7329 13.1217 19.0369 13.2755V14.4084C18.8136 14.2852 18.1696 14.0101 17.7438 14.0101C17.3683 14.0101 17.1554 14.164 17.1554 14.4202C17.1554 14.6562 17.3483 14.7793 17.9568 14.9949C18.8998 15.3231 19.2954 15.8051 19.3054 16.5437C19.3054 17.4773 18.5858 18.2197 17.1554 18.1746C16.6645 18.1592 16.1207 17.9651 15.7454 17.7602L15.7455 16.642Z" fill="url(#paint3_linear_249_9339)"/>
<defs>
<linearGradient id="paint0_linear_249_9339" x1="10.7169" y1="5.94965" x2="17.1058" y2="19.4497" gradientUnits="userSpaceOnUse">
<stop stop-color="#A0CBFF"/>
<stop offset="0.394" stop-color="#A0CBFE"/>
<stop offset="0.583" stop-color="#8EC2FC"/>
<stop offset="0.784" stop-color="#83BCFB"/>
<stop offset="1" stop-color="#7FBAFB"/>
</linearGradient>
<linearGradient id="paint1_linear_249_9339" x1="12.9846" y1="8.30311" x2="16.5957" y2="20.3032" gradientUnits="userSpaceOnUse">
<stop stop-color="#090058"/>
<stop offset="1" stop-color="#070033"/>
</linearGradient>
<linearGradient id="paint2_linear_249_9339" x1="8.72977" y1="6.66803" x2="15.1186" y2="20.1679" gradientUnits="userSpaceOnUse">
<stop stop-color="#A0CBFF"/>
<stop offset="0.394" stop-color="#A0CBFE"/>
<stop offset="0.583" stop-color="#8EC2FC"/>
<stop offset="0.784" stop-color="#83BCFB"/>
<stop offset="1" stop-color="#7FBAFB"/>
</linearGradient>
<linearGradient id="paint3_linear_249_9339" x1="12.3688" y1="4.90535" x2="18.783" y2="18.4587" gradientUnits="userSpaceOnUse">
<stop stop-color="#A0CBFF"/>
<stop offset="0.394" stop-color="#A0CBFE"/>
<stop offset="0.583" stop-color="#8EC2FC"/>
<stop offset="0.784" stop-color="#83BCFB"/>
<stop offset="1" stop-color="#7FBAFB"/>
</linearGradient>
</defs>
</svg>
