<svg width="30" height="30" viewBox="0 0 30 30" fill="none" xmlns="http://www.w3.org/2000/svg">
<path d="M14.8919 0C7.27604 0 7.75156 3.3027 7.75156 3.3027L7.76002 6.72439H15.0277V7.75167H4.8734C4.8734 7.75167 0 7.19897 0 14.8833C0 22.5679 4.25362 22.2954 4.25362 22.2954H6.79217V18.7294C6.79217 18.7294 6.65532 14.4758 10.9779 14.4758H18.1862C18.1862 14.4758 22.236 14.5413 22.236 10.5618V3.98203C22.236 3.98203 22.851 0 14.8919 0ZM10.8845 2.30102C11.0563 2.30087 11.2263 2.33458 11.385 2.40023C11.5437 2.46588 11.6879 2.56218 11.8094 2.68362C11.9308 2.80506 12.0271 2.94925 12.0928 3.10795C12.1584 3.26665 12.1921 3.43673 12.192 3.60847C12.1921 3.78021 12.1584 3.9503 12.0928 4.109C12.0271 4.26769 11.9308 4.41189 11.8094 4.53332C11.6879 4.65476 11.5437 4.75106 11.385 4.81671C11.2263 4.88237 11.0563 4.91608 10.8845 4.91592C10.7128 4.91608 10.5427 4.88237 10.384 4.81671C10.2253 4.75106 10.0811 4.65476 9.95966 4.53332C9.83822 4.41189 9.74192 4.26769 9.67627 4.109C9.61062 3.9503 9.5769 3.78021 9.57706 3.60847C9.5769 3.43673 9.61062 3.26665 9.67627 3.10795C9.74192 2.94925 9.83822 2.80506 9.95966 2.68362C10.0811 2.56218 10.2253 2.46588 10.384 2.40023C10.5427 2.33458 10.7128 2.30087 10.8845 2.30102Z" fill="url(#paint0_linear_249_9372)"/>
<path d="M15.1082 29.844C22.7241 29.844 22.2486 26.5413 22.2486 26.5413L22.2401 23.1197H14.9723V22.0924H25.1266C25.1266 22.0924 30 22.6451 30 14.9605C30 7.27603 25.7464 7.54856 25.7464 7.54856H23.2079V11.1144C23.2079 11.1144 23.3447 15.368 19.0221 15.368H11.8139C11.8139 15.368 7.76407 15.3026 7.76407 19.2822V25.8621C7.76407 25.8621 7.14911 29.844 15.1081 29.844H15.1082ZM19.1156 27.5432C18.9439 27.5434 18.7738 27.5096 18.6151 27.444C18.4564 27.3783 18.3122 27.282 18.1908 27.1606C18.0694 27.0392 17.9731 26.895 17.9074 26.7363C17.8418 26.5776 17.808 26.4075 17.8082 26.2358C17.808 26.064 17.8417 25.8939 17.9074 25.7352C17.973 25.5765 18.0693 25.4323 18.1908 25.3108C18.3122 25.1894 18.4564 25.0931 18.6151 25.0274C18.7738 24.9617 18.9439 24.928 19.1156 24.9282C19.2874 24.928 19.4575 24.9617 19.6162 25.0274C19.7749 25.093 19.9191 25.1893 20.0405 25.3108C20.1619 25.4322 20.2582 25.5764 20.3239 25.7351C20.3895 25.8938 20.4233 26.0639 20.4231 26.2356C20.4233 26.4074 20.3895 26.5775 20.3239 26.7362C20.2582 26.8949 20.1619 27.039 20.0405 27.1605C19.9191 27.2819 19.7749 27.3782 19.6162 27.4439C19.4575 27.5095 19.2874 27.5432 19.1156 27.5431V27.5432Z" fill="url(#paint1_linear_249_9372)"/>
<defs>
<linearGradient id="paint0_linear_249_9372" x1="2.88299" y1="2.68429" x2="17.7501" y2="17.403" gradientUnits="userSpaceOnUse">
<stop stop-color="#387EB8"/>
<stop offset="1" stop-color="#366994"/>
</linearGradient>
<linearGradient id="paint1_linear_249_9372" x1="12.0085" y1="12.1358" x2="27.974" y2="27.2285" gradientUnits="userSpaceOnUse">
<stop stop-color="#FFE052"/>
<stop offset="1" stop-color="#FFC331"/>
</linearGradient>
</defs>
</svg>
