<svg width="30" height="30" viewBox="0 0 30 30" fill="none" xmlns="http://www.w3.org/2000/svg">
<path d="M28.8384 29.9933H1.16159C0.523724 29.9933 0 29.4696 0 28.8317V1.16159C0 0.523724 0.523724 0 1.16159 0H28.8384C29.4763 0 30 0.523724 30 1.16159V28.8384C29.9933 29.4763 29.4763 29.9933 28.8384 29.9933Z" fill="#4D4D4E"/>
<path d="M6.91589 9.05778L22.6142 4.07568C22.6142 4.07568 23.7288 3.49153 23.4602 4.57255L23.5005 9.37336C23.5005 9.37336 23.6952 10.0784 22.7283 10.2529L16.3496 12.2471L6.91589 9.05778Z" fill="#F89820"/>
<path d="M6.91586 9.05774C6.91586 9.05774 6.29814 9.20546 6.47943 10.2596L6.44585 14.8859C6.44585 14.8859 6.39214 15.47 7.50002 15.705L23.0573 20.714C23.0573 20.714 23.581 20.9221 23.5206 20.2775L23.5273 15.1209C23.5273 15.1209 23.675 14.5904 22.7082 14.2413L16.3496 12.2471L6.91586 9.05774Z" fill="#F89820"/>
<path d="M13.7713 17.7194L7.15093 19.7404C7.15093 19.7404 6.35192 19.7673 6.44592 21.2646C6.53992 22.7619 6.43921 25.7767 6.43921 25.7767C6.43921 25.7767 6.50635 26.334 7.27179 26.0117L22.9701 21.0027C22.9701 21.0027 23.5274 20.8617 23.0574 20.7073C22.5874 20.5596 13.7713 17.7194 13.7713 17.7194Z" fill="url(#paint0_linear_249_9323)"/>
<defs>
<linearGradient id="paint0_linear_249_9323" x1="7.3576" y1="23.033" x2="23.2374" y2="17.5387" gradientUnits="userSpaceOnUse">
<stop offset="0.233" stop-color="#F89822"/>
<stop offset="1" stop-color="#C27818"/>
</linearGradient>
</defs>
</svg>
