<svg width="24" height="14" viewBox="0 0 24 14" fill="none" xmlns="http://www.w3.org/2000/svg">
<path d="M12 0C8.7999 0 6.79995 1.55559 5.99985 4.66647C7.2 3.11088 8.60003 2.52776 10.1999 2.91651C11.1129 3.13832 11.7653 3.78244 12.4877 4.49515C13.6641 5.65615 15.0257 6.99985 18.0002 6.99985C21.1999 6.99985 23.2002 5.44427 24 2.33309C22.8001 3.88868 21.4001 4.4721 19.7999 4.08334C18.8873 3.86154 18.2348 3.21741 17.5125 2.5047C16.336 1.3437 14.9741 0 12 0ZM5.99985 6.99985C2.80005 6.99985 0.7998 8.55544 0 11.6666C1.19985 10.111 2.59988 9.52761 4.20008 9.91665C5.11272 10.1388 5.76516 10.7826 6.48753 11.495C7.66397 12.656 9.02589 14 12 14C15.2001 14 17.2001 12.4444 18.0002 9.33324C16.8 10.8888 15.4 11.4722 13.8001 11.0832C12.8871 10.8617 12.2347 10.2173 11.5123 9.50485C10.3359 8.34385 8.97427 6.99985 5.99985 6.99985Z" fill="#06B6D4"/>
</svg>
