<svg width="30" height="30" viewBox="0 0 30 30" fill="none" xmlns="http://www.w3.org/2000/svg">
<path d="M0.285425 10.3495C0.285425 10.3495 -0.445263 9.82278 0.431562 9.11949L2.47444 7.29277C2.47444 7.29277 3.05899 6.67778 3.67703 7.21361L22.5288 21.4864V28.3305C22.5288 28.3305 22.5196 29.4052 21.1405 29.2865L0.285425 10.3495Z" fill="#2489CA"/>
<path d="M5.14447 14.7611L0.285389 19.1787C0.285389 19.1787 -0.213914 19.5502 0.285389 20.2139L2.54139 22.2659C2.54139 22.2659 3.07723 22.8413 3.86881 22.1867L9.02016 18.2806L5.14447 14.7611Z" fill="#1070B3"/>
<path d="M13.6754 14.7976L22.5867 7.99306L22.5289 1.18547C22.5289 1.18547 22.1483 -0.300263 20.8787 0.47305L9.02026 11.2659L13.6754 14.7976Z" fill="#0877B9"/>
<path d="M21.1405 29.2957C21.6581 29.8255 22.2852 29.6519 22.2852 29.6519L29.2298 26.2299C30.1188 25.624 29.994 24.872 29.994 24.872V4.43706C29.994 3.53892 29.0745 3.22838 29.0745 3.22838L23.0555 0.326935C21.7403 -0.485956 20.8787 0.473073 20.8787 0.473073C20.8787 0.473073 21.9869 -0.324596 22.5288 1.18549V28.2058C22.5288 28.3915 22.4892 28.5742 22.4101 28.7386C22.2517 29.0582 21.9077 29.3566 21.0826 29.2318L21.1405 29.2957Z" fill="#3C99D4"/>
</svg>
