<svg width="322" height="281" viewBox="0 0 322 281" fill="none" xmlns="http://www.w3.org/2000/svg">
<g clip-path="url(#clip0_943:13425)">
<path d="M290.328 146.237C290.37 181.008 276.955 214.441 252.905 239.508C251.455 241.029 249.966 242.513 248.437 243.961C246.109 246.18 243.703 248.313 241.218 250.36C217.974 269.547 188.956 280.329 158.845 280.966C157.842 280.989 156.835 281 155.824 281C131.811 281 101.607 268.149 74.1979 250.36C71.9302 248.888 69.6827 247.382 67.4553 245.842C66.4142 245.129 65.3782 244.406 64.3472 243.673C53.7757 236.194 43.7413 227.981 34.3179 219.094C28.148 213.292 22.3624 207.094 16.9977 200.538C-4.06296 174.51 -8.70818 151.058 21.3173 146.237C24.8722 145.668 28.3224 145.06 31.6678 144.412C36.5137 143.479 41.1513 142.472 45.5807 141.389C51.5472 139.937 57.1528 138.361 62.3975 136.663C64.1617 136.094 65.8855 135.514 67.5689 134.922C92.457 126.164 109.115 114.743 120.453 102.351C122.377 100.254 124.15 98.131 125.772 95.9828C128.255 92.7132 130.511 89.2761 132.523 85.6961C135.299 80.7219 137.632 75.5115 139.492 70.1257L139.594 69.8298C148.616 43.7564 145.871 19.5719 155.824 11.4776C198.37 -23.1264 251.337 26.1529 276.199 84.2661C277.452 87.1944 278.631 90.1403 279.735 93.1039C280.231 94.4277 280.709 95.754 281.17 97.0828C282.381 100.546 283.48 104.018 284.467 107.499C284.846 108.826 285.207 110.152 285.55 111.477C285.917 112.907 286.269 114.334 286.595 115.76C289.014 126.202 290.328 136.5 290.328 146.237Z" fill="#F2F2F2"/>
<path d="M158.846 280.966C157.842 280.989 156.835 281 155.824 281C131.811 281 101.607 268.149 74.198 250.36C71.9302 248.888 69.6827 247.382 67.4554 245.842L69.4089 233.932L128.547 226.065L158.228 248.805L158.846 280.966Z" fill="#2F2E41"/>
<path d="M161.692 68.2937H153.265C153.004 68.2938 152.754 68.3977 152.569 68.5827C152.385 68.7676 152.281 69.0183 152.281 69.2798V77.7269C152.281 77.8562 152.307 77.9842 152.356 78.1036C152.406 78.223 152.478 78.3314 152.57 78.4227C152.661 78.5139 152.77 78.5862 152.889 78.6354C153.008 78.6846 153.136 78.7097 153.265 78.7094H161.692C161.953 78.7095 162.203 78.6061 162.387 78.422C162.572 78.2378 162.676 77.9879 162.677 77.7269V69.2798C162.676 69.0185 162.572 68.7681 162.388 68.5834C162.203 68.3986 161.953 68.2945 161.692 68.2937Z" fill="white"/>
<path d="M161.692 82.6882H153.265C153.004 82.6884 152.754 82.7923 152.569 82.9772C152.385 83.1621 152.281 83.4129 152.281 83.6744V92.1215C152.281 92.2508 152.307 92.3788 152.356 92.4982C152.406 92.6176 152.478 92.726 152.57 92.8172C152.661 92.9085 152.77 92.9808 152.889 93.03C153.008 93.0791 153.136 93.1043 153.265 93.1039H161.692C161.953 93.104 162.203 93.0007 162.387 92.8165C162.572 92.6324 162.676 92.3824 162.677 92.1215V83.6744C162.676 83.4131 162.572 83.1627 162.388 82.9779C162.203 82.7931 161.953 82.689 161.692 82.6882Z" fill="#E6E6E6"/>
<path d="M161.692 97.0828H153.265C153.004 97.0829 152.754 97.1869 152.569 97.3718C152.385 97.5567 152.281 97.8075 152.281 98.069V106.512C152.281 106.642 152.306 106.77 152.355 106.89C152.405 107.01 152.477 107.119 152.569 107.21C152.66 107.302 152.769 107.374 152.888 107.424C153.008 107.473 153.136 107.499 153.265 107.498H161.692C161.953 107.498 162.204 107.394 162.388 107.21C162.573 107.025 162.677 106.774 162.677 106.512V98.069C162.676 97.8077 162.572 97.5573 162.388 97.3725C162.203 97.1877 161.953 97.0835 161.692 97.0828Z" fill="#E6E6E6"/>
<path d="M162.662 112.289C162.62 112.062 162.5 111.857 162.323 111.708C162.146 111.56 161.923 111.478 161.692 111.477H153.265C153.004 111.477 152.754 111.581 152.569 111.766C152.385 111.951 152.281 112.202 152.281 112.464V120.907C152.281 121.036 152.306 121.165 152.355 121.285C152.405 121.404 152.477 121.513 152.569 121.605C152.66 121.696 152.769 121.769 152.888 121.818C153.008 121.868 153.136 121.893 153.265 121.893H161.692C161.953 121.893 162.204 121.789 162.388 121.604C162.573 121.419 162.677 121.168 162.677 120.907V112.464C162.678 112.405 162.672 112.347 162.662 112.289Z" fill="#E6E6E6"/>
<path d="M162.075 125.948C161.954 125.898 161.824 125.872 161.692 125.872H153.265C153.136 125.872 153.008 125.897 152.888 125.947C152.769 125.996 152.66 126.069 152.569 126.16C152.477 126.252 152.405 126.361 152.355 126.481C152.306 126.6 152.281 126.729 152.281 126.858V135.302C152.28 135.431 152.305 135.56 152.355 135.68C152.404 135.8 152.476 135.909 152.568 136C152.659 136.092 152.768 136.165 152.888 136.214C153.007 136.263 153.136 136.288 153.265 136.288H161.692C161.953 136.288 162.204 136.184 162.388 135.999C162.573 135.814 162.677 135.563 162.677 135.302V126.858C162.676 126.664 162.619 126.474 162.512 126.313C162.405 126.151 162.253 126.024 162.075 125.948Z" fill="#E6E6E6"/>
<path d="M179.395 68.2937H170.968C170.707 68.2938 170.456 68.3977 170.272 68.5827C170.087 68.7676 169.984 69.0183 169.983 69.2798V77.7269C169.984 77.8562 170.009 77.9842 170.059 78.1036C170.108 78.223 170.181 78.3314 170.272 78.4227C170.364 78.5139 170.472 78.5862 170.591 78.6354C170.711 78.6846 170.839 78.7097 170.968 78.7094H179.395C179.655 78.7095 179.905 78.6061 180.09 78.422C180.274 78.2378 180.378 77.9879 180.379 77.7269V69.2798C180.379 69.0185 180.275 68.7681 180.09 68.5834C179.906 68.3986 179.656 68.2945 179.395 68.2937Z" fill="#E6E6E6"/>
<path d="M179.395 82.6882H170.968C170.707 82.6884 170.456 82.7923 170.272 82.9772C170.087 83.1621 169.984 83.4129 169.983 83.6744V92.1215C169.984 92.2508 170.009 92.3788 170.059 92.4982C170.108 92.6176 170.181 92.726 170.272 92.8172C170.364 92.9085 170.472 92.9808 170.591 93.03C170.711 93.0791 170.839 93.1043 170.968 93.1039H179.395C179.655 93.104 179.905 93.0007 180.09 92.8165C180.274 92.6324 180.378 92.3824 180.379 92.1215V83.6744C180.379 83.4131 180.275 83.1627 180.09 82.9779C179.906 82.7931 179.656 82.689 179.395 82.6882Z" fill="#F9BE06"/>
<path d="M179.395 97.0828H170.968C170.707 97.0829 170.456 97.1869 170.272 97.3718C170.087 97.5567 169.984 97.8075 169.983 98.069V106.512C169.983 106.642 170.008 106.77 170.058 106.89C170.107 107.01 170.18 107.119 170.271 107.21C170.363 107.302 170.471 107.374 170.591 107.424C170.71 107.473 170.838 107.499 170.968 107.498H179.395C179.656 107.498 179.906 107.394 180.091 107.21C180.275 107.025 180.379 106.774 180.379 106.512V98.069C180.379 97.8077 180.275 97.5573 180.09 97.3725C179.906 97.1877 179.656 97.0835 179.395 97.0828Z" fill="#F9BE06"/>
<path d="M179.395 111.477H170.968C170.761 111.477 170.56 111.543 170.393 111.664C170.226 111.785 170.101 111.956 170.036 112.152C170.001 112.252 169.983 112.358 169.983 112.464V120.907C169.983 121.036 170.008 121.165 170.058 121.285C170.107 121.404 170.18 121.513 170.271 121.605C170.363 121.696 170.471 121.769 170.591 121.818C170.71 121.868 170.838 121.893 170.968 121.893H179.395C179.656 121.893 179.906 121.789 180.091 121.604C180.275 121.419 180.379 121.168 180.379 120.907V112.464C180.379 112.202 180.275 111.952 180.09 111.767C179.906 111.582 179.656 111.478 179.395 111.477Z" fill="#F9BE06"/>
<path d="M179.395 125.872H170.968C170.838 125.872 170.71 125.897 170.591 125.947C170.471 125.996 170.363 126.069 170.271 126.16C170.18 126.252 170.107 126.361 170.058 126.481C170.008 126.6 169.983 126.729 169.983 126.858V135.302C169.983 135.431 170.008 135.56 170.058 135.679C170.107 135.799 170.18 135.908 170.271 136C170.363 136.091 170.471 136.164 170.591 136.213C170.71 136.263 170.838 136.288 170.968 136.288H179.395C179.656 136.288 179.906 136.184 180.091 135.999C180.275 135.814 180.379 135.563 180.379 135.302V126.858C180.379 126.597 180.275 126.346 180.091 126.161C179.906 125.976 179.656 125.872 179.395 125.872Z" fill="#E6E6E6"/>
<path d="M197.098 68.2937H188.67C188.409 68.2938 188.159 68.3977 187.975 68.5827C187.79 68.7676 187.686 69.0183 187.686 69.2798V77.7269C187.686 77.8562 187.712 77.9842 187.761 78.1036C187.811 78.223 187.883 78.3314 187.975 78.4227C188.066 78.5139 188.175 78.5862 188.294 78.6354C188.413 78.6846 188.541 78.7097 188.67 78.7094H197.098C197.358 78.7095 197.608 78.6061 197.792 78.422C197.977 78.2378 198.081 77.9879 198.082 77.7269V69.2798C198.081 69.0185 197.977 68.7681 197.793 68.5834C197.608 68.3986 197.358 68.2945 197.098 68.2937Z" fill="#F9BE06"/>
<path d="M197.098 82.6882H188.67C188.409 82.6884 188.159 82.7923 187.974 82.9772C187.79 83.1621 187.686 83.4129 187.686 83.6744V92.1215C187.686 92.2508 187.712 92.3788 187.761 92.4982C187.811 92.6176 187.883 92.726 187.975 92.8172C188.066 92.9085 188.175 92.9808 188.294 93.03C188.413 93.0791 188.541 93.1043 188.67 93.1039H197.098C197.358 93.104 197.608 93.0007 197.792 92.8165C197.977 92.6324 198.081 92.3824 198.082 92.1215V83.6744C198.081 83.4131 197.977 83.1627 197.793 82.9779C197.608 82.7931 197.358 82.689 197.098 82.6882Z" fill="#F9BE06"/>
<path d="M197.098 97.0828H188.67C188.409 97.0829 188.159 97.1869 187.974 97.3718C187.79 97.5567 187.686 97.8075 187.686 98.069V106.512C187.686 106.642 187.711 106.77 187.761 106.89C187.81 107.01 187.882 107.119 187.974 107.21C188.065 107.302 188.174 107.374 188.293 107.424C188.413 107.473 188.541 107.499 188.67 107.498H197.098C197.359 107.498 197.609 107.394 197.793 107.21C197.978 107.025 198.082 106.774 198.082 106.512V98.069C198.081 97.8077 197.977 97.5573 197.793 97.3725C197.608 97.1877 197.358 97.0835 197.098 97.0828Z" fill="#E6E6E6"/>
<path d="M197.098 111.477H188.67C188.409 111.477 188.159 111.581 187.975 111.766C187.79 111.951 187.686 112.202 187.686 112.464V120.907C187.686 121.036 187.711 121.165 187.76 121.285C187.81 121.404 187.882 121.513 187.974 121.605C188.065 121.696 188.174 121.769 188.293 121.818C188.413 121.868 188.541 121.893 188.67 121.893H197.098C197.359 121.893 197.609 121.789 197.793 121.604C197.978 121.419 198.082 121.168 198.082 120.907V112.464C198.081 112.202 197.977 111.952 197.793 111.767C197.608 111.582 197.358 111.478 197.098 111.477Z" fill="#F9BE06"/>
<path d="M197.098 125.872H188.67C188.541 125.872 188.413 125.897 188.293 125.947C188.174 125.996 188.065 126.069 187.974 126.16C187.882 126.252 187.81 126.361 187.761 126.481C187.711 126.6 187.686 126.729 187.686 126.858V135.302C187.686 135.431 187.711 135.56 187.76 135.679C187.81 135.799 187.882 135.908 187.974 136C188.065 136.091 188.174 136.164 188.293 136.213C188.413 136.263 188.541 136.288 188.67 136.288H197.098C197.359 136.288 197.609 136.184 197.793 135.999C197.978 135.814 198.082 135.563 198.082 135.302V126.858C198.082 126.597 197.978 126.346 197.793 126.161C197.609 125.976 197.359 125.872 197.098 125.872Z" fill="#F9BE06"/>
<path d="M214.8 68.2937H206.373C206.112 68.2938 205.862 68.3977 205.677 68.5827C205.492 68.7676 205.389 69.0183 205.389 69.2798V77.7269C205.389 77.8562 205.414 77.9842 205.464 78.1036C205.513 78.223 205.586 78.3314 205.677 78.4227C205.769 78.5139 205.877 78.5862 205.997 78.6354C206.116 78.6846 206.244 78.7097 206.373 78.7094H214.8C215.061 78.7095 215.31 78.6061 215.495 78.422C215.679 78.2378 215.784 77.9879 215.785 77.7269V69.2798C215.784 69.0185 215.68 68.7681 215.495 68.5834C215.311 68.3986 215.061 68.2945 214.8 68.2937Z" fill="#F9BE06"/>
<path d="M214.8 82.6882H206.373C206.112 82.6883 205.862 82.7923 205.677 82.9772C205.492 83.1621 205.389 83.4129 205.389 83.6744V92.1215C205.389 92.2508 205.414 92.3788 205.464 92.4982C205.513 92.6176 205.586 92.726 205.677 92.8172C205.769 92.9085 205.877 92.9808 205.997 93.03C206.116 93.0791 206.244 93.1043 206.373 93.1039H214.8C215.061 93.104 215.31 93.0007 215.495 92.8165C215.679 92.6324 215.784 92.3824 215.785 92.1215V83.6744C215.784 83.4131 215.68 83.1627 215.495 82.9779C215.311 82.7931 215.061 82.689 214.8 82.6882Z" fill="white"/>
<path d="M214.8 97.0828H206.373C206.112 97.0829 205.862 97.1868 205.677 97.3718C205.492 97.5567 205.389 97.8075 205.389 98.069V106.512C205.388 106.642 205.414 106.77 205.463 106.89C205.512 107.01 205.585 107.119 205.676 107.21C205.768 107.302 205.876 107.374 205.996 107.424C206.115 107.473 206.244 107.499 206.373 107.498H214.8C215.061 107.498 215.311 107.394 215.496 107.21C215.681 107.025 215.784 106.774 215.785 106.512V98.069C215.784 97.8077 215.68 97.5573 215.495 97.3725C215.311 97.1877 215.061 97.0835 214.8 97.0828Z" fill="white"/>
<path d="M214.8 111.477H206.373C206.112 111.477 205.862 111.581 205.677 111.766C205.492 111.951 205.389 112.202 205.389 112.464V120.907C205.388 121.036 205.414 121.165 205.463 121.285C205.512 121.404 205.585 121.513 205.676 121.605C205.768 121.696 205.876 121.769 205.996 121.818C206.115 121.868 206.244 121.893 206.373 121.893H214.8C215.061 121.893 215.311 121.789 215.496 121.604C215.681 121.419 215.784 121.168 215.785 120.907V112.464C215.784 112.202 215.68 111.952 215.495 111.767C215.311 111.582 215.061 111.478 214.8 111.477Z" fill="#E6E6E6"/>
<path d="M214.8 125.872H206.373C206.244 125.872 206.115 125.897 205.996 125.947C205.876 125.996 205.768 126.069 205.676 126.16C205.585 126.252 205.512 126.361 205.463 126.481C205.414 126.6 205.388 126.729 205.389 126.858V135.302C205.388 135.431 205.414 135.56 205.463 135.679C205.512 135.799 205.585 135.908 205.676 136C205.768 136.091 205.876 136.164 205.996 136.213C206.115 136.263 206.244 136.288 206.373 136.288H214.8C215.061 136.288 215.312 136.184 215.496 135.999C215.681 135.814 215.784 135.563 215.785 135.302V126.858C215.784 126.597 215.681 126.346 215.496 126.161C215.311 125.976 215.061 125.872 214.8 125.872Z" fill="#F9BE06"/>
<path d="M232.503 68.2937H224.072C223.811 68.2946 223.562 68.3989 223.378 68.5838C223.194 68.7686 223.091 69.0189 223.091 69.2798V77.727C223.091 77.9875 223.195 78.2374 223.378 78.4216C223.562 78.6058 223.812 78.7093 224.072 78.7094H232.503C232.763 78.7095 233.013 78.6061 233.198 78.422C233.382 78.2378 233.486 77.9879 233.487 77.727V69.2798C233.486 69.0185 233.382 68.7681 233.198 68.5834C233.013 68.3986 232.764 68.2945 232.503 68.2937Z" fill="white"/>
<path d="M232.503 82.6882H224.072C223.811 82.6891 223.562 82.7935 223.378 82.9783C223.194 83.1632 223.091 83.4135 223.091 83.6744V92.1215C223.091 92.3821 223.195 92.6319 223.378 92.8161C223.562 93.0003 223.812 93.1039 224.072 93.1039H232.503C232.763 93.104 233.013 93.0007 233.198 92.8165C233.382 92.6324 233.486 92.3824 233.487 92.1215V83.6744C233.486 83.4131 233.382 83.1627 233.198 82.9779C233.014 82.7931 232.764 82.689 232.503 82.6882Z" fill="white"/>
<path d="M232.503 97.0828H224.072C223.811 97.0837 223.562 97.188 223.378 97.3729C223.194 97.5577 223.091 97.8081 223.091 98.069V106.512C223.091 106.642 223.116 106.77 223.165 106.889C223.214 107.009 223.286 107.118 223.377 107.209C223.468 107.301 223.577 107.373 223.696 107.423C223.815 107.473 223.943 107.498 224.072 107.498H232.503C232.764 107.498 233.014 107.394 233.199 107.21C233.383 107.025 233.487 106.774 233.487 106.512V98.069C233.486 97.8077 233.382 97.5573 233.198 97.3725C233.014 97.1877 232.764 97.0835 232.503 97.0828Z" fill="white"/>
<path d="M232.503 111.477H224.072C223.811 111.478 223.562 111.583 223.378 111.767C223.194 111.952 223.091 112.203 223.091 112.464V120.907C223.091 121.036 223.116 121.164 223.165 121.284C223.214 121.403 223.286 121.512 223.377 121.604C223.468 121.695 223.577 121.768 223.696 121.818C223.815 121.867 223.943 121.893 224.072 121.893H232.503C232.764 121.893 233.014 121.789 233.199 121.604C233.383 121.419 233.487 121.168 233.487 120.907V112.464C233.486 112.202 233.382 111.952 233.198 111.767C233.014 111.582 232.764 111.478 232.503 111.477Z" fill="#F9BE06"/>
<path d="M232.503 125.872H224.072C223.943 125.872 223.815 125.898 223.696 125.947C223.577 125.997 223.468 126.07 223.377 126.161C223.286 126.253 223.214 126.362 223.165 126.481C223.116 126.601 223.091 126.729 223.091 126.858V135.302C223.091 135.431 223.116 135.559 223.165 135.679C223.214 135.798 223.286 135.907 223.377 135.998C223.468 136.09 223.577 136.163 223.696 136.212C223.815 136.262 223.943 136.288 224.072 136.288H232.503C232.764 136.288 233.014 136.184 233.199 135.999C233.383 135.814 233.487 135.563 233.487 135.302V126.858C233.487 126.597 233.383 126.346 233.199 126.161C233.014 125.976 232.764 125.872 232.503 125.872Z" fill="#E6E6E6"/>
<path d="M250.205 68.2937H241.774C241.514 68.2946 241.264 68.3989 241.081 68.5838C240.897 68.7686 240.794 69.0189 240.794 69.2798V77.727C240.794 77.9875 240.897 78.2374 241.081 78.4216C241.265 78.6058 241.514 78.7093 241.774 78.7094H250.205C250.466 78.7095 250.716 78.6061 250.9 78.422C251.085 78.2378 251.189 77.9879 251.19 77.727V69.2798C251.189 69.0185 251.085 68.7681 250.901 68.5834C250.716 68.3986 250.466 68.2945 250.205 68.2937Z" fill="white"/>
<path d="M250.205 82.6882H241.774C241.514 82.6891 241.264 82.7935 241.081 82.9783C240.897 83.1632 240.794 83.4135 240.794 83.6744V92.1215C240.794 92.3821 240.897 92.6319 241.081 92.8161C241.265 93.0003 241.514 93.1039 241.774 93.1039H250.205C250.466 93.104 250.716 93.0007 250.9 92.8165C251.085 92.6324 251.189 92.3824 251.19 92.1215V83.6744C251.189 83.4131 251.085 83.1627 250.901 82.9779C250.716 82.7931 250.466 82.689 250.205 82.6882Z" fill="white"/>
<path d="M250.205 97.0828H241.774C241.514 97.0837 241.264 97.188 241.081 97.3729C240.897 97.5577 240.794 97.8081 240.794 98.069V106.512C240.793 106.642 240.818 106.77 240.868 106.889C240.917 107.009 240.989 107.118 241.08 107.209C241.171 107.301 241.279 107.373 241.398 107.423C241.517 107.473 241.645 107.498 241.774 107.498H250.205C250.466 107.498 250.717 107.394 250.901 107.209C251.086 107.025 251.19 106.774 251.19 106.512V98.069C251.189 97.8077 251.085 97.5573 250.901 97.3725C250.716 97.1877 250.466 97.0835 250.205 97.0828Z" fill="#F9BE06"/>
<path d="M250.205 111.477H241.774C241.514 111.478 241.264 111.583 241.081 111.767C240.897 111.952 240.794 112.203 240.794 112.464V120.907C240.793 121.036 240.818 121.164 240.868 121.284C240.917 121.403 240.989 121.512 241.08 121.604C241.171 121.695 241.279 121.768 241.398 121.818C241.517 121.867 241.645 121.893 241.774 121.893H250.205C250.466 121.893 250.717 121.789 250.901 121.604C251.086 121.419 251.19 121.168 251.19 120.907V112.464C251.189 112.202 251.085 111.952 250.901 111.767C250.716 111.582 250.466 111.478 250.205 111.477Z" fill="#E6E6E6"/>
<path d="M250.205 125.872H241.774C241.645 125.872 241.517 125.898 241.398 125.947C241.279 125.997 241.171 126.07 241.08 126.161C240.989 126.253 240.917 126.362 240.868 126.481C240.818 126.601 240.793 126.729 240.794 126.858V135.302C240.793 135.431 240.818 135.559 240.868 135.679C240.917 135.798 240.989 135.907 241.08 135.998C241.171 136.09 241.279 136.163 241.398 136.212C241.517 136.262 241.645 136.288 241.774 136.288H250.205C250.466 136.288 250.717 136.184 250.901 135.999C251.086 135.814 251.19 135.563 251.19 135.302V126.858C251.19 126.597 251.086 126.346 250.901 126.161C250.717 125.976 250.466 125.872 250.205 125.872Z" fill="white"/>
<path d="M267.908 68.2937H259.477C259.216 68.2946 258.967 68.3989 258.783 68.5838C258.599 68.7686 258.496 69.0189 258.496 69.2798V77.727C258.496 77.9875 258.6 78.2374 258.784 78.4216C258.967 78.6058 259.217 78.7093 259.477 78.7094H267.908C268.168 78.7095 268.418 78.6061 268.603 78.422C268.787 78.2378 268.891 77.9879 268.892 77.727V69.2798C268.891 69.0185 268.788 68.7681 268.603 68.5834C268.419 68.3986 268.169 68.2945 267.908 68.2937Z" fill="#F9BE06"/>
<path d="M267.908 82.6882H259.477C259.216 82.6891 258.967 82.7935 258.783 82.9783C258.599 83.1632 258.496 83.4135 258.496 83.6744V92.1215C258.496 92.3821 258.6 92.6319 258.784 92.8161C258.967 93.0003 259.217 93.1039 259.477 93.1039H267.908C268.168 93.104 268.418 93.0007 268.603 92.8165C268.787 92.6324 268.891 92.3824 268.892 92.1215V83.6744C268.892 83.4131 268.788 83.1627 268.603 82.9779C268.419 82.7931 268.169 82.689 267.908 82.6882Z" fill="#F9BE06"/>
<path d="M267.908 97.0828H259.477C259.216 97.0837 258.967 97.188 258.783 97.3729C258.599 97.5577 258.496 97.8081 258.496 98.069V106.512C258.496 106.642 258.521 106.77 258.57 106.889C258.619 107.009 258.691 107.118 258.782 107.209C258.874 107.301 258.982 107.373 259.101 107.423C259.22 107.473 259.348 107.498 259.477 107.498H267.908C268.169 107.498 268.419 107.394 268.604 107.209C268.788 107.025 268.892 106.774 268.892 106.512V98.069C268.891 97.8077 268.787 97.5573 268.603 97.3725C268.419 97.1877 268.169 97.0835 267.908 97.0828Z" fill="#E6E6E6"/>
<path d="M267.908 111.477H259.477C259.216 111.478 258.967 111.583 258.783 111.767C258.599 111.952 258.496 112.203 258.496 112.464V120.907C258.496 121.036 258.521 121.164 258.57 121.284C258.619 121.403 258.691 121.512 258.782 121.604C258.874 121.695 258.982 121.768 259.101 121.818C259.22 121.867 259.348 121.893 259.477 121.893H267.908C268.169 121.893 268.419 121.789 268.604 121.604C268.788 121.419 268.892 121.168 268.892 120.907V112.464C268.891 112.202 268.787 111.952 268.603 111.767C268.419 111.582 268.169 111.478 267.908 111.477Z" fill="white"/>
<path d="M267.908 125.872H259.477C259.348 125.872 259.22 125.898 259.101 125.947C258.982 125.997 258.874 126.07 258.782 126.161C258.691 126.253 258.619 126.362 258.57 126.481C258.521 126.601 258.496 126.729 258.496 126.858V135.302C258.496 135.431 258.521 135.559 258.57 135.679C258.619 135.798 258.691 135.907 258.782 135.998C258.874 136.09 258.982 136.163 259.101 136.212C259.22 136.262 259.348 136.288 259.477 136.288H267.908C268.169 136.288 268.419 136.184 268.604 135.999C268.788 135.814 268.892 135.563 268.892 135.302V126.858C268.892 126.597 268.788 126.346 268.604 126.161C268.419 125.976 268.169 125.872 267.908 125.872Z" fill="#F9BE06"/>
<path d="M285.611 68.2937H277.179C276.919 68.2946 276.67 68.3989 276.486 68.5838C276.302 68.7686 276.199 69.0189 276.199 69.2798V77.727C276.199 77.9875 276.302 78.2374 276.486 78.4216C276.67 78.6058 276.919 78.7093 277.179 78.7094H285.611C285.871 78.7095 286.121 78.6061 286.305 78.422C286.49 78.2378 286.594 77.9879 286.595 77.727V69.2798C286.594 69.0185 286.49 68.7681 286.306 68.5834C286.121 68.3986 285.871 68.2945 285.611 68.2937Z" fill="#F9BE06"/>
<path d="M285.611 82.6882H277.179C276.919 82.6891 276.67 82.7935 276.486 82.9783C276.302 83.1632 276.199 83.4135 276.199 83.6744V92.1215C276.199 92.3821 276.302 92.6319 276.486 92.8161C276.67 93.0003 276.919 93.1039 277.179 93.1039H285.611C285.871 93.104 286.121 93.0007 286.305 92.8165C286.49 92.6324 286.594 92.3824 286.595 92.1215V83.6744C286.594 83.4131 286.49 83.1627 286.306 82.9779C286.121 82.7931 285.871 82.689 285.611 82.6882Z" fill="#F9BE06"/>
<path d="M285.611 97.0828H277.179C276.919 97.0837 276.67 97.188 276.486 97.3729C276.302 97.5577 276.199 97.8081 276.199 98.069V106.512C276.199 106.642 276.224 106.77 276.273 106.889C276.322 107.009 276.394 107.118 276.485 107.209C276.576 107.301 276.684 107.373 276.804 107.423C276.923 107.473 277.05 107.498 277.179 107.498H285.611C285.872 107.498 286.122 107.394 286.306 107.209C286.491 107.025 286.595 106.774 286.595 106.512V98.069C286.594 97.8077 286.49 97.5573 286.306 97.3725C286.121 97.1877 285.871 97.0835 285.611 97.0828Z" fill="#E6E6E6"/>
<path d="M285.611 111.477H277.179C276.919 111.478 276.67 111.583 276.486 111.767C276.302 111.952 276.199 112.203 276.199 112.464V120.907C276.199 121.036 276.224 121.164 276.273 121.284C276.322 121.403 276.394 121.512 276.485 121.604C276.576 121.695 276.684 121.768 276.804 121.818C276.923 121.867 277.05 121.893 277.179 121.893H285.611C285.872 121.893 286.122 121.789 286.306 121.604C286.491 121.419 286.595 121.168 286.595 120.907V112.464C286.594 112.202 286.49 111.952 286.306 111.767C286.121 111.582 285.871 111.478 285.611 111.477Z" fill="#F9BE06"/>
<path d="M285.611 125.872H277.179C277.05 125.872 276.923 125.898 276.804 125.947C276.684 125.997 276.576 126.07 276.485 126.161C276.394 126.253 276.322 126.362 276.273 126.481C276.224 126.601 276.199 126.729 276.199 126.858V135.302C276.199 135.431 276.224 135.559 276.273 135.679C276.322 135.798 276.394 135.907 276.485 135.998C276.576 136.09 276.684 136.163 276.803 136.212C276.923 136.262 277.05 136.288 277.179 136.288H285.611C285.872 136.288 286.122 136.184 286.306 135.999C286.491 135.814 286.595 135.563 286.595 135.302V126.858C286.595 126.597 286.491 126.346 286.306 126.161C286.122 125.976 285.872 125.872 285.611 125.872Z" fill="#F9BE06"/>
<path d="M303.313 68.2937H294.882C294.622 68.2946 294.372 68.3989 294.188 68.5838C294.005 68.7686 293.901 69.0189 293.901 69.2798V77.727C293.902 77.9875 294.005 78.2374 294.189 78.4216C294.373 78.6058 294.622 78.7093 294.882 78.7094H303.313C303.574 78.7095 303.823 78.6061 304.008 78.422C304.192 78.2378 304.296 77.9879 304.297 77.727V69.2798C304.297 69.0185 304.193 68.7681 304.008 68.5834C303.824 68.3986 303.574 68.2945 303.313 68.2937Z" fill="#E6E6E6"/>
<path d="M303.313 82.6882H294.882C294.622 82.6891 294.372 82.7935 294.188 82.9783C294.005 83.1632 293.901 83.4135 293.901 83.6744V92.1215C293.902 92.3821 294.005 92.6319 294.189 92.8161C294.373 93.0003 294.622 93.1039 294.882 93.1039H303.313C303.574 93.104 303.823 93.0007 304.008 92.8165C304.192 92.6324 304.296 92.3824 304.297 92.1215V83.6744C304.297 83.4131 304.193 83.1627 304.008 82.9779C303.824 82.7931 303.574 82.689 303.313 82.6882Z" fill="#F9BE06"/>
<path d="M303.313 97.0828H294.882C294.622 97.0837 294.372 97.188 294.188 97.3729C294.005 97.5577 293.901 97.8081 293.901 98.069V106.512C293.901 106.642 293.926 106.77 293.975 106.889C294.024 107.009 294.097 107.118 294.188 107.209C294.279 107.301 294.387 107.373 294.506 107.423C294.625 107.473 294.753 107.498 294.882 107.498H303.313C303.574 107.498 303.824 107.394 304.009 107.209C304.194 107.025 304.297 106.774 304.297 106.512V98.069C304.297 97.8077 304.193 97.5573 304.008 97.3725C303.824 97.1877 303.574 97.0835 303.313 97.0828Z" fill="#F9BE06"/>
<path d="M303.313 111.477H294.882C294.622 111.478 294.372 111.583 294.188 111.767C294.005 111.952 293.901 112.203 293.901 112.464V120.907C293.901 121.036 293.926 121.164 293.975 121.284C294.024 121.403 294.097 121.512 294.188 121.604C294.279 121.695 294.387 121.768 294.506 121.818C294.625 121.867 294.753 121.893 294.882 121.893H303.313C303.574 121.893 303.824 121.789 304.009 121.604C304.194 121.419 304.297 121.168 304.297 120.907V112.464C304.297 112.202 304.193 111.952 304.008 111.767C303.824 111.582 303.574 111.478 303.313 111.477Z" fill="#F9BE06"/>
<path d="M303.313 125.872H294.882C294.753 125.872 294.625 125.898 294.506 125.947C294.387 125.997 294.279 126.07 294.188 126.161C294.097 126.253 294.024 126.362 293.975 126.481C293.926 126.601 293.901 126.729 293.901 126.858V135.302C293.901 135.431 293.926 135.559 293.975 135.679C294.024 135.798 294.097 135.907 294.188 135.998C294.279 136.09 294.387 136.163 294.506 136.212C294.625 136.262 294.753 136.288 294.882 136.288H303.313C303.574 136.288 303.824 136.184 304.009 135.999C304.194 135.814 304.297 135.563 304.297 135.302V126.858C304.297 126.597 304.194 126.346 304.009 126.161C303.824 125.976 303.574 125.872 303.313 125.872Z" fill="#E6E6E6"/>
<path d="M321.016 68.2937H312.585C312.324 68.2946 312.075 68.3989 311.891 68.5838C311.707 68.7686 311.604 69.0189 311.604 69.2798V77.727C311.604 77.9875 311.707 78.2374 311.891 78.4216C312.075 78.6058 312.325 78.7093 312.585 78.7094H321.016C321.276 78.7095 321.526 78.6061 321.71 78.422C321.895 78.2378 321.999 77.9879 322 77.727V69.2798C321.999 69.0185 321.895 68.7681 321.711 68.5834C321.526 68.3986 321.276 68.2945 321.016 68.2937Z" fill="#E6E6E6"/>
<path d="M321.016 82.6882H312.585C312.324 82.6891 312.075 82.7935 311.891 82.9783C311.707 83.1632 311.604 83.4135 311.604 83.6744V92.1215C311.604 92.3821 311.707 92.6319 311.891 92.8161C312.075 93.0003 312.325 93.1039 312.585 93.1039H321.016C321.276 93.104 321.526 93.0007 321.71 92.8165C321.895 92.6324 321.999 92.3824 322 92.1215V83.6744C321.999 83.4131 321.895 83.1627 321.711 82.9779C321.526 82.7931 321.276 82.689 321.016 82.6882Z" fill="#E6E6E6"/>
<path d="M321.016 97.0828H312.585C312.324 97.0837 312.075 97.188 311.891 97.3729C311.707 97.5577 311.604 97.8081 311.604 98.069V106.512C311.604 106.642 311.629 106.77 311.678 106.889C311.727 107.009 311.799 107.118 311.89 107.209C311.981 107.301 312.09 107.373 312.209 107.423C312.328 107.473 312.456 107.498 312.585 107.498H321.016C321.277 107.498 321.527 107.394 321.712 107.209C321.896 107.025 322 106.774 322 106.512V98.069C321.999 97.8077 321.895 97.5573 321.711 97.3725C321.526 97.1877 321.276 97.0835 321.016 97.0828Z" fill="#F9BE06"/>
<path d="M321.016 111.477H312.585C312.324 111.478 312.075 111.583 311.891 111.767C311.707 111.952 311.604 112.203 311.604 112.464V120.907C311.604 121.036 311.629 121.164 311.678 121.284C311.727 121.403 311.799 121.512 311.89 121.604C311.981 121.695 312.09 121.768 312.209 121.818C312.328 121.867 312.456 121.893 312.585 121.893H321.016C321.277 121.893 321.527 121.789 321.712 121.604C321.896 121.419 322 121.168 322 120.907V112.464C321.999 112.202 321.895 111.952 321.711 111.767C321.526 111.582 321.276 111.478 321.016 111.477Z" fill="#E6E6E6"/>
<path d="M321.016 125.872H312.585C312.456 125.872 312.328 125.898 312.209 125.947C312.09 125.997 311.981 126.07 311.89 126.161C311.799 126.253 311.727 126.362 311.678 126.481C311.629 126.601 311.604 126.729 311.604 126.858V135.302C311.604 135.431 311.629 135.559 311.678 135.679C311.727 135.798 311.799 135.907 311.89 135.998C311.981 136.09 312.09 136.163 312.209 136.212C312.328 136.262 312.456 136.288 312.585 136.288H321.016C321.277 136.288 321.527 136.184 321.712 135.999C321.896 135.814 322 135.563 322 135.302V126.858C322 126.597 321.896 126.346 321.712 126.161C321.527 125.976 321.277 125.872 321.016 125.872Z" fill="#E6E6E6"/>
<path d="M127.24 250.361H127.005L127.206 250.334L127.24 250.361Z" fill="#2F2E41"/>
<path d="M107.069 92.9504C121.354 92.9504 132.934 81.348 132.934 67.0356C132.934 52.7233 121.354 41.1208 107.069 41.1208C92.7838 41.1208 81.2034 52.7233 81.2034 67.0356C81.2034 81.348 92.7838 92.9504 107.069 92.9504Z" fill="#FFB6B6"/>
<path d="M129.72 48.0352C129.72 48.0352 136.485 35.0778 121.602 33.8999C121.602 33.8999 108.914 22.3681 95.981 31.7917C95.981 31.7917 88.9268 31.7917 85.0693 39.7896C85.0693 39.7896 79.5211 37.6814 78.3019 43.3234C78.3019 43.3234 74.2421 55.1029 78.3019 65.7044C82.3616 76.3059 83.7101 77.4838 83.7101 77.4838C83.7101 77.4838 77.0391 55.2572 93.2769 54.0792C109.515 52.9013 127.685 42.7345 129.038 55.6918C130.392 68.6492 132.428 71.8418 132.428 71.8418C132.428 71.8418 145.281 53.336 129.72 48.0352Z" fill="#2F2E41"/>
<path d="M173.978 130.902L173.894 131.342L172.959 136.288L166.497 170.501L166.114 172.515L165.312 176.775L164.214 182.586L161.78 195.463L161.083 199.154L160.822 200.538L160.731 201.024L160.008 204.843L159.788 205.996L158.024 219.094L156.483 230.507L161.639 235.673L158.565 238.753L156.548 250.333L156.551 250.36H74.198C70.8664 248.198 67.5828 245.969 64.3472 243.673L65.0249 238.59C65.0249 238.59 67.3569 229.513 66.3764 228.428C65.3997 227.344 63.2568 225.405 63.2568 225.405L65.9562 219.094L66.331 218.218L65.7025 205.158L65.6874 204.843L65.4792 200.538L65.4527 199.984L65.411 199.154L64.6122 182.586L64.5971 182.313L64.3548 177.291L64.1276 172.515L64.0292 170.501L63.0563 150.349L62.3975 136.663L61.8221 124.749L64.1352 123.964L88.8757 115.54L99.1239 102.192L120.453 102.351L130.895 102.431L148.317 118.62L152.281 120.516L152.311 120.532L155.154 121.893L162.363 125.341L169.984 128.99L173.894 130.86L173.978 130.902Z" fill="#CACACA"/>
<path d="M101.88 211.482C100.317 212.088 98.6405 212.344 96.9681 212.231C95.2957 212.119 93.6683 211.64 92.2005 210.829C90.7328 210.017 89.4604 208.894 88.473 207.537C87.4856 206.18 86.8072 204.622 86.4856 202.974L46.1442 197.24L60.168 181.346L96.3269 189.228C99.1264 188.87 101.96 189.554 104.29 191.149C106.62 192.744 108.285 195.14 108.969 197.883C109.654 200.627 109.31 203.526 108.004 206.032C106.697 208.538 104.518 210.477 101.88 211.482V211.482Z" fill="#FFB6B6"/>
<path d="M83.8934 182.586C83.1461 181.636 82.0882 180.982 80.9064 180.738L64.3547 177.291L62.6549 176.938C61.667 176.731 60.7338 176.318 59.9163 175.725C59.0989 175.132 58.4156 174.373 57.9112 173.497C57.388 172.578 57.0714 171.556 56.9837 170.501C56.9048 169.542 57.0193 168.577 57.3206 167.664L63.0561 150.349L66.7776 139.114C67.2286 137.759 67.4948 136.349 67.5689 134.922C67.7762 130.975 66.5572 127.085 64.1351 123.964C62.0057 121.221 59.0522 119.238 55.711 118.306C52.3698 117.374 48.8182 117.544 45.5807 118.79C45.486 118.825 45.3876 118.862 45.293 118.9C42.9712 119.829 40.8969 121.286 39.2339 123.157C37.5709 125.027 36.3649 127.259 35.711 129.676L31.6677 144.412L23.3275 174.791C22.4926 177.835 22.324 181.023 22.8331 184.138C23.3422 187.253 24.517 190.221 26.2772 192.839C28.0374 195.457 30.3413 197.663 33.0314 199.306C35.7214 200.949 38.734 201.99 41.863 202.359L65.7024 205.158L76.7343 206.455C78.01 206.609 79.2966 206.275 80.3378 205.521C81.379 204.767 82.0984 203.647 82.3525 202.385C82.3704 202.317 82.3843 202.247 82.3942 202.177L82.6592 200.538L84.9042 186.739L84.9269 186.599C85.0439 185.895 85.0124 185.174 84.8343 184.482C84.6563 183.791 84.3358 183.145 83.8934 182.586Z" fill="#CACACA"/>
<path d="M127.576 211.924C129.209 212.304 130.905 212.32 132.545 211.972C134.185 211.624 135.728 210.92 137.067 209.91C138.406 208.899 139.508 207.607 140.294 206.124C141.081 204.641 141.533 203.003 141.62 201.326L180.751 189.949L164.63 176.196L129.942 189.108C127.12 189.149 124.411 190.226 122.329 192.135C120.247 194.043 118.936 196.651 118.644 199.463C118.352 202.276 119.101 205.098 120.747 207.394C122.393 209.691 124.823 211.302 127.576 211.924V211.924Z" fill="#FFB6B6"/>
<path d="M200.179 164.5L181.568 121.586C180.046 118.063 177.327 115.194 173.894 113.488C172.833 112.964 171.719 112.557 170.57 112.274C170.392 112.228 170.214 112.187 170.036 112.153C167.601 111.62 165.075 111.667 162.662 112.289C160.455 112.857 158.393 113.885 156.609 115.305C154.826 116.725 153.361 118.506 152.311 120.531C152.3 120.548 152.289 120.566 152.281 120.585C151.108 122.858 150.484 125.376 150.459 127.936C150.435 130.495 151.011 133.025 152.141 135.321L152.372 135.783L165.524 162.247C165.973 163.152 166.226 164.142 166.266 165.152C166.307 166.162 166.133 167.169 165.758 168.107C165.383 169.045 164.814 169.893 164.088 170.595C163.363 171.297 162.497 171.838 161.549 172.181L160.625 172.515L144.013 178.527C142.766 178.973 141.741 179.886 141.152 181.073C140.564 182.261 140.459 183.632 140.859 184.896L140.901 185.028L145.557 199.958C145.58 200.026 145.603 200.094 145.629 200.163C145.67 200.291 145.721 200.417 145.78 200.538C146.275 201.65 147.15 202.549 148.247 203.072C149.344 203.596 150.592 203.71 151.766 203.394L160.731 201.024L162.559 200.538L185.71 194.412C188.756 193.606 191.592 192.149 194.024 190.143C196.456 188.136 198.427 185.626 199.801 182.786C201.175 179.945 201.92 176.841 201.986 173.685C202.051 170.528 201.435 167.396 200.179 164.5L200.179 164.5Z" fill="#CACACA"/>
<path d="M16.9977 200.538C22.3624 207.094 28.1481 213.292 34.3179 219.094H205.426C207.075 219.096 208.655 219.754 209.821 220.922C210.986 222.09 211.641 223.674 211.643 225.326L211.889 268.767C222.415 263.922 232.273 257.735 241.218 250.36C243.701 248.315 246.108 246.182 248.437 243.961C249.963 242.512 251.452 241.028 252.905 239.508C263.794 228.142 272.612 214.953 278.959 200.538H16.9977Z" fill="#3F3D56"/>
<path d="M252.905 239.508C251.455 241.029 249.966 242.513 248.437 243.961H212.014V239.508H252.905Z" fill="white"/>
<path d="M173.637 97.0829C173.457 96.7501 173.191 96.4723 172.866 96.2786C172.541 96.085 172.171 95.9828 171.793 95.9829H47.6781C47.1217 95.9844 46.5884 96.2067 46.1953 96.6013C45.8022 96.9959 45.5812 97.5305 45.5807 98.088V172.515H173.894V98.088C173.896 97.7364 173.807 97.3901 173.637 97.0829Z" fill="#3F3D56"/>
<path d="M45.4684 170.5V179.684C45.4684 180.065 45.5432 180.442 45.6887 180.794C45.8341 181.146 46.0472 181.465 46.316 181.735C46.5847 182.004 46.9037 182.217 47.2548 182.363C47.6059 182.509 47.9822 182.584 48.3622 182.584H95.7218V200.709H95.0927C95.0433 200.709 94.9944 200.719 94.9488 200.738C94.9032 200.757 94.8617 200.785 94.8268 200.82C94.7919 200.855 94.7642 200.896 94.7453 200.942C94.7265 200.988 94.7167 201.037 94.7167 201.086V202.347C94.7167 202.396 94.7264 202.445 94.7453 202.491C94.7642 202.537 94.7919 202.578 94.8268 202.613C94.8617 202.648 94.9032 202.676 94.9488 202.695C94.9944 202.714 95.0433 202.723 95.0927 202.723H124.493C124.542 202.723 124.591 202.714 124.637 202.695C124.682 202.676 124.724 202.648 124.759 202.613C124.794 202.578 124.821 202.537 124.84 202.491C124.859 202.445 124.869 202.396 124.869 202.347V201.086C124.869 201.037 124.859 200.988 124.84 200.942C124.821 200.896 124.794 200.855 124.759 200.82C124.724 200.785 124.682 200.757 124.637 200.738C124.591 200.719 124.542 200.709 124.493 200.709H123.864V182.584H171.223C171.603 182.584 171.98 182.509 172.331 182.363C172.682 182.217 173.001 182.004 173.27 181.735C173.538 181.465 173.751 181.146 173.897 180.794C174.042 180.442 174.117 180.065 174.117 179.684V170.5H45.4684Z" fill="#3F3D56"/>
<path d="M108.238 144.139C114.784 144.139 120.09 138.823 120.09 132.265C120.09 125.707 114.784 120.39 108.238 120.39C101.693 120.39 96.3862 125.707 96.3862 132.265C96.3862 138.823 101.693 144.139 108.238 144.139Z" fill="#F9BE06"/>
<path d="M138.436 65.6196H136.543C136.543 51.2819 122.38 41.8865 108.093 41.8789C106.014 41.8729 103.941 42.0749 101.903 42.482C99.6085 42.941 97.2272 43.491 94.8875 44.2079C85.6614 47.0413 77.1054 52.5184 77.1054 65.6196C77.1035 68.1639 77.4266 70.6981 78.0671 73.1602L76.2347 73.6381C75.5551 71.0197 75.2116 68.3251 75.2125 65.6196C75.2125 54.1722 79.9032 46.3092 88.0049 41.621C92.2639 39.1555 97.4619 37.5662 103.417 36.7925C105.895 36.4622 108.4 36.3859 110.894 36.5649C127.325 37.7483 138.436 50.3716 138.436 65.6196Z" fill="#F9BE06"/>
<path d="M141.59 66.6701L140.844 61.1474C140.66 59.7527 139.989 58.4682 138.951 57.5213C138.284 56.904 137.486 56.4466 136.617 56.1837C135.748 55.9209 134.831 55.8594 133.935 56.0041L132.75 56.1672C132.425 56.2099 132.113 56.3168 131.83 56.4815C131.547 56.6462 131.3 56.8656 131.103 57.1268C130.904 57.3871 130.758 57.6844 130.674 58.0015C130.59 58.3185 130.57 58.6491 130.614 58.974L132.337 71.6959C132.408 72.2144 132.64 72.6974 133 73.0766C133.36 73.4558 133.83 73.7119 134.343 73.8086C134.496 73.8392 134.65 73.8544 134.805 73.8541C134.917 73.8541 135.028 73.8465 135.139 73.8314L136.464 73.6531C137.271 73.5457 138.049 73.2739 138.748 72.8545C139.447 72.4351 140.053 71.8769 140.53 71.2142C140.632 71.07 140.73 70.9221 140.821 70.7704C141.531 69.5293 141.801 68.0846 141.59 66.6701Z" fill="#F9BE06"/>
<path d="M131.985 56.3987C131.637 56.5679 131.335 56.8175 131.103 57.1269C130.904 57.3873 130.758 57.6846 130.674 58.0016C130.59 58.3187 130.57 58.6492 130.614 58.9742L132.337 71.696C132.408 72.2146 132.64 72.6976 133 73.0767C133.36 73.4559 133.83 73.712 134.343 73.8088L131.985 56.3987Z" fill="white"/>
<path d="M141.59 66.6701L140.844 61.1474C140.66 59.7527 139.989 58.4682 138.951 57.5212L140.666 70.1786C140.692 70.3818 140.744 70.5808 140.821 70.7704C141.531 69.5292 141.802 68.0845 141.59 66.6701Z" fill="#3F3D56"/>
<path d="M135.695 70.6492C136.213 70.5788 136.474 69.3438 136.277 67.8907C136.08 66.4377 135.501 65.3168 134.983 65.3872C134.465 65.4576 134.204 66.6926 134.401 68.1457C134.598 69.5988 135.177 70.7196 135.695 70.6492Z" fill="#3F3D56"/>
<path d="M134.559 63.8219C135.077 63.7515 135.338 62.5164 135.141 61.0633C134.944 59.6103 134.365 58.4894 133.847 58.5598C133.329 58.6302 133.069 59.8652 133.265 61.3183C133.462 62.7714 134.041 63.8923 134.559 63.8219Z" fill="#3F3D56"/>
<path d="M141.753 66.4769C142.271 66.4065 142.531 65.1715 142.334 63.7184C142.137 62.2653 141.558 61.1444 141.04 61.2148C140.522 61.2852 140.262 62.5202 140.458 63.9733C140.655 65.4264 141.235 66.5473 141.753 66.4769Z" fill="#3F3D56"/>
<path d="M108.093 41.8789C106.014 41.8729 103.941 42.0749 101.903 42.482C99.6084 42.941 97.2271 43.491 94.8875 44.2079C91.2341 44.0296 88.5462 43.0813 88.0048 41.621C92.2639 39.1555 97.4619 37.5662 103.417 36.7925C105.895 36.4622 108.4 36.3859 110.894 36.5649C111.158 36.7199 111.386 36.9292 111.564 37.1789C111.741 37.4287 111.864 37.7132 111.924 38.0138C112.102 39.3338 110.599 40.7372 108.093 41.8789Z" fill="#3F3D56"/>
<path d="M83.9237 78.7815L81.0087 66.64C80.9047 66.2019 80.6739 65.8044 80.3452 65.4974C80.0165 65.1903 79.6046 64.9874 79.1612 64.9141C79.0359 64.8946 78.9094 64.8845 78.7826 64.8838C78.604 64.8844 78.4261 64.9061 78.2526 64.9483L77.1244 65.2214C75.6718 65.5733 74.418 66.4883 73.6379 67.7654C72.8579 69.0426 72.6155 70.5776 72.9638 72.0337L74.2699 77.4805C74.5681 78.7628 75.2783 79.9115 76.2915 80.7501C76.4557 80.8829 76.6276 81.0057 76.8064 81.118C77.441 81.5165 78.1488 81.7836 78.8881 81.9035C79.6274 82.0233 80.3832 81.9936 81.1109 81.816L82.2353 81.5429C82.5326 81.4734 82.8123 81.3429 83.0568 81.1598C83.4204 80.8942 83.697 80.5262 83.8513 80.1027C84.0057 79.6793 84.0309 79.2194 83.9237 78.7815Z" fill="#F9BE06"/>
<path d="M77.8125 76.5223C78.3207 76.3998 78.4551 75.1447 78.1127 73.719C77.7702 72.2933 77.0807 71.2369 76.5725 71.3594C76.0643 71.482 75.9299 72.7371 76.2723 74.1627C76.6147 75.5884 77.3043 76.6449 77.8125 76.5223Z" fill="#3F3D56"/>
<path d="M74.0267 77.6602C74.5349 77.5377 74.6693 76.2826 74.3269 74.857C73.9844 73.4313 73.2949 72.3749 72.7866 72.4974C72.2784 72.6199 72.144 73.875 72.4865 75.3007C72.8289 76.7264 73.5185 77.7828 74.0267 77.6602Z" fill="#3F3D56"/>
<path d="M84.1093 78.7358L81.1942 66.5942C81.0806 66.1203 80.83 65.6904 80.4738 65.3585C80.1175 65.0265 79.6715 64.8072 79.1915 64.728L83.1704 81.3112C83.5633 81.0229 83.8622 80.6244 84.0293 80.166C84.1964 79.7077 84.2242 79.21 84.1093 78.7358Z" fill="white"/>
<path d="M73.6225 69.6288C73.542 69.2911 73.3911 68.9744 73.1795 68.6995C72.7697 69.7627 72.6945 70.9262 72.9637 72.0336L74.2699 77.4804C74.5681 78.7627 75.2783 79.9114 76.2915 80.75L73.6225 69.6288Z" fill="#3F3D56"/>
</g>
<defs>
<clipPath id="clip0_943:13425">
<rect width="322" height="281" fill="white"/>
</clipPath>
</defs>
</svg>
